<svg width="27" height="27" viewBox="0 0 27 27" fill="none" xmlns="http://www.w3.org/2000/svg">
<path d="M10.2892 10.2083C10.4807 9.61564 10.8325 9.08762 11.3057 8.6827C11.7789 8.27777 12.3549 8.01176 12.97 7.91414C13.585 7.81652 14.2151 7.89111 14.7904 8.12963C15.3657 8.36815 15.8637 8.7613 16.2292 9.2655C16.5952 9.76897 16.8149 10.3639 16.8639 10.9844C16.9129 11.6049 16.7893 12.2269 16.5068 12.7815C16.2244 13.3362 15.794 13.8019 15.2634 14.1273C14.7327 14.4526 14.1224 14.6249 13.5 14.625V15.75M13.5 23.625C12.1704 23.625 10.8538 23.3631 9.62533 22.8543C8.39691 22.3455 7.28074 21.5996 6.34054 20.6595C5.40035 19.7193 4.65455 18.6031 4.14572 17.3747C3.63689 16.1462 3.375 14.8296 3.375 13.5C3.375 12.1704 3.63689 10.8538 4.14572 9.62533C4.65455 8.39691 5.40035 7.28074 6.34054 6.34054C7.28074 5.40035 8.39691 4.65455 9.62533 4.14572C10.8538 3.63689 12.1704 3.375 13.5 3.375C16.1853 3.375 18.7606 4.44174 20.6595 6.34054C22.5583 8.23935 23.625 10.8147 23.625 13.5C23.625 16.1853 22.5583 18.7606 20.6595 20.6595C18.7606 22.5583 16.1853 23.625 13.5 23.625ZM13.5563 19.125V19.2375H13.4437V19.125H13.5563Z" stroke="#3373CC" stroke-width="2.25" stroke-linecap="round" stroke-linejoin="round"/>
</svg>
