<svg width="27" height="27" viewBox="0 0 27 27" fill="none" xmlns="http://www.w3.org/2000/svg">
<path d="M13.5 23.625C12.0791 22.413 10.762 21.0842 9.5625 19.6527C7.7625 17.5028 5.625 14.301 5.625 11.25C5.62422 9.69187 6.0857 8.16849 6.95103 6.8727C7.81636 5.5769 9.04666 4.56693 10.4862 3.97061C11.9257 3.3743 13.5098 3.21843 15.038 3.52275C16.5662 3.82706 17.9697 4.57787 19.071 5.68017C19.8042 6.41013 20.3854 7.27827 20.7809 8.23434C21.1764 9.1904 21.3783 10.2154 21.375 11.25C21.375 14.301 19.2375 17.5028 17.4375 19.6527C16.238 21.0842 14.9209 22.413 13.5 23.625ZM13.5 7.87504C12.6049 7.87504 11.7465 8.23062 11.1135 8.86356C10.4806 9.49649 10.125 10.3549 10.125 11.25C10.125 12.1451 10.4806 13.0036 11.1135 13.6365C11.7465 14.2695 12.6049 14.625 13.5 14.625C14.3951 14.625 15.2536 14.2695 15.8865 13.6365C16.5194 13.0036 16.875 12.1451 16.875 11.25C16.875 10.3549 16.5194 9.49649 15.8865 8.86356C15.2536 8.23062 14.3951 7.87504 13.5 7.87504Z" fill="#3373CC"/>
</svg>
