<svg width="25" height="24" viewBox="0 0 25 24" fill="none" xmlns="http://www.w3.org/2000/svg">
<path d="M21.7649 8.26908L21.3532 8.03958L21.2261 7.96758C20.9194 7.78351 20.661 7.52898 20.4723 7.22508C20.4521 7.19471 20.4341 7.16208 20.3981 7.09908C20.1555 6.70975 20.0377 6.25559 20.0606 5.79746L20.0673 5.31933C20.0808 4.55433 20.0876 4.16958 19.9796 3.82533C19.884 3.51904 19.7241 3.23673 19.5104 2.99733C19.2697 2.72733 18.9356 2.53383 18.2662 2.14908L17.7104 1.82846C17.0444 1.44483 16.7103 1.25246 16.3559 1.17933C16.0428 1.11455 15.7195 1.11723 15.4076 1.18721C15.0554 1.26596 14.7258 1.46396 14.0677 1.85771L14.0643 1.85996L13.6661 2.09733C13.6031 2.13558 13.5704 2.15358 13.5389 2.17158C13.2262 2.34596 12.8774 2.44158 12.5186 2.45283C12.4826 2.45508 12.4454 2.45508 12.3723 2.45508L12.2261 2.45396C11.8671 2.44252 11.516 2.34531 11.2023 2.17046C11.1708 2.15358 11.1404 2.13446 11.0774 2.09621L10.6758 1.85546C10.0132 1.45721 9.68131 1.25921 9.32693 1.17933C9.01379 1.10924 8.68928 1.10694 8.37518 1.17258C8.01968 1.24683 7.68668 1.44033 7.01956 1.82733L7.01618 1.82846L6.46718 2.14683L6.46156 2.15133C5.80006 2.53383 5.46818 2.72733 5.22968 2.99621C5.01715 3.23515 4.85798 3.51666 4.76281 3.82196C4.65593 4.16733 4.66156 4.55208 4.67506 5.32158L4.68293 5.79858C4.68293 5.87171 4.68631 5.90771 4.68518 5.94258C4.67936 6.35132 4.56229 6.75074 4.34656 7.09796C4.30943 7.16096 4.29256 7.19246 4.27343 7.22171C4.08375 7.5279 3.82333 7.78408 3.51406 7.96871L3.38806 8.03958L2.98193 8.26458C2.30468 8.63921 1.96606 8.82708 1.72081 9.09483C1.50276 9.33089 1.33781 9.61093 1.23706 9.91608C1.12456 10.2615 1.12456 10.6473 1.12568 11.4213L1.12793 12.0547C1.12906 12.8231 1.13131 13.2067 1.24493 13.5498C1.34527 13.8531 1.50902 14.1315 1.72531 14.3666C1.97056 14.6321 2.30581 14.8188 2.97743 15.1923L3.38018 15.4162C3.44881 15.4545 3.48368 15.4725 3.51631 15.4927C3.86885 15.704 4.15677 16.0079 4.34881 16.3713L4.42418 16.5063C4.61421 16.8651 4.70362 17.2686 4.68293 17.6741L4.67506 18.132C4.66156 18.9037 4.65593 19.2907 4.76393 19.6361C4.85956 19.9421 5.01931 20.2245 5.23306 20.4641C5.47381 20.7341 5.80906 20.9265 6.47731 21.3123L7.03306 21.633C7.70018 22.0166 8.03318 22.209 8.38756 22.2821C8.70065 22.3469 9.02396 22.3442 9.33593 22.2742C9.68918 22.1955 10.0188 21.9975 10.6792 21.6015L11.0774 21.363L11.2046 21.2887C11.5173 21.1155 11.8661 21.0187 12.2249 21.0075L12.3712 21.0063H12.5174C12.8752 21.0176 13.2262 21.1155 13.5412 21.2898L13.6447 21.3517L14.0677 21.606C14.7314 22.0042 15.0622 22.2022 15.4166 22.281C15.7295 22.3518 16.054 22.3549 16.3683 22.29C16.7227 22.2157 17.0579 22.0211 17.7251 21.6341L18.2819 21.3112C18.9434 20.9265 19.2753 20.7341 19.5138 20.4652C19.7276 20.2256 19.8851 19.9443 19.9807 19.6395C20.0876 19.2963 20.0819 18.915 20.0684 18.1567L20.0594 17.6617V17.5188C20.0647 17.1098 20.1814 16.71 20.3969 16.3623L20.4701 16.2386C20.6597 15.9324 20.9202 15.6762 21.2294 15.4916L21.3532 15.423L21.3554 15.4218L21.7616 15.1968C22.4388 14.8211 22.7774 14.6343 23.0238 14.3666C23.2421 14.1303 23.4063 13.8491 23.5064 13.5453C23.6189 13.2022 23.6189 12.8175 23.6167 12.0525L23.6144 11.4067C23.6133 10.6383 23.6122 10.2536 23.4986 9.91046C23.3977 9.6075 23.2336 9.32946 23.0171 9.09483C22.7729 8.82933 22.4377 8.64258 21.7672 8.27021L21.7649 8.26908Z" stroke="#3373CC" stroke-width="2.25" stroke-linecap="round" stroke-linejoin="round"/>
<path d="M7.87109 11.731C7.87109 12.9244 8.3452 14.069 9.18911 14.9129C10.033 15.7569 11.1776 16.231 12.3711 16.231C13.5646 16.231 14.7092 15.7569 15.5531 14.9129C16.397 14.069 16.8711 12.9244 16.8711 11.731C16.8711 10.5375 16.397 9.39289 15.5531 8.54898C14.7092 7.70506 13.5646 7.23096 12.3711 7.23096C11.1776 7.23096 10.033 7.70506 9.18911 8.54898C8.3452 9.39289 7.87109 10.5375 7.87109 11.731Z" stroke="#3373CC" stroke-width="2.25" stroke-linecap="round" stroke-linejoin="round"/>
</svg>
