<svg width="94" height="92" viewBox="0 0 94 92" fill="none" xmlns="http://www.w3.org/2000/svg">
<path d="M15.4334 27.3663C15.0671 24.7672 15.2666 24.638 14.9182 24.4856C14.5955 24.3574 14.4921 24.6588 14.0803 24.8612C13.6923 25.0517 13.6112 24.8548 13.3741 25.0354C13.3008 25.1012 13.2538 25.1914 13.242 25.2893C13.1429 26.3471 13.1954 27.4136 13.3979 28.4566C13.3857 28.4898 13.3826 28.5257 13.3889 28.5605C13.3953 28.5953 13.4108 28.6278 13.434 28.6546C13.7034 29.0742 14.1142 29.3834 14.5921 29.5261C14.7018 29.5614 14.8179 29.5721 14.9322 29.5574C15.0465 29.5427 15.1562 29.503 15.2534 29.4411C15.3506 29.3792 15.4329 29.2966 15.4946 29.1992C15.5562 29.1019 15.5957 28.9921 15.61 28.8777C15.6212 28.3682 15.5617 27.8596 15.4334 27.3663Z" fill="#3373CC"/>
<path d="M12.7378 22.8019C12.5923 23.6793 13.8414 24.0332 14.4496 23.4665C14.6867 23.2458 14.5139 22.9474 14.2101 23.0533C14.0121 23.1231 13.2604 23.0226 13.1802 22.7603C13.0971 22.4857 12.7892 22.4896 12.7378 22.8019Z" fill="#191919"/>
<path d="M13.7231 21.1831C13.7231 21.3238 13.7581 21.4588 13.8204 21.5583C13.8827 21.6577 13.9671 21.7136 14.0552 21.7136C14.1433 21.7136 14.2278 21.6577 14.29 21.5583C14.3523 21.4588 14.3873 21.3238 14.3873 21.1831C14.3873 21.0424 14.3523 20.9075 14.29 20.808C14.2278 20.7085 14.1433 20.6526 14.0552 20.6526C13.9671 20.6526 13.8827 20.7085 13.8204 20.808C13.7581 20.9075 13.7231 21.0424 13.7231 21.1831Z" fill="#191919"/>
<path d="M15.4673 33.3277C15.5762 33.7652 15.9414 35.6537 16.3656 35.5493C16.8323 35.4464 16.3532 33.8137 16.1617 33.059C16.085 32.7561 15.838 31.8148 15.7306 31.5526C15.5213 31.0859 15.3936 30.7177 15.1561 30.7919C14.7319 30.9117 15.1937 32.2266 15.4673 33.3277Z" fill="#3373CC"/>
<path d="M18.5209 32.7972C18.7535 33.345 18.9356 33.9107 19.1435 34.4521C19.4072 35.1405 19.5092 35.388 19.7423 35.3311C20.2985 35.195 19.4241 33.0343 19.2033 32.5102C18.9712 31.9361 18.6867 31.3846 18.3536 30.8627C18.1171 30.5504 17.7394 30.0441 17.5158 30.2045C17.1886 30.4123 17.8587 31.2363 18.5209 32.7972Z" fill="#3373CC"/>
<path d="M9.42221 43.4004C9.53591 41.4309 9.76361 39.4696 10.1042 37.5265C10.1159 37.4649 10.1029 37.4011 10.0679 37.3491C10.033 37.297 9.97885 37.2609 9.91737 37.2485C9.85589 37.2361 9.79201 37.2485 9.7396 37.2829C9.6872 37.3174 9.6505 37.3711 9.63749 37.4324C9.23877 39.3849 8.9629 41.3604 8.81151 43.3474C8.81151 43.9096 8.92781 43.5122 10.8708 46.6394C11.4572 47.5688 12.009 48.5146 12.5465 49.4633L8.84715 53.3294C1.84986 49.7488 -1.22838 43.3835 2.03495 36.0215C3.27218 33.2006 5.26808 31.2027 7.47035 29.0326C7.50519 28.9977 7.53269 28.9561 7.55122 28.9104C7.56975 28.8647 7.57894 28.8157 7.57824 28.7664C7.52083 26.43 7.32486 23.6502 7.93753 21.3702C8.09023 20.7385 8.29857 20.1216 8.56011 19.5267C10.2774 15.8962 15.0684 15.4463 15.2907 17.7916C15.2931 17.8199 15.301 17.8475 15.3141 17.8727C15.3271 17.8979 15.345 17.9204 15.3667 17.9387C15.3884 17.957 15.4135 17.9708 15.4406 17.9794C15.4677 17.9881 15.4962 17.9912 15.5245 17.9888C15.5528 17.9864 15.5803 17.9785 15.6056 17.9654C15.6308 17.9524 15.6532 17.9345 15.6715 17.9128C15.6898 17.8911 15.7037 17.8659 15.7123 17.8389C15.7209 17.8118 15.7241 17.7833 15.7217 17.755C15.5668 15.5775 12.7231 15.4132 10.7654 16.396C9.55125 17.0191 8.56845 18.0144 7.96079 19.2362C6.51373 22.121 6.7775 25.848 6.84728 28.6253C5.55456 29.842 4.35411 31.1531 3.25585 32.5479C0.231556 36.5411 -1.0423 41.8865 0.982804 46.5251C2.3596 49.6806 5.10081 52.2847 8.7645 54.097C8.83291 54.1314 8.91054 54.1429 8.98599 54.1299C9.06144 54.1169 9.13073 54.08 9.18367 54.0247C9.73399 53.461 12.4277 50.6164 13.2418 49.7622C13.2929 49.7065 13.3251 49.6361 13.334 49.5611C13.3429 49.4861 13.3279 49.4101 13.2913 49.344C12.1522 47.2687 10.8589 45.2819 9.42221 43.4004Z" fill="#191919"/>
<path d="M27.344 36.5149C26.4967 34.7768 26.5601 34.9213 26.1107 34.1151C23.9604 30.399 20.8891 26.6833 16.6182 27.1604C16.5379 26.1003 16.3734 25.0483 16.1263 24.0144C16.0749 23.8726 16.0196 23.7324 15.9605 23.5937C16.0189 23.362 16.0543 23.1251 16.0664 22.8865L16.9042 22.5401C16.9912 22.5 17.0589 22.4272 17.0925 22.3375C17.1261 22.2478 17.123 22.1484 17.0839 22.061C16.2534 20.1364 15.7392 18.8972 14.5936 17.4877C14.5305 17.395 14.4403 17.324 14.3353 17.2845C14.2303 17.245 14.1157 17.2389 14.0071 17.267C13.5456 17.4601 13.1326 17.7532 12.7981 18.1251C12.1754 18.9178 11.8009 19.8768 11.7217 20.8817C11.718 20.9239 11.7219 20.9665 11.7331 21.0074C11.1966 23.0548 11.503 25.2768 12.1409 27.2777C12.2987 27.7163 12.5431 28.1186 12.8595 28.4608C13.176 28.803 13.558 29.0781 13.9829 29.2696C15.5581 30.0229 15.9902 28.9683 15.372 27.5083C15.351 27.4479 15.3068 27.3984 15.2492 27.3706C15.1916 27.3428 15.1253 27.339 15.065 27.3601C15.0046 27.3812 14.955 27.4254 14.9272 27.4829C14.8995 27.5405 14.8957 27.6068 14.9167 27.6672C14.9865 27.9057 15.131 28.6649 14.9529 28.8391C14.8277 28.9326 13.2603 28.3442 12.8456 27.0575C12.2262 25.1889 12.0315 23.2057 12.276 21.2524C12.7104 21.1624 13.1233 20.9897 13.4924 20.7436C14.1333 20.3869 14.6493 19.8421 14.9707 19.1827C15.3171 19.9117 15.2513 19.6984 16.2698 22.0086L15.5517 22.2981C15.4864 22.3276 15.4311 22.3754 15.3925 22.4358C15.3539 22.4961 15.3337 22.5664 15.3344 22.6381C15.3344 23.8753 14.7302 24.7904 13.5147 25.0012C13.4392 25.013 13.3698 25.0498 13.3177 25.1057C13.2655 25.1616 13.2337 25.2333 13.2272 25.3095C13.1593 26.0085 13.1795 26.7133 13.2871 27.4074C13.2943 27.4695 13.3254 27.5263 13.3738 27.5659C13.4223 27.6054 13.4842 27.6245 13.5465 27.6192C13.6088 27.6138 13.6666 27.5845 13.7076 27.5372C13.7486 27.49 13.7696 27.4287 13.7661 27.3663C13.7634 26.7902 13.8034 26.2147 13.8859 25.6445C14.5391 25.5073 15.1172 25.1304 15.5062 24.588C15.565 24.9458 15.665 25.6921 15.9451 26.9179C16.0401 27.2396 16.1272 27.6494 16.4039 27.5855C16.5276 27.6558 16.6894 27.5558 17.6688 27.7137C22.2847 28.456 24.5612 33.0308 26.9233 36.7465C26.9379 36.7743 26.958 36.7989 26.9823 36.8188C27.0067 36.8387 27.0348 36.8534 27.065 36.8622C27.0952 36.8709 27.1268 36.8734 27.158 36.8696C27.1892 36.8658 27.2193 36.8558 27.2465 36.84C27.3011 36.8085 27.3417 36.7572 27.3598 36.6968C27.3779 36.6364 27.3723 36.5713 27.344 36.5149Z" fill="#191919"/>
<path d="M9.90068 54.0781C9.94234 54.2578 10.0109 54.4302 10.1041 54.5894C10.3717 54.9239 10.7169 55.1881 11.1097 55.3589C11.3795 55.5133 11.685 55.5944 11.9958 55.5944C12.3066 55.5944 12.6121 55.5133 12.8819 55.3589C12.942 55.3399 12.9921 55.2977 13.0212 55.2418C13.0502 55.1858 13.0558 55.1206 13.0368 55.0605C13.0178 55.0004 12.9757 54.9503 12.9197 54.9212C12.8637 54.8922 12.7985 54.8866 12.7384 54.9056C12.5982 54.909 12.4579 54.9002 12.3192 54.8794C12.2232 54.8734 12.1396 54.8714 12.0436 54.8601C11.6013 54.8019 11.1854 54.6166 10.8464 54.3266C10.7628 54.2652 10.7029 54.1994 10.6311 54.136C10.6108 54.1197 10.3273 53.9039 10.2847 53.8648C10.2564 53.8139 10.2091 53.7763 10.1531 53.7603C10.097 53.7443 10.037 53.7512 9.98605 53.7795C9.93512 53.8077 9.89751 53.8551 9.8815 53.9111C9.8655 53.9671 9.87239 54.0272 9.90068 54.0781Z" fill="#191919"/>
<path d="M12.4739 54.1628C12.5359 54.2571 12.6128 54.3407 12.7016 54.4103C12.9264 54.5302 13.1687 54.6137 13.4197 54.6577C13.5987 54.7203 13.7896 54.7418 13.978 54.7205C14.1665 54.6993 14.3478 54.6359 14.5084 54.535C14.5398 54.5294 14.5698 54.5176 14.5965 54.5002C14.6233 54.4828 14.6463 54.4603 14.6642 54.4338C14.6821 54.4074 14.6946 54.3777 14.7008 54.3464C14.707 54.3152 14.7069 54.2829 14.7005 54.2517C14.6941 54.2204 14.6815 54.1908 14.6635 54.1645C14.6454 54.1382 14.6223 54.1157 14.5954 54.0985C14.5686 54.0813 14.5386 54.0696 14.5071 54.0642C14.4757 54.0587 14.4435 54.0596 14.4124 54.0668C14.3169 54.0525 14.2333 54.006 14.1372 53.9931C13.9576 53.9703 13.778 53.9713 13.5983 53.9387C13.3424 53.8931 13.0851 53.7902 12.9159 53.7734C12.8203 53.764 12.7605 53.7813 12.6768 53.7768C12.6513 53.7598 12.6224 53.7483 12.5921 53.7431C12.5619 53.7379 12.5308 53.7392 12.5011 53.7468C12.4713 53.7544 12.4435 53.7681 12.4194 53.7871C12.3952 53.8062 12.3754 53.83 12.3611 53.8572C12.3468 53.8844 12.3384 53.9143 12.3364 53.9449C12.3344 53.9756 12.3389 54.0063 12.3495 54.0351C12.3601 54.064 12.3767 54.0902 12.3981 54.1122C12.4196 54.1342 12.4454 54.1515 12.4739 54.1628Z" fill="#191919"/>
<path d="M12.75 51.1835C12.7528 51.3642 12.7851 51.5432 12.8455 51.7135C13.0289 52.0671 13.2623 52.3925 13.5384 52.6796C13.8811 53.1393 14.3716 53.4672 14.9275 53.608C14.9835 53.6381 15.0492 53.6448 15.1101 53.6265C15.1709 53.6082 15.2221 53.5665 15.2522 53.5105C15.2823 53.4545 15.289 53.3889 15.2707 53.328C15.2524 53.2671 15.2107 53.216 15.1547 53.1858C15.0468 53.0918 14.9647 52.9725 14.8434 52.8656C14.3015 52.451 13.8323 51.9493 13.4547 51.381C13.4359 51.3572 13.1811 51.0722 13.1672 51.0489C13.1478 50.995 13.1083 50.9508 13.0569 50.9257C13.0055 50.9005 12.9463 50.8963 12.8919 50.914C12.8375 50.9317 12.7921 50.9699 12.7653 51.0204C12.7385 51.071 12.7325 51.13 12.7485 51.185L12.75 51.1835Z" fill="#191919"/>
<path d="M17.8861 88.2367C17.1596 87.5542 16.2658 87.4008 15.2399 87.2964C14.0482 87.1999 12.8688 87.1746 12.5858 87.1796C12.5684 86.9322 12.5363 86.6971 12.5051 86.4971C12.6823 86.5061 12.8599 86.513 13.0371 86.5164C13.1183 86.5177 13.1976 86.492 13.2626 86.4433C13.3276 86.3947 13.3746 86.3259 13.3964 86.2477C14.5465 82.2322 15.2656 77.7222 15.9104 73.5359C16.4504 70.087 16.9141 67.0286 17.1318 63.543C17.136 63.4716 17.1173 63.4007 17.0785 63.3405C17.0397 63.2804 16.9829 63.2342 16.9161 63.2085C14.3288 62.3033 12.9203 59.1132 12.8218 56.372H12.8456C12.8453 56.3373 12.8378 56.3031 12.8234 56.2716C12.8091 56.24 12.7882 56.2118 12.7623 56.1888C12.7364 56.1658 12.7059 56.1485 12.6728 56.138C12.6398 56.1276 12.6049 56.1242 12.5704 56.128C12.1585 56.1769 11.741 56.1363 11.3462 56.0088C10.9515 55.8814 10.589 55.6702 10.2835 55.3897C10.2457 55.3429 10.193 55.3105 10.1341 55.298C10.0753 55.2855 10.0139 55.2935 9.96035 55.3209C9.50851 55.548 10.2221 55.89 10.3563 60.3292C10.4191 62.8116 10.2439 65.2519 10.2246 67.5096C10.1256 73.6408 10.0915 79.6345 9.30313 85.7682C9.29026 85.8639 9.31567 85.961 9.37385 86.0381C9.43203 86.1153 9.51829 86.1664 9.61392 86.1804L9.82029 86.2116C9.67422 86.524 9.59018 86.8619 9.57285 87.2063C9.1758 87.5191 8.86497 87.9279 8.66967 88.3941C8.20546 89.4294 8.40045 90.629 9.59116 90.9814C10.868 91.3431 12.318 91.1679 13.5899 91.1298C14.8152 91.0902 16.0173 91.1858 17.2412 90.8329C17.5127 90.7728 17.7619 90.6382 17.961 90.4442C18.1601 90.2502 18.3011 90.0044 18.3681 89.7346C18.4351 89.4648 18.4255 89.1817 18.3404 88.917C18.2552 88.6524 18.0979 88.4168 17.8861 88.2367ZM11.9993 86.4679C11.942 86.7487 11.9048 87.0331 11.888 87.3192C11.3598 87.4441 10.8093 87.4392 10.2835 87.3048C10.2835 87.1029 10.3424 86.7812 10.329 86.2863C10.8858 86.363 11.4322 86.4254 11.9993 86.4679ZM17.6604 89.5477C17.4001 90.5112 15.2255 90.3395 13.5661 90.3949C12.3522 90.4365 10.9348 90.6057 9.78268 90.2959C8.7058 90.0208 9.08389 88.4624 9.66787 87.7467C10.1266 88.3406 12.4002 88.2416 12.5828 87.6587C12.6818 87.6587 13.9403 87.8071 14.1407 87.8329C14.9809 87.8941 15.8118 88.0471 16.6186 88.2892C17.1868 88.5084 17.8227 88.9647 17.6604 89.5477Z" fill="#191919"/>
<path d="M33.3647 86.6189C32.6382 85.9354 31.7414 85.7825 30.719 85.6785C29.2774 85.5623 28.8344 85.586 28.0852 85.5618C28.0273 85.5618 28.1084 85.6063 27.9743 84.8239C28.0405 84.8157 28.1016 84.7839 28.1463 84.7344C28.191 84.6849 28.2164 84.6209 28.2178 84.5542C28.3628 78.7436 28.2321 78.1097 27.4997 70.1835C27.1429 66.6138 26.9702 65.6339 26.6015 63.0491C26.5953 63.0008 26.5794 62.9543 26.5547 62.9124C26.5301 62.8704 26.4971 62.8339 26.458 62.8051C26.4188 62.7763 26.3741 62.7557 26.3267 62.7446C26.2793 62.7336 26.2302 62.7323 26.1823 62.7408C24.6114 63.0655 22.9984 63.1346 21.4056 62.9451C21.3455 62.9344 21.2838 62.9386 21.2257 62.9572C21.1677 62.9759 21.1151 63.0085 21.0725 63.0522C21.03 63.0959 20.9988 63.1494 20.9817 63.208C20.9647 63.2665 20.9622 63.3283 20.9745 63.3881C21.8104 67.1032 24.997 80.8578 24.997 84.6635C25.0009 84.7175 25.0224 84.7686 25.0582 84.8092C25.0939 84.8498 25.142 84.8775 25.195 84.8882C25.1046 85.1107 25.0556 85.3479 25.0505 85.588C24.6532 85.9015 24.3423 86.3112 24.1473 86.7782C23.6831 87.813 23.8781 89.0126 25.0688 89.365C26.3501 89.7278 27.8095 89.5516 29.0675 89.5135C30.281 89.4744 31.4955 89.5699 32.7193 89.2165C32.9913 89.1569 33.2411 89.0225 33.4406 88.8284C33.6402 88.6343 33.7815 88.3882 33.8486 88.1181C33.9157 87.8479 33.906 87.5644 33.8205 87.2994C33.735 87.0345 33.5771 86.7988 33.3647 86.6189ZM27.4794 84.8372C27.4219 85.1216 27.3842 85.4097 27.3666 85.6993C26.8388 85.8249 26.2885 85.8208 25.7626 85.6875C25.7626 85.539 25.8121 85.1431 25.8121 84.8808L27.4794 84.8372ZM33.137 87.9293C32.8767 88.8929 30.7017 88.7212 29.0428 88.7766C27.8293 88.8182 26.4124 88.9874 25.2598 88.6776C24.1824 88.4024 24.561 86.8465 25.1445 86.1284C25.6013 86.7223 27.8763 86.6233 28.0594 86.0408C28.1584 86.0408 29.4169 86.1893 29.6173 86.2145C30.4577 86.2758 31.2888 86.429 32.0958 86.6713C32.6659 86.8886 33.3013 87.3463 33.137 87.9308V87.9293Z" fill="#191919"/>
<path d="M18.5869 45.1979C18.7427 45.1801 18.9003 45.1868 19.0541 45.2177C19.1812 45.2485 19.3002 45.3065 19.4027 45.3878C19.5052 45.469 19.5889 45.5716 19.648 45.6883C19.8452 46.1118 19.9332 46.578 19.9038 47.0443C19.9038 47.7124 19.84 48.3063 19.2684 48.723C19.1068 48.8279 18.923 48.894 18.7316 48.9159C18.5402 48.9379 18.3463 48.9153 18.1651 48.8497C17.9839 48.7842 17.8203 48.6775 17.6873 48.5382C17.5542 48.3988 17.4553 48.2305 17.3982 48.0465C17.079 47.272 17.1621 45.8303 17.8693 45.3587C17.9716 45.2844 18.0881 45.2317 18.2115 45.2041C18.3349 45.1764 18.4627 45.1743 18.5869 45.1979ZM18.5597 45.6329C17.9371 45.6522 17.848 46.9587 18.001 47.5536C18.0193 47.7108 18.0875 47.858 18.1955 47.9738C18.3035 48.0895 18.4457 48.1677 18.6013 48.1969C18.6584 48.2012 18.7158 48.1927 18.7692 48.1719C18.8226 48.1512 18.8708 48.1188 18.9101 48.0772C19.1234 47.7784 19.2221 47.4128 19.1882 47.0473C19.189 46.7063 19.1618 46.3658 19.107 46.0293C18.9883 45.7665 18.9888 45.7398 18.6319 45.6591C18.6067 45.6541 18.5823 45.6453 18.5597 45.6329Z" fill="#191919"/>
<path d="M24.5661 44.7103C24.7223 44.6959 24.8797 44.7059 25.0328 44.74C25.1597 44.7732 25.2779 44.8336 25.3792 44.917C25.4804 45.0004 25.5624 45.1048 25.6192 45.223C25.8077 45.6507 25.886 46.1188 25.8469 46.5845C25.8315 47.2521 25.7568 47.8445 25.1763 48.2488C25.0126 48.3504 24.8276 48.4126 24.6357 48.4306C24.4439 48.4486 24.2505 48.422 24.0708 48.3527C23.891 48.2834 23.7297 48.1734 23.5996 48.0313C23.4695 47.8892 23.3741 47.7188 23.321 47.5337C23.0181 46.7527 23.1309 45.3136 23.8475 44.8568C23.9511 44.7849 24.0682 44.7348 24.1917 44.7096C24.3153 44.6845 24.4427 44.6847 24.5661 44.7103ZM24.53 45.1448C23.9069 45.1513 23.7906 46.4558 23.9312 47.0536C23.9466 47.211 24.0118 47.3593 24.1174 47.477C24.223 47.5946 24.3633 47.6755 24.5181 47.7079C24.5752 47.7133 24.6328 47.7059 24.6866 47.6862C24.7405 47.6665 24.7893 47.635 24.8294 47.5941C25.0479 47.2995 25.1533 46.9363 25.1263 46.5706C25.1342 46.2297 25.1142 45.8888 25.0664 45.5511C24.9531 45.2864 24.9541 45.2596 24.5993 45.1716C24.575 45.1656 24.5516 45.1563 24.53 45.1438V45.1448Z" fill="#191919"/>
<path d="M21.3226 51.4547C21.4789 51.4401 21.6365 51.4499 21.7898 51.4839C21.9166 51.5172 22.0347 51.5777 22.136 51.6611C22.2372 51.7445 22.3192 51.8488 22.3762 51.9669C22.5647 52.3946 22.6429 52.8627 22.6039 53.3284C22.5885 53.9965 22.5133 54.5889 21.9333 54.9932C21.7695 55.0947 21.5845 55.1568 21.3926 55.1748C21.2008 55.1927 21.0074 55.166 20.8277 55.0968C20.6479 55.0275 20.4866 54.9175 20.3564 54.7755C20.2263 54.6335 20.1308 54.4632 20.0774 54.2781C19.7751 53.4971 19.8879 52.0575 20.6045 51.6007C20.7079 51.5288 20.825 51.4787 20.9485 51.4536C21.072 51.4285 21.1993 51.4289 21.3226 51.4547ZM21.287 51.8892C20.6639 51.8952 20.5476 53.2002 20.6881 53.7975C20.7034 53.9546 20.7684 54.1027 20.8736 54.2204C20.9788 54.338 21.1187 54.4191 21.2731 54.4518C21.3301 54.4573 21.3877 54.4499 21.4416 54.4303C21.4954 54.4107 21.5442 54.3793 21.5844 54.3385C21.8031 54.0439 21.9085 53.6804 21.8813 53.3145C21.8896 52.9738 21.8697 52.633 21.8219 52.2955C21.7086 52.0303 21.7096 52.0036 21.3548 51.9155C21.331 51.9101 21.3081 51.9013 21.287 51.8892Z" fill="#191919"/>
<path d="M27.1795 50.9762C27.3358 50.9617 27.4935 50.9717 27.6467 51.0059C27.7736 51.0391 27.8918 51.0995 27.993 51.1829C28.0943 51.2663 28.1762 51.3707 28.2331 51.4889C28.4214 51.9166 28.4996 52.3846 28.4608 52.8503C28.4455 53.5179 28.3702 54.1103 27.7902 54.5151C27.6264 54.6166 27.4413 54.6787 27.2495 54.6967C27.0576 54.7146 26.8642 54.6879 26.6845 54.6185C26.5047 54.5492 26.3434 54.4392 26.2133 54.2971C26.0831 54.155 25.9877 53.9847 25.9344 53.7995C25.632 53.0186 25.7448 51.5794 26.4614 51.1227C26.5649 51.0508 26.6819 51.0007 26.8054 50.9755C26.9289 50.9503 27.0562 50.9505 27.1795 50.9762ZM27.1439 51.4107C26.5203 51.4171 26.4045 52.7217 26.5451 53.3195C26.5605 53.4768 26.6256 53.625 26.7311 53.7427C26.8366 53.8604 26.9769 53.9413 27.1315 53.9737C27.1886 53.9792 27.2461 53.9718 27.3 53.9522C27.3538 53.9326 27.4026 53.9012 27.4428 53.8604C27.6623 53.5661 27.7686 53.2027 27.7422 52.8365C27.7506 52.4957 27.7306 52.1549 27.6823 51.8175C27.5695 51.5522 27.57 51.5255 27.2156 51.4374C27.1905 51.4323 27.1663 51.4233 27.1439 51.4107Z" fill="#191919"/>
<path d="M27.7676 44.5618C27.924 44.5474 28.0816 44.5574 28.2348 44.5915C28.3617 44.6248 28.4798 44.6853 28.5811 44.7686C28.6823 44.852 28.7643 44.9564 28.8213 45.0745C29.0093 45.5023 29.0874 45.9703 29.0484 46.436C29.0331 47.1036 28.9584 47.696 28.3783 48.1008C28.2145 48.2023 28.0294 48.2644 27.8376 48.2823C27.6458 48.3003 27.4524 48.2735 27.2726 48.2042C27.0928 48.1349 26.9315 48.0249 26.8014 47.8828C26.6712 47.7407 26.5758 47.5704 26.5225 47.3852C26.2196 46.6043 26.333 45.1651 27.0491 44.7083C27.1526 44.6364 27.2698 44.5864 27.3933 44.5612C27.5168 44.536 27.6442 44.5362 27.7676 44.5618ZM27.7315 44.9964C27.1084 45.0028 26.9926 46.3073 27.1332 46.9052C27.1486 47.0624 27.2138 47.2107 27.3192 47.3284C27.4247 47.446 27.565 47.527 27.7196 47.5594C27.7767 47.5648 27.8342 47.5575 27.8881 47.5379C27.9419 47.5183 27.9907 47.4869 28.0309 47.4461C28.2505 47.1518 28.3567 46.7883 28.3303 46.4221C28.3387 46.0814 28.3187 45.7406 28.2705 45.4032C28.1571 45.1379 28.1581 45.1112 27.8033 45.0231C27.778 45.0171 27.7538 45.0072 27.7315 44.9939V44.9964Z" fill="#191919"/>
<path d="M35.955 43.8616C36.1113 43.8472 36.2689 43.8571 36.4222 43.8908C37.1546 44.0556 37.2482 44.9919 37.2482 45.7397C37.2482 48.0088 35.2349 48.0741 34.698 46.6914C34.401 45.9322 34.5089 44.4837 35.2369 44.0081C35.3405 43.9364 35.4576 43.8865 35.581 43.8614C35.7044 43.8362 35.8316 43.8363 35.955 43.8616ZM35.9194 44.304C35.3008 44.31 35.1939 45.6125 35.3324 46.2074C35.4062 46.5236 35.5601 46.8082 35.907 46.8567C35.9621 46.8622 36.0178 46.8551 36.0698 46.8357C36.1217 46.8163 36.1684 46.7852 36.2064 46.7448C36.4381 46.4583 36.5497 46.093 36.5177 45.7258C36.523 45.3852 36.4989 45.0448 36.4459 44.7083C36.4098 44.5836 36.3682 44.45 36.2183 44.398C36.1391 44.3684 35.959 44.3253 35.9194 44.304Z" fill="#191919"/>
<path d="M33.893 50.2126C34.0493 50.1981 34.2069 50.2077 34.3602 50.2413C35.0926 50.4061 35.1862 51.3424 35.1862 52.0902C35.1862 54.3598 33.1734 54.4246 32.636 53.0419C32.339 52.2827 32.4469 50.8342 33.1749 50.3586C33.2785 50.2869 33.3955 50.237 33.519 50.2119C33.6424 50.1868 33.7697 50.187 33.893 50.2126ZM33.8574 50.6545C33.2388 50.6605 33.1319 51.963 33.2704 52.5579C33.3442 52.8741 33.4981 53.1587 33.845 53.2077C33.9001 53.2132 33.9558 53.2059 34.0077 53.1865C34.0596 53.1671 34.1064 53.1361 34.1444 53.0958C34.3764 52.8092 34.488 52.4437 34.4557 52.0764C34.4609 51.7359 34.4369 51.3957 34.3839 51.0594C34.3761 50.9924 34.3511 50.9285 34.3113 50.8741C34.2715 50.8196 34.2182 50.7764 34.1568 50.7486C34.0776 50.7189 33.8975 50.6763 33.8579 50.6545H33.8574Z" fill="#191919"/>
<path d="M21.3782 46.5049C21.3426 46.5484 21.3065 46.592 21.2708 46.6375C21.2452 46.69 21.1997 46.7302 21.1444 46.7491C21.0892 46.7681 21.0286 46.7644 20.9761 46.7387C20.9236 46.713 20.8835 46.6676 20.8645 46.6123C20.8455 46.557 20.8493 46.4965 20.8749 46.444C20.9521 45.9928 21.1191 45.5616 21.3659 45.1761C21.4033 45.1081 21.4618 45.0542 21.5326 45.0224C21.6034 44.9906 21.6826 44.9827 21.7583 44.9998C21.834 45.017 21.902 45.0582 21.9522 45.1174C22.0024 45.1766 22.0319 45.2505 22.0364 45.328C22.2403 48.0326 22.1027 48.0385 22.0726 48.5448C22.0742 48.6081 22.0514 48.6696 22.0091 48.7166C21.9668 48.7636 21.908 48.7927 21.8449 48.7977C21.8135 48.8002 21.782 48.7963 21.7521 48.7863C21.7223 48.7762 21.6948 48.7603 21.6713 48.7393C21.6478 48.7184 21.6288 48.6929 21.6154 48.6644C21.6021 48.6359 21.5946 48.605 21.5935 48.5735C21.4162 47.8991 21.3436 47.2014 21.3782 46.5049Z" fill="#191919"/>
<path d="M18.1351 53.2497C18.0994 53.2938 18.0633 53.3373 18.0277 53.3829C18.002 53.4354 17.9565 53.4755 17.9013 53.4945C17.846 53.5135 17.7855 53.5097 17.733 53.4841C17.6805 53.4584 17.6403 53.413 17.6213 53.3577C17.6023 53.3024 17.6061 53.2419 17.6318 53.1894C17.7089 52.738 17.8758 52.3067 18.1227 51.921C18.1601 51.853 18.2187 51.799 18.2895 51.7673C18.3602 51.7355 18.4394 51.7275 18.5151 51.7447C18.5908 51.7618 18.6589 51.8031 18.709 51.8623C18.7592 51.9215 18.7888 51.9954 18.7933 52.0729C18.9972 54.778 18.8596 54.7839 18.8289 55.2897C18.8305 55.3529 18.8079 55.4143 18.7656 55.4613C18.7234 55.5083 18.6647 55.5374 18.6017 55.5426C18.5704 55.5451 18.5388 55.5413 18.509 55.5313C18.4792 55.5214 18.4517 55.5054 18.4282 55.4845C18.4047 55.4636 18.3857 55.4382 18.3723 55.4097C18.3589 55.3812 18.3514 55.3503 18.3503 55.3189C18.1731 54.6443 18.1005 53.9464 18.1351 53.2497Z" fill="#191919"/>
<path d="M23.992 52.7717C23.9564 52.8153 23.9202 52.8588 23.8841 52.9043C23.8714 52.9303 23.8537 52.9536 23.832 52.9727C23.8103 52.9919 23.7851 53.0066 23.7577 53.016C23.7304 53.0254 23.7014 53.0293 23.6725 53.0275C23.6436 53.0257 23.6154 53.0183 23.5894 53.0056C23.5634 52.9928 23.5402 52.9751 23.521 52.9535C23.5019 52.9318 23.4872 52.9065 23.4778 52.8792C23.4684 52.8518 23.4645 52.8228 23.4662 52.794C23.468 52.7651 23.4755 52.7368 23.4882 52.7108C23.5654 52.2596 23.7324 51.8285 23.9791 51.4429C24.0166 51.375 24.0751 51.321 24.1459 51.2892C24.2167 51.2574 24.2959 51.2495 24.3716 51.2667C24.4473 51.2838 24.5153 51.3251 24.5655 51.3843C24.6156 51.4435 24.6452 51.5174 24.6497 51.5949C24.8531 54.2995 24.716 54.3054 24.6853 54.8117C24.6869 54.8749 24.6643 54.9363 24.6221 54.9833C24.5798 55.0303 24.5212 55.0594 24.4582 55.0646C24.4268 55.067 24.3953 55.0632 24.3654 55.0531C24.3356 55.0431 24.3081 55.0271 24.2846 55.0062C24.2611 54.9852 24.2421 54.9597 24.2287 54.9312C24.2154 54.9027 24.2079 54.8718 24.2068 54.8404C24.0297 54.1659 23.9572 53.4682 23.992 52.7717Z" fill="#191919"/>
<path d="M30.6139 45.6779C30.5778 45.7175 30.554 45.7576 30.5179 45.7987C30.5049 45.8247 30.4869 45.8479 30.465 45.8669C30.443 45.8859 30.4175 45.9005 30.3899 45.9097C30.3624 45.9189 30.3333 45.9225 30.3043 45.9205C30.2753 45.9184 30.247 45.9107 30.221 45.8977C30.195 45.8847 30.1718 45.8667 30.1528 45.8447C30.1337 45.8228 30.1192 45.7973 30.11 45.7697C30.1008 45.7421 30.0971 45.713 30.0992 45.684C30.1012 45.655 30.109 45.6267 30.122 45.6007C30.1997 45.1509 30.3621 44.72 30.6006 44.3308C30.6404 44.2626 30.7009 44.2089 30.7733 44.1773C30.8457 44.1457 30.9263 44.138 31.0033 44.1552C31.0804 44.1723 31.1501 44.2136 31.2022 44.2729C31.2543 44.3322 31.2863 44.4066 31.2934 44.4852C31.3924 45.7957 31.3894 46.4039 31.3894 47.1245C31.3657 47.316 31.3399 47.5011 31.3177 47.701C31.3197 47.7329 31.3154 47.7648 31.305 47.795C31.2946 47.8252 31.2784 47.8531 31.2573 47.877C31.2361 47.9009 31.2105 47.9204 31.1818 47.9344C31.1531 47.9483 31.1219 47.9565 31.09 47.9584C31.0252 47.9615 30.9617 47.9395 30.9127 47.897C30.8637 47.8546 30.8329 47.7948 30.8267 47.7303C30.6596 47.0596 30.588 46.3686 30.6139 45.6779Z" fill="#191919"/>
<path d="M36.8698 51.4582C36.8337 51.4983 36.8099 51.5379 36.7738 51.5794C36.7608 51.6054 36.7428 51.6286 36.7208 51.6477C36.6989 51.6667 36.6734 51.6812 36.6458 51.6904C36.6182 51.6996 36.5891 51.7033 36.5601 51.7012C36.5311 51.6992 36.5028 51.6914 36.4768 51.6784C36.4508 51.6654 36.4277 51.6474 36.4086 51.6255C36.3896 51.6035 36.375 51.578 36.3658 51.5505C36.3567 51.5229 36.353 51.4938 36.355 51.4648C36.3571 51.4358 36.3649 51.4075 36.3779 51.3815C36.4554 50.9318 36.6178 50.501 36.8564 50.1121C36.8961 50.0436 36.9565 49.9895 37.029 49.9577C37.1015 49.9259 37.1822 49.9181 37.2594 49.9353C37.3367 49.9525 37.4064 49.9939 37.4586 50.0535C37.5107 50.113 37.5425 50.1876 37.5493 50.2665C37.6482 51.5765 37.6453 52.1852 37.6453 52.9053C37.6215 53.0968 37.5958 53.2824 37.5735 53.4818C37.5757 53.5137 37.5715 53.5457 37.5611 53.5759C37.5508 53.6062 37.5346 53.6341 37.5134 53.658C37.4923 53.682 37.4666 53.7015 37.4378 53.7154C37.409 53.7293 37.3778 53.7374 37.3459 53.7392C37.2811 53.7423 37.2177 53.7203 37.1687 53.678C37.1197 53.6356 37.0889 53.576 37.0826 53.5115C36.9152 52.8405 36.8435 52.1492 36.8698 51.4582Z" fill="#191919"/>
<path d="M32.7721 45.5165C32.736 45.5561 32.7122 45.5957 32.6761 45.6373C32.6631 45.6633 32.6451 45.6865 32.6232 45.7055C32.6012 45.7246 32.5757 45.7391 32.5482 45.7483C32.5206 45.7575 32.4915 45.7612 32.4625 45.7591C32.4335 45.757 32.4052 45.7493 32.3792 45.7363C32.3532 45.7233 32.33 45.7053 32.311 45.6833C32.2919 45.6614 32.2774 45.6359 32.2682 45.6083C32.259 45.5807 32.2553 45.5516 32.2574 45.5226C32.2595 45.4936 32.2672 45.4653 32.2802 45.4393C32.3578 44.9897 32.5202 44.5589 32.7588 44.1699C32.7984 44.1015 32.8589 44.0474 32.9313 44.0156C33.0038 43.9838 33.0845 43.9759 33.1618 43.9932C33.239 44.0104 33.3088 44.0518 33.3609 44.1113C33.413 44.1709 33.4448 44.2455 33.4516 44.3243C33.5506 45.6348 33.5476 46.2431 33.5476 46.9631C33.5239 47.1551 33.4981 47.3402 33.4759 47.5397C33.4779 47.5716 33.4737 47.6036 33.4634 47.6338C33.453 47.6641 33.4368 47.692 33.4157 47.7159C33.3945 47.7399 33.3688 47.7594 33.3401 47.7734C33.3113 47.7874 33.2801 47.7956 33.2482 47.7975C33.1834 47.8006 33.1199 47.7786 33.0709 47.7361C33.0219 47.6937 32.9911 47.6339 32.9849 47.5694C32.8172 46.8986 32.7455 46.2074 32.7721 45.5165Z" fill="#191919"/>
<path d="M30.7106 51.867C30.6745 51.9066 30.6507 51.9467 30.6146 51.9878C30.6016 52.0138 30.5836 52.0369 30.5616 52.056C30.5397 52.075 30.5142 52.0896 30.4866 52.0988C30.4591 52.1079 30.4299 52.1116 30.4009 52.1096C30.372 52.1075 30.3437 52.0997 30.3177 52.0868C30.2917 52.0738 30.2685 52.0558 30.2494 52.0338C30.2304 52.0118 30.2159 51.9864 30.2067 51.9588C30.1975 51.9312 30.1938 51.9021 30.1959 51.8731C30.1979 51.8441 30.2057 51.8158 30.2187 51.7898C30.2961 51.34 30.4586 50.909 30.6972 50.5199C30.7371 50.4517 30.7976 50.398 30.87 50.3664C30.9424 50.3348 31.0229 50.3271 31.1 50.3442C31.1771 50.3614 31.2467 50.4027 31.2989 50.462C31.351 50.5213 31.383 50.5957 31.3901 50.6743C31.4891 51.9848 31.4861 52.593 31.4861 53.3136C31.4623 53.5051 31.4366 53.6902 31.4143 53.8901C31.4163 53.922 31.4121 53.9539 31.4017 53.9841C31.3913 54.0143 31.3751 54.0422 31.354 54.0661C31.3328 54.09 31.3071 54.1095 31.2784 54.1235C31.2497 54.1374 31.2186 54.1456 31.1867 54.1475C31.1219 54.1506 31.0584 54.1286 31.0094 54.0861C30.9603 54.0436 30.9296 53.9839 30.9234 53.9193C30.756 53.2487 30.6843 52.5577 30.7106 51.867Z" fill="#191919"/>
<path d="M33.7969 5.24999C33.7969 5.62787 33.947 5.99027 34.2142 6.25748C34.4814 6.52468 34.8438 6.67479 35.2217 6.67479C35.5996 6.67479 35.962 6.52468 36.2292 6.25748C36.4964 5.99027 36.6465 5.62787 36.6465 5.24999C36.6465 4.87211 36.4964 4.50971 36.2292 4.24251C35.962 3.97531 35.5996 3.8252 35.2217 3.8252C34.8438 3.8252 34.4814 3.97531 34.2142 4.24251C33.947 4.50971 33.7969 4.87211 33.7969 5.24999Z" fill="#3373CC"/>
<path d="M35.2219 3.58474C34.9925 3.56508 34.7615 3.59383 34.5439 3.66912C34.3264 3.74441 34.127 3.86455 33.9588 4.02178C33.7906 4.179 33.6574 4.3698 33.5676 4.58181C33.4778 4.79383 33.4336 5.02233 33.4378 5.25252C33.4336 5.54729 33.5027 5.83847 33.6388 6.09997C33.7749 6.36147 33.9737 6.58512 34.2175 6.75087C34.4613 6.91662 34.7424 7.01929 35.0356 7.04967C35.3288 7.08006 35.625 7.03721 35.8976 6.92497C36.1701 6.81273 36.4106 6.6346 36.5974 6.40656C36.7842 6.17851 36.9115 5.90768 36.9679 5.61833C37.0243 5.32899 37.008 5.03017 36.9205 4.74867C36.833 4.46716 36.677 4.21178 36.4665 4.00539C36.2976 3.8566 36.0999 3.74407 35.8857 3.67478C35.6716 3.60549 35.4454 3.5809 35.2214 3.60255L35.2219 3.58474ZM35.2219 4.05043C35.5132 4.09191 35.7802 4.23557 35.9754 4.45577C36.1706 4.67596 36.2811 4.95835 36.2874 5.25252C36.2833 5.46017 36.2187 5.6621 36.1014 5.83347C35.9841 6.00485 35.8192 6.13818 35.6271 6.21707C35.435 6.29595 35.224 6.31695 35.0201 6.27747C34.8162 6.23799 34.6283 6.13976 34.4795 5.99486C34.3368 5.83595 34.2408 5.64066 34.2022 5.43059C34.1636 5.22052 34.1838 5.00387 34.2606 4.80457C34.3374 4.60528 34.4679 4.43112 34.6375 4.30134C34.8072 4.17157 35.0094 4.09124 35.2219 4.06924V4.05043Z" fill="#191919"/>
<path d="M40.3375 3.49663C40.1084 3.47735 39.8777 3.50637 39.6604 3.58182C39.4431 3.65727 39.2441 3.77748 39.0762 3.93466C38.9083 4.09185 38.7752 4.28252 38.6856 4.49435C38.596 4.70618 38.5518 4.93446 38.5559 5.16442C38.5524 5.45839 38.6217 5.74867 38.7577 6.00929C38.8938 6.26992 39.0923 6.49277 39.3355 6.65793C39.5787 6.82309 39.859 6.9254 40.1515 6.95572C40.4439 6.98603 40.7393 6.94341 41.0112 6.83167C41.2831 6.71992 41.5231 6.54253 41.7097 6.31535C41.8963 6.08818 42.0237 5.8183 42.0806 5.52985C42.1374 5.2414 42.1218 4.94336 42.0353 4.66239C41.9487 4.38142 41.7939 4.12628 41.5847 3.91977C41.4159 3.77096 41.2183 3.65842 41.0042 3.58913C40.7901 3.51983 40.564 3.49526 40.34 3.51692L40.3375 3.49663ZM40.3375 3.96233C40.6288 4.00392 40.8957 4.14763 41.0908 4.36781C41.2859 4.58799 41.3964 4.87032 41.4026 5.16442C41.3987 5.37207 41.3341 5.57404 41.2169 5.74545C41.0996 5.91687 40.9348 6.05024 40.7427 6.12915C40.5506 6.20805 40.3396 6.22904 40.1357 6.18953C39.9318 6.15001 39.7439 6.05172 39.5952 5.90676C39.4525 5.74784 39.3565 5.55256 39.3179 5.34249C39.2793 5.13242 39.2995 4.91576 39.3763 4.71647C39.4531 4.51718 39.5836 4.34301 39.7532 4.21324C39.9229 4.08347 40.1251 4.00314 40.3375 3.98113V3.96233Z" fill="#191919"/>
<path d="M45.838 3.31707C45.6088 3.29778 45.3781 3.32681 45.1608 3.4023C44.9434 3.47778 44.7444 3.59802 44.5765 3.75526C44.4086 3.9125 44.2755 4.10323 44.1859 4.31512C44.0963 4.52701 44.0522 4.75534 44.0564 4.98535C44.052 5.28019 44.1207 5.57153 44.2566 5.83323C44.3925 6.09494 44.5912 6.31883 44.8349 6.48482C45.0786 6.65082 45.3597 6.75373 45.653 6.78433C45.9463 6.81492 46.2425 6.77225 46.5153 6.66013C46.788 6.54801 47.0286 6.36995 47.2156 6.14192C47.4025 5.9139 47.53 5.64303 47.5865 5.35362C47.6429 5.06421 47.6267 4.76531 47.5392 4.48371C47.4517 4.20212 47.2957 3.94665 47.0852 3.7402C46.9163 3.59135 46.7186 3.47881 46.5044 3.4096C46.2902 3.34038 46.0641 3.31596 45.84 3.33785L45.838 3.31707ZM45.838 3.78276C46.1294 3.82436 46.3965 3.96812 46.5916 4.18839C46.7868 4.40867 46.8973 4.69112 46.9035 4.98535C46.8996 5.193 46.8351 5.39497 46.7179 5.56638C46.6006 5.7378 46.4358 5.87117 46.2437 5.95008C46.0516 6.02898 45.8406 6.04997 45.6367 6.01046C45.4328 5.97094 45.2449 5.87265 45.0962 5.72769C44.9534 5.56883 44.8574 5.37357 44.8188 5.16352C44.7801 4.95347 44.8003 4.73682 44.8772 4.53755C44.954 4.33827 45.0845 4.16414 45.2542 4.03442C45.4238 3.9047 45.6261 3.82446 45.8385 3.80256L45.838 3.78276Z" fill="#191919"/>
<path d="M37.1546 14.3551C37.8252 14.3383 40.0403 14.3517 40.4833 14.3393C43.081 14.267 51.2343 13.9082 52.7071 13.8043C54.1423 13.7053 54.9252 13.5895 55.6641 13.5242C55.7267 13.5186 55.7847 13.4889 55.826 13.4415C55.8672 13.3941 55.8885 13.3326 55.8855 13.2698C55.8824 13.207 55.8552 13.1479 55.8095 13.1047C55.7638 13.0616 55.7032 13.0377 55.6404 13.0382C55.138 13.059 53.1619 13.0788 52.671 13.0956C50.6954 13.1639 39.8365 13.6568 39.3455 13.6964C38.6032 13.7553 37.8747 13.8508 37.1309 13.9097C37.1008 13.9101 37.0711 13.9166 37.0436 13.9287C37.0162 13.9409 36.9914 13.9585 36.9709 13.9804C36.9503 14.0024 36.9344 14.0282 36.9241 14.0565C36.9138 14.0847 36.9094 14.1148 36.911 14.1448C36.9126 14.1748 36.9202 14.2042 36.9334 14.2312C36.9467 14.2582 36.9652 14.2822 36.988 14.3019C37.0107 14.3215 37.0372 14.3363 37.0659 14.3455C37.0945 14.3546 37.1247 14.3579 37.1546 14.3551Z" fill="#191919"/>
<path d="M36.9756 17.7827C37.7383 17.8005 38.6395 17.8767 40.232 17.8663C44.0843 17.8451 56.7332 17.0745 58.597 17.0221C58.6615 17.0221 58.7233 16.9964 58.7688 16.9509C58.8144 16.9053 58.84 16.8435 58.84 16.7791C58.84 16.7146 58.8144 16.6528 58.7688 16.6072C58.7233 16.5617 58.6615 16.5361 58.597 16.5361C56.9391 16.5232 56.6768 16.4589 54.2632 16.5291C52.1199 16.5925 38.2589 17.3076 36.9756 17.3373C36.9166 17.3373 36.8599 17.3608 36.8182 17.4025C36.7764 17.4443 36.7529 17.5009 36.7529 17.56C36.7529 17.6191 36.7764 17.6757 36.8182 17.7175C36.8599 17.7592 36.9166 17.7827 36.9756 17.7827Z" fill="#191919"/>
<path d="M42.375 21.2524C42.8461 21.3231 43.3598 21.3964 43.8354 21.4211C45.1875 21.4934 48.2494 21.3746 49.8236 21.2573C50.4368 21.2113 50.8164 21.1395 51.4518 21.05C51.4837 21.0484 51.5149 21.0405 51.5436 21.0267C51.5724 21.013 51.5981 20.9936 51.6193 20.9698C51.6405 20.946 51.6567 20.9182 51.6671 20.888C51.6774 20.8578 51.6816 20.8259 51.6795 20.7941C51.6758 20.7307 51.6474 20.6713 51.6004 20.6285C51.5534 20.5858 51.4915 20.5631 51.4281 20.5655C49.3287 20.5041 50.6051 20.5298 46.7226 20.6585C44.1937 20.7426 45.3176 20.6174 42.4007 20.807C42.3708 20.8042 42.3406 20.8074 42.312 20.8166C42.2833 20.8258 42.2568 20.8406 42.2341 20.8602C42.2113 20.8799 42.1928 20.9039 42.1795 20.9309C42.1663 20.9579 42.1587 20.9873 42.1571 21.0173C42.1555 21.0473 42.1599 21.0774 42.1702 21.1056C42.1805 21.1338 42.1964 21.1597 42.2169 21.1817C42.2375 21.2036 42.2622 21.2212 42.2897 21.2334C42.3172 21.2455 42.3469 21.252 42.377 21.2524H42.375Z" fill="#3373CC"/>
<path d="M54.3116 21.2306C54.8451 21.3503 54.7753 21.3617 56.1922 21.3236C56.8258 21.3681 57.4623 21.3011 58.0728 21.1257C58.1354 21.12 58.1934 21.0904 58.2347 21.0429C58.276 20.9954 58.2973 20.9338 58.2941 20.871C58.291 20.8082 58.2637 20.749 58.2179 20.7059C58.1721 20.6628 58.1114 20.639 58.0485 20.6397C57.7882 20.5845 57.5228 20.5561 57.2567 20.5551C56.7504 20.5551 55.1964 20.5843 54.85 20.6372C54.6587 20.6712 54.4705 20.7209 54.2873 20.7857C54.2283 20.7889 54.173 20.8154 54.1336 20.8594C54.0941 20.9034 54.0738 20.9613 54.077 21.0203C54.0802 21.0793 54.1067 21.1346 54.1507 21.174C54.1947 21.2134 54.2526 21.2338 54.3116 21.2306Z" fill="#191919"/>
<path d="M42.6526 24.8533C43.1468 24.8883 43.6427 24.8911 44.1373 24.8617C44.2615 24.8548 48.718 24.5267 48.8422 24.5153C49.2134 24.4807 49.8701 24.3723 50.0156 24.3505C50.08 24.347 50.1407 24.319 50.1852 24.2723C50.2297 24.2256 50.2547 24.1636 50.2551 24.0991C50.2513 24.0352 50.2231 23.9752 50.1763 23.9314C50.1296 23.8877 50.0678 23.8636 50.0037 23.864C48.7668 23.7663 47.5232 23.7945 46.292 23.9482C43.5572 24.1412 43.3662 24.2402 42.6169 24.4104C42.5611 24.4188 42.5106 24.448 42.4755 24.4922C42.4404 24.5364 42.4234 24.5923 42.428 24.6485C42.4325 24.7048 42.4582 24.7572 42.4999 24.7952C42.5416 24.8332 42.5962 24.854 42.6526 24.8533Z" fill="#3373CC"/>
<path d="M53.5688 24.1386C53.7214 24.1823 53.8776 24.2123 54.0355 24.2282C54.3141 24.2435 55.5405 24.1292 55.975 24.0797C56.1922 24.0522 56.4053 23.9984 56.6095 23.9194C56.6413 23.918 56.6725 23.9103 56.7013 23.8966C56.7301 23.883 56.7558 23.8637 56.777 23.84C56.7983 23.8162 56.8145 23.7885 56.8248 23.7583C56.8351 23.7282 56.8393 23.6963 56.8371 23.6645C56.8335 23.601 56.8052 23.5414 56.7582 23.4984C56.7112 23.4555 56.6493 23.4327 56.5857 23.4349C55.9186 23.3156 56.1789 23.3245 55.0411 23.4156C53.8009 23.5146 53.9113 23.5512 53.5327 23.6967C53.4741 23.7014 53.4198 23.7291 53.3816 23.7738C53.3435 23.8186 53.3247 23.8766 53.3293 23.9352C53.3352 23.9935 53.3634 24.0472 53.4081 24.0852C53.4528 24.1231 53.5104 24.1422 53.5688 24.1386Z" fill="#191919"/>
<path d="M71.9683 12.5878C72.693 12.5984 73.4174 12.5539 74.1354 12.4547C74.4378 12.4161 75.0707 12.327 75.045 12.0395C75.045 11.6703 74.1458 11.7223 73.7761 11.7485C73.2373 11.7871 72.6986 11.8278 72.1598 11.8707C71.9005 11.89 71.2635 11.9573 71.2378 12.2171C71.2378 12.4789 71.8584 12.5754 71.9683 12.5878Z" fill="#3373CC"/>
<path d="M71.6767 15.5195C71.9737 15.5195 72.6403 15.4206 73.101 15.3711C73.4841 15.3305 73.8676 15.3216 74.2507 15.2597C74.8708 15.1553 75.0529 15.0756 75.0529 14.8707C75.0093 14.3867 73.3796 14.5876 72.9575 14.6312C72.4839 14.6807 70.8898 14.8445 70.9824 15.3112C71.018 15.4913 71.1551 15.5156 71.6767 15.5195Z" fill="#3373CC"/>
<path d="M72.2731 18.3439C72.9946 18.4072 73.7208 18.3968 74.4402 18.3127C74.8287 18.2281 75.0509 18.1841 75.0509 17.9633C75.0509 17.5125 73.7147 17.6229 73.2431 17.6318C72.9085 17.6382 71.6268 17.558 71.5906 17.9237C71.5664 18.1727 72.1137 18.3142 72.2731 18.3439Z" fill="#3373CC"/>
<path d="M77.5049 18.5393C78.511 18.7002 79.0193 18.7581 83.3353 18.5081C83.8525 18.4801 84.368 18.4257 84.8798 18.3453C84.9117 18.3445 84.943 18.3375 84.9722 18.3246C85.0013 18.3117 85.0276 18.2932 85.0495 18.2701C85.0715 18.247 85.0887 18.2199 85.1002 18.1901C85.1117 18.1604 85.1172 18.1287 85.1164 18.0969C85.1156 18.065 85.1085 18.0337 85.0956 18.0045C85.0827 17.9754 85.0642 17.9491 85.0411 17.9272C85.0181 17.9052 84.9909 17.888 84.9612 17.8765C84.9315 17.8651 84.8998 17.8596 84.8679 17.8603C84.1331 17.771 83.3914 17.7513 82.6528 17.8014C77.7306 17.9747 78.4551 17.989 77.5059 18.0949C77.4468 18.0949 77.3902 18.1184 77.3484 18.1601C77.3067 18.2019 77.2832 18.2585 77.2832 18.3176C77.2832 18.3767 77.3067 18.4333 77.3484 18.4751C77.3902 18.5169 77.4468 18.5403 77.5059 18.5403L77.5049 18.5393Z" fill="#191919"/>
<path d="M76.9922 15.2023C77.4025 15.2558 77.9647 15.331 78.4165 15.3558C79.4905 15.4221 84.9491 15.4325 85.253 15.4216C85.6489 15.4072 86.0448 15.3721 86.4501 15.3523C86.5122 15.3502 86.5711 15.3244 86.6148 15.2803C86.6585 15.2361 86.6836 15.177 86.6852 15.1149C86.6867 15.0528 86.6644 14.9925 86.6229 14.9463C86.5815 14.9001 86.5239 14.8715 86.462 14.8663C86.2106 14.8376 85.9592 14.8074 85.7078 14.7837C84.4587 14.6644 79.1618 14.608 78.0335 14.6768C77.6871 14.6976 77.351 14.7322 77.0041 14.7574C76.945 14.7559 76.8878 14.7778 76.8449 14.8185C76.802 14.8591 76.777 14.9151 76.7755 14.9742C76.7739 15.0333 76.7958 15.0905 76.8365 15.1334C76.8772 15.1763 76.9332 15.2013 76.9922 15.2028V15.2023Z" fill="#191919"/>
<path d="M77.2597 11.9603C78.8716 12.376 79.6802 12.4171 84.5272 12.3651C85.7709 12.3518 85.6199 12.3181 86.4424 12.2874C86.5052 12.2881 86.5658 12.2644 86.6115 12.2214C86.6572 12.1783 86.6845 12.1193 86.6876 12.0566C86.6907 11.9939 86.6695 11.9324 86.6283 11.885C86.5871 11.8377 86.5292 11.8081 86.4667 11.8024C83.8601 11.4664 84.0625 11.7529 78.7681 11.5486C78.3648 11.5327 77.618 11.5317 77.3196 11.5198C77.2907 11.5159 77.2612 11.5177 77.233 11.5252C77.2048 11.5326 77.1783 11.5455 77.1551 11.5632C77.1319 11.5808 77.1123 11.6029 77.0976 11.6281C77.0829 11.6534 77.0733 11.6812 77.0694 11.7101C77.0655 11.7391 77.0673 11.7685 77.0747 11.7967C77.0821 11.8249 77.0951 11.8514 77.1127 11.8746C77.1304 11.8979 77.1525 11.9174 77.1777 11.9321C77.2029 11.9468 77.2308 11.9564 77.2597 11.9603Z" fill="#191919"/>
<path d="M66.4847 34.8095C67.002 34.7871 67.5176 34.7358 68.0292 34.6561C68.3123 34.5839 68.5509 34.5076 68.532 34.2993C68.532 34.0518 67.9951 33.9751 67.9456 33.9687C67.4269 33.9622 66.909 34.012 66.401 34.1172C66.3045 34.1478 65.8567 34.3364 65.8982 34.5408C65.918 34.7378 66.4327 34.807 66.4847 34.8095Z" fill="#3373CC"/>
<path d="M70.5199 34.6214C70.9987 34.6337 71.4778 34.6205 71.9551 34.5818C76.6244 34.2052 76.2003 34.224 77.3544 33.9414C77.4171 33.9306 77.4731 33.8957 77.5103 33.8442C77.5476 33.7926 77.5632 33.7285 77.5539 33.6656C77.5445 33.6027 77.5109 33.5459 77.4602 33.5075C77.4095 33.469 77.3458 33.452 77.2826 33.4599C75.6813 33.4794 74.0824 33.5898 72.4936 33.7905C71.7973 33.8331 71.1093 33.9643 70.4462 34.181C70.3878 34.1908 70.3357 34.2233 70.3013 34.2715C70.2669 34.3198 70.2531 34.3797 70.2628 34.4381C70.2726 34.4965 70.3052 34.5486 70.3534 34.583C70.4016 34.6174 70.4615 34.6312 70.5199 34.6214Z" fill="#191919"/>
<path d="M72.8903 37.8452C73.0394 37.8417 73.1878 37.8233 73.3333 37.7902C73.3827 37.7779 73.7569 37.5829 73.7401 37.3943C73.7143 37.1028 73.2778 37.0613 72.9259 37.087C72.4207 37.1301 72.1975 37.429 72.2079 37.5324C72.2183 37.6358 72.4553 37.8764 72.8903 37.8452Z" fill="#3373CC"/>
<path d="M75.2723 37.6087C75.6516 37.6341 76.0323 37.628 76.4106 37.5904C76.6476 37.5671 79.6531 37.2123 79.9901 37.1558C80.3183 37.1009 80.678 37.0004 80.876 36.9549C80.9402 36.9483 80.9991 36.9166 81.0399 36.8665C81.0806 36.8165 81.0998 36.7523 81.0933 36.6882C81.0867 36.624 81.0549 36.565 81.0049 36.5243C80.9549 36.4835 80.8907 36.4643 80.8265 36.4709C79.8812 36.4141 78.9325 36.4721 78.0012 36.6436C75.9033 36.8856 75.8053 36.9762 75.212 37.1692C75.1539 37.1785 75.1016 37.2098 75.0659 37.2566C75.0303 37.3034 75.014 37.3621 75.0204 37.4206C75.0297 37.4786 75.0612 37.5306 75.1083 37.5657C75.1553 37.6008 75.2141 37.6162 75.2723 37.6087Z" fill="#191919"/>
<path d="M72.8308 40.5037C73.9847 40.4612 75.1356 40.3582 76.2787 40.1949C77.5357 40.1285 78.7872 39.9837 80.0261 39.7614C80.0886 39.7557 80.1465 39.7261 80.1877 39.6788C80.2289 39.6314 80.2501 39.5699 80.247 39.5072C80.2439 39.4445 80.2166 39.3855 80.1709 39.3424C80.1252 39.2994 80.0646 39.2757 80.0018 39.2764C79.5416 39.2605 79.1481 39.2313 78.6849 39.2526C77.0772 39.3352 75.4749 39.5014 73.8844 39.7505C73.4994 39.834 73.1194 39.9391 72.7462 40.0652C72.7174 40.0704 72.6899 40.0812 72.6653 40.097C72.6407 40.1129 72.6194 40.1334 72.6027 40.1574C72.5861 40.1815 72.5743 40.2085 72.5681 40.2371C72.5618 40.2657 72.5613 40.2953 72.5665 40.3241C72.5789 40.3823 72.6133 40.4336 72.6625 40.4671C72.7118 40.5006 72.7721 40.5137 72.8308 40.5037Z" fill="#191919"/>
<path d="M76.853 42.6857C78.8657 42.8446 79.3769 42.6362 84.1319 42.0424C85.4127 41.885 85.3196 41.8593 86.0357 41.7633C86.0685 41.7629 86.1009 41.756 86.1309 41.7428C86.161 41.7297 86.1881 41.7106 86.2105 41.6867C86.233 41.6628 86.2504 41.6347 86.2618 41.6039C86.2731 41.5731 86.2781 41.5404 86.2765 41.5076C86.2748 41.4749 86.2666 41.4428 86.2523 41.4133C86.2379 41.3838 86.2178 41.3575 86.193 41.336C86.1683 41.3145 86.1395 41.2982 86.1083 41.2881C86.0771 41.278 86.0441 41.2743 86.0115 41.2773C85.3889 41.2436 84.7647 41.2548 84.1438 41.3109C83.875 41.3342 79.6947 41.8405 76.8411 42.2398C76.8118 42.2406 76.783 42.2472 76.7562 42.2591C76.7295 42.271 76.7054 42.2881 76.6852 42.3093C76.6651 42.3306 76.6493 42.3556 76.6388 42.383C76.6283 42.4103 76.6233 42.4394 76.6241 42.4687C76.6249 42.498 76.6314 42.5268 76.6433 42.5536C76.6553 42.5803 76.6724 42.6045 76.6936 42.6246C76.7149 42.6448 76.7399 42.6606 76.7672 42.671C76.7946 42.6815 76.8237 42.6865 76.853 42.6857Z" fill="#191919"/>
<path d="M77.7268 45.225C79.5084 45.3735 79.9221 45.2517 84.4791 44.7113C85.5975 44.5787 85.5441 44.5504 86.2508 44.449C86.3151 44.4458 86.3754 44.4173 86.4186 44.3696C86.4618 44.322 86.4843 44.2591 86.4812 44.1949C86.478 44.1306 86.4495 44.0703 86.4018 44.027C86.3542 43.9838 86.2913 43.9613 86.227 43.9645C84.9477 43.915 84.7998 43.8858 79.0556 44.5747C78.6888 44.6173 77.8812 44.7538 77.7149 44.7796C77.6856 44.7804 77.6568 44.7869 77.6301 44.7988C77.6034 44.8107 77.5793 44.8278 77.5592 44.849C77.539 44.8702 77.5233 44.8952 77.5128 44.9225C77.5023 44.9499 77.4973 44.979 77.4981 45.0082C77.4989 45.0375 77.5054 45.0663 77.5174 45.093C77.5293 45.1197 77.5463 45.1438 77.5676 45.164C77.5888 45.1841 77.6138 45.1998 77.6411 45.2103C77.6684 45.2208 77.6975 45.2258 77.7268 45.225Z" fill="#191919"/>
<path d="M77.7031 48.0088C78.2351 48.004 78.7665 47.9719 79.2952 47.9128C85.132 47.2541 84.064 47.4016 85.6046 47.121C85.6369 47.1193 85.6685 47.1112 85.6976 47.0972C85.7267 47.0832 85.7528 47.0634 85.7741 47.0392C85.7955 47.0149 85.8118 46.9866 85.8221 46.956C85.8324 46.9254 85.8365 46.893 85.8341 46.8607C85.8317 46.8285 85.8229 46.797 85.8081 46.7683C85.7934 46.7395 85.773 46.714 85.7483 46.6932C85.7235 46.6723 85.6949 46.6567 85.664 46.6471C85.6331 46.6376 85.6006 46.6343 85.5685 46.6375C85.1617 46.6325 84.7662 46.6132 84.3594 46.629C82.2935 46.7522 80.2379 47.0113 78.2059 47.4045C78.0134 47.454 77.8224 47.5149 77.6309 47.5713C77.6017 47.5757 77.5737 47.5859 77.5485 47.6012C77.5233 47.6165 77.5014 47.6367 77.484 47.6605C77.4667 47.6844 77.4542 47.7114 77.4474 47.7401C77.4406 47.7688 77.4396 47.7986 77.4444 47.8277C77.4491 47.8568 77.4597 47.8846 77.4753 47.9096C77.4909 47.9346 77.5114 47.9563 77.5355 47.9733C77.5595 47.9904 77.5867 48.0024 77.6155 48.0089C77.6443 48.0153 77.6741 48.016 77.7031 48.0108V48.0088Z" fill="#191919"/>
<path d="M78.3621 50.3155C81.4255 50.0993 79.3024 50.1384 84.3503 49.7316C85.1105 49.6732 85.3179 49.6182 85.8469 49.5484C85.8796 49.5488 85.9121 49.5426 85.9424 49.5302C85.9727 49.5177 86.0001 49.4993 86.0231 49.476C86.0461 49.4527 86.0642 49.425 86.0762 49.3945C86.0882 49.3641 86.094 49.3315 86.0932 49.2988C86.0923 49.2661 86.0849 49.2338 86.0713 49.204C86.0578 49.1742 86.0383 49.1475 86.0142 49.1254C85.99 49.1033 85.9617 49.0863 85.9308 49.0754C85.8999 49.0645 85.8672 49.0599 85.8345 49.062C84.5657 48.9508 83.2884 48.9867 82.0278 49.1689C81.1359 49.2492 80.2488 49.3751 79.3697 49.546C78.9968 49.6369 78.6292 49.7484 78.2686 49.88C78.2141 49.8955 78.1675 49.9312 78.1383 49.9797C78.1091 50.0283 78.0995 50.0862 78.1114 50.1416C78.1233 50.197 78.1559 50.2458 78.2024 50.2781C78.249 50.3104 78.3061 50.3238 78.3621 50.3155Z" fill="#191919"/>
<path d="M29.0481 37.7938C23.8433 38.0085 19.2493 38.8751 13.9044 38.4703C13.8754 38.4682 13.8471 38.4604 13.8211 38.4474C13.7952 38.4343 13.772 38.4163 13.7531 38.3942C13.7341 38.3722 13.7197 38.3466 13.7107 38.319C13.7017 38.2913 13.6982 38.2622 13.7005 38.2332C13.7061 38.1745 13.7341 38.1202 13.7787 38.0817C13.8233 38.0431 13.8811 38.0233 13.94 38.0264C18.8142 38.3431 24.1418 37.3211 29.3842 37.0722C29.4336 37.0681 29.4834 37.0747 29.53 37.0916C29.5767 37.1086 29.6191 37.1354 29.6543 37.1703C29.6896 37.2052 29.7169 37.2473 29.7343 37.2938C29.7518 37.3402 29.7589 37.3899 29.7553 37.4394C29.6504 41.4416 34.6018 40.9621 35.1546 37.2415C35.1672 37.1593 35.2072 37.0839 35.2681 37.0273C35.3291 36.9708 35.4073 36.9366 35.4902 36.9302C37.7058 36.7718 39.8833 36.5145 42.1826 36.4491C42.2796 36.4463 42.3738 36.4813 42.4453 36.5468C42.5169 36.6124 42.56 36.7032 42.5656 36.8C42.6968 38.8998 42.6973 41.0536 42.6973 43.2792C50.379 42.3804 50.9125 50.8619 43.1283 51.5577C43.0922 52.8162 42.9606 60.2411 42.9606 60.2411C42.954 60.3269 42.9184 60.408 42.8597 60.4709C42.8009 60.5339 42.7226 60.575 42.6374 60.5875C41.0696 60.7855 35.8777 61.6268 31.0485 61.8743C26.4623 62.1054 14.284 65.6978 13.5451 57.5543C13.5389 57.4905 13.5579 57.4268 13.5982 57.3769C13.6384 57.327 13.6967 57.2949 13.7604 57.2876C13.8252 57.2829 13.8895 57.3027 13.9405 57.343C13.9915 57.3833 14.0256 57.4412 14.036 57.5053C14.3711 60.6004 16.5026 61.7842 19.1958 62.1123C23.0377 62.5805 28.1761 61.3027 31.0124 61.1487C35.8999 60.8835 40.9043 60.06 42.2306 59.8902C42.2687 59.4196 42.3855 51.2509 42.386 51.2009C42.3872 51.1078 42.4236 51.0185 42.4878 50.951C42.5521 50.8836 42.6394 50.8429 42.7324 50.8372C50.0044 50.4195 49.5258 42.9223 42.386 44.0789C42.3333 44.0871 42.2794 44.0837 42.2282 44.069C42.1769 44.0543 42.1294 44.0287 42.0891 43.9938C41.7694 43.7241 42.1326 43.4212 41.8495 37.2078C39.8808 37.2761 37.8543 37.4988 35.8277 37.6473C34.9319 41.8895 29.2154 42.2028 29.0481 37.7938Z" fill="#3373CC"/>
<path d="M90.8595 1.87294C93.4824 4.44638 92.9801 8.60893 92.9544 12.2696C92.944 13.7598 93.0959 37.0762 93.2419 42.0484C93.3315 45.1093 93.4013 51.3964 91.1109 53.4309C88.9561 55.3441 85.2741 55.7955 82.4072 56.0583C64.8811 57.6622 63.438 56.3522 63.3712 57.0936C63.3697 57.1588 63.394 57.222 63.4389 57.2693C63.4837 57.3167 63.5455 57.3444 63.6107 57.3465C69.9054 57.6065 76.2107 57.4194 82.479 56.7868C85.5384 56.5141 89.3045 56.0251 91.6018 53.9876C92.6663 53.0429 93.2998 51.3182 93.6368 49.3851C94.352 45.2835 93.8214 44.0309 93.6368 12.2716C93.6156 8.60942 93.9798 4.07422 91.1708 1.54878C91.1271 1.5119 91.0709 1.49304 91.0138 1.49604C90.9567 1.49904 90.9028 1.52367 90.8632 1.56494C90.8236 1.6062 90.8011 1.661 90.8004 1.71821C90.7997 1.77541 90.8209 1.83074 90.8595 1.87294Z" fill="#191919"/>
<path d="M91.6472 25.7089C91.7343 25.6912 91.8121 25.6424 91.8658 25.5715C91.9196 25.5006 91.9456 25.4126 91.9392 25.3239C91.8513 23.5422 91.8153 21.7584 91.8313 19.9746C91.8699 8.43766 92.5192 4.27116 90.3466 1.96051C88.6417 0.114554 85.3581 0.198686 82.1695 0.0799118C75.4501 -0.151828 68.7228 0.120632 62.0442 0.895001C61.9854 0.901563 61.9317 0.93119 61.8948 0.977363C61.8579 1.02354 61.8409 1.08247 61.8475 1.14121C61.854 1.19995 61.8836 1.25367 61.9298 1.29056C61.976 1.32745 62.0349 1.34449 62.0937 1.33793C68.7577 0.753738 75.4513 0.577887 82.1368 0.811364C88.2413 1.04594 90.9954 0.985072 91.1696 7.15688C90.1056 7.17371 78.9403 7.32762 75.2529 7.44738C72.8704 7.53399 63.317 8.04125 62.4668 8.0462C62.4077 8.0462 62.3511 8.06967 62.3093 8.11143C62.2676 8.1532 62.2441 8.20984 62.2441 8.26891C62.2441 8.32797 62.2676 8.38461 62.3093 8.42638C62.3511 8.46814 62.4077 8.49161 62.4668 8.49161C69.1771 8.66333 69.0232 8.39956 75.2771 8.19715C83.5502 7.90021 86.0351 8.00958 91.179 7.65524C91.2953 15.5859 90.9029 18.9294 91.1879 25.0022C88.1899 25.2571 85.1839 25.3684 82.173 25.6654C82.4798 19.1274 74.371 20.032 73.9122 26.4834C70.1545 26.8833 66.1468 26.9566 62.3233 27.1382C62.2243 27.1426 62.2149 21.5459 62.0838 19.0808C68.7218 18.7453 69.2642 13.103 66.2498 11.2378C65.1486 10.5449 63.6402 10.3905 62.2273 10.5291C62.0239 8.99491 61.2697 2.6301 61.1138 0.993485C61.1102 0.956162 61.0973 0.920342 61.0762 0.889334C61.0551 0.858325 61.0266 0.833126 60.9932 0.816063C60.9598 0.799 60.9226 0.790622 60.8852 0.791704C60.8477 0.792785 60.8111 0.803291 60.7787 0.822251C60.6303 0.80691 36.0836 1.43889 35.1705 1.38989C31.2297 1.1761 30.2384 4.17466 30.2617 8.10213C30.2963 15.1682 30.0835 22.2175 30.4413 29.2296C30.4476 29.3288 30.4926 29.4216 30.5667 29.4879C30.6407 29.5542 30.7379 29.5887 30.8372 29.5839C34.153 29.4221 37.396 29.5092 40.7024 29.4558C42.7537 29.4231 44.8016 29.2449 46.8321 29.2222C46.8605 29.6397 46.9267 30.0539 47.0301 30.4594C39.6196 30.7667 39.921 30.7613 32.7628 30.4243C32.7042 30.4177 32.6454 30.4347 32.5993 30.4715C32.5533 30.5083 32.5237 30.5619 32.5171 30.6205C32.5106 30.6791 32.5275 30.7379 32.5643 30.784C32.6011 30.8301 32.6547 30.8597 32.7133 30.8662C37.0927 31.6798 43.0566 31.569 47.2231 30.9528C48.3084 33.1012 51.499 32.7448 52.6234 30.3377C52.823 29.8759 52.9563 29.3882 53.0193 28.8891C55.0543 28.6328 57.1734 28.4462 59.2327 28.1468C59.4856 28.1107 61.9704 27.7365 62.1778 27.5767C62.2225 27.6107 62.2776 27.6282 62.3337 27.6262C66.3384 27.5133 70.2025 27.5311 74.2819 27.1387C74.3644 27.129 74.4408 27.0906 74.4978 27.0301C74.5547 26.9696 74.5885 26.891 74.5932 26.8081C74.899 20.9461 82.0062 19.889 81.4054 26.0445C81.4015 26.0987 81.409 26.1532 81.4275 26.2044C81.446 26.2555 81.4751 26.3022 81.5128 26.3414C81.7221 26.5394 81.5454 26.4265 84.7454 26.1969C86.8843 26.0435 89.0233 25.9351 91.1627 25.756C91.4294 28.8085 91.4834 50.1383 89.8334 52.5791C87.8721 55.3505 66.8778 56.0607 62.154 55.4738C62.1778 53.325 62.2496 46.2816 62.2496 44.9063C63.1674 44.9819 64.0914 44.8957 64.9794 44.6515C67.3331 43.8972 68.4224 40.9947 66.4759 38.7192C65.9815 38.1325 65.3576 37.6686 64.6534 37.364C63.9492 37.0594 63.1839 36.9224 62.4178 36.9638C62.2441 34.7368 62.1184 31.3126 62.1427 28.3319C62.141 28.2748 62.1174 28.2206 62.0768 28.1805C62.0361 28.1404 61.9816 28.1175 61.9245 28.1166C61.8674 28.1157 61.8122 28.1369 61.7703 28.1757C61.7285 28.2145 61.7032 28.268 61.6997 28.3249C61.6502 31.5086 61.5829 33.3209 61.8071 37.3434C61.81 37.3877 61.8223 37.431 61.8431 37.4703C61.8639 37.5095 61.8927 37.544 61.9278 37.5713C61.9629 37.5987 62.0033 37.6183 62.0465 37.6289C62.0896 37.6395 62.1346 37.6409 62.1783 37.6329C62.8841 37.5495 63.5996 37.6469 64.2575 37.9158C64.9154 38.1848 65.4942 38.6165 65.9395 39.1705C67.5083 41.0442 66.6754 43.3509 64.7517 43.9556C63.8219 44.1945 62.856 44.2594 61.9026 44.1472C61.8526 44.1434 61.8023 44.1502 61.7551 44.1672C61.7078 44.1842 61.6647 44.2109 61.6286 44.2457C61.5924 44.2805 61.564 44.3226 61.5452 44.3692C61.5264 44.4157 61.5177 44.4657 61.5196 44.5159C61.5196 46.0193 61.4236 53.5333 61.3998 55.7925C61.3997 55.8812 61.4309 55.9671 61.4878 56.0352C61.5447 56.1032 61.6238 56.1491 61.7111 56.1646C65.2818 56.7798 88.1597 56.37 90.4322 53.0028C92.3821 50.2497 92.0164 29.1613 91.6472 25.7089ZM32.1492 3.16458C32.7599 2.44649 33.7056 2.03919 35.1304 2.11343C38.1493 2.26189 57.4303 1.46413 60.6911 1.31022C60.8228 2.86072 61.2682 7.36177 61.3459 8.05709C55.3893 7.93931 53.0079 8.1244 44.5408 8.43717C36.4196 8.76627 35.8831 8.51388 31.003 9.05875C30.9995 7.16133 30.8946 4.62105 32.1492 3.16458ZM61.6849 18.3682C61.6365 18.3694 61.5889 18.3804 61.5449 18.4006C61.5009 18.4208 61.4615 18.4498 61.4291 18.4857C61.3967 18.5217 61.3719 18.5638 61.3564 18.6096C61.3408 18.6555 61.3347 18.704 61.3385 18.7522C61.5136 22.891 61.4181 24.3005 61.5661 26.9902C58.6695 27.591 55.5893 27.8033 52.6348 28.1839C52.5499 28.1929 52.4709 28.2316 52.4118 28.2932C52.3527 28.3548 52.3172 28.4352 52.3116 28.5204C52.2748 29.0391 52.1492 29.5477 51.9404 30.0239C50.9818 32.1104 48.0654 32.2316 47.666 29.9333L47.5225 28.8005C47.5121 28.7095 47.4685 28.6254 47.4 28.5644C47.3315 28.5035 47.243 28.4698 47.1514 28.4699C45.0105 28.4759 42.8408 28.6704 40.6866 28.7045C37.5504 28.754 34.3519 28.6783 31.1688 28.8183C30.8659 22.5669 31.0089 15.234 31.0045 9.50861C33.6635 9.37153 40.5426 9.33293 44.5774 9.18545C46.8638 9.09686 60.3244 8.59801 61.4038 8.56386C61.4919 9.34282 61.6017 10.1183 61.6735 10.8963C61.6779 10.9356 61.6902 10.9737 61.7096 11.0082C61.729 11.0428 61.7551 11.0731 61.7863 11.0974C61.8176 11.1217 61.8534 11.1395 61.8916 11.1497C61.9299 11.16 61.9698 11.1625 62.009 11.1571C64.438 10.8805 66.8169 11.4808 67.2549 13.8666C67.3342 14.3102 67.323 14.7652 67.2222 15.2043C67.1213 15.6435 66.9328 16.0577 66.668 16.4223C65.6005 17.8322 63.461 18.3464 61.6849 18.3682Z" fill="#191919"/>
<path d="M50.984 33.1263C53.841 32.8596 53.4669 31.2324 54.8511 30.5277C56.4461 29.7165 58.9894 29.9249 61.3881 29.4438C61.4206 29.4409 61.4521 29.4314 61.4808 29.416C61.5095 29.4006 61.5348 29.3796 61.5552 29.3543C61.5757 29.3289 61.5908 29.2997 61.5997 29.2684C61.6086 29.237 61.6111 29.2042 61.6071 29.1719C61.6031 29.1396 61.5926 29.1084 61.5763 29.0802C61.56 29.052 61.5382 29.0274 61.5122 29.0078C61.4862 28.9882 61.4565 28.974 61.4249 28.9661C61.3933 28.9582 61.3604 28.9568 61.3283 28.9618C60.091 29.043 56.4258 28.893 54.5161 29.86C52.8537 30.7014 53.457 32.0079 50.9004 32.6874C50.8715 32.6929 50.8441 32.704 50.8196 32.7201C50.795 32.7362 50.7739 32.757 50.7574 32.7812C50.7409 32.8055 50.7294 32.8328 50.7234 32.8615C50.7174 32.8902 50.7172 32.9198 50.7227 32.9487C50.7282 32.9775 50.7393 33.005 50.7554 33.0295C50.7715 33.054 50.7923 33.0751 50.8166 33.0916C50.8408 33.1081 50.8681 33.1197 50.8968 33.1256C50.9256 33.1316 50.9552 33.1318 50.984 33.1263Z" fill="#191919"/>
</svg>
