<svg width="27" height="27" viewBox="0 0 27 27" fill="none" xmlns="http://www.w3.org/2000/svg">
<path d="M4.03541 15.5014C6.03791 17.4915 9.52878 20.2489 13.5 20.2489C17.4713 20.2489 20.9633 17.4915 22.9647 15.5014C23.4934 14.976 23.7578 14.7139 23.9254 14.1975C24.0458 13.8296 24.0458 13.1704 23.9254 12.8025C23.7567 12.2873 23.4923 12.024 22.9647 11.4986C20.9622 9.5085 17.4724 6.75 13.5 6.75C9.52878 6.75 6.03678 9.5085 4.03541 11.4986C3.50666 12.024 3.24228 12.2861 3.07466 12.8025C2.95428 13.1704 2.95428 13.8296 3.07466 14.1975C3.24341 14.7127 3.50666 14.976 4.03541 15.5014Z" stroke="black" stroke-width="2.25" stroke-linecap="round" stroke-linejoin="round"/>
<path d="M11.25 13.5001C11.25 14.0968 11.4871 14.6691 11.909 15.0911C12.331 15.513 12.9033 15.7501 13.5 15.7501C14.0967 15.7501 14.669 15.513 15.091 15.0911C15.5129 14.6691 15.75 14.0968 15.75 13.5001C15.75 12.9033 15.5129 12.331 15.091 11.9091C14.669 11.4871 14.0967 11.2501 13.5 11.2501C12.9033 11.2501 12.331 11.4871 11.909 11.9091C11.4871 12.331 11.25 12.9033 11.25 13.5001Z" stroke="black" stroke-width="2.25" stroke-linecap="round" stroke-linejoin="round"/>
</svg>
