<svg width="80" height="90" viewBox="0 0 80 90" fill="none" xmlns="http://www.w3.org/2000/svg">
<path d="M59.7224 32.2178L46.5974 47.7295L53.7566 56.082C56.3446 60.1381 56.0794 62.5675 52.5632 66.8213L40.6306 78.7529H46.5974C51.3701 78.7531 54.9498 82.333 53.7566 89.4922H14.3796C11.9935 89.4919 11.2491 87.106 13.1873 84.7197C15.1237 82.3357 21.527 76.3791 21.5398 76.3672L13.1873 65.6279C10.5747 61.2994 11.4247 59.3254 14.3796 56.082L35.8582 32.2178H59.7224ZM55.9031 0C56.0549 3.81728e-05 56.1988 0.0699017 56.2937 0.188477L60.5671 5.53027C60.7533 5.76298 61.1006 5.78201 61.3113 5.57129L66.7361 0.146484C66.8298 0.0529262 66.9571 0 67.0896 0H79.5076C79.7836 0 80.0073 0.224064 80.0076 0.5V25.2705C80.0076 25.5466 79.7837 25.7705 79.5076 25.7705H67.0437C66.939 25.7705 66.8367 25.7378 66.7517 25.6768L61.5691 21.9482C61.2684 21.7319 60.8451 21.9062 60.7839 22.2715L59.7927 28.2197C59.7526 28.4608 59.5439 28.6376 59.2996 28.6377H37.5505C37.275 28.6377 37.0516 28.4072 37.0427 28.1318C36.6088 14.6952 20.4974 11.698 0.787842 25.2646C0.468907 25.4838 0.0247856 25.2814 0.0114746 24.8945C-0.431224 12.0263 12.1523 0.00020504 19.1531 0H55.9031Z" fill="white"/>
</svg>
