<svg width="299" height="239" viewBox="0 0 299 239" fill="none" xmlns="http://www.w3.org/2000/svg">
<path d="M209.236 219.218H88.8487C63.0825 221.693 46.3197 225.72 46.3197 230.268C46.3197 237.804 92.3105 238.758 149.042 238.758C205.774 238.758 251.765 237.804 251.765 230.268C251.765 225.72 235.002 221.693 209.236 219.218Z" fill="#3373CC"/>
<path d="M0.5 219.408H297.584" stroke="#122847" stroke-linecap="round" stroke-linejoin="round"/>
<path d="M150.714 206.621C150.891 206.969 151.174 207.253 151.523 207.43C151.871 207.607 152.266 207.67 152.652 207.608C153.038 207.547 153.395 207.365 153.671 207.088C153.947 206.811 154.128 206.454 154.189 206.068C155.505 197.967 160.329 182.013 177.355 165.566C193.414 150.061 169.648 133.798 157.322 146.316C144.027 159.801 139.67 185.581 150.714 206.621Z" fill="#3373CC"/>
<path d="M162.896 160.15C162.896 160.15 146.41 181.434 154.064 218.257" stroke="#122847" stroke-width="0.75" stroke-linecap="round" stroke-linejoin="round"/>
<path d="M159.335 166.132C159.335 166.132 165.002 161.966 176.006 163.296" stroke="#122847" stroke-width="0.75" stroke-linecap="round" stroke-linejoin="round"/>
<path d="M156.723 150.831C156.723 150.831 153.083 161.216 156.867 171.759" stroke="#122847" stroke-width="0.75" stroke-linecap="round" stroke-linejoin="round"/>
<path d="M153.649 182.922C153.649 182.922 156.828 177.202 163.692 177.15" stroke="#122847" stroke-width="0.75" stroke-linecap="round" stroke-linejoin="round"/>
<path d="M152.491 190.326C152.491 190.326 148.2 185.804 146.864 177.781" stroke="#122847" stroke-width="0.75" stroke-linecap="round" stroke-linejoin="round"/>
<path d="M156.986 205.62C156.99 205.902 157.085 206.175 157.255 206.398C157.426 206.622 157.663 206.786 157.934 206.864C158.204 206.943 158.492 206.933 158.756 206.836C159.02 206.739 159.247 206.56 159.401 206.325C162.751 201.494 170.721 192.629 186.767 187.186C201.904 182.052 191.479 164.27 179.679 168.607C166.957 173.279 156.282 188.627 156.986 205.62Z" fill="#3373CC"/>
<path opacity="0.2" d="M156.986 205.62C156.99 205.902 157.085 206.175 157.255 206.398C157.426 206.622 157.663 206.786 157.934 206.864C158.204 206.943 158.492 206.933 158.756 206.836C159.02 206.739 159.247 206.56 159.401 206.325C162.751 201.494 170.721 192.629 186.767 187.186C201.904 182.052 191.479 164.27 179.679 168.607C166.957 173.279 156.282 188.627 156.986 205.62Z" fill="black"/>
<path d="M179.06 179.295C179.06 179.295 161.869 187.996 155.624 214.177" stroke="#122847" stroke-width="0.75" stroke-linecap="round" stroke-linejoin="round"/>
<path d="M174.927 182.053C174.927 182.053 179.869 181.085 186.582 185.304" stroke="#122847" stroke-width="0.75" stroke-linecap="round" stroke-linejoin="round"/>
<path d="M177.915 171.345C177.915 171.345 172.386 176.952 171.616 184.942" stroke="#122847" stroke-width="0.75" stroke-linecap="round" stroke-linejoin="round"/>
<path d="M166.114 191.175C167.328 190.383 168.72 189.909 170.164 189.794C171.608 189.679 173.057 189.927 174.38 190.516" stroke="#122847" stroke-width="0.75" stroke-linecap="round" stroke-linejoin="round"/>
<path d="M163.113 195.617C162.273 192.384 162.337 188.983 163.297 185.784" stroke="#122847" stroke-width="0.75" stroke-linecap="round" stroke-linejoin="round"/>
<path d="M147.568 206.068C147.525 206.381 147.384 206.672 147.166 206.9C146.947 207.129 146.662 207.282 146.352 207.339C146.041 207.396 145.72 207.353 145.435 207.217C145.15 207.081 144.916 206.859 144.764 206.582C141.572 200.757 133.635 189.858 116.234 181.868C99.8199 174.333 113.601 155.543 126.369 161.802C140.131 168.541 150.358 187.048 147.568 206.068Z" fill="#3373CC"/>
<path opacity="0.2" d="M147.568 206.068C147.525 206.381 147.384 206.672 147.166 206.9C146.947 207.129 146.662 207.282 146.352 207.339C146.041 207.396 145.72 207.353 145.435 207.217C145.15 207.081 144.916 206.859 144.764 206.582C141.572 200.757 133.635 189.858 116.234 181.868C99.8199 174.333 113.601 155.543 126.369 161.802C140.131 168.541 150.358 187.048 147.568 206.068Z" fill="white"/>
<path d="M125.816 173.859C125.816 173.859 144.132 185.705 148.127 215.848" stroke="#122847" stroke-width="0.75" stroke-linecap="round" stroke-linejoin="round"/>
<path d="M130.14 177.479C130.14 177.479 124.704 175.814 116.655 179.776" stroke="#122847" stroke-width="0.75" stroke-linecap="round" stroke-linejoin="round"/>
<path d="M128.034 165.093C128.034 165.093 133.596 172.042 133.53 181.112" stroke="#122847" stroke-width="0.75" stroke-linecap="round" stroke-linejoin="round"/>
<path d="M138.992 188.766C137.722 187.734 136.213 187.036 134.604 186.736C132.994 186.436 131.336 186.543 129.778 187.048" stroke="#122847" stroke-width="0.75" stroke-linecap="round" stroke-linejoin="round"/>
<path d="M141.849 194.103C143.168 190.566 143.491 186.735 142.783 183.027" stroke="#122847" stroke-width="0.75" stroke-linecap="round" stroke-linejoin="round"/>
<path d="M137.505 219.6H164.68L166.331 212.321H135.853L137.505 219.6Z" fill="#122847"/>
<path opacity="0.3" d="M137.505 219.6H164.68L166.331 212.321H135.853L137.505 219.6Z" fill="white"/>
<path d="M45.405 120.872C45.7025 120.498 45.8888 120.048 45.9428 119.574C45.9969 119.099 45.9163 118.619 45.7104 118.188C45.5045 117.757 45.1816 117.392 44.7784 117.136C44.3753 116.88 43.9082 116.742 43.4306 116.739H23.1204C22.4431 116.739 21.7936 117.008 21.3147 117.487C20.8358 117.966 20.5668 118.615 20.5668 119.292C20.5668 119.97 20.8358 120.619 21.3147 121.098C21.7936 121.577 22.4431 121.846 23.1204 121.846H43.4042C43.7844 121.845 44.1594 121.758 44.5013 121.591C44.8431 121.425 45.143 121.183 45.3787 120.885L45.405 120.872Z" fill="white" stroke="#122847" stroke-linecap="round" stroke-linejoin="round"/>
<path d="M45.9578 119.293C45.9643 119.799 45.8201 120.296 45.5435 120.72C45.2669 121.144 44.8704 121.477 44.4044 121.675C43.9384 121.874 43.424 121.929 42.9265 121.834C42.429 121.739 41.9709 121.499 41.6105 121.143C41.2501 120.787 41.0036 120.332 40.9024 119.836C40.8011 119.34 40.8497 118.825 41.042 118.356C41.2343 117.888 41.5615 117.487 41.9821 117.205C42.4028 116.923 42.8978 116.772 43.4042 116.772C44.0763 116.77 44.7219 117.034 45.2002 117.506C45.6785 117.978 45.9508 118.621 45.9578 119.293Z" fill="white" stroke="#122847" stroke-linecap="round" stroke-linejoin="round"/>
<path d="M37.4415 119.293C37.4502 118.621 37.723 117.98 38.201 117.508C38.6789 117.036 39.3235 116.772 39.9951 116.772H26.6283C25.951 116.772 25.3015 117.041 24.8226 117.52C24.3437 117.999 24.0747 118.648 24.0747 119.326C24.0747 120.003 24.3437 120.652 24.8226 121.131C25.3015 121.61 25.951 121.879 26.6283 121.879H39.9951C39.657 121.879 39.3222 121.812 39.0102 121.682C38.6983 121.551 38.4153 121.36 38.1777 121.12C37.9402 120.879 37.7528 120.594 37.6264 120.28C37.5 119.966 37.4372 119.631 37.4415 119.293Z" fill="#3373CC" stroke="#122847" stroke-linecap="round" stroke-linejoin="round"/>
<path d="M38.1807 213.608C38.8132 209.712 36.1673 206.04 32.2709 205.408C28.3745 204.775 24.7031 207.421 24.0706 211.318C23.4381 215.214 26.0841 218.886 29.9805 219.518C33.8769 220.15 37.5483 217.505 38.1807 213.608Z" fill="#122847" stroke="#122847" stroke-linecap="round" stroke-linejoin="round"/>
<path d="M39.3981 214.083C40.3049 210.241 37.9255 206.391 34.0837 205.484C30.2418 204.578 26.3923 206.957 25.4856 210.799C24.5788 214.641 26.9582 218.49 30.8 219.397C34.6419 220.304 38.4914 217.924 39.3981 214.083Z" fill="#92F189" stroke="#122847" stroke-linecap="round" stroke-linejoin="round"/>
<path d="M35.9212 212.459C35.9212 213.149 35.7165 213.824 35.3329 214.398C34.9493 214.971 34.4042 215.419 33.7664 215.682C33.1287 215.946 32.427 216.015 31.7502 215.88C31.0734 215.745 30.4518 215.412 29.9643 214.923C29.4767 214.435 29.145 213.813 29.0112 213.136C28.8773 212.458 28.9473 211.757 29.2124 211.12C29.4774 210.482 29.9255 209.938 30.5 209.556C31.0745 209.173 31.7495 208.97 32.4397 208.971C32.8974 208.971 33.3507 209.061 33.7735 209.237C34.1964 209.412 34.5805 209.669 34.9038 209.993C35.2272 210.317 35.4835 210.702 35.6581 211.125C35.8327 211.548 35.9221 212.001 35.9212 212.459Z" fill="#3373CC" stroke="#122847" stroke-linecap="round" stroke-linejoin="round"/>
<path d="M114.629 210.311C115.6 204.293 111.51 198.627 105.492 197.656C99.4743 196.684 93.8086 200.775 92.8372 206.793C91.8657 212.81 95.9565 218.476 101.974 219.448C107.992 220.419 113.658 216.328 114.629 210.311Z" fill="#122847" stroke="#122847" stroke-linecap="round" stroke-linejoin="round"/>
<path d="M115.856 211.065C117.247 205.131 113.563 199.192 107.629 197.801C101.694 196.41 95.7553 200.094 94.3644 206.029C92.9735 211.963 96.657 217.902 102.592 219.293C108.527 220.684 114.465 217 115.856 211.065Z" fill="#92F189" stroke="#122847" stroke-linecap="round" stroke-linejoin="round"/>
<path d="M105.118 213.946C108.091 213.946 110.502 211.536 110.502 208.563C110.502 205.589 108.091 203.179 105.118 203.179C102.145 203.179 99.7344 205.589 99.7344 208.563C99.7344 211.536 102.145 213.946 105.118 213.946Z" fill="#3373CC" stroke="#122847" stroke-linecap="round" stroke-linejoin="round"/>
<path d="M32.591 214.058C32.381 214.058 32.173 214.017 31.979 213.936C31.7849 213.856 31.6086 213.738 31.4601 213.59C31.3116 213.441 31.1938 213.265 31.1134 213.071C31.0331 212.877 30.9917 212.669 30.9917 212.459V121.885C30.9917 121.461 31.1602 121.054 31.4601 120.755C31.76 120.455 32.1668 120.286 32.591 120.286C33.0151 120.286 33.4219 120.455 33.7218 120.755C34.0218 121.054 34.1903 121.461 34.1903 121.885V212.459C34.1903 212.669 34.1489 212.877 34.0685 213.071C33.9882 213.265 33.8703 213.441 33.7218 213.59C33.5733 213.738 33.397 213.856 33.203 213.936C33.009 214.017 32.801 214.058 32.591 214.058Z" fill="#92F189" stroke="#122847" stroke-linecap="round" stroke-linejoin="round"/>
<path d="M104.822 210.8H46.9713C46.3429 210.799 45.7401 210.551 45.293 210.109L30.2742 195.09C30.0853 194.905 29.9355 194.684 29.8338 194.44C29.732 194.195 29.6804 193.933 29.6819 193.669C29.6828 193.274 29.7995 192.889 30.0175 192.56C30.2356 192.231 30.5454 191.974 30.9086 191.819C31.2717 191.665 31.6721 191.621 32.0601 191.692C32.4481 191.764 32.8066 191.948 33.0911 192.221L46.7936 205.384C47.2366 205.807 47.8261 206.043 48.4389 206.042H104.822C105.134 206.042 105.443 206.103 105.731 206.223C106.019 206.342 106.281 206.517 106.502 206.738C106.722 206.958 106.897 207.22 107.017 207.508C107.136 207.797 107.198 208.106 107.198 208.418C107.199 208.73 107.138 209.04 107.019 209.329C106.9 209.618 106.725 209.881 106.504 210.102C106.283 210.323 106.021 210.499 105.733 210.619C105.444 210.738 105.134 210.8 104.822 210.8Z" fill="#92F189" stroke="#122847" stroke-linecap="round" stroke-linejoin="round"/>
<path d="M88.7434 206.055H49.255C48.946 206.055 48.6497 205.932 48.4313 205.713C48.2128 205.495 48.0901 205.199 48.0901 204.89C48.0901 204.58 48.2126 204.283 48.4309 204.064C48.6492 203.844 48.9454 203.72 49.255 203.718H88.7434C89.053 203.72 89.3492 203.844 89.5675 204.064C89.7858 204.283 89.9083 204.58 89.9083 204.89C89.9083 205.199 89.7856 205.495 89.5671 205.713C89.3486 205.932 89.0524 206.055 88.7434 206.055Z" fill="#3373CC" stroke="#122847" stroke-linecap="round" stroke-linejoin="round"/>
<path d="M180.909 172.779L181.778 164.44L167.957 165.467V171.226C167.361 175.046 166.999 178.899 166.871 182.763C166.786 187.653 168.892 208.819 169.326 213.037C167.082 214.874 160.619 220.442 160.829 223.462C161.086 227.109 178.902 224.647 179.494 222.613C180.008 220.85 177.921 214.525 177.349 212.847C178.119 207.693 181.798 182.52 180.909 172.779Z" fill="white" stroke="#122847" stroke-width="1.0325" stroke-linecap="round" stroke-linejoin="round"/>
<path d="M175.164 215.085C174.736 212.452 169.319 213.058 169.319 213.058C167.075 214.894 160.612 220.462 160.823 223.483C161.08 227.129 178.895 224.667 179.488 222.633C180.001 220.87 177.915 214.545 177.342 212.867C176.592 213.216 175.585 217.711 175.164 215.085Z" fill="#3373CC" stroke="#122847" stroke-width="1.0325" stroke-linecap="round" stroke-linejoin="round"/>
<path d="M179.488 222.634C179.614 221.699 179.555 220.749 179.317 219.836C179.725 221.679 169.135 223.785 164.39 223.397C162.547 223.232 161.6 222.653 161.099 222.015C160.891 222.476 160.788 222.977 160.797 223.483C161.08 227.129 178.895 224.667 179.488 222.634Z" fill="#122847" stroke="#122847" stroke-width="1.0325" stroke-linecap="round" stroke-linejoin="round"/>
<path d="M177.869 217.638C177.981 218.388 177.79 219.04 177.448 219.093C177.105 219.145 176.724 218.579 176.612 217.829C176.5 217.079 176.684 216.421 177.033 216.368C177.382 216.315 177.757 216.881 177.869 217.638Z" fill="white" stroke="#122847" stroke-width="0.774372" stroke-linecap="round" stroke-linejoin="round"/>
<path d="M164.39 223.391C167.136 223.506 169.885 223.285 172.577 222.733C172.064 220.896 170.728 217.849 167.529 217.744C166.273 217.693 165.016 217.851 163.811 218.211C162.719 219.334 161.815 220.625 161.132 222.035C161.606 222.66 162.554 223.233 164.39 223.391Z" fill="white" stroke="#122847" stroke-width="1.0325" stroke-linecap="round" stroke-linejoin="round"/>
<path d="M169.813 170.739C169.813 170.739 170.386 172.845 174.966 174.03" stroke="#122847" stroke-width="0.774372" stroke-linecap="round" stroke-linejoin="round"/>
<path d="M192.262 172.779L191.394 164.44L205.215 165.467V171.226C205.811 175.046 206.173 178.899 206.301 182.763C206.393 187.653 204.28 208.819 203.852 213.037C206.09 214.874 212.553 220.442 212.342 223.462C212.086 227.109 194.27 224.647 193.677 222.613C193.164 220.85 195.25 214.525 195.823 212.847C195.053 207.693 191.374 182.52 192.262 172.779Z" fill="white" stroke="#122847" stroke-width="1.0325" stroke-linecap="round" stroke-linejoin="round"/>
<path d="M198.008 215.085C198.436 212.452 203.859 213.058 203.859 213.058C206.096 214.894 212.559 220.462 212.349 223.483C212.092 227.129 194.276 224.667 193.684 222.633C193.171 220.87 195.257 214.545 195.829 212.867C196.58 213.216 197.587 217.711 198.008 215.085Z" fill="#3373CC" stroke="#122847" stroke-width="1.0325" stroke-linecap="round" stroke-linejoin="round"/>
<path d="M193.684 222.634C193.557 221.699 193.617 220.748 193.862 219.836C193.447 221.679 204.036 223.785 208.782 223.397C210.624 223.232 211.572 222.653 212.072 222.015C212.28 222.476 212.384 222.977 212.375 223.483C212.092 227.129 194.276 224.667 193.684 222.634Z" fill="#122847" stroke="#122847" stroke-width="1.0325" stroke-linecap="round" stroke-linejoin="round"/>
<path d="M195.303 217.638C195.191 218.388 195.382 219.04 195.724 219.093C196.066 219.145 196.448 218.579 196.56 217.829C196.672 217.079 196.488 216.421 196.139 216.368C195.79 216.315 195.415 216.881 195.303 217.638Z" fill="white" stroke="#122847" stroke-width="0.774372" stroke-linecap="round" stroke-linejoin="round"/>
<path d="M208.782 223.391C206.036 223.506 203.286 223.285 200.594 222.733C201.114 220.896 202.444 217.849 205.642 217.744C206.899 217.693 208.156 217.851 209.361 218.211C210.452 219.334 211.357 220.625 212.039 222.035C211.566 222.66 210.618 223.233 208.782 223.391Z" fill="white" stroke="#122847" stroke-width="1.0325" stroke-linecap="round" stroke-linejoin="round"/>
<path d="M203.707 170.739C203.707 170.739 203.135 172.845 198.554 174.03" stroke="#122847" stroke-width="0.774372" stroke-linecap="round" stroke-linejoin="round"/>
<path d="M240.596 45.0411L217.456 62.8043L213.573 57.7432L220.483 44.9555L236.707 39.9734L240.596 45.0411Z" fill="#3373CC" stroke="#122847" stroke-width="1.0325" stroke-linecap="round" stroke-linejoin="round"/>
<path d="M218.384 64.647L217.232 65.5289C217.006 65.6994 216.722 65.7742 216.442 65.7373C216.161 65.7004 215.906 65.5546 215.732 65.3315L211.158 59.3688C211.068 59.2553 211.013 59.1181 211 58.9739L210.782 57.0521C210.766 56.9164 210.785 56.7789 210.838 56.6529C210.891 56.5269 210.976 56.4167 211.084 56.3331C211.192 56.2496 211.32 56.1955 211.455 56.1762C211.59 56.1568 211.728 56.1729 211.855 56.2228L213.659 56.9271C213.793 56.9812 213.911 57.0697 214.001 57.1837L218.608 63.1465C218.775 63.3757 218.846 63.6618 218.804 63.9427C218.762 64.2236 218.611 64.4767 218.384 64.647Z" fill="#122847" stroke="#122847" stroke-width="1.0325" stroke-linecap="round" stroke-linejoin="round"/>
<path d="M243.156 45.6333L242.011 46.5218C241.789 46.6912 241.51 46.768 241.233 46.7361C240.956 46.7042 240.701 46.566 240.524 46.3507L235.917 40.355C235.826 40.2412 235.769 40.1045 235.752 39.9601L235.542 38.0384C235.527 37.9032 235.547 37.7665 235.6 37.6414C235.653 37.5164 235.738 37.4072 235.846 37.3244C235.954 37.2417 236.081 37.1882 236.216 37.1692C236.351 37.1501 236.488 37.1661 236.614 37.2157L238.418 37.9199C238.553 37.9735 238.671 38.0621 238.76 38.1766L243.334 44.1393C243.421 44.2489 243.485 44.3745 243.524 44.5091C243.562 44.6437 243.573 44.7844 243.556 44.9233C243.54 45.0622 243.496 45.1965 243.427 45.3183C243.359 45.4402 243.267 45.5472 243.156 45.6333Z" fill="#122847" stroke="#122847" stroke-width="1.0325" stroke-linecap="round" stroke-linejoin="round"/>
<path d="M220.121 34.7674C220.84 35.6953 221.266 36.8157 221.347 37.9864C221.428 39.1572 221.159 40.3254 220.574 41.3431C219.99 42.3607 219.116 43.1819 218.065 43.7023C217.013 44.2228 215.83 44.4191 214.667 44.2664C213.503 44.1137 212.411 43.6188 211.53 42.8445C210.648 42.0702 210.016 41.0515 209.714 39.9175C209.412 38.7835 209.454 37.5854 209.834 36.4752C210.214 35.3649 210.915 34.3926 211.848 33.6815C213.092 32.7345 214.659 32.3172 216.209 32.5206C217.758 32.724 219.165 33.5316 220.121 34.7674Z" fill="#3373CC" stroke="#122847" stroke-width="1.0325" stroke-linecap="round" stroke-linejoin="round"/>
<path d="M214.876 35.3744L211.263 38.1482C210.332 38.8632 210.157 40.1977 210.872 41.1289L211.558 42.0215C212.273 42.9527 213.607 43.1279 214.538 42.4129L218.15 39.6391C219.082 38.9241 219.257 37.5896 218.542 36.6584L217.856 35.7658C217.141 34.8346 215.807 34.6594 214.876 35.3744Z" fill="#122847" stroke="#122847" stroke-width="1.0325" stroke-linecap="round" stroke-linejoin="round"/>
<path d="M225.301 29.9564C223.123 31.2332 226.315 33.3392 226.315 33.3392C227.071 36.7813 224.998 39.1703 223.748 40.2563C222.962 40.3064 222.209 40.5881 221.583 41.0658L217.028 44.5671C216.431 45.0184 215.975 45.6301 215.712 46.3309C214.706 46.9726 213.551 47.3426 212.359 47.4049C211.168 47.4671 209.981 47.2196 208.913 46.6863C208.913 46.6863 207.709 43.0534 205.906 44.8369C205.906 44.8369 201.733 44.2117 204.175 48.9371C204.175 48.9371 206.419 51.6947 207.722 50.2995C207.722 50.2995 212.856 52.3595 216.732 50.7602L222.03 57.6575C222.804 58.6547 223.899 59.3526 225.13 59.6319C225.564 61.9946 226.9 65.5552 230.875 68.9577C231.435 69.4382 233.08 70.9322 233.08 70.9322C233.08 70.9322 230.158 73.5252 232.29 75.1706C232.29 75.1706 236.43 71.8799 238.141 68.5892C238.141 68.5892 230.941 64.3639 229.408 58.8619C229.519 58.7956 229.627 58.7231 229.73 58.6447L231.527 57.2626C233.563 59.831 236.31 61.7442 239.425 62.7646C240.129 63.0147 242.195 63.8243 242.195 63.8243C242.195 63.8243 240.399 67.2927 242.985 68.0627C242.985 68.0627 245.677 63.5281 246.078 59.8162C246.078 59.8162 237.036 58.3222 233.988 53.1887C234.144 51.78 233.751 50.3655 232.889 49.2399L227.69 42.4676C230.823 39.2427 230.066 33.0628 230.066 33.0628C231.751 32.1677 229.671 29.2785 229.671 29.2785C225.781 25.764 225.301 29.9564 225.301 29.9564Z" fill="#3373CC" stroke="#122847" stroke-width="1.0325" stroke-linecap="round" stroke-linejoin="round"/>
<path d="M213.454 39.7097C213.718 40.0453 213.738 40.4665 213.507 40.6442C213.277 40.8219 212.849 40.6969 212.612 40.3546C212.375 40.0124 212.329 39.5978 212.566 39.4201C212.803 39.2424 213.198 39.374 213.454 39.7097Z" fill="#3373CC"/>
<path d="M215.765 37.9397C216.028 38.2753 216.048 38.6966 215.817 38.8743C215.587 39.052 215.159 38.9203 214.922 38.5847C214.685 38.249 214.639 37.8278 214.876 37.6501C215.113 37.4724 215.514 37.5975 215.765 37.9397Z" fill="#3373CC"/>
<path d="M224.125 44.4736L219.265 48.2053C218.616 48.7034 218.494 49.633 218.992 50.2817L220.764 52.5889C221.262 53.2376 222.192 53.3596 222.84 52.8615L227.7 49.1298C228.349 48.6317 228.471 47.7021 227.973 47.0534L226.201 44.7462C225.703 44.0975 224.773 43.9755 224.125 44.4736Z" fill="white" stroke="#122847" stroke-width="0.774372" stroke-linecap="round" stroke-linejoin="round"/>
<path d="M233.33 64.8577C232.318 66.0929 231.046 67.0905 229.605 67.7798C230 68.1813 230.428 68.5827 230.922 68.9842C231.415 69.3857 233.126 70.9586 233.126 70.9586C233.126 70.9586 230.204 73.5517 232.337 75.1971C232.337 75.1971 236.476 71.9063 238.187 68.6156C236.437 67.5429 234.808 66.2828 233.33 64.8577Z" fill="white" stroke="#122847" stroke-width="1.0325" stroke-linecap="round" stroke-linejoin="round"/>
<path d="M239.51 57.7166C238.8 59.146 237.874 60.4578 236.766 61.6062C237.637 62.0676 238.541 62.4635 239.471 62.7908C240.175 63.0409 242.242 63.8504 242.242 63.8504C242.242 63.8504 240.445 67.3188 243.031 68.0888C243.031 68.0888 245.723 63.5543 246.125 59.8423C243.84 59.4108 241.618 58.6968 239.51 57.7166Z" fill="white" stroke="#122847" stroke-width="1.0325" stroke-linecap="round" stroke-linejoin="round"/>
<path d="M211.151 47.3773C210.376 47.2827 209.625 47.0485 208.933 46.6863C208.933 46.6863 207.729 43.0533 205.925 44.8369C205.925 44.8369 201.753 44.2116 204.194 48.9371C204.194 48.9371 206.439 51.6947 207.742 50.2994C208.797 50.6912 209.888 50.98 211 51.1616C210.754 49.9056 210.806 48.6096 211.151 47.3773Z" fill="white" stroke="#122847" stroke-width="1.0325" stroke-linecap="round" stroke-linejoin="round"/>
<path d="M229.717 29.3374C225.768 25.7637 225.301 29.9561 225.301 29.9561C223.122 31.2328 226.314 33.3389 226.314 33.3389C226.532 34.2852 226.532 35.2687 226.314 36.215C227.523 36.6282 228.789 36.8503 230.066 36.8731C230.217 35.6324 230.232 34.3789 230.112 33.1349C231.797 32.2266 229.717 29.3374 229.717 29.3374Z" fill="white" stroke="#122847" stroke-width="1.0325" stroke-linecap="round" stroke-linejoin="round"/>
<path d="M164.028 79.8171C160.968 75.6388 157.419 71.8407 153.458 68.5036C153.458 68.5036 150.122 62.9424 139.736 53.4849C139.736 53.4849 139.618 41.4278 137.512 41.2501C135.656 41.0921 137.604 45.7912 136.195 46.8113C134.991 47.6933 129.89 40.0457 128.778 41.204C127.666 42.3623 131.371 46.0676 131.003 46.8113C130.634 47.555 125.994 43.4746 125.257 44.0274C124.52 44.5803 125.257 46.4362 125.257 46.4362C125.257 46.4362 123.401 45.574 123.895 47.0549C124.388 48.5357 127.725 49.5295 127.725 50.5167C127.725 51.5039 124.099 49.4044 123.809 50.5167C123.52 51.6289 127.975 52.9913 127.975 52.9913C127.975 52.9913 131.312 56.203 133.536 56.9401C133.536 56.9401 142.685 71.281 146.041 74.8613C149.398 78.4416 162.607 90.446 162.607 90.446L165.081 81.6664C165.081 81.6664 164.337 80.2514 164.028 79.8171Z" fill="white" stroke="#122847" stroke-width="1.0325" stroke-linecap="round" stroke-linejoin="round"/>
<path d="M135.656 48.2C135.656 48.2 134.544 48.6672 134.267 51.1682" stroke="#122847" stroke-width="1.0325" stroke-linecap="round" stroke-linejoin="round"/>
<path d="M126.297 46.5352C126.297 46.5352 128.054 48.5688 129.818 49.1282" stroke="#122847" stroke-width="1.0325" stroke-linecap="round" stroke-linejoin="round"/>
<path d="M202.779 81.344C206.057 79.1105 209.698 77.4648 213.54 76.4803C213.897 74.8629 214.468 73.3003 215.238 71.8338C216.587 69.1486 218.956 65.7131 220.029 62.7581C220.029 62.7581 213.54 59.4213 213.915 57.0059C214.29 54.5906 217.864 58.7237 218.917 58.2367C222.017 56.8019 223.208 57.9405 223.925 58.9804C224.432 59.7109 225.189 61.3497 225.788 62.0144C226.189 62.4553 227.249 63.1201 227.532 63.6466C227.647 63.9417 227.718 64.2522 227.743 64.568C227.807 65.0314 227.757 65.5035 227.598 65.9435C226.643 68.576 222.78 78.7838 218.917 83.2262C214.468 88.3466 205.938 90.4658 205.938 90.4658L202.779 81.344Z" fill="white" stroke="#122847" stroke-width="1.0325" stroke-linecap="round" stroke-linejoin="round"/>
<path d="M166.996 137.667C165.496 124.93 165.185 112.08 166.068 99.2847L161.58 94.6777C161.024 94.1038 160.649 93.3797 160.5 92.5948C160.352 91.81 160.437 90.9988 160.744 90.2616C161.989 87.1498 162.784 83.8768 163.107 80.5409C163.136 80.2536 163.226 79.9758 163.37 79.726C163.515 79.4762 163.711 79.2601 163.946 79.092C164.181 78.9239 164.448 78.8077 164.732 78.7511C165.015 78.6945 165.307 78.6989 165.588 78.7639C167.51 79.218 170.109 80.0802 171.301 81.4886C171.301 81.4886 174.782 80.5606 176.454 83.1602C176.454 83.1602 182.568 85.7533 190.545 83.1602C190.545 83.1602 192.585 80.192 195.362 81.844C197.712 81.0345 200.105 80.3534 202.529 79.8037C203.16 79.6504 203.826 79.7525 204.382 80.0877C204.938 80.423 205.339 80.9644 205.498 81.5939C206.18 84.419 207.268 87.1303 208.729 89.6429C208.903 89.9293 209.017 90.2475 209.066 90.5787C209.115 90.91 209.097 91.2477 209.014 91.572C208.931 91.8963 208.783 92.2007 208.581 92.4673C208.378 92.7339 208.124 92.9573 207.834 93.1245C205.647 94.3305 203.64 95.8369 201.871 97.5998C201.871 97.5998 204.267 123.004 204.267 136.358L166.996 137.667Z" fill="#3373CC" stroke="#122847" stroke-width="1.0325" stroke-linecap="round" stroke-linejoin="round"/>
<path d="M171.301 135.95L176.276 135.812C176.276 135.812 172.558 104.293 176.454 83.1606C174.782 80.5609 171.301 81.4889 171.301 81.4889C169.307 99.5879 169.307 117.851 171.301 135.95Z" fill="#122847" stroke="#122847" stroke-width="1.0325" stroke-linecap="round" stroke-linejoin="round"/>
<path d="M190.545 83.1541C193.843 100.242 195.457 117.612 195.362 135.016H200.555C200.555 135.016 200.93 111.711 195.362 81.8575C192.585 80.1859 190.545 83.1541 190.545 83.1541Z" fill="#122847" stroke="#122847" stroke-width="1.0325" stroke-linecap="round" stroke-linejoin="round"/>
<path d="M205.089 135.015C206.809 145.693 207.435 156.518 206.959 167.323C206.959 167.323 201.476 170.614 189.715 167.323C189.715 167.323 187.53 153.95 186.023 153.792C184.516 153.634 183.831 167.323 183.831 167.323C183.831 167.323 177.724 169.475 166.187 167.323C166.187 167.323 165.015 157.879 165.943 136.101L205.089 135.015Z" fill="#122847" stroke="#122847" stroke-width="1.0325" stroke-linecap="round" stroke-linejoin="round"/>
<path d="M176.454 141.017C176.455 141.493 176.315 141.958 176.052 142.354C175.789 142.75 175.414 143.058 174.975 143.241C174.537 143.424 174.053 143.473 173.587 143.381C173.121 143.289 172.692 143.06 172.355 142.725C172.019 142.389 171.789 141.961 171.696 141.495C171.603 141.029 171.65 140.545 171.832 140.106C172.013 139.667 172.321 139.291 172.716 139.027C173.112 138.763 173.576 138.622 174.052 138.622C174.367 138.621 174.679 138.682 174.97 138.802C175.262 138.922 175.527 139.098 175.75 139.321C175.973 139.543 176.15 139.808 176.271 140.099C176.392 140.39 176.454 140.702 176.454 141.017Z" fill="#3373CC"/>
<path d="M200.377 141.017C200.377 141.491 200.237 141.954 199.973 142.348C199.71 142.742 199.336 143.049 198.898 143.23C198.461 143.412 197.979 143.459 197.514 143.367C197.049 143.274 196.623 143.046 196.288 142.711C195.953 142.376 195.724 141.949 195.632 141.485C195.54 141.02 195.587 140.538 195.768 140.1C195.95 139.663 196.257 139.289 196.651 139.025C197.045 138.762 197.508 138.622 197.982 138.622C198.617 138.622 199.226 138.874 199.676 139.323C200.125 139.773 200.377 140.382 200.377 141.017Z" fill="#3373CC"/>
<path d="M177.487 83.5553L177.086 79.6064C173.656 77.2366 171.137 73.7682 169.945 69.7738C168.174 63.324 168.273 56.611 175.638 53.623C183.002 50.6351 191.025 48.7067 194.987 57.7298C198.949 66.7529 198.041 81.8441 188.853 83.0156C188.919 83.286 188.928 83.5674 188.877 83.8413C188.827 84.1151 188.72 84.3753 188.562 84.6046C188.404 84.8339 188.199 85.0273 187.961 85.172C187.724 85.3167 187.458 85.4094 187.182 85.4441C184.504 85.8411 181.78 85.8078 179.113 85.3454C178.685 85.2632 178.295 85.0443 178.001 84.7215C177.708 84.3986 177.528 83.9894 177.487 83.5553Z" fill="white" stroke="#122847" stroke-width="1.0325" stroke-linecap="round" stroke-linejoin="round"/>
<path d="M178.771 80.8372C178.771 80.8372 181.712 82.6865 186.806 82.7787" stroke="#122847" stroke-width="1.0325" stroke-linecap="round" stroke-linejoin="round"/>
<path d="M191.163 66.095C191.163 67.3389 193.013 68.484 192.822 69.7082C192.71 70.4321 191.571 71.5115 191.163 72.1235C190.986 72.3934 191.163 73.4398 191.163 73.4398" stroke="#122847" stroke-width="1.0325" stroke-linecap="round" stroke-linejoin="round"/>
<path d="M187.761 65.1867C187.958 65.9172 187.846 66.5885 187.511 66.6741C187.175 66.7597 186.76 66.2331 186.569 65.496C186.379 64.7589 186.49 64.0942 186.82 64.0086C187.149 63.9231 187.57 64.4496 187.761 65.1867Z" fill="#122847"/>
<path d="M194.77 63.903C194.961 64.6401 194.849 65.3049 194.52 65.397C194.191 65.4891 193.763 64.956 193.572 64.2189C193.381 63.4818 193.493 62.8171 193.822 62.7315C194.151 62.646 194.572 63.1725 194.77 63.903Z" fill="#122847"/>
<path d="M184.213 74.2559C185.084 74.9818 186.128 75.469 187.244 75.6698C188.36 75.8705 189.508 75.7779 190.577 75.401" stroke="#122847" stroke-width="1.0325" stroke-linecap="round" stroke-linejoin="round"/>
<path d="M183.628 64.1862C183.628 64.1862 184.575 62.1196 186.616 62.2117" stroke="#122847" stroke-width="1.0325" stroke-linecap="round" stroke-linejoin="round"/>
<path d="M194.566 61.9089C194.566 61.9089 193.908 60.6651 191.933 61.2508" stroke="#122847" stroke-width="1.0325" stroke-linecap="round" stroke-linejoin="round"/>
<path d="M175.809 52.557C175.809 52.557 173.209 44.7712 177.415 44.1525C181.62 43.5339 176.546 46.8114 175.809 52.557Z" fill="#122847" stroke="#122847" stroke-width="1.0325" stroke-linecap="round" stroke-linejoin="round"/>
<path d="M171.11 69.1221C171.11 69.1221 177.691 64.3506 176.651 58.9801C176.651 58.9801 177.829 62.8829 188.004 59.9739C198.179 57.0649 198.725 60.6321 198.725 60.6321C198.725 60.6321 196.698 37.7288 175.954 51.4708C175.954 51.4708 164.022 54.36 164.877 61.5271C165.733 68.6943 171.11 69.1221 171.11 69.1221Z" fill="#122847" stroke="#122847" stroke-width="1.0325" stroke-linecap="round" stroke-linejoin="round"/>
<path d="M174.137 68.069C174.137 68.069 168.214 65.318 168.813 70.7937C169.438 76.3879 174.835 74.5582 174.835 74.5582" fill="white"/>
<path d="M174.137 68.069C174.137 68.069 168.214 65.318 168.813 70.7937C169.438 76.3879 174.835 74.5582 174.835 74.5582" stroke="#122847" stroke-width="1.0325" stroke-linecap="round" stroke-linejoin="round"/>
<path d="M168.431 63.9954C168.569 64.7079 168.758 65.4096 168.997 66.0948" stroke="#CEF9CA" stroke-width="0.774372" stroke-linecap="round" stroke-linejoin="round"/>
<path d="M174.157 54.3535C174.157 54.3535 168.332 55.729 168.234 61.7378" stroke="#CEF9CA" stroke-width="0.774372" stroke-linecap="round" stroke-linejoin="round"/>
<path d="M195.112 54.6763C195.454 55.2173 195.763 55.7777 196.04 56.3545" stroke="#CEF9CA" stroke-width="0.774372" stroke-linecap="round" stroke-linejoin="round"/>
<path d="M177.039 53.5903C177.039 53.5903 187.708 45.923 194.098 53.3073" stroke="#CEF9CA" stroke-width="0.774372" stroke-linecap="round" stroke-linejoin="round"/>
<path d="M172.735 59.4214C171.851 61.2619 171.524 63.3207 171.794 65.3446" stroke="#CEF9CA" stroke-width="0.774372" stroke-linecap="round" stroke-linejoin="round"/>
<path d="M175.012 56.3545C174.602 56.713 174.23 57.1122 173.9 57.5457" stroke="#CEF9CA" stroke-width="0.774372" stroke-linecap="round" stroke-linejoin="round"/>
<path d="M189.663 57.256C194.533 56.5978 190.939 53.5638 187.399 53.3071" stroke="#CEF9CA" stroke-width="0.774372" stroke-linecap="round" stroke-linejoin="round"/>
<path d="M178.25 55.5249C178.25 55.5249 181.89 57.4993 187.708 57.394" stroke="#CEF9CA" stroke-width="0.774372" stroke-linecap="round" stroke-linejoin="round"/>
<path d="M129.496 124.9L132.786 121.346C132.786 121.346 133.142 115.113 133.51 113.073C133.787 111.552 135.162 107.15 135.162 107.15C135.185 107.071 135.227 106.999 135.284 106.94C135.342 106.882 135.413 106.838 135.491 106.814C135.57 106.79 135.653 106.786 135.733 106.802C135.814 106.818 135.889 106.854 135.952 106.906L136.215 107.123C136.415 107.286 136.569 107.497 136.663 107.737C136.756 107.977 136.786 108.237 136.748 108.492L136.334 111.381V113.448C136.333 113.495 136.346 113.541 136.373 113.58C136.399 113.619 136.436 113.649 136.48 113.666C136.523 113.683 136.571 113.687 136.617 113.676C136.662 113.665 136.704 113.641 136.735 113.606C137.603 112.689 138.39 111.698 139.085 110.644C139.682 109.123 140.147 107.553 140.473 105.952C140.498 105.843 140.548 105.742 140.618 105.657C140.689 105.571 140.779 105.502 140.88 105.457C140.982 105.412 141.092 105.391 141.203 105.395C141.314 105.4 141.423 105.431 141.52 105.484L141.691 105.583C142.038 105.776 142.322 106.065 142.509 106.415C142.696 106.765 142.777 107.162 142.744 107.558L142.698 108.071L143.428 109.038C143.626 109.302 143.758 109.609 143.813 109.935C143.868 110.26 143.845 110.593 143.744 110.907L143.369 112.086L143.777 112.823C143.939 113.082 144.041 113.375 144.076 113.679C144.11 113.983 144.075 114.291 143.975 114.58L143.632 115.574C143.545 115.834 143.509 116.109 143.527 116.383L143.573 117.107C143.6 117.439 143.527 117.772 143.363 118.061C142.704 119.253 140.73 122.517 138.433 124.432L133.642 130.948L129.496 124.9Z" fill="white" stroke="#122847" stroke-linecap="round" stroke-linejoin="round"/>
<path d="M85.5317 136.608C85.5317 136.608 90.9745 136.727 100.991 138.405C110.765 140.044 130.391 122.945 130.391 122.945C131.894 125.305 133.66 127.486 135.656 129.447C135.656 129.447 122.69 149.257 108.553 151.423C100.11 152.727 91.4684 151.5 83.7218 147.895C83.7218 147.895 81.1222 144.085 85.5317 136.608Z" fill="#3373CC"/>
<mask id="mask0_6049_7778" style="mask-type:luminance" maskUnits="userSpaceOnUse" x="82" y="122" width="54" height="30">
<path d="M85.5317 136.608C85.5317 136.608 90.9745 136.727 100.991 138.405C110.765 140.044 130.391 122.945 130.391 122.945C131.894 125.305 133.66 127.486 135.656 129.447C135.656 129.447 122.69 149.257 108.553 151.423C100.11 152.727 91.4684 151.5 83.7218 147.895C83.7218 147.895 81.1222 144.085 85.5317 136.608Z" fill="white"/>
</mask>
<g mask="url(#mask0_6049_7778)">
<path opacity="0.2" d="M99.8792 145.289C100.384 146.838 100.766 148.425 101.024 150.034C101.209 150.771 101.38 151.508 101.544 152.252H102.861C104.216 152.206 105.585 152.101 106.948 151.929C108.81 151.403 110.673 150.863 112.555 150.409C115.846 148.612 119.215 146.901 122.381 144.9C123.473 144.098 124.553 143.275 125.626 142.452C126.244 141.945 126.856 141.439 127.468 140.919C127.523 140.571 127.692 140.251 127.949 140.011C128.173 139.793 128.411 139.588 128.66 139.398C128.594 139.114 128.596 138.817 128.667 138.533C128.738 138.25 128.875 137.987 129.068 137.766L129.199 137.621V137.523C128.953 136.525 128.855 135.496 128.91 134.469C122.519 141.465 115.576 146.355 109.297 147.579C101.222 149.159 99.3461 143.63 99.3461 143.63L99.0367 144.196C99.245 144.31 99.4274 144.466 99.5724 144.654C99.7174 144.842 99.8219 145.058 99.8792 145.289Z" fill="black"/>
<path opacity="0.2" d="M109.304 140.465C109.201 140.35 109.065 140.272 108.914 140.239C108.764 140.207 108.607 140.223 108.466 140.285C108.325 140.347 108.208 140.452 108.13 140.585C108.052 140.717 108.019 140.871 108.034 141.024C108.284 143.525 108.988 147.329 110.91 146.112C112.831 144.894 110.818 142.15 109.304 140.465Z" fill="black"/>
</g>
<path d="M85.5317 136.608C85.5317 136.608 90.9745 136.727 100.991 138.405C110.765 140.044 130.391 122.945 130.391 122.945C131.894 125.305 133.66 127.486 135.656 129.447C135.656 129.447 122.69 149.257 108.553 151.423C100.11 152.727 91.4684 151.5 83.7218 147.895C83.7218 147.895 81.1222 144.085 85.5317 136.608Z" stroke="#122847" stroke-linecap="round" stroke-linejoin="round"/>
<path d="M140.763 106.294C140.763 106.294 140.651 108.235 141.77 108.486C141.607 109 141.569 109.545 141.657 110.076C141.745 110.608 141.957 111.112 142.277 111.546C141.983 111.891 141.821 112.33 141.821 112.783C141.821 113.237 141.983 113.675 142.277 114.021C142.277 114.021 141.099 114.56 141.855 116.581C142.514 118.417 139.749 117.344 137.248 118.858" fill="white"/>
<path d="M140.763 106.294C140.763 106.294 140.651 108.235 141.77 108.486C141.607 109 141.569 109.545 141.657 110.076C141.745 110.608 141.957 111.112 142.277 111.546C141.983 111.891 141.821 112.33 141.821 112.783C141.821 113.237 141.983 113.675 142.277 114.021C142.277 114.021 141.099 114.56 141.855 116.581C142.514 118.417 139.749 117.344 137.248 118.858" stroke="#122847" stroke-linecap="round" stroke-linejoin="round"/>
<path d="M137.518 80.3699C137.802 80.1186 138.064 79.8434 138.301 79.5472C139.539 77.9874 144.225 72.6104 147.515 75.8748C151.379 79.6656 147.515 85.6942 147.515 85.6942L146.811 80.2645L145.804 84.99C145.804 84.99 147.081 75.9669 138.762 81.2781L137.571 81.8243L136.979 80.8174L137.518 80.3699Z" fill="#3373CC" stroke="#122847" stroke-linecap="round" stroke-linejoin="round"/>
<path d="M129.864 75.8748C124.434 75.8748 121.236 80.0539 121.236 85.2072L121.038 87.0434C121.038 87.0434 119.34 88.3597 121.697 88.5505C122.185 90.3159 123.253 91.866 124.728 92.952C126.203 94.0381 128 94.5972 129.831 94.5396C135.267 94.5396 139.67 90.3604 139.67 85.2072C139.67 80.0539 135.3 75.8748 129.864 75.8748Z" fill="white" stroke="#122847" stroke-linecap="round" stroke-linejoin="round"/>
<path d="M139.703 85.1809C139.703 80.0277 135.3 75.8485 129.864 75.8485C128.089 75.7893 126.344 76.3115 124.893 77.3356C123.443 78.3597 122.366 79.8296 121.828 81.5217C122.592 83.0354 123.901 84.9769 125.882 85.714C125.882 85.714 125.547 90.321 128.113 93.0984C129.064 92.6434 130.12 92.4504 131.17 92.5395C132.221 92.6286 133.228 92.9965 134.089 93.6051C135.738 92.8926 137.146 91.718 138.142 90.2232C139.138 88.7284 139.68 86.9771 139.703 85.1809Z" fill="#3373CC" stroke="#122847" stroke-linecap="round" stroke-linejoin="round"/>
<path d="M133.392 93.7369L133.991 98.4163H127.659L128.258 93.7369C128.258 93.7369 130.233 92.4667 133.392 93.7369Z" fill="white" stroke="#122847" stroke-linecap="round" stroke-linejoin="round"/>
<path d="M125.77 80.6595C125.507 80.4241 125.265 80.1664 125.046 79.8895C123.822 78.3429 119.123 72.9395 115.832 76.2105C111.963 80.0014 115.832 86.0299 115.832 86.0299L116.53 80.6003L117.537 85.3257C117.537 85.3257 116.26 76.3026 124.586 81.6204L125.244 81.91C125.396 81.9855 125.571 81.9996 125.732 81.9493C125.894 81.899 126.03 81.7883 126.113 81.6401C126.197 81.505 126.23 81.3437 126.204 81.1864C126.179 81.029 126.097 80.8862 125.974 80.7846L125.77 80.6595Z" fill="#3373CC" stroke="#122847" stroke-linecap="round" stroke-linejoin="round"/>
<path d="M123.882 97.6459L110.153 93.1442C110.153 93.1442 109.982 88.8466 107.803 88.1292C105.625 87.4118 101.939 90.6235 104.302 93.3943C106.665 96.1651 107.369 96.1848 107.369 96.1848L120.69 102.931L123.882 97.6459Z" fill="white" stroke="#122847" stroke-linecap="round" stroke-linejoin="round"/>
<path d="M115.306 95.7112C114.648 96.0468 113.944 96.784 113.503 98.4096" stroke="#122847" stroke-linecap="round" stroke-linejoin="round"/>
<path d="M109.475 93.3289C109.033 93.5246 108.637 93.8109 108.313 94.1691C107.989 94.5273 107.744 94.9496 107.593 95.4086" stroke="#122847" stroke-linecap="round" stroke-linejoin="round"/>
<path d="M125.547 97.2908C125.547 97.2908 117.313 92.6839 119.097 96.8696C119.097 96.8696 116.464 97.3962 117.919 100.206C117.919 100.206 114.997 101.417 117.458 102.839C118.782 103.682 120.311 104.149 121.881 104.188L125.547 97.2908Z" fill="#3373CC"/>
<mask id="mask1_6049_7778" style="mask-type:luminance" maskUnits="userSpaceOnUse" x="116" y="95" width="10" height="10">
<path d="M125.547 97.2908C125.547 97.2908 117.313 92.6839 119.097 96.8696C119.097 96.8696 116.464 97.3962 117.919 100.206C117.919 100.206 114.997 101.417 117.458 102.839C118.782 103.682 120.311 104.149 121.881 104.188L125.547 97.2908Z" fill="white"/>
</mask>
<g mask="url(#mask1_6049_7778)">
<path opacity="0.5" d="M125.547 97.2908C125.547 97.2908 117.313 92.6839 119.097 96.8696C119.097 96.8696 116.464 97.3962 117.919 100.206C117.919 100.206 114.997 101.417 117.458 102.839C118.782 103.682 120.311 104.149 121.881 104.188L125.547 97.2908Z" fill="white"/>
</g>
<path d="M125.547 97.2908C125.547 97.2908 117.313 92.6839 119.097 96.8696C119.097 96.8696 116.464 97.3962 117.919 100.206C117.919 100.206 114.997 101.417 117.458 102.839C118.782 103.682 120.311 104.149 121.881 104.188L125.547 97.2908Z" stroke="#122847" stroke-linecap="round" stroke-linejoin="round"/>
<path d="M137.018 98.0343L150.839 93.7169C150.839 93.7169 151.069 89.4258 153.248 88.7348C155.426 88.0437 159.085 91.3147 156.683 93.9999C154.281 96.6851 153.577 96.7444 153.577 96.7444L140.164 103.326L137.018 98.0343Z" fill="white" stroke="#122847" stroke-linecap="round" stroke-linejoin="round"/>
<path d="M145.475 96.0466C146.133 96.4152 146.851 97.2115 147.259 98.9359" stroke="#122847" stroke-linecap="round" stroke-linejoin="round"/>
<path d="M151.517 93.9275C151.947 94.1337 152.329 94.4258 152.642 94.7858C152.954 95.1458 153.19 95.5659 153.333 96.0204" stroke="#122847" stroke-linecap="round" stroke-linejoin="round"/>
<path d="M136.057 97.2908C136.057 97.2908 144.29 92.6839 142.507 96.8696C142.507 96.8696 145.139 97.3962 143.685 100.206C143.685 100.206 146.607 101.417 144.139 102.839C142.817 103.682 141.29 104.149 139.723 104.188L136.057 97.2908Z" fill="#3373CC"/>
<mask id="mask2_6049_7778" style="mask-type:luminance" maskUnits="userSpaceOnUse" x="136" y="95" width="10" height="10">
<path d="M136.057 97.2908C136.057 97.2908 144.29 92.6839 142.507 96.8696C142.507 96.8696 145.139 97.3962 143.685 100.206C143.685 100.206 146.607 101.417 144.139 102.839C142.817 103.682 141.29 104.149 139.723 104.188L136.057 97.2908Z" fill="white"/>
</mask>
<g mask="url(#mask2_6049_7778)">
<path opacity="0.5" d="M136.057 97.2908C136.057 97.2908 144.29 92.6839 142.507 96.8696C142.507 96.8696 145.139 97.3962 143.685 100.206C143.685 100.206 146.607 101.417 144.139 102.839C142.817 103.682 141.29 104.149 139.723 104.188L136.057 97.2908Z" fill="white"/>
</g>
<path d="M136.057 97.2908C136.057 97.2908 144.29 92.6839 142.507 96.8696C142.507 96.8696 145.139 97.3962 143.685 100.206C143.685 100.206 146.607 101.417 144.139 102.839C142.817 103.682 141.29 104.149 139.723 104.188L136.057 97.2908Z" stroke="#122847" stroke-linecap="round" stroke-linejoin="round"/>
<path d="M120.742 132.001C120.742 132.001 118.432 136.818 120.492 137.621C122.552 138.424 125.816 133.672 125.816 133.672C125.816 133.672 127.218 137.569 130.285 137.733C133.352 137.898 133.826 133.376 133.826 133.376C133.826 133.376 136.209 137.035 139.927 136.588C143.645 136.14 142.777 132.02 142.777 132.02L137.025 129.506L127.87 128.901L123.052 129.855L120.742 132.001Z" fill="#3373CC"/>
<path opacity="0.2" d="M120.742 132.001C120.742 132.001 118.432 136.818 120.492 137.621C122.552 138.424 125.816 133.672 125.816 133.672C125.816 133.672 127.218 137.569 130.285 137.733C133.352 137.898 133.826 133.376 133.826 133.376C133.826 133.376 136.209 137.035 139.927 136.588C143.645 136.14 142.777 132.02 142.777 132.02L137.025 129.506L127.87 128.901L123.052 129.855L120.742 132.001Z" fill="black"/>
<path d="M122.539 127.855C121.977 135.126 122.584 142.441 124.336 149.521H128.64C128.64 149.521 129.298 136.022 129.16 127.855C129.18 127.855 126.837 126.177 122.539 127.855Z" fill="white" stroke="#122847" stroke-linecap="round" stroke-linejoin="round"/>
<path d="M139.94 127.855C140.497 135.127 139.888 142.441 138.137 149.521H133.813C133.813 149.521 133.155 136.022 133.293 127.855C133.293 127.855 135.636 126.177 139.94 127.855Z" fill="white" stroke="#122847" stroke-linecap="round" stroke-linejoin="round"/>
<path d="M122.638 152.969L124.165 148.764C124.165 148.764 125.665 147.316 128.693 148.764L129.193 152.969H122.638Z" fill="#3373CC" stroke="#122847" stroke-linecap="round" stroke-linejoin="round"/>
<path d="M139.828 152.969L138.301 148.764C138.301 148.764 136.801 147.316 133.773 148.764L133.247 152.969H139.828Z" fill="#3373CC" stroke="#122847" stroke-linecap="round" stroke-linejoin="round"/>
<path d="M123.421 138.714C124.134 138.351 124.924 138.161 125.724 138.161C126.525 138.161 127.314 138.351 128.028 138.714" fill="white"/>
<path d="M123.421 138.714C124.134 138.351 124.924 138.161 125.724 138.161C126.525 138.161 127.314 138.351 128.028 138.714" stroke="#122847" stroke-linecap="round" stroke-linejoin="round"/>
<path d="M134.326 138.615C135.021 138.306 135.775 138.154 136.535 138.17C137.295 138.186 138.042 138.369 138.723 138.707" fill="white"/>
<path d="M134.326 138.615C135.021 138.306 135.775 138.154 136.535 138.17C137.295 138.186 138.042 138.369 138.723 138.707" stroke="#122847" stroke-linecap="round" stroke-linejoin="round"/>
<path d="M121.901 119.871C119.088 123.858 117.01 128.316 115.767 133.034C114.029 140.274 123.401 132.481 123.401 132.481C123.401 132.481 123.27 142.432 130.213 132.876C130.213 132.876 135.03 142.037 136.794 132.481C136.794 132.481 146.706 138.892 145.061 131.251C143.863 125.65 139.716 119.852 139.716 119.852L121.901 119.871Z" fill="#3373CC"/>
<mask id="mask3_6049_7778" style="mask-type:luminance" maskUnits="userSpaceOnUse" x="115" y="119" width="31" height="19">
<path d="M121.901 119.871C119.088 123.858 117.01 128.316 115.767 133.034C114.029 140.274 123.401 132.481 123.401 132.481C123.401 132.481 123.27 142.432 130.213 132.876C130.213 132.876 135.03 142.037 136.794 132.481C136.794 132.481 146.706 138.892 145.061 131.251C143.863 125.65 139.716 119.852 139.716 119.852L121.901 119.871Z" fill="white"/>
</mask>
<g mask="url(#mask3_6049_7778)">
<path opacity="0.5" d="M121.901 119.871C119.088 123.858 117.01 128.316 115.767 133.034C114.029 140.274 123.401 132.481 123.401 132.481C123.401 132.481 123.27 142.432 130.213 132.876C130.213 132.876 135.03 142.037 136.794 132.481C136.794 132.481 146.706 138.892 145.061 131.251C143.863 125.65 139.716 119.852 139.716 119.852L121.901 119.871Z" fill="white"/>
</g>
<path d="M121.901 119.871C119.088 123.858 117.01 128.316 115.767 133.034C114.029 140.274 123.401 132.481 123.401 132.481C123.401 132.481 123.27 142.432 130.213 132.876C130.213 132.876 135.03 142.037 136.794 132.481C136.794 132.481 146.706 138.892 145.061 131.251C143.863 125.65 139.716 119.852 139.716 119.852L121.901 119.871Z" stroke="#122847" stroke-linecap="round" stroke-linejoin="round"/>
<path d="M130.871 96.5142C127.251 96.5142 121.229 95.5862 120.249 105.169C119.439 113.145 119.623 117.785 119.834 119.944C119.871 120.382 120.052 120.795 120.35 121.118C120.648 121.441 121.046 121.656 121.479 121.728C124.244 122.221 130.812 123.044 139.907 121.728C140.406 121.657 140.86 121.403 141.181 121.014C141.501 120.626 141.664 120.131 141.638 119.628C141.467 116.173 141.039 108.584 140.427 104.043C139.611 97.995 137.301 96.4747 130.871 96.5142Z" fill="#3373CC"/>
<mask id="mask4_6049_7778" style="mask-type:luminance" maskUnits="userSpaceOnUse" x="119" y="96" width="23" height="27">
<path d="M130.871 96.5142C127.251 96.5142 121.229 95.5862 120.249 105.169C119.439 113.145 119.623 117.785 119.834 119.944C119.871 120.382 120.052 120.795 120.35 121.118C120.648 121.441 121.046 121.656 121.479 121.728C124.244 122.221 130.812 123.044 139.907 121.728C140.406 121.657 140.86 121.403 141.181 121.014C141.501 120.626 141.664 120.131 141.638 119.628C141.467 116.173 141.039 108.584 140.427 104.043C139.611 97.995 137.301 96.4747 130.871 96.5142Z" fill="white"/>
</mask>
<g mask="url(#mask4_6049_7778)">
<path d="M130.871 96.5142C127.251 96.5142 121.229 95.5862 120.249 105.169C119.439 113.145 119.623 117.785 119.834 119.944C119.871 120.382 120.052 120.795 120.35 121.118C120.648 121.441 121.046 121.656 121.479 121.728C124.244 122.221 130.812 123.044 139.907 121.728C140.406 121.657 140.86 121.403 141.181 121.014C141.501 120.626 141.664 120.131 141.638 119.628C141.467 116.173 141.039 108.584 140.427 104.043C139.611 97.995 137.301 96.4747 130.871 96.5142Z" fill="#3373CC"/>
<mask id="mask5_6049_7778" style="mask-type:luminance" maskUnits="userSpaceOnUse" x="119" y="96" width="23" height="27">
<path d="M130.871 96.5142C127.251 96.5142 121.229 95.5862 120.249 105.169C119.439 113.145 119.623 117.785 119.834 119.944C119.871 120.382 120.052 120.795 120.35 121.118C120.648 121.441 121.046 121.656 121.479 121.728C124.244 122.221 130.812 123.044 139.907 121.728C140.406 121.657 140.86 121.403 141.181 121.014C141.501 120.626 141.664 120.131 141.638 119.628C141.467 116.173 141.039 108.584 140.427 104.043C139.611 97.995 137.301 96.4747 130.871 96.5142Z" fill="white"/>
</mask>
<g mask="url(#mask5_6049_7778)">
<path opacity="0.2" d="M131.272 118.858C120.874 118.108 120.742 102.905 120.742 102.905L120.69 102.819C120.512 103.593 120.382 104.378 120.301 105.169C119.492 113.145 119.676 117.785 119.887 119.944C119.923 120.382 120.105 120.795 120.403 121.118C120.701 121.441 121.098 121.656 121.532 121.727C124.296 122.221 130.864 123.044 139.96 121.727C140.459 121.657 140.913 121.403 141.234 121.014C141.554 120.626 141.717 120.131 141.691 119.628C141.612 117.976 141.467 115.37 141.276 112.606C141.223 112.691 141.553 119.602 131.272 118.858Z" fill="black"/>
</g>
<path d="M130.871 96.5142C127.251 96.5142 121.229 95.5862 120.249 105.169C119.439 113.145 119.623 117.785 119.834 119.944C119.871 120.382 120.052 120.795 120.35 121.118C120.648 121.441 121.046 121.656 121.479 121.728C124.244 122.221 130.812 123.044 139.907 121.728C140.406 121.657 140.86 121.403 141.181 121.014C141.501 120.626 141.664 120.131 141.638 119.628C141.467 116.173 141.039 108.584 140.427 104.043C139.611 97.995 137.301 96.4747 130.871 96.5142Z" stroke="#122847" stroke-linecap="round" stroke-linejoin="round"/>
</g>
<path d="M130.871 96.5142C127.251 96.5142 121.229 95.5862 120.249 105.169C119.439 113.145 119.623 117.785 119.834 119.944C119.871 120.382 120.052 120.795 120.35 121.118C120.648 121.441 121.046 121.656 121.479 121.728C124.244 122.221 130.812 123.044 139.907 121.728C140.406 121.657 140.86 121.403 141.181 121.014C141.501 120.626 141.664 120.131 141.638 119.628C141.467 116.173 141.039 108.584 140.427 104.043C139.611 97.995 137.301 96.4747 130.871 96.5142Z" stroke="#122847" stroke-linecap="round" stroke-linejoin="round"/>
<path d="M118.505 133.1C118.261 133.758 117.8 134.166 117.478 134.041C117.155 133.916 117.09 133.298 117.333 132.653C117.577 132.008 118.037 131.593 118.36 131.718C118.682 131.843 118.768 132.462 118.505 133.1Z" fill="#3373CC"/>
<path d="M120.393 129.118C120.203 129.776 119.775 130.231 119.439 130.132C119.104 130.033 118.998 129.421 119.189 128.763C119.38 128.105 121.499 123.248 121.822 123.346C122.144 123.445 120.591 128.46 120.393 129.118Z" fill="#3373CC"/>
<path d="M140.802 128.756C141.026 129.415 141.46 129.842 141.796 129.731C142.132 129.619 142.211 129 141.987 128.348C141.763 127.697 139.446 122.939 139.117 123.083C138.788 123.228 140.578 128.105 140.802 128.756Z" fill="#3373CC"/>
<path d="M126.422 133.752C126.317 134.41 125.948 134.937 125.606 134.884C125.264 134.831 125.079 134.226 125.185 133.568C125.29 132.91 125.659 132.383 126.001 132.442C126.343 132.502 126.534 133.074 126.422 133.752Z" fill="#3373CC"/>
<path d="M126.804 130.151C126.731 130.81 126.389 131.356 126.047 131.323C125.705 131.29 125.481 130.698 125.56 130.007C125.639 129.316 126.929 123.971 127.278 124.011C127.626 124.05 126.883 129.467 126.804 130.151Z" fill="#3373CC"/>
<path d="M132.549 129.75C132.622 130.408 132.964 130.961 133.306 130.922C133.648 130.882 133.872 130.296 133.793 129.605C133.714 128.914 132.424 123.57 132.082 123.61C131.74 123.649 132.47 129.066 132.549 129.75Z" fill="#3373CC"/>
<path d="M134.432 133.258C134.537 133.916 134.339 134.535 133.997 134.574C133.655 134.614 133.293 134.114 133.188 133.436C133.082 132.758 133.28 132.159 133.622 132.119C133.964 132.08 134.326 132.567 134.432 133.258Z" fill="#3373CC"/>
<path d="M143.349 131.771C143.599 132.429 143.54 133.034 143.218 133.159C142.895 133.284 142.428 132.87 142.178 132.225C141.928 131.58 141.987 130.968 142.316 130.843C142.645 130.718 143.119 131.132 143.349 131.771Z" fill="#3373CC"/>
<path d="M125.915 154.549C127.725 154.549 129.193 153.85 129.193 152.989C129.193 152.128 127.725 151.429 125.915 151.429C124.105 151.429 122.638 152.128 122.638 152.989C122.638 153.85 124.105 154.549 125.915 154.549Z" fill="#3373CC"/>
<mask id="mask6_6049_7778" style="mask-type:luminance" maskUnits="userSpaceOnUse" x="122" y="151" width="8" height="4">
<path d="M125.915 154.549C127.725 154.549 129.193 153.85 129.193 152.989C129.193 152.128 127.725 151.429 125.915 151.429C124.105 151.429 122.638 152.128 122.638 152.989C122.638 153.85 124.105 154.549 125.915 154.549Z" fill="white"/>
</mask>
<g mask="url(#mask6_6049_7778)">
<path opacity="0.3" d="M125.915 154.549C127.725 154.549 129.193 153.85 129.193 152.989C129.193 152.128 127.725 151.429 125.915 151.429C124.105 151.429 122.638 152.128 122.638 152.989C122.638 153.85 124.105 154.549 125.915 154.549Z" fill="black"/>
</g>
<path d="M125.915 154.549C127.725 154.549 129.193 153.85 129.193 152.989C129.193 152.128 127.725 151.429 125.915 151.429C124.105 151.429 122.638 152.128 122.638 152.989C122.638 153.85 124.105 154.549 125.915 154.549Z" stroke="#122847" stroke-linecap="round" stroke-linejoin="round"/>
<path d="M133.247 152.969C133.247 153.831 134.715 154.529 136.538 154.529C138.361 154.529 139.828 153.831 139.828 152.969C139.828 152.107 138.361 151.409 136.538 151.409C134.715 151.409 133.247 152.127 133.247 152.969Z" fill="#3373CC"/>
<mask id="mask7_6049_7778" style="mask-type:luminance" maskUnits="userSpaceOnUse" x="133" y="151" width="7" height="4">
<path d="M133.247 152.969C133.247 153.831 134.715 154.529 136.538 154.529C138.361 154.529 139.828 153.831 139.828 152.969C139.828 152.107 138.361 151.409 136.538 151.409C134.715 151.409 133.247 152.127 133.247 152.969Z" fill="white"/>
</mask>
<g mask="url(#mask7_6049_7778)">
<path opacity="0.3" d="M133.247 152.969C133.247 153.831 134.715 154.529 136.538 154.529C138.361 154.529 139.828 153.831 139.828 152.969C139.828 152.107 138.361 151.409 136.538 151.409C134.715 151.409 133.247 152.127 133.247 152.969Z" fill="black"/>
</g>
<path d="M133.247 152.969C133.247 153.831 134.715 154.529 136.538 154.529C138.361 154.529 139.828 153.831 139.828 152.969C139.828 152.107 138.361 151.409 136.538 151.409C134.715 151.409 133.247 152.127 133.247 152.969Z" stroke="#122847" stroke-linecap="round" stroke-linejoin="round"/>
<path d="M124.829 85.4375C124.939 85.2271 125.108 85.0531 125.315 84.9363C125.521 84.8195 125.757 84.765 125.994 84.7793C126.698 84.9044 127.1 85.9706 126.876 87.1552C126.652 88.3399 125.915 89.1889 125.204 89.0573" fill="white"/>
<path d="M124.829 85.4375C124.939 85.2271 125.108 85.0531 125.315 84.9363C125.521 84.8195 125.757 84.765 125.994 84.7793C126.698 84.9044 127.1 85.9706 126.876 87.1552C126.652 88.3399 125.915 89.1889 125.204 89.0573" stroke="#122847" stroke-linecap="round" stroke-linejoin="round"/>
<path d="M68.3609 99.8575C52.9407 105.386 58.1729 115.495 57.6135 125.755C56.8105 140.471 40.7388 153.706 57.9228 165.395C56.76 163.131 56.3893 160.543 56.8698 158.044C57.09 160.549 57.8681 162.973 59.1469 165.138C59.4334 165.573 59.8029 165.947 60.2344 166.238C60.6659 166.53 61.1507 166.733 61.661 166.836C62.7599 167.054 63.8775 167.165 64.9978 167.165C80.089 167.284 73.2575 145.756 69.8088 133.278C68.5781 128.816 70.1774 125.755 70.1774 125.755L68.3609 120.418C68.3609 120.418 76.9167 116.048 74.6856 109.229C75.6716 110.471 76.3119 111.952 76.5416 113.52C76.5416 113.52 79.9047 108.367 89.3687 109.229C89.3687 109.223 86.9863 93.1905 68.3609 99.8575Z" fill="#122847" stroke="#122847" stroke-linecap="round" stroke-linejoin="round"/>
<path d="M107.171 122.293L111.449 118.522V111.704C111.439 111.559 111.439 111.414 111.449 111.269L112.173 105.728C112.196 105.62 112.245 105.52 112.317 105.436C112.388 105.353 112.479 105.288 112.582 105.249C112.685 105.21 112.796 105.197 112.905 105.211C113.014 105.226 113.118 105.268 113.207 105.333L113.555 105.636C113.936 105.973 114.172 106.445 114.213 106.952L114.668 111.421L122.565 104.609C122.754 104.447 122.991 104.353 123.239 104.342C123.488 104.331 123.733 104.404 123.934 104.55C124.059 104.639 124.163 104.754 124.241 104.886C124.318 105.018 124.368 105.165 124.386 105.317C124.404 105.47 124.39 105.624 124.345 105.771C124.3 105.917 124.225 106.053 124.125 106.169L120.13 110.776L127.37 106.827C127.564 106.72 127.788 106.681 128.006 106.714C128.225 106.747 128.427 106.852 128.581 107.011C128.678 107.11 128.754 107.227 128.804 107.355C128.854 107.484 128.877 107.622 128.873 107.76C128.868 107.898 128.835 108.033 128.775 108.158C128.716 108.283 128.632 108.394 128.528 108.486L122.993 113.481L129.055 109.664C129.238 109.546 129.457 109.498 129.672 109.53C129.888 109.561 130.084 109.67 130.226 109.835C130.382 110.016 130.46 110.252 130.444 110.491C130.428 110.729 130.319 110.952 130.14 111.111L124.691 115.876L129.134 113.198C129.293 113.101 129.484 113.07 129.666 113.112C129.848 113.154 130.006 113.265 130.108 113.422C130.202 113.564 130.241 113.735 130.22 113.904C130.198 114.073 130.116 114.229 129.989 114.343C129.989 114.343 125.672 118.66 123.98 119.779C122.289 120.898 116.234 123.353 116.234 123.353L112.285 127.46L107.171 122.293Z" fill="white" stroke="#122847" stroke-linecap="round" stroke-linejoin="round"/>
<path d="M68.6834 219.705L75.0345 220.212L73.3102 228.32L66.1891 227.629L68.6834 219.705Z" fill="white" stroke="#122847" stroke-linecap="round" stroke-linejoin="round"/>
<path d="M92.8174 201.981L67.1828 195.959C67.1828 195.959 60.1934 214.835 84.4392 219.053V219.442L72.4282 218.869L70.7236 228.807C70.7236 228.807 112.41 236.047 113.733 226.596C115.293 215.565 92.8174 201.981 92.8174 201.981Z" fill="#122847" stroke="#122847" stroke-linecap="round" stroke-linejoin="round"/>
<path d="M103.868 200.434C103.868 200.434 142.954 206.621 143.488 220.179C143.889 230.261 134.629 229.162 113.266 230.051H94.489L101.386 219.52L117.333 219.093C117.391 219.093 117.446 219.07 117.487 219.029C117.527 218.988 117.55 218.933 117.55 218.875C117.55 218.818 117.527 218.763 117.487 218.722C117.446 218.681 117.391 218.658 117.333 218.658C112.548 218.033 103.203 216.638 99.5106 214.874C94.4627 212.465 88.3223 204.541 88.3223 204.541L103.868 200.434Z" fill="#122847" stroke="#122847" stroke-linecap="round" stroke-linejoin="round"/>
<path d="M87.1837 219.106L98.4642 218.823" stroke="#CEF9CA" stroke-width="0.75" stroke-linecap="round" stroke-linejoin="round"/>
<path d="M84.2418 219.211L85.9991 219.165" stroke="#CEF9CA" stroke-width="0.75" stroke-linecap="round" stroke-linejoin="round"/>
<path d="M127.067 217.599L128.258 217.48" stroke="#CEF9CA" stroke-width="0.75" stroke-linecap="round" stroke-linejoin="round"/>
<path d="M119.702 218.316L125.053 217.796" stroke="#CEF9CA" stroke-width="0.75" stroke-linecap="round" stroke-linejoin="round"/>
<path d="M113.74 226.595C114.2 223.305 112.555 219.836 110.008 216.546" stroke="#CEF9CA" stroke-width="0.75" stroke-linecap="round" stroke-linejoin="round"/>
<path d="M111.364 229.485C111.983 229.174 112.537 228.747 112.996 228.228" stroke="#CEF9CA" stroke-width="0.75" stroke-linecap="round" stroke-linejoin="round"/>
<path d="M64.2739 217.467C63.6103 217.359 62.9295 217.446 62.3148 217.719C61.7 217.991 61.1779 218.436 60.8121 219C59.6524 220.769 58.3446 222.436 56.9027 223.983C52.8354 228.353 47.9586 233.855 49.7882 236.619C52.9605 241.351 56.9422 230.946 66.1233 229.379C66.4389 229.325 66.7334 229.185 66.9739 228.973C67.2145 228.762 67.3916 228.488 67.4856 228.182L69.8484 220.356C69.92 220.119 69.9403 219.87 69.9078 219.625C69.8753 219.379 69.7908 219.144 69.66 218.934C69.5291 218.724 69.3549 218.544 69.1491 218.407C68.9432 218.27 68.7104 218.178 68.4663 218.138L64.2739 217.467Z" fill="#3373CC" stroke="#122847" stroke-linecap="round" stroke-linejoin="round"/>
<path d="M64.2739 217.467C63.6103 217.359 62.9295 217.446 62.3148 217.719C61.7 217.991 61.1779 218.436 60.8121 219C59.6524 220.769 58.3446 222.436 56.9027 223.983C52.8354 228.353 47.9586 233.855 49.7882 236.619C50.1062 237.18 50.6264 237.599 51.2427 237.79C51.0858 235.995 51.4758 234.194 52.3616 232.624C54.2109 229.333 59.5419 224.726 60.8318 223.147C62.1218 221.567 63.7079 217.599 65.4849 217.77C65.6231 217.784 65.7629 217.766 65.8929 217.717L64.2739 217.467Z" fill="white" stroke="#122847" stroke-width="0.75" stroke-linecap="round" stroke-linejoin="round"/>
<path d="M67.3407 136.088C67.3407 136.088 66.6168 131.698 70.1839 131.869C73.751 132.04 81.8396 135.713 89.1778 131.869C96.5161 128.026 93.515 133.732 93.515 133.732L76.8838 138.378L70.1839 138.122L67.3407 136.088Z" fill="#3373CC" stroke="#122847" stroke-linecap="round" stroke-linejoin="round"/>
<path d="M64.4647 114.304L67.2816 105.268L74.6001 103.833H82.0897C84.6123 104.938 86.7639 106.746 88.2878 109.04C89.8118 111.334 90.6439 114.018 90.685 116.772C90.6969 117.206 90.8416 117.627 91.0997 117.976C92.1724 119.345 94.7326 123.899 89.9611 131.797C89.9611 131.797 85.9267 135.029 77.0484 135.029C68.1701 135.029 67.8344 130.928 67.8344 130.928L64.4647 114.304Z" fill="white"/>
<mask id="mask8_6049_7778" style="mask-type:luminance" maskUnits="userSpaceOnUse" x="64" y="103" width="29" height="33">
<path d="M64.4647 114.304L67.2816 105.268L74.6001 103.833H82.0897C84.6123 104.938 86.7639 106.746 88.2878 109.04C89.8118 111.334 90.6439 114.018 90.685 116.772C90.6969 117.206 90.8416 117.627 91.0997 117.976C92.1724 119.345 94.7326 123.899 89.9611 131.797C89.9611 131.797 85.9267 135.029 77.0484 135.029C68.1701 135.029 67.8344 130.928 67.8344 130.928L64.4647 114.304Z" fill="white"/>
</mask>
<g mask="url(#mask8_6049_7778)">
<path opacity="0.2" d="M70.1774 125.755C70.1774 125.755 70.1774 136.74 86.1242 133.653C102.071 130.566 78.6082 143.525 78.6082 143.525L67.2816 141.985L59.713 136.062L60.5028 130.507L65.5705 125.736L70.1774 125.755Z" fill="black"/>
</g>
<path d="M64.4647 114.304L67.2816 105.268L74.6001 103.833H82.0897C84.6123 104.938 86.7639 106.746 88.2878 109.04C89.8118 111.334 90.6439 114.018 90.685 116.772C90.6969 117.206 90.8416 117.627 91.0997 117.976C92.1724 119.345 94.7326 123.899 89.9611 131.797C89.9611 131.797 85.9267 135.029 77.0484 135.029C68.1701 135.029 67.8344 130.928 67.8344 130.928L64.4647 114.304Z" stroke="#122847" stroke-linecap="round" stroke-linejoin="round"/>
<path d="M87.6049 115.495C87.6049 116.212 89.2831 116.844 89.9018 117.199C90.0858 117.326 90.2411 117.489 90.3573 117.68C90.4736 117.87 90.5481 118.083 90.5761 118.304C90.6041 118.526 90.5848 118.751 90.5197 118.964C90.4545 119.177 90.3448 119.374 90.1979 119.542L89.4937 120.418" fill="white"/>
<path d="M87.6049 115.495C87.6049 116.212 89.2831 116.844 89.9018 117.199C90.0858 117.326 90.2411 117.489 90.3573 117.68C90.4736 117.87 90.5481 118.083 90.5761 118.304C90.6041 118.526 90.5848 118.751 90.5197 118.964C90.4545 119.177 90.3448 119.374 90.1979 119.542L89.4937 120.418" stroke="#122847" stroke-linecap="round" stroke-linejoin="round"/>
<path d="M83.2743 123.609C83.2743 123.609 87.8813 124.715 90.7047 122.714L90.1848 126.854C90.1848 126.854 86.5189 128.197 83.2743 123.609Z" fill="white" stroke="#122847" stroke-linecap="round" stroke-linejoin="round"/>
<path d="M83.6825 114.949C83.8931 115.607 83.7351 116.265 83.3271 116.397C82.919 116.528 82.4254 116.074 82.2148 115.403C82.0042 114.732 82.1622 114.087 82.5702 113.948C82.9783 113.81 83.4719 114.271 83.6825 114.949Z" fill="black"/>
<path d="M89.8492 115.008C90.0072 115.521 89.9216 116.008 89.6583 116.087C89.3951 116.166 89.0529 115.824 88.8883 115.311C88.7238 114.797 88.8159 114.31 89.0792 114.231C89.3424 114.152 89.6913 114.495 89.8492 115.008Z" fill="black"/>
<path d="M83.5245 111.092C82.7561 111.014 81.9855 111.216 81.3543 111.661C80.7231 112.106 80.2738 112.764 80.089 113.514" fill="white"/>
<path d="M83.5245 111.092C82.7561 111.014 81.9855 111.216 81.3543 111.661C80.7231 112.106 80.2738 112.764 80.089 113.514" stroke="#122847" stroke-linecap="round" stroke-linejoin="round"/>
<path d="M86.9863 111.079C86.9863 111.079 87.73 109.907 89.4609 111.427L86.9863 111.079Z" fill="white"/>
<path d="M86.9863 111.079C86.9863 111.079 87.73 109.907 89.4609 111.427" stroke="#122847" stroke-linecap="round" stroke-linejoin="round"/>
<path d="M84.7157 125.255C87.526 127.815 90.1849 126.854 90.1849 126.854L90.3691 125.406C88.4925 125.72 86.5729 125.669 84.7157 125.255Z" fill="#122847" stroke="#122847" stroke-linecap="round" stroke-linejoin="round"/>
<path d="M68.4728 193.366L49.005 221.238C55.5563 219.251 62.2585 217.8 69.0454 216.901C80.0166 215.479 107.744 215.585 125.158 214.677C142.573 213.768 141.21 211.886 141.21 211.886L106.638 191.8L92.2777 193.721H77.1734L68.4728 193.366Z" fill="#3373CC"/>
<mask id="mask9_6049_7778" style="mask-type:luminance" maskUnits="userSpaceOnUse" x="49" y="191" width="93" height="31">
<path d="M68.4728 193.366L49.005 221.238C55.5563 219.251 62.2585 217.8 69.0454 216.901C80.0166 215.479 107.744 215.585 125.158 214.677C142.573 213.768 141.21 211.886 141.21 211.886L106.638 191.8L92.2777 193.721H77.1734L68.4728 193.366Z" fill="white"/>
</mask>
<g mask="url(#mask9_6049_7778)">
<path opacity="0.7" d="M68.4728 193.366L49.005 221.238C55.5563 219.251 62.2585 217.8 69.0454 216.901C80.0166 215.479 107.744 215.585 125.158 214.677C142.573 213.768 141.21 211.886 141.21 211.886L106.638 191.8L92.2777 193.721H77.1734L68.4728 193.366Z" fill="white"/>
</g>
<path d="M68.4728 193.366L49.005 221.238C55.5563 219.251 62.2585 217.8 69.0454 216.901C80.0166 215.479 107.744 215.585 125.158 214.677C142.573 213.768 141.21 211.886 141.21 211.886L106.638 191.8L92.2777 193.721H77.1734L68.4728 193.366Z" stroke="#122847" stroke-linecap="round" stroke-linejoin="round"/>
<path d="M66.8275 194.471C66.8275 194.471 40.3636 221.758 48.6628 222.324C57.3108 222.916 69.0651 194.682 69.0651 194.682V193.451L66.8275 194.471Z" fill="#3373CC"/>
<mask id="mask10_6049_7778" style="mask-type:luminance" maskUnits="userSpaceOnUse" x="47" y="193" width="23" height="30">
<path d="M66.8275 194.471C66.8275 194.471 40.3636 221.758 48.6628 222.324C57.3108 222.916 69.0651 194.682 69.0651 194.682V193.451L66.8275 194.471Z" fill="white"/>
</mask>
<g mask="url(#mask10_6049_7778)">
<path opacity="0.5" d="M66.8275 194.472C66.8275 194.472 40.3636 221.758 48.6628 222.324C57.3108 222.916 69.0651 194.682 69.0651 194.682L66.8275 194.472Z" fill="white" stroke="#122847" stroke-linecap="round" stroke-linejoin="round"/>
</g>
<path d="M66.8275 194.471C66.8275 194.471 40.3636 221.758 48.6628 222.324C57.3107 222.916 69.0651 194.682 69.0651 194.682V193.451L66.8275 194.471Z" stroke="#122847" stroke-linecap="round" stroke-linejoin="round"/>
<path d="M72.2636 193.557C72.2636 193.557 63.6354 219.534 69.0716 219.027C74.5079 218.52 74.7645 193.557 74.7645 193.557H72.2636Z" fill="#3373CC"/>
<mask id="mask11_6049_7778" style="mask-type:luminance" maskUnits="userSpaceOnUse" x="67" y="193" width="8" height="27">
<path d="M72.2636 193.557C72.2636 193.557 63.6354 219.534 69.0716 219.027C74.5079 218.52 74.7645 193.557 74.7645 193.557H72.2636Z" fill="white"/>
</mask>
<g mask="url(#mask11_6049_7778)">
<path opacity="0.5" d="M72.2636 193.557C72.2636 193.557 63.6354 219.534 69.0716 219.027C74.5079 218.52 74.7645 193.557 74.7645 193.557H72.2636Z" fill="white"/>
</g>
<path d="M72.2636 193.557C72.2636 193.557 63.6354 219.534 69.0716 219.027C74.5079 218.52 74.7645 193.557 74.7645 193.557H72.2636Z" stroke="#122847" stroke-linecap="round" stroke-linejoin="round"/>
<path d="M78.9832 193.735C78.9832 193.735 79.3846 217.342 84.4391 217.342C89.4936 217.342 81.7079 193.557 81.7079 193.557L78.9832 193.735Z" fill="#3373CC"/>
<mask id="mask12_6049_7778" style="mask-type:luminance" maskUnits="userSpaceOnUse" x="78" y="193" width="9" height="25">
<path d="M78.9832 193.735C78.9832 193.735 79.3846 217.342 84.4391 217.342C89.4936 217.342 81.7079 193.557 81.7079 193.557L78.9832 193.735Z" fill="white"/>
</mask>
<g mask="url(#mask12_6049_7778)">
<path opacity="0.5" d="M78.9832 193.735C78.9832 193.735 79.3846 217.342 84.4391 217.342C89.4936 217.342 81.7079 193.557 81.7079 193.557L78.9832 193.735Z" fill="white"/>
</g>
<path d="M78.9832 193.735C78.9832 193.735 79.3846 217.342 84.4391 217.342C89.4936 217.342 81.7079 193.557 81.7079 193.557L78.9832 193.735Z" stroke="#122847" stroke-linecap="round" stroke-linejoin="round"/>
<path d="M87.526 193.774C87.526 193.774 97.2401 217.204 102.847 216.934C108.455 216.664 89.7505 193.721 89.7505 193.721L87.526 193.774Z" fill="#3373CC"/>
<mask id="mask13_6049_7778" style="mask-type:luminance" maskUnits="userSpaceOnUse" x="87" y="193" width="17" height="24">
<path d="M87.526 193.774C87.526 193.774 97.2401 217.204 102.847 216.934C108.455 216.664 89.7505 193.721 89.7505 193.721L87.526 193.774Z" fill="white"/>
</mask>
<g mask="url(#mask13_6049_7778)">
<path opacity="0.5" d="M87.526 193.774C87.526 193.774 97.2401 217.204 102.847 216.934C108.455 216.664 89.7505 193.721 89.7505 193.721L87.526 193.774Z" fill="white"/>
</g>
<path d="M87.526 193.774C87.526 193.774 97.2401 217.204 102.847 216.934C108.455 216.664 89.7505 193.721 89.7505 193.721L87.526 193.774Z" stroke="#122847" stroke-linecap="round" stroke-linejoin="round"/>
<path d="M96.3911 193.366C96.3911 193.366 117.149 216.888 125.698 215.986C134.247 215.085 98.6485 193.175 98.6485 193.175L96.3911 193.366Z" fill="#3373CC"/>
<mask id="mask14_6049_7778" style="mask-type:luminance" maskUnits="userSpaceOnUse" x="96" y="193" width="32" height="24">
<path d="M96.3911 193.366C96.3911 193.366 117.149 216.888 125.698 215.986C134.247 215.085 98.6485 193.175 98.6485 193.175L96.3911 193.366Z" fill="white"/>
</mask>
<g mask="url(#mask14_6049_7778)">
<path opacity="0.5" d="M96.3911 193.366C96.3911 193.366 117.149 216.888 125.698 215.986C134.247 215.085 98.6485 193.175 98.6485 193.175L96.3911 193.366Z" fill="white"/>
</g>
<path d="M96.3911 193.366C96.3911 193.366 117.149 216.888 125.698 215.986C134.247 215.085 98.6485 193.175 98.6485 193.175L96.3911 193.366Z" stroke="#122847" stroke-linecap="round" stroke-linejoin="round"/>
<path d="M105.75 192.063C105.75 192.063 134.879 215.097 142.606 213.781C150.332 212.465 107.448 191.503 107.448 191.503L105.75 192.063Z" fill="#3373CC"/>
<mask id="mask15_6049_7778" style="mask-type:luminance" maskUnits="userSpaceOnUse" x="105" y="191" width="39" height="23">
<path d="M105.75 192.063C105.75 192.063 134.879 215.097 142.606 213.781C150.332 212.465 107.448 191.503 107.448 191.503L105.75 192.063Z" fill="white"/>
</mask>
<g mask="url(#mask15_6049_7778)">
<path opacity="0.5" d="M105.75 192.063C105.75 192.063 134.879 215.097 142.606 213.781C150.332 212.465 107.448 191.503 107.448 191.503L105.75 192.063Z" fill="white"/>
</g>
<path d="M105.75 192.063C105.75 192.063 134.879 215.097 142.606 213.781C150.332 212.465 107.448 191.503 107.448 191.503L105.75 192.063Z" stroke="#122847" stroke-linecap="round" stroke-linejoin="round"/>
<path d="M113.648 126.855C112.588 122.175 107.856 120.833 107.856 120.833C107.856 120.833 93.2057 132.231 82.5767 135.377C77.4564 135.377 72.1452 135.851 68.17 135.015C59.1206 133.113 55.8826 138.714 61.0687 155.082C66.2548 171.45 68.124 192.55 68.124 192.55C101.064 194.07 107.086 190.72 107.086 190.72C106.02 177.005 103.104 150.192 98.2141 141.182C103.804 136.909 108.972 132.112 113.648 126.855Z" fill="#3373CC"/>
<mask id="mask16_6049_7778" style="mask-type:luminance" maskUnits="userSpaceOnUse" x="58" y="120" width="56" height="73">
<path d="M113.648 126.855C112.588 122.175 107.856 120.833 107.856 120.833C107.856 120.833 93.2057 132.231 82.5767 135.377C77.4564 135.377 72.1452 135.851 68.17 135.015C59.1206 133.113 55.8826 138.714 61.0687 155.082C66.2548 171.45 68.124 192.55 68.124 192.55C101.064 194.07 107.086 190.72 107.086 190.72C106.02 177.005 103.104 150.192 98.2141 141.182C103.804 136.909 108.972 132.112 113.648 126.855Z" fill="white"/>
</mask>
<g mask="url(#mask16_6049_7778)">
<path opacity="0.2" d="M107.132 189.45C107.136 189.435 107.136 189.419 107.132 189.404C106.987 188.899 106.916 188.376 106.921 187.851C106.921 187.766 106.921 187.673 106.921 187.588C106.546 186.282 106.342 184.932 106.316 183.573C106.257 182.105 106.066 180.671 105.908 179.223C104.48 184.962 97.6415 187.371 91.1588 184.83C83.4125 181.79 102.288 172.326 96.1672 172.839C90.0465 173.352 72.2241 177.4 71.3554 165.218C70.4866 153.035 98.0627 149.192 77.7854 149.778C57.5081 150.363 59.68 138.076 59.68 138.076L59.5154 138.181C59.1666 141.794 59.2772 145.436 59.8445 149.021C60.9962 153.266 62.069 156.721 62.3652 157.517C63.3985 160.301 65.827 172.128 66.1495 175.399C66.2482 176.38 68.782 192.511 68.782 193.169C69.1111 193.235 68.782 193.116 69.144 193.169C71.0066 193.485 72.9349 193.3 74.8172 193.34C76.3967 193.373 102.94 191.688 107.198 190.819C107.129 190.366 107.107 189.908 107.132 189.45Z" fill="black"/>
<path opacity="0.2" d="M113.338 125.216C113.246 125.012 113.154 124.814 113.049 124.617C112.943 124.419 112.917 124.413 112.845 124.321C112.772 124.228 112.575 123.998 112.443 123.84C109.876 127.216 103.927 134.462 96.3648 139.859C86.1768 147.099 77.5025 142.051 78.595 146.158C79.6875 150.264 87.5128 147.533 87.5128 147.533C92.0737 145.644 98.6617 140.919 98.6617 140.919C98.7596 140.833 98.8679 140.76 98.9842 140.702C99.3461 140.537 113.384 127.874 113.917 126.519C113.698 126.097 113.504 125.661 113.338 125.216Z" fill="black"/>
</g>
<path d="M113.648 126.855C112.588 122.175 107.856 120.833 107.856 120.833C107.856 120.833 93.2057 132.231 82.5767 135.377C77.4564 135.377 72.1452 135.851 68.17 135.015C59.1206 133.113 55.8826 138.714 61.0687 155.082C66.2548 171.45 68.124 192.55 68.124 192.55C101.064 194.07 107.086 190.72 107.086 190.72C106.02 177.005 103.104 150.192 98.2141 141.182C103.804 136.909 108.972 132.112 113.648 126.855Z" stroke="#122847" stroke-linecap="round" stroke-linejoin="round"/>
<path d="M68.3608 99.8575C54.349 104.879 57.3831 113.678 57.6397 122.945H69.223L68.3608 120.418C68.3608 120.418 76.9167 116.048 74.6856 109.229C75.6716 110.471 76.3118 111.952 76.5415 113.52C76.5415 113.52 79.9046 108.367 89.3687 109.229C89.3687 109.223 86.9862 93.1905 68.3608 99.8575Z" fill="#122847" stroke="#122847" stroke-linecap="round" stroke-linejoin="round"/>
<path d="M70.3813 120.187C70.3813 120.187 65.7743 117.061 65.0767 121.214C64.3791 125.367 68.3674 128.454 71.7239 127.032" fill="white"/>
<path d="M70.3813 120.187C70.3813 120.187 65.7743 117.061 65.0767 121.214C64.3791 125.367 68.3674 128.454 71.7239 127.032" stroke="#122847" stroke-linecap="round" stroke-linejoin="round"/>
<path d="M66.0377 149.823C65.2018 149.692 64.4384 149.547 63.7605 149.402" stroke="#122847" stroke-width="0.75" stroke-linecap="round" stroke-linejoin="round"/>
<path d="M97.1282 141.978C93.3175 144.723 89.1976 147.118 85.1829 148.402C79.7579 150.114 74.0404 150.701 68.3806 150.126" stroke="#122847" stroke-width="0.75" stroke-linecap="round" stroke-linejoin="round"/>
<path d="M67.4987 191.517C67.4987 191.517 98.043 193.307 107.303 189.865C107.838 190.009 108.298 190.353 108.588 190.825C108.878 191.297 108.976 191.863 108.863 192.405C108.863 192.405 93.1267 196.887 66.8274 194.472C66.8742 193.455 67.1016 192.454 67.4987 191.517Z" fill="#3373CC"/>
<mask id="mask17_6049_7778" style="mask-type:luminance" maskUnits="userSpaceOnUse" x="66" y="189" width="43" height="7">
<path d="M67.4987 191.517C67.4987 191.517 98.043 193.307 107.303 189.865C107.838 190.009 108.298 190.353 108.588 190.825C108.878 191.297 108.976 191.863 108.863 192.405C108.863 192.405 93.1267 196.887 66.8274 194.472C66.8742 193.455 67.1016 192.454 67.4987 191.517Z" fill="white"/>
</mask>
<g mask="url(#mask17_6049_7778)">
<path opacity="0.3" d="M67.4987 191.517C67.4987 191.517 98.043 193.307 107.303 189.865C107.838 190.009 108.298 190.353 108.588 190.825C108.878 191.297 108.976 191.863 108.863 192.405C108.863 192.405 93.1267 196.887 66.8274 194.472C66.8742 193.455 67.1016 192.454 67.4987 191.517Z" fill="white"/>
</g>
<path d="M67.4987 191.517C67.4987 191.517 98.043 193.307 107.303 189.865C107.838 190.009 108.298 190.353 108.588 190.825C108.878 191.297 108.976 191.863 108.863 192.405C108.863 192.405 93.1267 196.887 66.8274 194.472C66.8742 193.455 67.1016 192.454 67.4987 191.517Z" stroke="#122847" stroke-linecap="round" stroke-linejoin="round"/>
<path d="M60.4435 121.53C60.3843 120.562 60.2922 119.555 60.1671 118.515" stroke="#CEF9CA" stroke-linecap="round" stroke-linejoin="round"/>
<path d="M55.5403 142.722C58.7059 135.371 60.3184 130.527 60.4961 124.873" stroke="#CEF9CA" stroke-linecap="round" stroke-linejoin="round"/>
<path d="M53.9608 157.985C53.0197 155.497 52.2102 150.962 54.7308 144.631" stroke="#CEF9CA" stroke-linecap="round" stroke-linejoin="round"/>
<path d="M57.745 156.569C57.1278 153.469 57.1278 150.278 57.745 147.177" stroke="#CEF9CA" stroke-linecap="round" stroke-linejoin="round"/>
<path d="M59.3773 160.867C59.0226 160.315 58.729 159.726 58.502 159.11" stroke="#CEF9CA" stroke-linecap="round" stroke-linejoin="round"/>
<path d="M73.4746 105.076C75.3414 106.108 76.7425 107.816 77.3906 109.848" stroke="#CEF9CA" stroke-linecap="round" stroke-linejoin="round"/>
<path d="M70.2563 103.964C70.796 104.061 71.3282 104.195 71.8491 104.366" stroke="#CEF9CA" stroke-linecap="round" stroke-linejoin="round"/>
<path d="M80.6615 106.136C81.0807 106.632 81.4634 107.157 81.8067 107.709" stroke="#CEF9CA" stroke-linecap="round" stroke-linejoin="round"/>
<path d="M72.6322 101.845C75.2046 102.143 77.6201 103.236 79.5427 104.971" stroke="#CEF9CA" stroke-linecap="round" stroke-linejoin="round"/>
<path d="M78.6212 100.318C80.3702 100.636 82.0089 101.396 83.381 102.526C84.753 103.656 85.8129 105.119 86.4597 106.774" stroke="#CEF9CA" stroke-linecap="round" stroke-linejoin="round"/>
<path d="M73.9023 100.166C74.761 100.044 75.63 100.011 76.4954 100.068" stroke="#CEF9CA" stroke-linecap="round" stroke-linejoin="round"/>
<path d="M69.6969 116.311C69.5587 116.831 69.3876 117.377 69.1704 117.956" stroke="#CEF9CA" stroke-linecap="round" stroke-linejoin="round"/>
<path d="M62.8654 107.709C62.8654 107.709 70.8683 107.518 69.993 114.758" stroke="#CEF9CA" stroke-linecap="round" stroke-linejoin="round"/>
<path d="M73.9353 188.127L72.619 188.66" stroke="#122847" stroke-width="0.75" stroke-linecap="round" stroke-linejoin="round"/>
<path d="M91.9618 177.854C88.1182 181.019 82.7478 184.343 75.3372 187.535" stroke="#122847" stroke-width="0.75" stroke-linecap="round" stroke-linejoin="round"/>
<path d="M101.307 164.724C100.727 166.931 99.7644 169.021 98.4642 170.897" stroke="#122847" stroke-width="0.75" stroke-linecap="round" stroke-linejoin="round"/>
<path d="M101.656 160.867C101.723 161.386 101.734 161.911 101.689 162.433" stroke="#122847" stroke-width="0.75" stroke-linecap="round" stroke-linejoin="round"/>
<path d="M230.816 216.756H222.721V230.952H230.816V216.756Z" fill="#122847" stroke="#122847" stroke-width="0.75" stroke-linecap="round" stroke-linejoin="round"/>
<path d="M227.993 216.756H207.189V230.952H227.993V216.756Z" fill="#3373CC" stroke="#122847" stroke-linecap="round" stroke-linejoin="round"/>
<path d="M259.794 223.852H251.699V230.953H259.794V223.852Z" fill="#122847" stroke="#122847" stroke-width="0.75" stroke-linecap="round" stroke-linejoin="round"/>
<path d="M256.971 223.852H236.167V230.953H256.971V223.852Z" fill="#3373CC" stroke="#122847" stroke-linecap="round" stroke-linejoin="round"/>
<path d="M239.806 209.761H231.711V216.862H239.806V209.761Z" fill="#122847" stroke="#122847" stroke-width="0.75" stroke-linecap="round" stroke-linejoin="round"/>
<path d="M236.983 209.761H216.179V216.862H236.983V209.761Z" fill="#92F189" stroke="#122847" stroke-linecap="round" stroke-linejoin="round"/>
<path d="M239.622 189.766H234.35V209.76H239.622V189.766Z" fill="#122847" stroke="#122847" stroke-linecap="round" stroke-linejoin="round"/>
<path d="M236.983 189.766H231.711V209.76H236.983V189.766Z" fill="#3373CC" stroke="#122847" stroke-linecap="round" stroke-linejoin="round"/>
<path d="M256.971 196.762H251.699V216.757H256.971V196.762Z" fill="#122847" stroke="#122847" stroke-linecap="round" stroke-linejoin="round"/>
<path d="M254.332 196.762H249.06V216.757H254.332V196.762Z" fill="#3373CC" stroke="#122847" stroke-linecap="round" stroke-linejoin="round"/>
<path d="M260.689 190.345H252.936V196.762H260.689V190.345Z" fill="#122847" stroke="#122847" stroke-linecap="round" stroke-linejoin="round"/>
<path d="M256.813 190.345H249.06V196.762H256.813V190.345Z" fill="#92F189" stroke="#122847" stroke-linecap="round" stroke-linejoin="round"/>
<path d="M268.784 216.855H260.689V223.957H268.784V216.855Z" fill="#92F189" stroke="#122847" stroke-linecap="round" stroke-linejoin="round"/>
<path d="M265.961 216.855H245.157V223.957H265.961V216.855Z" fill="#92F189" stroke="#122847" stroke-linecap="round" stroke-linejoin="round"/>
<path d="M247.684 174.385H243.373L227.993 189.766H263.065L247.684 174.385Z" fill="#92F189" stroke="#122847" stroke-linecap="round" stroke-linejoin="round"/>
<path d="M227.993 189.766L243.373 174.385L258.761 189.766H227.993Z" fill="#3373CC" stroke="#122847" stroke-linecap="round" stroke-linejoin="round"/>
</svg>
