<svg width="236" height="264" viewBox="0 0 236 264" fill="none" xmlns="http://www.w3.org/2000/svg">
<path d="M175.61 94.7324L137.017 140.344L158.067 164.904C165.677 176.831 164.898 183.973 154.559 196.481L119.474 231.567H137.017C151.051 231.568 161.576 242.093 158.067 263.145H42.2841C35.2668 263.145 33.0758 256.128 38.7753 249.11C44.4682 242.101 63.2915 224.592 63.3359 224.551L38.7753 192.973C31.0933 180.245 33.5947 174.441 42.2841 164.904L105.438 94.7324H175.61ZM164.863 0C165.004 0 165.138 0.0639722 165.226 0.173828L178.797 17.1396C178.969 17.355 179.291 17.3727 179.486 17.1777L196.527 0.135742C196.614 0.0488928 196.733 0 196.855 0H234.795C235.051 2.19449e-05 235.258 0.208114 235.258 0.463867V75.3125C235.258 75.5682 235.051 75.7763 234.795 75.7764H196.812C196.715 75.7763 196.621 75.7451 196.542 75.6885L179.726 63.5898C179.447 63.3894 179.055 63.5512 178.998 63.8896L175.677 83.8193C175.639 84.0426 175.446 84.207 175.22 84.207H109.41C109.155 84.207 108.948 83.9904 108.945 83.7354C108.449 43.027 59.9687 33.9021 0.855392 75.3018C0.561626 75.5075 0.145637 75.3217 0.121994 74.9639C-2.42123 36.4678 35.4143 3.70348e-05 56.3193 0H164.863Z" fill="white"/>
</svg>
