<svg width="72" height="72" viewBox="0 0 72 72" fill="none" xmlns="http://www.w3.org/2000/svg">
<rect width="72" height="72" rx="36" fill="url(#paint0_linear_7231_22601)"/>
<g clip-path="url(#clip0_7231_22601)">
<path d="M32.9854 22.49C35.3054 22.49 37.1954 20.61 37.1954 18.28C37.1954 15.95 35.3054 14.07 32.9854 14.07C30.6654 14.07 28.7754 15.95 28.7754 18.28C28.7754 20.61 30.6554 22.49 32.9854 22.49Z" fill="white"/>
<path d="M29.5149 39.22C30.6549 39.61 31.9449 38.65 31.8849 37.4C31.6849 35.2 28.8149 34.14 27.6949 32.34C27.4649 31.99 27.6049 31.5 27.4549 31.34L27.3849 31.29C27.1449 31.19 26.4049 31.34 25.9149 31.13C25.2849 30.97 24.6649 30.42 24.0349 30.36C23.7249 30.34 23.5049 30.58 23.3249 30.81C22.3949 32.39 23.7349 33.62 24.6849 34.72C25.9849 36.04 28.0649 38.33 29.4949 39.23L29.5149 39.22Z" fill="white"/>
<path d="M43.4356 38.27C44.4956 38.78 45.9056 38.07 46.0256 36.93C46.1056 36.39 45.9256 35.88 45.6556 35.42C44.4456 33.57 41.6856 30.32 39.8256 27.91L39.7056 27.76C37.3456 24.59 38.5956 27.97 38.7356 29.39C39.2956 32.74 40.4656 36.42 43.4356 38.27Z" fill="white"/>
<path d="M29.065 32.03C29.225 32.36 29.495 32.63 29.775 32.92C30.615 33.6 31.375 35.09 32.525 34.53C33.285 34.09 34.195 33.37 34.915 34.3C35.345 34.73 35.885 35.36 36.545 35.15C37.515 34.5 35.535 31.48 34.665 31.38C33.955 31.14 32.895 32.25 32.295 32.01L32.175 31.94C31.485 31.39 31.375 30.44 32.195 29.85C32.425 29.62 32.675 29.37 32.795 29.1C33.205 28.16 32.275 27.7 31.455 28.36C30.535 29.02 28.615 30.84 29.075 32.03H29.065Z" fill="white"/>
<path d="M26.6348 30.18C27.7173 30.18 28.5948 29.3025 28.5948 28.22C28.5948 27.1375 27.7173 26.26 26.6348 26.26C25.5523 26.26 24.6748 27.1375 24.6748 28.22C24.6748 29.3025 25.5523 30.18 26.6348 30.18Z" fill="white"/>
<path d="M29.2249 26.59C29.4649 26.91 29.6649 27.94 29.9549 28.13C31.3249 27.87 31.1149 24.94 30.4149 24.1L30.2949 24.01C29.7249 23.69 27.7949 24.22 27.7549 24.9C28.0149 25.48 28.9349 26.09 29.2349 26.59H29.2249Z" fill="white"/>
<path d="M33.7055 25.72C34.0055 25.69 34.1755 25.57 34.2655 25.33C34.3355 24.97 34.6455 24.12 34.2055 23.91C33.9255 23.83 31.5855 23.56 31.4755 24.01C31.4355 24.49 31.6055 25.17 31.9055 25.53L32.0055 25.6C32.4355 25.77 33.2555 25.73 33.7155 25.72H33.7055Z" fill="white"/>
<path d="M46.6549 39.32C44.2449 39.32 42.0549 40.24 40.4049 41.74C39.5449 37.54 37.7449 28.92 37.2049 26.28C37.1149 25.52 36.6149 24.26 35.7549 24.41C34.8949 25.01 35.3949 26.61 35.4449 27.56C35.6749 29.23 36.0349 30.48 36.7549 31.55C37.3649 32.48 38.0549 33.5 37.9049 34.66C37.8249 35.57 37.4849 36.45 37.5649 37.38C37.6649 38.94 38.7649 41.34 38.0849 42.28C37.8249 42.7 37.2549 42.91 36.7449 43C34.2749 43.32 31.4749 43.36 28.9849 42.98C27.6949 42.75 27.5649 41.59 27.4649 40.53C27.3849 39.97 27.1449 38.79 26.5449 38.88C25.7349 39.48 25.7249 41.42 25.3149 42.81C25.2249 43.33 25.1049 43.9 25.4149 44.32L25.4949 44.4C25.8349 44.7 26.4449 44.76 26.9449 44.83C30.5749 45.26 34.4749 45.55 38.1349 44.88C37.6349 46.02 37.3549 47.28 37.3549 48.6C37.3549 53.74 41.5249 57.91 46.6649 57.91C51.8049 57.91 55.9749 53.74 55.9749 48.6C55.9749 43.46 51.8049 39.29 46.6649 39.29L46.6549 39.32ZM52.8649 48.8C52.8649 49.59 52.2149 50.23 51.4349 50.23H48.2349V53.43C48.2349 54.22 47.5849 54.86 46.8049 54.86H46.4949C45.7049 54.86 45.0649 54.21 45.0649 53.43V50.23H41.8649C41.0749 50.23 40.4349 49.58 40.4349 48.8V48.49C40.4349 47.7 41.0849 47.06 41.8649 47.06H45.0649V43.86C45.0649 43.07 45.7149 42.43 46.4949 42.43H46.8049C47.5949 42.43 48.2349 43.08 48.2349 43.86V47.06H51.4349C52.2249 47.06 52.8649 47.71 52.8649 48.49V48.8Z" fill="white"/>
<path d="M31.1456 46.14H29.7456C29.3156 46.14 28.9756 46.49 28.9756 46.91V56.44C28.9756 57.26 29.6356 57.92 30.4556 57.92C31.2756 57.92 31.9356 57.26 31.9356 56.44V46.91C31.9356 46.48 31.5856 46.14 31.1656 46.14H31.1456Z" fill="white"/>
<path d="M35.0753 46.14H33.6753C33.2453 46.14 32.9053 46.49 32.9053 46.91V56.44C32.9053 57.26 33.5653 57.92 34.3853 57.92C35.2053 57.92 35.8653 57.26 35.8653 56.44V46.91C35.8653 46.48 35.5153 46.14 35.0953 46.14H35.0753Z" fill="white"/>
</g>
<defs>
<linearGradient id="paint0_linear_7231_22601" x1="25" y1="72" x2="91.5997" y2="-55.3726" gradientUnits="userSpaceOnUse">
<stop stop-color="#2E6EC8"/>
<stop offset="0.444685" stop-color="#6DB6AE"/>
<stop offset="0.762313" stop-color="#9DEE95"/>
</linearGradient>
<clipPath id="clip0_7231_22601">
<rect width="32.93" height="43.86" fill="white" transform="translate(23.0352 14.07)"/>
</clipPath>
</defs>
</svg>
