<svg width="274" height="221" viewBox="0 0 274 221" fill="none" xmlns="http://www.w3.org/2000/svg">
<path d="M263.073 133.939C263.905 129.794 265.271 125.774 267.136 121.979C272.23 111.549 275.892 102.423 272.651 90.7761C264.71 62.3301 232.411 59.006 216.478 37.5521C191.847 4.40013 131.325 1.52178 102.414 30.1716C93.5498 38.9531 89.3978 51.358 80.438 60.044C67.2371 72.8501 47.6363 74.4994 34.0787 87.2673C11.9753 108.097 9.82925 143.395 29.4492 166.817C50.1707 191.55 79.4191 187.494 107.827 182.234C121.805 179.648 136.337 176.846 150.582 178.833C180.964 183.113 217.013 199.803 246.459 183.189C262.143 174.337 262.545 160.532 262.182 144.427C262.093 140.909 262.392 137.391 263.073 133.939Z" fill="#3373CC"/>
<path opacity="0.6" d="M263.073 133.939C263.905 129.794 265.271 125.774 267.136 121.979C272.23 111.549 275.892 102.423 272.651 90.7761C264.71 62.3301 232.411 59.006 216.478 37.5521C191.847 4.40013 131.325 1.52178 102.414 30.1716C93.5498 38.9531 89.3978 51.358 80.438 60.044C67.2371 72.8501 47.6363 74.4994 34.0787 87.2673C11.9753 108.097 9.82925 143.395 29.4492 166.817C50.1707 191.55 79.4191 187.494 107.827 182.234C121.805 179.648 136.337 176.846 150.582 178.833C180.964 183.113 217.013 199.803 246.459 183.189C262.143 174.337 262.545 160.532 262.182 144.427C262.093 140.909 262.392 137.391 263.073 133.939Z" fill="white"/>
<path d="M139.253 220.684C206.603 220.684 261.201 209.137 261.201 194.893C261.201 180.65 206.603 169.103 139.253 169.103C71.9036 169.103 17.3057 180.65 17.3057 194.893C17.3057 209.137 71.9036 220.684 139.253 220.684Z" fill="#3373CC"/>
<path opacity="0.3" d="M139.253 220.684C206.603 220.684 261.201 209.137 261.201 194.893C261.201 180.65 206.603 169.103 139.253 169.103C71.9036 169.103 17.3057 180.65 17.3057 194.893C17.3057 209.137 71.9036 220.684 139.253 220.684Z" fill="white"/>
<path d="M0.143712 22.0905C-0.00485274 21.5532 -0.0387032 20.9907 0.0443573 20.4395C0.127418 19.8882 0.325531 19.3606 0.625825 18.891C0.92612 18.4213 1.32187 18.0201 1.78737 17.7134C2.25287 17.4067 2.77769 17.2014 3.32773 17.1107C6.65821 16.6586 10.7465 21.129 12.0456 23.8354C12.1538 24.071 13.4847 27.93 13.4211 27.93C13.3574 27.93 7.51789 28.0638 5.14262 27.0067C3.06027 26.1088 0.697731 24.3958 0.143712 22.0905ZM85.6791 11.8125C85.1888 14.1305 82.8708 15.9072 80.8458 16.8624C78.8207 17.8176 74.0129 17.9832 72.8348 18.0023C72.198 18.7601 71.5166 19.5815 70.7843 20.4985C69.5107 22.1287 68.097 23.9818 66.696 26.096C66.3203 26.6628 65.9382 27.2805 65.5561 27.8791C66.4094 27.0067 67.5875 25.8286 67.7149 25.7267C70.0647 23.8609 75.694 21.6257 78.4896 23.4851C78.9458 23.806 79.3293 24.2193 79.6153 24.6982C79.9012 25.1771 80.0831 25.7108 80.1492 26.2646C80.2153 26.8184 80.164 27.3799 79.9988 27.9126C79.8335 28.4453 79.558 28.9373 79.1901 29.3565C77.6808 31.1905 74.8089 31.6999 72.5673 31.6107C70.3258 31.5216 65.8491 29.3883 64.8938 28.9107C64.0724 30.2416 63.2573 31.6299 62.4931 33.1263C61.0703 35.824 59.8918 38.6435 58.9716 41.5512L59.1435 41.634C59.8249 40.7361 61.3087 38.883 61.4487 38.7493C63.5757 36.6288 68.9312 33.795 71.9178 35.3297C72.4009 35.6004 72.8221 35.969 73.1547 36.4118C73.4872 36.8546 73.7237 37.362 73.8489 37.9014C73.9742 38.4408 73.9855 39.0004 73.8821 39.5445C73.7788 40.0885 73.5631 40.605 73.2487 41.0609C71.9751 43.0541 69.1541 43.8756 66.9189 44.0284C64.3717 44.2131 59.0162 42.2008 58.8124 42.118C57.986 45.0308 57.3478 47.9939 56.902 50.9887C56.5581 53.2047 56.297 55.4463 56.055 57.7324C56.5199 57.0956 58.4685 54.6567 58.6022 54.4975C60.7292 52.3833 66.0847 49.5431 69.0649 51.0842C69.5539 51.3533 69.9807 51.7224 70.3175 52.1675C70.6544 52.6125 70.8936 53.1236 71.0198 53.6673C71.146 54.211 71.1562 54.7751 71.0498 55.3231C70.9434 55.871 70.7227 56.3903 70.4022 56.8473C69.1286 58.8341 66.3076 59.6556 64.0724 59.8084C61.557 59.9867 56.4307 58.0827 56.0104 57.898C55.9022 58.9296 55.7939 59.9549 55.692 60.9928C55.3609 64.3615 55.0552 67.7493 54.635 71.0798C54.4885 72.2324 54.3102 73.3659 54.1319 74.4994C54.8578 73.557 56.2079 71.8694 56.3416 71.7357C58.4685 69.6215 63.824 66.7814 66.8106 68.3225C67.2944 68.5925 67.7164 68.9607 68.0495 69.4034C68.3826 69.8462 68.6194 70.3537 68.7448 70.8934C68.8701 71.4332 68.8812 71.9931 68.7773 72.5373C68.6734 73.0816 68.4569 73.5981 68.1415 74.0537C66.8679 76.0405 64.0469 76.862 61.8117 77.0212C59.5765 77.1804 55.2335 75.6712 54.0173 75.2254C53.7052 77.1358 53.3804 78.9762 52.922 80.7911C52.7182 81.5743 52.5653 82.3831 52.3234 83.1217L51.6866 85.3442C51.1771 86.8471 50.7122 88.2416 50.2028 89.6299C49.9481 90.3304 49.6997 90.9863 49.445 91.6676C50.0372 90.5978 51.0052 88.9294 51.1071 88.7829C52.8901 86.3694 57.7489 82.7588 60.9329 83.8286C61.4572 84.0196 61.9353 84.319 62.3361 84.7073C62.7368 85.0956 63.051 85.5641 63.2584 86.0822C63.4657 86.6002 63.5614 87.1562 63.5393 87.7137C63.5172 88.2713 63.3777 88.8179 63.1299 89.3178C62.1492 91.483 59.5065 92.7184 57.3159 93.2087C54.9088 93.7564 49.7379 92.7056 49.1075 92.5719C48.4707 94.234 47.8339 95.8387 47.2353 97.3352C45.3249 102.067 43.51 105.938 42.2173 108.632L42.0071 109.065H51.4255L48.1714 172.491C48.0823 174.836 47.0865 177.054 45.3937 178.679C43.7009 180.304 41.4435 181.209 39.097 181.202C36.7732 181.204 34.5376 180.312 32.8523 178.712C31.1671 177.112 30.1608 174.926 30.0416 172.605L26.7876 109.18H36.9C36.849 108.74 36.7981 108.275 36.7408 107.753C36.4033 104.824 35.8556 100.634 34.9768 95.654C34.7285 94.2149 34.4419 92.6929 34.1235 91.1327C33.4867 91.2155 28.2522 91.8778 25.8897 91.1327C23.75 90.4959 21.2028 89.044 20.3877 86.8152C20.1788 86.2981 20.081 85.7429 20.1008 85.1856C20.1206 84.6283 20.2575 84.0814 20.5026 83.5804C20.7476 83.0795 21.0954 82.6357 21.5232 82.278C21.9511 81.9203 22.4494 81.6567 22.9858 81.5043C26.2399 80.6701 30.8185 84.6437 32.4169 87.1782C32.5188 87.3438 33.5058 89.4006 33.9898 90.4641C33.7988 89.5216 33.6141 88.5855 33.3976 87.6049C33.0919 86.1975 32.7608 84.7201 32.3851 83.281C32.1813 82.5423 31.9711 81.7972 31.7483 81.0458C31.5254 80.2943 31.2706 79.5811 31.035 78.8297C30.6657 77.7471 30.2263 76.6455 29.7614 75.5438C28.3477 75.9386 24.1703 77.0148 22.0243 76.7028C19.8782 76.3907 17.0699 75.3528 15.9301 73.2768C15.6443 72.7971 15.4629 72.2626 15.3976 71.7082C15.3323 71.1537 15.3845 70.5917 15.551 70.0587C15.7174 69.5258 15.9942 69.0339 16.3635 68.6152C16.7327 68.1964 17.1861 67.8602 17.694 67.6283C20.7825 66.3102 25.9088 69.5387 27.8829 71.8121C27.9465 71.8822 28.3159 72.4044 28.7425 73.0284C28.284 71.9713 27.8319 70.9079 27.3352 69.8444C25.9215 66.8387 24.3868 63.8139 22.8776 60.7827C22.5592 60.1459 22.2408 59.5091 21.9351 58.8723C20.7443 59.2098 16.2039 60.4197 13.9814 60.095C11.759 59.7702 9.02711 58.7449 7.88724 56.6626C7.60629 56.1831 7.42903 55.65 7.36693 55.0978C7.30482 54.5455 7.35924 53.9864 7.52668 53.4565C7.69411 52.9266 7.97083 52.4377 8.33897 52.0214C8.70711 51.6051 9.15848 51.2706 9.66392 51.0396C12.7524 49.7278 17.8787 52.95 19.8528 55.2298C19.9228 55.3062 20.3622 55.9303 20.8398 56.6371C20.0374 54.9751 19.2542 53.313 18.5282 51.6318C17.2745 48.7628 16.2109 45.8144 15.3442 42.8057C14.9303 42.9267 9.66392 44.4551 7.16128 44.0794C4.94521 43.761 2.21332 42.7293 1.07344 40.6534C0.787528 40.1741 0.60577 39.64 0.540006 39.0858C0.474243 38.5316 0.525951 37.9698 0.691759 37.4369C0.857567 36.904 1.13376 36.4121 1.50235 35.9931C1.87094 35.574 2.32366 35.2373 2.83102 35.0049C5.92589 33.6931 11.0521 36.9153 13.0199 39.1887C13.16 39.3543 14.7138 41.6213 15.2423 42.4555C15.2395 42.4195 15.2395 42.3833 15.2423 42.3472C14.4634 39.3697 13.952 36.3286 13.714 33.2601C13.4799 30.5221 13.4033 27.773 13.4847 25.0262C13.5484 22.479 13.7586 20.1483 13.9623 18.0914C14.0833 16.977 14.2107 15.9581 14.3444 15.0093L14.2871 15.0475C14.2298 15.0857 13.109 11.163 13.0644 10.9083C12.5677 7.94714 13.3574 1.94209 16.3376 0.394658C16.8406 0.152264 17.3889 0.0184031 17.947 0.00176735C18.505 -0.0148684 19.0604 0.0860927 19.5768 0.298097C20.0933 0.510101 20.5595 0.828403 20.9449 1.23232C21.3304 1.63623 21.6265 2.11672 21.8141 2.64257C22.6802 4.85228 21.725 7.60964 20.5405 9.52642C19.3561 11.4432 15.4461 14.226 14.4909 14.8947C14.3763 15.8817 14.2616 16.9388 14.1597 18.0787C14.0005 20.1356 13.8413 22.4599 13.835 25.0007C13.835 25.6821 13.835 26.4081 13.8668 27.1149C14.0961 25.9177 14.4336 24.2875 14.5036 24.1283C15.427 21.2754 18.8912 16.3084 22.2535 16.3147C22.8112 16.331 23.3593 16.4645 23.862 16.7065C24.3647 16.9486 24.8108 17.2939 25.1712 17.7198C25.5317 18.1457 25.7984 18.6427 25.954 19.1785C26.1096 19.7144 26.1506 20.277 26.0743 20.8297C25.8323 23.1922 23.7118 25.1981 21.795 26.3635C19.8782 27.5288 14.943 28.2484 13.8859 28.3694C13.9369 29.936 14.0197 31.5534 14.2107 33.2091C14.5127 36.2425 15.0839 39.2431 15.9173 42.1753H16.1084C16.1848 41.0482 16.4013 38.6856 16.4395 38.4882C17.0763 35.5526 19.9419 30.2098 23.2851 29.8723C23.8412 29.8274 24.4006 29.9001 24.9267 30.0856C25.4529 30.2712 25.9341 30.5655 26.3389 30.9494C26.7438 31.3332 27.0633 31.798 27.2767 32.3135C27.49 32.8291 27.5924 33.3837 27.5772 33.9414C27.5772 36.3104 25.7114 38.5455 23.9347 39.9083C21.8842 41.4812 16.3312 42.7421 16.1211 42.7866C17.0282 45.6784 18.1237 48.5076 19.4006 51.2561C20.3367 53.2939 21.362 55.3253 22.4127 57.3503C22.4509 56.5543 22.7311 53.4531 22.7757 53.2302C23.4125 50.2946 26.2781 44.9518 29.6213 44.6079C30.1772 44.564 30.7361 44.6374 31.2618 44.8233C31.7875 45.0093 32.2683 45.3036 32.673 45.6873C33.0776 46.0709 33.3972 46.5353 33.6108 47.0504C33.8245 47.5654 33.9276 48.1196 33.9134 48.6771C33.9134 51.0523 32.0412 53.2812 30.2645 54.6439C28.2649 56.1786 22.954 57.414 22.5019 57.5159C22.9795 58.4329 23.4571 59.3563 23.941 60.2733C25.5267 63.2726 27.1251 66.2656 28.6279 69.2713C29.1437 70.3156 29.615 71.36 30.0926 72.4044C30.1753 71.2135 30.3791 69.0611 30.411 68.8765C31.0478 65.9408 33.9198 60.598 37.2566 60.2542C37.8127 60.2092 38.372 60.2819 38.8982 60.4675C39.4243 60.6531 39.9055 60.9474 40.3104 61.3312C40.7153 61.7151 41.0348 62.1799 41.2481 62.6954C41.4615 63.2109 41.5639 63.7656 41.5486 64.3233C41.5486 66.6986 39.6828 68.9274 37.9061 70.2902C36.1295 71.6529 31.6718 72.7928 30.4173 73.0985C31.2006 74.8561 31.952 76.5754 32.5888 78.333C32.8499 79.0972 33.162 79.855 33.3721 80.6L34.0471 82.8224C34.4483 84.3571 34.8304 85.7772 35.1742 87.2164C35.3526 87.9424 35.499 88.6301 35.6646 89.3306C35.5691 88.1207 35.4544 86.1911 35.4608 86.0128C35.62 83.0199 37.6769 77.3205 40.9246 76.4608C41.4677 76.3322 42.0318 76.3194 42.5802 76.4233C43.1285 76.5273 43.6488 76.7455 44.1072 77.0639C44.5656 77.3823 44.9518 77.7938 45.2406 78.2713C45.5294 78.7489 45.7143 79.282 45.7834 79.8359C45.8282 80.1265 45.8474 80.4206 45.8407 80.7146C47.1484 83.0048 47.8477 85.5918 47.8721 88.2289C47.8721 88.42 47.5601 90.6806 47.3754 91.8332C47.7384 90.9417 48.095 90.0565 48.4516 89.1268C48.9801 87.7831 49.4896 86.3503 49.999 84.9621L50.7122 82.7524C50.967 82.0073 51.1198 81.2687 51.349 80.5109C51.642 79.4028 51.884 78.2375 52.1259 77.0849C50.7313 76.6264 46.6494 75.2254 45.032 73.7799C43.4145 72.3343 41.6505 69.9208 41.8479 67.5583C41.8753 67.0012 42.0194 66.456 42.271 65.9582C42.5225 65.4604 42.8759 65.021 43.3083 64.6685C43.7406 64.3161 44.2421 64.0584 44.7804 63.9123C45.3187 63.7662 45.8817 63.7348 46.4329 63.8203C49.7379 64.4571 52.2342 69.9527 52.6163 72.9265C52.6163 73.0221 52.6481 73.6589 52.6609 74.4167C52.8646 73.2831 53.0748 72.1433 53.2404 70.9843C53.7243 67.6984 54.1064 64.3297 54.514 60.961C54.5967 60.2542 54.6923 59.5537 54.775 58.8532C53.597 58.4775 49.1648 57.0001 47.4709 55.4845C45.777 53.9689 44.0895 51.6255 44.2869 49.2629C44.3123 48.7051 44.4551 48.159 44.706 47.6601C44.957 47.1613 45.3104 46.7211 45.7432 46.3683C46.176 46.0154 46.6784 45.7579 47.2175 45.6126C47.7567 45.4673 48.3204 45.4374 48.8719 45.5249C52.1769 46.1617 54.6668 51.6573 55.0552 54.6312C55.0552 54.7331 55.0552 55.4972 55.0998 56.3506C55.3418 54.5166 55.6093 52.7017 55.934 50.8995C56.4624 47.8006 57.2007 44.7411 58.1437 41.7423C57.7234 41.6149 52.4953 39.9847 50.6104 38.3036C48.9356 36.8071 47.2226 34.4445 47.4263 32.082C47.4517 31.5242 47.5945 30.978 47.8455 30.4792C48.0964 29.9804 48.4499 29.5402 48.8826 29.1873C49.3154 28.8345 49.8178 28.577 50.357 28.4316C50.8961 28.2863 51.4598 28.2564 52.0113 28.3439C55.31 28.9808 57.8062 34.4764 58.1947 37.4502C58.1947 37.6604 58.2647 40.4114 58.2456 41.3984C58.2456 41.3602 58.2456 41.322 58.2775 41.2902C59.2725 38.3771 60.5234 35.5578 62.0155 32.8652C63.3405 30.4483 64.8033 28.1095 66.3967 25.8604C67.855 23.7653 69.3133 21.9441 70.6251 20.3393C71.3383 19.4733 72.0069 18.6964 72.6374 17.9768H72.5673C72.5036 17.9768 73.7327 14.0796 73.8409 13.8439C75.0636 11.1057 79.0309 6.52707 82.3677 6.88368C82.9235 6.95942 83.4569 7.15196 83.9329 7.44863C84.409 7.7453 84.8168 8.13939 85.1296 8.60497C85.4423 9.07055 85.653 9.59707 85.7477 10.1499C85.8425 10.7028 85.8191 11.2694 85.6791 11.8125ZM47.1589 92.4318C46.5858 92.158 42.1855 89.9801 40.4661 88.1143C38.9779 88.9249 37.4426 89.6458 35.8684 90.2731C36.2568 92.0052 36.6262 93.6927 36.9382 95.2783C37.9316 100.296 38.5748 104.512 38.9823 107.473C39.0651 108.11 39.1415 108.664 39.2052 109.18H39.4281L40.1668 107.747C41.4977 105.117 43.3508 101.322 45.3758 96.6729C45.9617 95.3356 46.5603 93.9092 47.1589 92.4318ZM64.7601 28.3057C64.8111 28.3057 65.8299 24.3894 65.8682 24.1283C66.2821 21.1608 65.3332 15.1749 62.3084 13.7102C61.7988 13.4818 61.2468 13.3631 60.6883 13.362C60.1298 13.3609 59.5773 13.4774 59.0668 13.7038C58.5562 13.9303 58.0991 14.2616 57.725 14.6763C57.351 15.091 57.0684 15.5799 56.8956 16.111C56.0869 18.3398 57.1185 21.0717 58.3348 22.9502C59.7612 25.1854 64.7538 28.3057 64.7601 28.3057Z" fill="#3373CC"/>
<path opacity="0.3" d="M0.143712 22.0905C-0.00485274 21.5532 -0.0387032 20.9907 0.0443573 20.4395C0.127418 19.8882 0.325531 19.3606 0.625825 18.891C0.92612 18.4213 1.32187 18.0201 1.78737 17.7134C2.25287 17.4067 2.77769 17.2014 3.32773 17.1107C6.65821 16.6586 10.7465 21.129 12.0456 23.8354C12.1538 24.071 13.4847 27.93 13.4211 27.93C13.3574 27.93 7.51789 28.0638 5.14262 27.0067C3.06027 26.1088 0.697731 24.3958 0.143712 22.0905ZM85.6791 11.8125C85.1888 14.1305 82.8708 15.9072 80.8458 16.8624C78.8207 17.8176 74.0129 17.9832 72.8348 18.0023C72.198 18.7601 71.5166 19.5815 70.7843 20.4985C69.5107 22.1287 68.097 23.9818 66.696 26.096C66.3203 26.6628 65.9382 27.2805 65.5561 27.8791C66.4094 27.0067 67.5875 25.8286 67.7149 25.7267C70.0647 23.8609 75.694 21.6257 78.4896 23.4851C78.9458 23.806 79.3293 24.2193 79.6153 24.6982C79.9012 25.1771 80.0831 25.7108 80.1492 26.2646C80.2153 26.8184 80.164 27.3799 79.9988 27.9126C79.8335 28.4453 79.558 28.9373 79.1901 29.3565C77.6808 31.1905 74.8089 31.6999 72.5673 31.6107C70.3258 31.5216 65.8491 29.3883 64.8938 28.9107C64.0724 30.2416 63.2573 31.6299 62.4931 33.1263C61.0703 35.824 59.8918 38.6435 58.9716 41.5512L59.1435 41.634C59.8249 40.7361 61.3087 38.883 61.4487 38.7493C63.5757 36.6288 68.9312 33.795 71.9178 35.3297C72.4009 35.6004 72.8221 35.969 73.1547 36.4118C73.4872 36.8546 73.7237 37.362 73.8489 37.9014C73.9742 38.4408 73.9855 39.0004 73.8821 39.5445C73.7788 40.0885 73.5631 40.605 73.2487 41.0609C71.9751 43.0541 69.1541 43.8756 66.9189 44.0284C64.3717 44.2131 59.0162 42.2008 58.8124 42.118C57.986 45.0308 57.3478 47.9939 56.902 50.9887C56.5581 53.2047 56.297 55.4463 56.055 57.7324C56.5199 57.0956 58.4685 54.6567 58.6022 54.4975C60.7292 52.3833 66.0847 49.5431 69.0649 51.0842C69.5539 51.3533 69.9807 51.7224 70.3175 52.1675C70.6544 52.6125 70.8936 53.1236 71.0198 53.6673C71.146 54.211 71.1562 54.7751 71.0498 55.3231C70.9434 55.871 70.7227 56.3903 70.4022 56.8473C69.1286 58.8341 66.3076 59.6556 64.0724 59.8084C61.557 59.9867 56.4307 58.0827 56.0104 57.898C55.9022 58.9296 55.7939 59.9549 55.692 60.9928C55.3609 64.3615 55.0552 67.7493 54.635 71.0798C54.4885 72.2324 54.3102 73.3659 54.1319 74.4994C54.8578 73.557 56.2079 71.8694 56.3416 71.7357C58.4685 69.6215 63.824 66.7814 66.8106 68.3225C67.2944 68.5925 67.7164 68.9607 68.0495 69.4034C68.3826 69.8462 68.6194 70.3537 68.7448 70.8934C68.8701 71.4332 68.8812 71.9931 68.7773 72.5373C68.6734 73.0816 68.4569 73.5981 68.1415 74.0537C66.8679 76.0405 64.0469 76.862 61.8117 77.0212C59.5765 77.1804 55.2335 75.6712 54.0173 75.2254C53.7052 77.1358 53.3804 78.9762 52.922 80.7911C52.7182 81.5743 52.5653 82.3831 52.3234 83.1217L51.6866 85.3442C51.1771 86.8471 50.7122 88.2416 50.2028 89.6299C49.9481 90.3304 49.6997 90.9863 49.445 91.6676C50.0372 90.5978 51.0052 88.9294 51.1071 88.7829C52.8901 86.3694 57.7489 82.7588 60.9329 83.8286C61.4572 84.0196 61.9353 84.319 62.3361 84.7073C62.7368 85.0956 63.051 85.5641 63.2584 86.0822C63.4657 86.6002 63.5614 87.1562 63.5393 87.7137C63.5172 88.2713 63.3777 88.8179 63.1299 89.3178C62.1492 91.483 59.5065 92.7184 57.3159 93.2087C54.9088 93.7564 49.7379 92.7056 49.1075 92.5719C48.4707 94.234 47.8339 95.8387 47.2353 97.3352C45.3249 102.067 43.51 105.938 42.2173 108.632L42.0071 109.065H51.4255L48.1714 172.491C48.0823 174.836 47.0865 177.054 45.3937 178.679C43.7009 180.304 41.4435 181.209 39.097 181.202C36.7732 181.204 34.5376 180.312 32.8523 178.712C31.1671 177.112 30.1608 174.926 30.0416 172.605L26.7876 109.18H36.9C36.849 108.74 36.7981 108.275 36.7408 107.753C36.4033 104.824 35.8556 100.634 34.9768 95.654C34.7285 94.2149 34.4419 92.6929 34.1235 91.1327C33.4867 91.2155 28.2522 91.8778 25.8897 91.1327C23.75 90.4959 21.2028 89.044 20.3877 86.8152C20.1788 86.2981 20.081 85.7429 20.1008 85.1856C20.1206 84.6283 20.2575 84.0814 20.5026 83.5804C20.7476 83.0795 21.0954 82.6357 21.5232 82.278C21.9511 81.9203 22.4494 81.6567 22.9858 81.5043C26.2399 80.6701 30.8185 84.6437 32.4169 87.1782C32.5188 87.3438 33.5058 89.4006 33.9898 90.4641C33.7988 89.5216 33.6141 88.5855 33.3976 87.6049C33.0919 86.1975 32.7608 84.7201 32.3851 83.281C32.1813 82.5423 31.9711 81.7972 31.7483 81.0458C31.5254 80.2943 31.2706 79.5811 31.035 78.8297C30.6657 77.7471 30.2263 76.6455 29.7614 75.5438C28.3477 75.9386 24.1703 77.0148 22.0243 76.7028C19.8782 76.3907 17.0699 75.3528 15.9301 73.2768C15.6443 72.7971 15.4629 72.2626 15.3976 71.7082C15.3323 71.1537 15.3845 70.5917 15.551 70.0587C15.7174 69.5258 15.9942 69.0339 16.3635 68.6152C16.7327 68.1964 17.1861 67.8602 17.694 67.6283C20.7825 66.3102 25.9088 69.5387 27.8829 71.8121C27.9465 71.8822 28.3159 72.4044 28.7425 73.0284C28.284 71.9713 27.8319 70.9079 27.3352 69.8444C25.9215 66.8387 24.3868 63.8139 22.8776 60.7827C22.5592 60.1459 22.2408 59.5091 21.9351 58.8723C20.7443 59.2098 16.2039 60.4197 13.9814 60.095C11.759 59.7702 9.02711 58.7449 7.88724 56.6626C7.60629 56.1831 7.42903 55.65 7.36693 55.0978C7.30482 54.5455 7.35924 53.9864 7.52668 53.4565C7.69411 52.9266 7.97083 52.4377 8.33897 52.0214C8.70711 51.6051 9.15848 51.2706 9.66392 51.0396C12.7524 49.7278 17.8787 52.95 19.8528 55.2298C19.9228 55.3062 20.3622 55.9303 20.8398 56.6371C20.0374 54.9751 19.2542 53.313 18.5282 51.6318C17.2745 48.7628 16.2109 45.8144 15.3442 42.8057C14.9303 42.9267 9.66392 44.4551 7.16128 44.0794C4.94521 43.761 2.21332 42.7293 1.07344 40.6534C0.787528 40.1741 0.60577 39.64 0.540006 39.0858C0.474243 38.5316 0.525951 37.9698 0.691759 37.4369C0.857567 36.904 1.13376 36.4121 1.50235 35.9931C1.87094 35.574 2.32366 35.2373 2.83102 35.0049C5.92589 33.6931 11.0521 36.9153 13.0199 39.1887C13.16 39.3543 14.7138 41.6213 15.2423 42.4555C15.2395 42.4195 15.2395 42.3833 15.2423 42.3472C14.4634 39.3697 13.952 36.3286 13.714 33.2601C13.4799 30.5221 13.4033 27.773 13.4847 25.0262C13.5484 22.479 13.7586 20.1483 13.9623 18.0914C14.0833 16.977 14.2107 15.9581 14.3444 15.0093L14.2871 15.0475C14.2298 15.0857 13.109 11.163 13.0644 10.9083C12.5677 7.94714 13.3574 1.94209 16.3376 0.394658C16.8406 0.152264 17.3889 0.0184031 17.947 0.00176735C18.505 -0.0148684 19.0604 0.0860927 19.5768 0.298097C20.0933 0.510101 20.5595 0.828403 20.9449 1.23232C21.3304 1.63623 21.6265 2.11672 21.8141 2.64257C22.6802 4.85228 21.725 7.60964 20.5405 9.52642C19.3561 11.4432 15.4461 14.226 14.4909 14.8947C14.3763 15.8817 14.2616 16.9388 14.1597 18.0787C14.0005 20.1356 13.8413 22.4599 13.835 25.0007C13.835 25.6821 13.835 26.4081 13.8668 27.1149C14.0961 25.9177 14.4336 24.2875 14.5036 24.1283C15.427 21.2754 18.8912 16.3084 22.2535 16.3147C22.8112 16.331 23.3593 16.4645 23.862 16.7065C24.3647 16.9486 24.8108 17.2939 25.1712 17.7198C25.5317 18.1457 25.7984 18.6427 25.954 19.1785C26.1096 19.7144 26.1506 20.277 26.0743 20.8297C25.8323 23.1922 23.7118 25.1981 21.795 26.3635C19.8782 27.5288 14.943 28.2484 13.8859 28.3694C13.9369 29.936 14.0197 31.5534 14.2107 33.2091C14.5127 36.2425 15.0839 39.2431 15.9173 42.1753H16.1084C16.1848 41.0482 16.4013 38.6856 16.4395 38.4882C17.0763 35.5526 19.9419 30.2098 23.2851 29.8723C23.8412 29.8274 24.4006 29.9001 24.9267 30.0856C25.4529 30.2712 25.9341 30.5655 26.3389 30.9494C26.7438 31.3332 27.0633 31.798 27.2767 32.3135C27.49 32.8291 27.5924 33.3837 27.5772 33.9414C27.5772 36.3104 25.7114 38.5455 23.9347 39.9083C21.8842 41.4812 16.3312 42.7421 16.1211 42.7866C17.0282 45.6784 18.1237 48.5076 19.4006 51.2561C20.3367 53.2939 21.362 55.3253 22.4127 57.3503C22.4509 56.5543 22.7311 53.4531 22.7757 53.2302C23.4125 50.2946 26.2781 44.9518 29.6213 44.6079C30.1772 44.564 30.7361 44.6374 31.2618 44.8233C31.7875 45.0093 32.2683 45.3036 32.673 45.6873C33.0776 46.0709 33.3972 46.5353 33.6108 47.0504C33.8245 47.5654 33.9276 48.1196 33.9134 48.6771C33.9134 51.0523 32.0412 53.2812 30.2645 54.6439C28.2649 56.1786 22.954 57.414 22.5019 57.5159C22.9795 58.4329 23.4571 59.3563 23.941 60.2733C25.5267 63.2726 27.1251 66.2656 28.6279 69.2713C29.1437 70.3156 29.615 71.36 30.0926 72.4044C30.1753 71.2135 30.3791 69.0611 30.411 68.8765C31.0478 65.9408 33.9198 60.598 37.2566 60.2542C37.8127 60.2092 38.372 60.2819 38.8982 60.4675C39.4243 60.6531 39.9055 60.9474 40.3104 61.3312C40.7153 61.7151 41.0348 62.1799 41.2481 62.6954C41.4615 63.2109 41.5639 63.7656 41.5486 64.3233C41.5486 66.6986 39.6828 68.9274 37.9061 70.2902C36.1295 71.6529 31.6718 72.7928 30.4173 73.0985C31.2006 74.8561 31.952 76.5754 32.5888 78.333C32.8499 79.0972 33.162 79.855 33.3721 80.6L34.0471 82.8224C34.4483 84.3571 34.8304 85.7772 35.1742 87.2164C35.3526 87.9424 35.499 88.6301 35.6646 89.3306C35.5691 88.1207 35.4544 86.1911 35.4608 86.0128C35.62 83.0199 37.6769 77.3205 40.9246 76.4608C41.4677 76.3322 42.0318 76.3194 42.5802 76.4233C43.1285 76.5273 43.6488 76.7455 44.1072 77.0639C44.5656 77.3823 44.9518 77.7938 45.2406 78.2713C45.5294 78.7489 45.7143 79.282 45.7834 79.8359C45.8282 80.1265 45.8474 80.4206 45.8407 80.7146C47.1484 83.0048 47.8477 85.5918 47.8721 88.2289C47.8721 88.42 47.5601 90.6806 47.3754 91.8332C47.7384 90.9417 48.095 90.0565 48.4516 89.1268C48.9801 87.7831 49.4896 86.3503 49.999 84.9621L50.7122 82.7524C50.967 82.0073 51.1198 81.2687 51.349 80.5109C51.642 79.4028 51.884 78.2375 52.1259 77.0849C50.7313 76.6264 46.6494 75.2254 45.032 73.7799C43.4145 72.3343 41.6505 69.9208 41.8479 67.5583C41.8753 67.0012 42.0194 66.456 42.271 65.9582C42.5225 65.4604 42.8759 65.021 43.3083 64.6685C43.7406 64.3161 44.2421 64.0584 44.7804 63.9123C45.3187 63.7662 45.8817 63.7348 46.4329 63.8203C49.7379 64.4571 52.2342 69.9527 52.6163 72.9265C52.6163 73.0221 52.6481 73.6589 52.6609 74.4167C52.8646 73.2831 53.0748 72.1433 53.2404 70.9843C53.7243 67.6984 54.1064 64.3297 54.514 60.961C54.5967 60.2542 54.6923 59.5537 54.775 58.8532C53.597 58.4775 49.1648 57.0001 47.4709 55.4845C45.777 53.9689 44.0895 51.6255 44.2869 49.2629C44.3123 48.7051 44.4551 48.159 44.706 47.6601C44.957 47.1613 45.3104 46.7211 45.7432 46.3683C46.176 46.0154 46.6784 45.7579 47.2175 45.6126C47.7567 45.4673 48.3204 45.4374 48.8719 45.5249C52.1769 46.1617 54.6668 51.6573 55.0552 54.6312C55.0552 54.7331 55.0552 55.4972 55.0998 56.3506C55.3418 54.5166 55.6093 52.7017 55.934 50.8995C56.4624 47.8006 57.2007 44.7411 58.1437 41.7423C57.7234 41.6149 52.4953 39.9847 50.6104 38.3036C48.9356 36.8071 47.2226 34.4445 47.4263 32.082C47.4517 31.5242 47.5945 30.978 47.8455 30.4792C48.0964 29.9804 48.4499 29.5402 48.8826 29.1873C49.3154 28.8345 49.8178 28.577 50.357 28.4316C50.8961 28.2863 51.4598 28.2564 52.0113 28.3439C55.31 28.9808 57.8062 34.4764 58.1947 37.4502C58.1947 37.6604 58.2647 40.4114 58.2456 41.3984C58.2456 41.3602 58.2456 41.322 58.2775 41.2902C59.2725 38.3771 60.5234 35.5578 62.0155 32.8652C63.3405 30.4483 64.8033 28.1095 66.3967 25.8604C67.855 23.7653 69.3133 21.9441 70.6251 20.3393C71.3383 19.4733 72.0069 18.6964 72.6374 17.9768H72.5673C72.5036 17.9768 73.7327 14.0796 73.8409 13.8439C75.0636 11.1057 79.0309 6.52707 82.3677 6.88368C82.9235 6.95942 83.4569 7.15196 83.9329 7.44863C84.409 7.7453 84.8168 8.13939 85.1296 8.60497C85.4423 9.07055 85.653 9.59707 85.7477 10.1499C85.8425 10.7028 85.8191 11.2694 85.6791 11.8125ZM47.1589 92.4318C46.5858 92.158 42.1855 89.9801 40.4661 88.1143C38.9779 88.9249 37.4426 89.6458 35.8684 90.2731C36.2568 92.0052 36.6262 93.6927 36.9382 95.2783C37.9316 100.296 38.5748 104.512 38.9823 107.473C39.0651 108.11 39.1415 108.664 39.2052 109.18H39.4281L40.1668 107.747C41.4977 105.117 43.3508 101.322 45.3758 96.6729C45.9617 95.3356 46.5603 93.9092 47.1589 92.4318ZM64.7601 28.3057C64.8111 28.3057 65.8299 24.3894 65.8682 24.1283C66.2821 21.1608 65.3332 15.1749 62.3084 13.7102C61.7988 13.4818 61.2468 13.3631 60.6883 13.362C60.1298 13.3609 59.5773 13.4774 59.0668 13.7038C58.5562 13.9303 58.0991 14.2616 57.725 14.6763C57.351 15.091 57.0684 15.5799 56.8956 16.111C56.0869 18.3398 57.1185 21.0717 58.3348 22.9502C59.7612 25.1854 64.7538 28.3057 64.7601 28.3057Z" fill="white"/>
<path d="M245.034 50.8231C245.034 50.8231 238.806 55.5864 237.946 59.2544C237.086 62.9224 238.194 66.826 238.927 69.1503C239.659 71.4746 239.78 82.7142 232.941 87.7195C226.101 92.7248 223.045 97.7364 223.777 103.971C224.509 110.205 233.794 117.044 241.493 118.617C249.192 120.19 260.062 116.662 264.335 107.499C268.608 98.335 262.87 88.2289 259.693 82.4977C256.515 76.7665 256.763 71.3791 260.33 71.1371C263.896 70.8952 265.704 71.774 265.832 66.7368C265.959 61.6997 264.73 53.9116 258.254 50.0017C251.777 46.0917 245.034 50.8231 245.034 50.8231Z" fill="#2E353A" stroke="#2E353A" stroke-linecap="round" stroke-linejoin="round"/>
<path d="M229.699 112.275C230.336 112.701 236.067 115.038 240.308 108.454C244.549 101.869 238.774 95.8006 239.888 89.9866" stroke="white" stroke-width="0.5" stroke-miterlimit="10"/>
<path d="M252.001 58.4011C252.001 58.4011 250.014 51.9821 254.319 54.0645C258.936 56.2933 262.597 66.8005 261.005 69.1885" stroke="white" stroke-width="0.5" stroke-miterlimit="10"/>
<path d="M250.815 57.567C250.815 57.567 248.427 52.9501 250.019 50.8805C251.611 48.8109 255.273 51.1989 257.183 52.6317" stroke="white" stroke-width="0.5" stroke-miterlimit="10"/>
<path d="M256.228 70.1437C256.228 70.1437 256.865 73.0093 254.954 78.7405C253.044 84.4717 249.541 90.999 253.044 97.0486C256.546 103.098 259.253 107.237 255.273 113.287" stroke="white" stroke-width="0.5" stroke-miterlimit="10"/>
<path d="M256.229 73.4869C256.368 77.2195 256.101 80.956 255.433 84.631C254.319 90.999 257.821 95.1382 261.483 99.1183C265.144 103.098 264.189 106.442 262.915 110.103" stroke="white" stroke-width="0.5" stroke-miterlimit="10"/>
<path d="M250.656 58.522C250.656 58.522 243.173 59.1588 240.945 58.2036C238.716 57.2484 239.193 56.4524 239.193 56.4524" stroke="white" stroke-width="0.5" stroke-miterlimit="10"/>
<path d="M251.649 83.9561C251.649 83.9561 252.623 93.852 253.871 99.5768C255.119 105.302 257.106 112.529 256.61 114.523C256.113 116.516 245.147 133.448 245.147 133.448L241.912 131.207L248.637 111.033L242.976 92.1199C242.976 92.1199 248.159 84.5228 251.649 83.9561Z" fill="white" stroke="#2E353A" stroke-linecap="round" stroke-linejoin="round"/>
<path d="M250.778 82.3449C249.186 80.511 245.766 75.7477 245.766 75.7477L240.391 69.3796L232.941 59.1207C231.96 57.7771 228.661 58.2611 219.135 58.3884C209.608 58.5158 180.691 53.0138 180.691 53.0138L179.717 59.3818C179.717 59.3818 206.182 65.1131 212.901 65.7499C219.619 66.3867 225.853 67.2145 225.853 67.2145C224.935 69.0425 224.119 70.9197 223.408 72.8375C222.676 75.0344 214.123 86.7644 214.123 86.7644C214.123 86.7644 213.913 86.8917 213.55 87.1337C213.455 89.2606 213.658 93.7756 216.836 96.1572C219.294 97.9976 222.892 98.7745 225.49 99.0992C225.535 98.9528 225.573 98.8254 225.605 98.7363C225.974 97.7556 228.661 96.2909 230.126 96.189C231.591 96.0872 236.112 96.31 238.806 96.0681C241.499 95.8261 242.958 92.1581 242.958 92.1581C242.958 92.1581 248.893 86.3632 251.625 83.9943C251.455 83.3935 251.167 82.8326 250.778 82.3449Z" fill="white" stroke="#2E353A" stroke-linecap="round" stroke-linejoin="round"/>
<path d="M229.234 68.6918L225.853 67.1953L228.311 71.1053" stroke="#2E353A" stroke-width="0.75" stroke-linecap="round" stroke-linejoin="round"/>
<path d="M220.707 90.9418C223.252 92.5207 226.263 93.1751 229.234 92.7949" stroke="#2E353A" stroke-width="0.75" stroke-linecap="round" stroke-linejoin="round"/>
<path d="M217.898 86.4905C217.898 86.4905 218.452 88.7193 221.98 90.203" stroke="#2E353A" stroke-width="0.75" stroke-linecap="round" stroke-linejoin="round"/>
<path d="M248.618 111.033C248.618 111.033 250.93 110.039 252.783 112.638" stroke="#2E353A" stroke-width="0.75" stroke-linecap="round" stroke-linejoin="round"/>
<path d="M249.261 93.7246L242.957 92.1199L248.516 96.5074" stroke="#2E353A" stroke-width="0.75" stroke-linecap="round" stroke-linejoin="round"/>
<path d="M232.016 61.4833C232.016 61.4833 228.864 67.0426 225.158 66.8579C220.121 66.6032 205.869 62.4003 205.869 60.9229C205.869 59.4455 209.766 58.8851 209.766 58.8851" stroke="#2E353A" stroke-width="0.75" stroke-linecap="round" stroke-linejoin="round"/>
<path d="M242.957 66.0937C242.957 66.0937 240.41 65.4568 238.557 66.584C236.704 67.7111 231.839 78.3139 231.839 78.3139C231.839 78.3139 232.202 78.8042 233.673 78.8042C235.144 78.8042 235.507 80.7592 235.507 82.5868C235.507 84.4145 235.379 85.2742 235.991 85.1341C236.602 84.994 240.27 83.6694 241.002 84.1598C241.735 84.6501 240.022 87.089 240.366 87.3438C240.71 87.5985 243.785 84.5291 244.766 81.2305C245.747 77.9318 246.721 73.0475 246.473 71.0925C246.224 69.1376 244.645 66.5776 242.957 66.0937Z" fill="#3373CC" stroke="#2E353A" stroke-linecap="round" stroke-linejoin="round"/>
<path d="M245.033 76.2379C243.688 77.739 242.261 79.1654 240.76 80.5109C237.946 83.0581 235.628 84.9112 235.749 83.6949C235.87 82.4786 238.678 75.875 239.41 72.2325C240.143 68.5899 241.493 66.1191 242.957 66.1191C244.422 66.1191 247.6 73.5825 245.033 76.2379Z" fill="white" stroke="#2E353A" stroke-linecap="round" stroke-linejoin="round"/>
<path d="M243.569 60.4771C243.667 60.7745 243.826 61.048 244.037 61.2796C244.247 61.5111 244.505 61.6955 244.792 61.8208C245.645 62.0627 252 58.4011 252 58.4011C252 58.4011 256.521 68.0487 255.783 69.5133C255.044 70.978 252.853 72.8183 250.408 74.525C247.963 76.2316 243.448 77.5816 241.735 76.601C240.022 75.6203 241.245 65.6097 241.245 65.6097C241.245 65.6097 239.901 64.0177 241.366 61.4514C242.83 58.8851 243.569 60.4771 243.569 60.4771Z" fill="white" stroke="#2E353A" stroke-linecap="round" stroke-linejoin="round"/>
<path d="M253.801 70.443C253.801 70.443 253.91 69.6852 252.496 69.6852C251.082 69.6852 248.599 72.2833 248.599 72.2833" stroke="#2E353A" stroke-width="0.75" stroke-linecap="round" stroke-linejoin="round"/>
<path d="M247.625 72.4999L246.867 71.7421" stroke="#2E353A" stroke-width="0.75" stroke-linecap="round" stroke-linejoin="round"/>
<path d="M246.556 73.9137C246.556 73.9137 244.607 73.5889 244.282 71.0927" stroke="#2E353A" stroke-width="0.75" stroke-linecap="round" stroke-linejoin="round"/>
<path d="M251.064 66.5076C251.064 66.5076 250.58 64.1323 248.517 63.6738" stroke="#2E353A" stroke-width="0.75" stroke-linecap="round" stroke-linejoin="round"/>
<path d="M248.611 67.7812C248.115 68.1697 247.567 68.2971 247.382 68.0614C247.198 67.8258 247.446 67.3227 247.936 66.9343C248.427 66.5458 248.981 66.4185 249.165 66.6541C249.35 66.8897 249.102 67.3928 248.611 67.7812Z" fill="#2E353A"/>
<path d="M251.682 71.793C251.275 72.1114 250.823 72.2196 250.67 72.0222C250.517 71.8248 250.721 71.3854 251.128 71.0861C251.536 70.7868 251.988 70.6658 252.141 70.8569C252.294 71.0479 252.09 71.4682 251.682 71.793Z" fill="#2E353A"/>
<path d="M239.792 175.77L246.039 184.45C246.039 184.45 246.039 186.042 243.81 186.042C241.581 186.042 240.308 186.042 239.034 184.45C237.761 182.858 237.761 181.903 236.487 181.266C235.213 180.629 233.94 180.629 234.577 177.127C235.213 173.624 239.792 175.77 239.792 175.77Z" fill="white" stroke="#2E353A" stroke-linecap="round" stroke-linejoin="round"/>
<path d="M246.013 184.647C245.024 185.122 243.914 185.287 242.829 185.119C240.575 184.711 239.206 182.457 238.372 181.489C237.537 180.521 236.518 180.527 235.557 179.718C235.099 179.328 234.7 178.873 234.372 178.368C234.239 180.635 235.34 180.712 236.436 181.266C237.709 181.903 237.709 182.858 238.983 184.45C240.256 186.042 241.53 186.042 243.759 186.042C245.548 186.042 245.918 185.074 246.013 184.647Z" fill="white" stroke="#2E353A" stroke-linecap="round" stroke-linejoin="round"/>
<path d="M239.435 174.669C238.162 170.848 236.347 147.974 235.404 140.733C233.494 126.01 224.999 106.9 224.999 106.9L225.489 99.08C222.891 98.7553 219.293 97.9784 216.835 96.138C213.651 93.7564 213.454 89.2414 213.549 87.1145C211.938 88.1525 207.181 91.2792 203.125 94.5651C198.12 98.5961 194.694 112.892 193.719 117.407C192.745 121.922 191.643 135.238 191.643 135.238C191.643 135.238 182.843 138.657 179.302 143.516C175.761 148.375 165.006 159.398 165.006 159.398L165.987 163.066C165.987 163.066 169.285 160.748 172.093 158.545C174.902 156.341 196.776 144.127 198.241 143.261C199.705 142.395 201.425 140.714 203.373 135.811C204.086 134.021 205.093 131.092 206.086 128.093L209.48 117.522L212.747 114.739C215.969 123.45 223.458 140.243 224.521 142.644C225.795 145.522 226.763 158.322 230.285 166.326C233.806 174.331 234.742 178.171 234.742 178.171C234.742 178.171 240.715 178.508 239.435 174.669Z" fill="#2E353A" stroke="#2E353A" stroke-linecap="round" stroke-linejoin="round"/>
<path d="M225.279 100.589L226.496 107.69" stroke="white" stroke-width="0.5" stroke-miterlimit="10"/>
<path d="M53.0808 45.7478L34.69 201.956C34.6651 202.181 34.7037 202.408 34.8016 202.612C34.8995 202.816 35.0526 202.989 35.2436 203.11C35.4347 203.231 35.6559 203.297 35.8822 203.299C36.1086 203.301 36.3309 203.239 36.524 203.121L48.343 195.849C49.0445 195.414 49.8875 195.268 50.6941 195.443C51.5007 195.618 52.2081 196.099 52.6669 196.785L67.5172 218.863L73.7133 125.991L53.0808 45.7478Z" fill="#3373CC" stroke="#2E353A" stroke-linecap="round" stroke-linejoin="round"/>
<path d="M52.9678 49.6769L36.3472 198.052C36.3113 198.372 36.3696 198.696 36.5151 198.984C36.6605 199.271 36.8867 199.51 37.1659 199.671C37.4451 199.832 37.7653 199.908 38.087 199.889C38.4087 199.871 38.7181 199.759 38.9772 199.568L47.6186 193.2C48.068 192.867 48.5806 192.63 49.1248 192.503C49.6691 192.375 50.2336 192.36 50.7839 192.459C51.3341 192.557 51.8585 192.767 52.3249 193.075C52.7913 193.383 53.1899 193.783 53.4963 194.25L63.6088 209.686C63.7183 209.858 63.8822 209.988 64.0742 210.055C64.2662 210.123 64.4753 210.124 64.668 210.059C64.8608 209.993 65.0262 209.866 65.1378 209.695C65.2493 209.525 65.3006 209.322 65.2836 209.12L53.4772 49.6833C53.465 49.6252 53.4333 49.5731 53.3875 49.5355C53.3416 49.4979 53.2844 49.477 53.2251 49.4762C53.1658 49.4755 53.108 49.4949 53.0612 49.5314C53.0145 49.5679 52.9815 49.6192 52.9678 49.6769Z" fill="#3373CC" stroke="#2E353A" stroke-linecap="round" stroke-linejoin="round"/>
<path opacity="0.6" d="M53.1961 47.5245L36.3336 198.039C36.2976 198.36 36.356 198.683 36.5014 198.971C36.6468 199.259 36.873 199.497 37.1523 199.658C37.4315 199.819 37.7516 199.895 38.0733 199.877C38.3951 199.858 38.7045 199.747 38.9636 199.555L47.605 193.187C48.0544 192.854 48.5669 192.617 49.1112 192.49C49.6554 192.362 50.2199 192.347 50.7702 192.446C51.3204 192.544 51.8448 192.754 52.3112 193.062C52.7776 193.37 53.1762 193.77 53.4827 194.238L63.5951 209.674C63.7047 209.845 63.8685 209.975 64.0605 210.043C64.2525 210.11 64.4616 210.111 64.6544 210.046C64.8472 209.981 65.0125 209.853 65.1241 209.683C65.2356 209.512 65.287 209.31 65.2699 209.107L53.3171 47.5245C53.3129 47.5118 53.3048 47.5007 53.2939 47.4928C53.2831 47.4849 53.27 47.4807 53.2566 47.4807C53.2432 47.4807 53.2301 47.4849 53.2193 47.4928C53.2084 47.5007 53.2003 47.5118 53.1961 47.5245Z" fill="black"/>
<path d="M50.1208 192.372C50.7898 192.383 51.4458 192.558 52.0318 192.881C52.6178 193.204 53.116 193.665 53.4831 194.225L63.5956 209.661C63.7051 209.832 63.869 209.962 64.061 210.03C64.253 210.097 64.4621 210.098 64.6548 210.033C64.8476 209.968 65.013 209.84 65.1245 209.67C65.2361 209.5 65.2875 209.297 65.2704 209.094L63.8248 189.583L49.9043 192.308C49.9783 192.323 50.0508 192.344 50.1208 192.372Z" fill="#3373CC" stroke="#2E353A" stroke-linecap="round" stroke-linejoin="round"/>
<path opacity="0.3" d="M50.1208 192.372C50.7898 192.383 51.4458 192.558 52.0318 192.881C52.6178 193.204 53.116 193.665 53.4831 194.225L63.5956 209.661C63.7051 209.832 63.869 209.962 64.061 210.03C64.253 210.097 64.4621 210.098 64.6548 210.033C64.8476 209.968 65.013 209.84 65.1245 209.67C65.2361 209.5 65.2875 209.297 65.2704 209.094L63.8248 189.583L49.9043 192.308C49.9783 192.323 50.0508 192.344 50.1208 192.372Z" fill="black"/>
<path d="M53.457 45.6522L67.5113 218.863L231.393 187.634L192.879 52.5488L53.457 45.6522Z" fill="#2E353A" stroke="#2E353A" stroke-linecap="round" stroke-linejoin="round"/>
<path d="M61.0547 49.3904L70.7086 209.706L224.815 181.686L192.332 57.1339L61.0547 49.3904Z" fill="#3373CC" stroke="#2E353A" stroke-linecap="round" stroke-linejoin="round"/>
<path d="M70.4727 128.284L77.8023 204.274L217.823 178.814L204.813 121.699L70.4727 128.284Z" fill="white" stroke="#2E353A" stroke-linecap="round" stroke-linejoin="round"/>
<path d="M97.4991 200.491L95.1748 176.082" stroke="#2E353A" stroke-linecap="round" stroke-linejoin="round"/>
<path d="M118.927 196.715L116.686 176.369" stroke="#2E353A" stroke-linecap="round" stroke-linejoin="round"/>
<path d="M139.936 192.646L137.318 176.369" stroke="#2E353A" stroke-linecap="round" stroke-linejoin="round"/>
<path d="M161.58 188.933L158.466 169.53" stroke="#2E353A" stroke-linecap="round" stroke-linejoin="round"/>
<path d="M180.647 185.494L177.991 166.556" stroke="#2E353A" stroke-linecap="round" stroke-linejoin="round"/>
<path d="M198.928 182.113L194.974 159.341" stroke="#2E353A" stroke-linecap="round" stroke-linejoin="round"/>
<path d="M241.894 131.207C241.894 131.207 239.945 133.168 239.818 134.187C239.69 135.206 240.709 138.275 240.709 138.275L243.779 138.785L245.129 133.448L241.894 131.207Z" fill="white" stroke="#2E353A" stroke-linecap="round" stroke-linejoin="round"/>
<g style="mix-blend-mode:multiply" opacity="0.49">
<path d="M61.8311 93.6799C61.8311 93.6799 65.066 140.237 68.0399 157.214C71.0138 174.191 76.5285 199.599 76.5285 199.599C76.5285 199.599 172.049 184.813 219.172 164.855L215.352 146.605L61.8311 93.6799Z" fill="#3373CC"/>
</g>
<path d="M57.5137 47.6455L191.669 54.8732C191.669 54.8732 204.73 94.0048 217.727 116.102C230.724 138.199 252.159 136.76 252.159 136.76C252.159 136.76 202.998 163.639 164.707 177.948C124.856 192.83 90.2963 195.505 90.2963 195.505C90.2963 195.505 58.8191 152.508 57.5137 47.6455Z" fill="#3373CC" stroke="#2E353A" stroke-linecap="round" stroke-linejoin="round"/>
<path d="M72.8744 40.6788C70.3845 40.6788 68.5824 42.8885 68.0156 46.3528L70.5628 46.4928C70.9577 44.4933 71.7409 43.226 72.8681 43.226C74.1799 43.226 75.6382 45.3339 75.6382 48.365C75.6382 51.3962 74.1799 53.5104 72.8681 53.5104C72.5303 53.5104 72.2063 53.6446 71.9675 53.8834C71.7286 54.1223 71.5945 54.4462 71.5945 54.784C71.5945 55.1218 71.7286 55.4457 71.9675 55.6846C72.2063 55.9234 72.5303 56.0576 72.8681 56.0576C75.8483 56.0576 78.1854 52.6762 78.1854 48.365C78.1854 44.0539 75.8547 40.6788 72.8744 40.6788Z" fill="white" stroke="#2E353A" stroke-miterlimit="10"/>
<path d="M76.5279 50.4282C76.4059 50.8773 76.2483 51.316 76.0566 51.74" stroke="#2E353A" stroke-width="0.75" stroke-linecap="round" stroke-linejoin="round"/>
<path d="M69.2754 45.2066C69.2754 45.2066 70.2306 41.7551 73.0516 41.9461C75.2677 42.099 77.0953 45.3912 76.7897 48.9127" stroke="#2E353A" stroke-width="0.75" stroke-linecap="round" stroke-linejoin="round"/>
<path d="M94.9965 41.7932C92.5066 41.7932 90.7045 44.0029 90.1377 47.4671L92.6849 47.6072C93.0797 45.6077 93.863 44.3404 94.9901 44.3404C96.302 44.3404 97.7602 46.4482 97.7602 49.4794C97.7602 52.5106 96.302 54.6248 94.9901 54.6248C94.6524 54.6248 94.3284 54.759 94.0896 54.9978C93.8507 55.2367 93.7165 55.5606 93.7165 55.8984C93.7165 56.2362 93.8507 56.5601 94.0896 56.799C94.3284 57.0378 94.6524 57.172 94.9901 57.172C97.9704 57.172 100.307 53.7906 100.307 49.4794C100.307 45.1683 97.9831 41.7932 94.9965 41.7932Z" fill="white" stroke="#2E353A" stroke-miterlimit="10"/>
<path d="M98.6578 51.5427C98.5358 51.9918 98.3782 52.4305 98.1865 52.8545" stroke="#2E353A" stroke-width="0.75" stroke-linecap="round" stroke-linejoin="round"/>
<path d="M91.4043 46.3209C91.4043 46.3209 92.3595 42.8695 95.1805 43.0605C97.3966 43.2133 99.2242 46.5056 98.9186 50.0271" stroke="#2E353A" stroke-width="0.75" stroke-linecap="round" stroke-linejoin="round"/>
<path d="M117.13 42.9076C114.64 42.9076 112.838 45.1173 112.271 48.5815L114.819 48.7216C115.214 46.722 115.997 45.4548 117.124 45.4548C118.436 45.4548 119.894 47.5626 119.894 50.5938C119.894 53.625 118.436 55.7392 117.124 55.7392C116.786 55.7392 116.462 55.8734 116.223 56.1122C115.984 56.351 115.85 56.675 115.85 57.0128C115.85 57.3506 115.984 57.6745 116.223 57.9134C116.462 58.1522 116.786 58.2864 117.124 58.2864C120.104 58.2864 122.441 54.905 122.441 50.5938C122.441 46.2826 120.111 42.9076 117.13 42.9076Z" fill="white" stroke="#2E353A" stroke-miterlimit="10"/>
<path d="M120.787 52.6571C120.665 53.1062 120.507 53.5449 120.315 53.9689" stroke="#2E353A" stroke-width="0.75" stroke-linecap="round" stroke-linejoin="round"/>
<path d="M113.532 47.4353C113.532 47.4353 114.487 43.9838 117.308 44.1749C119.525 44.3277 121.352 47.62 121.047 51.1415" stroke="#2E353A" stroke-width="0.75" stroke-linecap="round" stroke-linejoin="round"/>
<path d="M139.259 44.0221C136.769 44.0221 134.967 46.2318 134.4 49.696L136.948 49.8361C137.342 47.8365 138.126 46.5693 139.253 46.5693C140.565 46.5693 142.023 48.6771 142.023 51.7083C142.023 54.7395 140.565 56.8537 139.253 56.8537C138.915 56.8537 138.591 56.9879 138.352 57.2267C138.113 57.4656 137.979 57.7895 137.979 58.1273C137.979 58.4651 138.113 58.789 138.352 59.0279C138.591 59.2667 138.915 59.4009 139.253 59.4009C142.233 59.4009 144.57 56.0195 144.57 51.7083C144.57 47.3971 142.239 44.0221 139.259 44.0221Z" fill="white" stroke="#2E353A" stroke-miterlimit="10"/>
<path d="M142.916 53.7715C142.794 54.2206 142.636 54.6592 142.444 55.0833" stroke="#2E353A" stroke-width="0.75" stroke-linecap="round" stroke-linejoin="round"/>
<path d="M135.662 48.5497C135.662 48.5497 136.617 45.0982 139.438 45.2893C141.654 45.4421 143.482 48.7344 143.176 52.2559" stroke="#2E353A" stroke-width="0.75" stroke-linecap="round" stroke-linejoin="round"/>
<path d="M161.79 45.009C159.3 45.009 157.498 47.2187 156.938 50.6893L159.485 50.8294C159.886 48.8299 160.669 47.5562 161.79 47.5562C163.102 47.5562 164.566 49.6704 164.566 52.7016C164.566 55.7328 163.102 57.8406 161.79 57.8406C161.452 57.8406 161.128 57.9748 160.889 58.2136C160.651 58.4525 160.516 58.7764 160.516 59.1142C160.516 59.452 160.651 59.7759 160.889 60.0148C161.128 60.2536 161.452 60.3878 161.79 60.3878C164.777 60.3878 167.114 57.0128 167.114 52.7016C167.114 48.3905 164.777 45.009 161.79 45.009Z" fill="white" stroke="#2E353A" stroke-miterlimit="10"/>
<path d="M165.446 54.7649C165.325 55.2122 165.167 55.6489 164.975 56.0703" stroke="#2E353A" stroke-width="0.75" stroke-linecap="round" stroke-linejoin="round"/>
<path d="M158.191 49.5431C158.191 49.5431 159.153 46.0853 161.968 46.2763C164.19 46.4291 166.011 49.7278 165.712 53.2493" stroke="#2E353A" stroke-width="0.75" stroke-linecap="round" stroke-linejoin="round"/>
<path d="M183.434 46.2C180.945 46.2 179.142 48.4097 178.582 51.8739L181.129 52.0203C181.53 50.0208 182.314 48.7472 183.434 48.7472C184.746 48.7472 186.211 50.8614 186.211 53.8862C186.211 56.911 184.746 59.0315 183.434 59.0315C183.097 59.0315 182.773 59.1657 182.534 59.4046C182.295 59.6434 182.161 59.9674 182.161 60.3051C182.161 60.6429 182.295 60.9669 182.534 61.2057C182.773 61.4446 183.097 61.5787 183.434 61.5787C186.421 61.5787 188.758 58.1973 188.758 53.8862C188.758 49.575 186.421 46.2 183.434 46.2Z" fill="white" stroke="#2E353A" stroke-miterlimit="10"/>
<path d="M187.09 55.9175C186.97 56.3672 186.813 56.8061 186.619 57.2293" stroke="#2E353A" stroke-width="0.75" stroke-linecap="round" stroke-linejoin="round"/>
<path d="M179.838 50.7022C179.838 50.7022 180.799 47.2443 183.614 47.4354C185.837 47.5882 187.658 50.8805 187.359 54.402" stroke="#2E353A" stroke-width="0.75" stroke-linecap="round" stroke-linejoin="round"/>
<path d="M245.129 133.442C245.129 133.442 246.403 135.187 246.403 135.932C246.403 136.677 244.658 137.925 244.658 139.664C244.658 141.402 242.416 140.937 242.168 139.664C241.92 138.39 242.665 136.677 242.665 136.677C242.665 136.677 241.627 136.04 241.391 133.799C241.156 131.557 243.174 132.194 243.174 132.194L245.129 133.442Z" fill="white" stroke="#2E353A" stroke-linecap="round" stroke-linejoin="round"/>
<path d="M213.289 116.204C204.062 100.513 194.369 75.7348 190.924 66.6158L71.0334 61.757C70.9569 150.368 97.7791 186.978 97.7791 186.978C97.7791 186.978 128.314 184.615 163.529 171.459C197.369 158.818 237.729 137.6 237.729 137.6C237.729 137.6 224.77 135.734 213.289 116.204Z" fill="white" stroke="#2E353A" stroke-linecap="round" stroke-linejoin="round"/>
<path d="M190.924 66.6158L71.0332 61.757C71.0332 70.4748 71.2816 78.6768 71.7401 86.4012L198.349 85.2168C195.07 77.4032 192.427 70.5576 190.924 66.6158Z" fill="#2E353A" stroke="#2E353A" stroke-linecap="round" stroke-linejoin="round"/>
<path d="M193.044 93.0304L198.711 92.833" stroke="#2E353A" stroke-width="3" stroke-linecap="round" stroke-linejoin="round"/>
<path d="M176.386 93.5972L188.797 93.1705" stroke="#2E353A" stroke-width="3" stroke-linecap="round" stroke-linejoin="round"/>
<path d="M156.219 94.2786L172.171 93.7373" stroke="#2E353A" stroke-width="3" stroke-linecap="round" stroke-linejoin="round"/>
<path d="M135.7 94.9727L152.696 94.3995" stroke="#2E353A" stroke-width="3" stroke-linecap="round" stroke-linejoin="round"/>
<path d="M115.864 95.6478L131.447 95.1193" stroke="#2E353A" stroke-width="3" stroke-linecap="round" stroke-linejoin="round"/>
<path d="M94.9648 96.361L110.56 95.826" stroke="#2E353A" stroke-width="3" stroke-linecap="round" stroke-linejoin="round"/>
<path d="M76.5664 96.985L91.0792 96.4883" stroke="#2E353A" stroke-width="3" stroke-linecap="round" stroke-linejoin="round"/>
<path d="M74.2041 110.644L206.105 102.608" stroke="#2E353A" stroke-linecap="round" stroke-linejoin="round"/>
<path d="M95.0469 109.511C95.0469 109.511 97.212 144.586 120.334 183.52" stroke="#2E353A" stroke-linecap="round" stroke-linejoin="round"/>
<path d="M116.329 108.104C116.329 108.104 118.768 148.222 144.119 177.598" stroke="#2E353A" stroke-linecap="round" stroke-linejoin="round"/>
<path d="M135.599 106.919C135.599 106.919 136.872 143.854 165.369 170.396" stroke="#2E353A" stroke-linecap="round" stroke-linejoin="round"/>
<path d="M155.575 106.059C155.575 106.059 158.721 147.121 186.301 161.582" stroke="#2E353A" stroke-linecap="round" stroke-linejoin="round"/>
<path d="M176.507 104.41C176.507 104.41 178.723 135.467 206.933 152.476" stroke="#2E353A" stroke-linecap="round" stroke-linejoin="round"/>
<path d="M192.987 103.404C192.987 103.404 200.578 135.244 221.815 145.554" stroke="#2E353A" stroke-linecap="round" stroke-linejoin="round"/>
<path d="M77.0957 128.736L211.818 113.917" stroke="#2E353A" stroke-linecap="round" stroke-linejoin="round"/>
<path d="M80.6113 144.586C80.6113 144.586 109.376 143.459 218.084 123.425" stroke="#2E353A" stroke-linecap="round" stroke-linejoin="round"/>
<path d="M85.6855 161.366C85.6855 161.366 113.705 164.55 223.477 129.596" stroke="#2E353A" stroke-linecap="round" stroke-linejoin="round"/>
<path d="M91.749 176.006C91.749 176.006 115.107 183.743 229.846 134.614" stroke="#2E353A" stroke-linecap="round" stroke-linejoin="round"/>
<path d="M122.818 79.0908L79.6301 78.5113C79.2803 78.5061 78.9442 78.3741 78.6842 78.1399C78.4242 77.9057 78.258 77.5851 78.2164 77.2377L77.8471 73.748C77.8254 73.5472 77.8467 73.344 77.9094 73.152C77.9721 72.96 78.0749 72.7835 78.211 72.6342C78.347 72.4849 78.5133 72.3662 78.6986 72.286C78.884 72.2057 79.0843 72.1658 79.2863 72.1687L121.952 72.9074C122.267 72.913 122.572 73.0219 122.819 73.2175C123.067 73.4131 123.243 73.6845 123.321 73.99L124.187 77.3077C124.241 77.5175 124.247 77.7369 124.204 77.9493C124.161 78.1616 124.069 78.3613 123.938 78.5331C123.806 78.705 123.636 78.8445 123.442 78.9412C123.248 79.0378 123.035 79.089 122.818 79.0908Z" fill="white"/>
</svg>
