<svg width="143" height="170" viewBox="0 0 143 170" fill="none" xmlns="http://www.w3.org/2000/svg">
<path fill-rule="evenodd" clip-rule="evenodd" d="M62.514 162.807L39.2566 168.266C36.4924 168.915 33.7242 167.2 33.076 164.434L0.477723 25.5719C-0.170487 22.8063 1.54528 20.0381 4.31079 19.3899L27.5669 13.9301L62.514 162.807Z" fill="white"/>
<path fill-rule="evenodd" clip-rule="evenodd" d="M63.1732 162.803L39.9157 168.261C37.1516 168.911 34.3833 167.195 33.7351 164.43L1.1369 25.5675C0.488693 22.8019 2.20446 20.0337 4.96997 19.3855L28.226 13.9257L63.1732 162.803Z" stroke="white" stroke-width="2" stroke-linecap="round" stroke-linejoin="round"/>
<path fill-rule="evenodd" clip-rule="evenodd" d="M105.56 152.959L45.5681 167.04C42.2325 167.824 38.8941 165.754 38.1102 162.419L5.99987 25.6191C5.21599 22.2835 7.28533 18.9465 10.6209 18.164L70.4878 4.1103C73.781 3.33738 77.0768 5.38068 77.8484 8.67243L110.027 145.752C110.784 148.975 108.784 152.201 105.56 152.959Z" fill="#3373CC"/>
<path fill-rule="evenodd" clip-rule="evenodd" d="M105.56 152.959L45.5681 167.04C42.2325 167.824 38.8941 165.754 38.1102 162.419L5.99987 25.6191C5.21599 22.2835 7.28533 18.9465 10.6209 18.164L70.4878 4.1103C73.781 3.33738 77.0768 5.38068 77.8484 8.67243L110.027 145.752C110.784 148.975 108.784 152.201 105.56 152.959Z" stroke="white" stroke-width="2" stroke-linecap="round" stroke-linejoin="round"/>
<path fill-rule="evenodd" clip-rule="evenodd" d="M106.64 134.506L34.772 151.376L6.0699 25.9207C5.24902 22.4193 7.42114 18.9138 10.9212 18.0929L69.8192 4.26805C73.481 3.40743 77.1469 5.67959 78.0061 9.34273L106.64 134.506Z" fill="#3373CC"/>
<path fill-rule="evenodd" clip-rule="evenodd" d="M106.64 134.506L34.772 151.376L6.0699 25.9207C5.24902 22.4193 7.42114 18.9138 10.9212 18.0929L69.8192 4.26805C73.481 3.40743 77.1468 5.67959 78.0061 9.34273L106.64 134.506Z" stroke="white" stroke-width="2" stroke-linecap="round" stroke-linejoin="round"/>
<path fill-rule="evenodd" clip-rule="evenodd" d="M99.619 125.368L39.1833 139.555L15.042 34.0516C14.3499 31.1093 16.1767 28.1615 19.1204 27.4694L68.6488 15.8441C71.7281 15.1219 74.8116 17.0309 75.5352 20.1116L99.619 125.368Z" fill="#1A3540"/>
<path fill-rule="evenodd" clip-rule="evenodd" d="M99.619 125.368L39.1833 139.555L15.042 34.0516C14.3499 31.1093 16.1767 28.1615 19.1204 27.4694L68.6488 15.8441C71.7281 15.1219 74.8116 17.0309 75.5352 20.1116L99.619 125.368Z" stroke="white" stroke-width="2" stroke-linecap="round" stroke-linejoin="round"/>
<path fill-rule="evenodd" clip-rule="evenodd" d="M80.5269 90.8387L46.3664 98.857L35.2139 51.413L69.373 43.3961L80.5269 90.8387Z" fill="#3373CC"/>
<path fill-rule="evenodd" clip-rule="evenodd" d="M80.5269 90.8387L46.3664 98.857L35.2139 51.413L69.373 43.3961L80.5269 90.8387Z" stroke="white" stroke-width="2" stroke-linecap="round" stroke-linejoin="round"/>
<path fill-rule="evenodd" clip-rule="evenodd" d="M29.4062 60.7858L40.5601 108.228L74.7193 100.213L80.5271 90.8391L47.2026 98.6601L35.5499 51.2627L29.4062 60.7858Z" fill="#3373CC"/>
<path fill-rule="evenodd" clip-rule="evenodd" d="M29.4062 60.7858L40.5601 108.228L74.7193 100.213L80.5271 90.8391L47.2026 98.6601L35.5499 51.2627L29.4062 60.7858Z" stroke="white" stroke-width="2" stroke-linecap="round" stroke-linejoin="round"/>
<path d="M77.624 95.5254L43.4635 103.542L32.311 56.0984" stroke="white" stroke-width="2" stroke-linecap="round" stroke-linejoin="round"/>
<path fill-rule="evenodd" clip-rule="evenodd" d="M41.8433 57.4668L66.515 51.6754L41.8433 57.4668Z" fill="#3373CC"/>
<path d="M41.8433 57.4668L66.515 51.6754" stroke="white" stroke-width="2" stroke-linecap="round" stroke-linejoin="round"/>
<path fill-rule="evenodd" clip-rule="evenodd" d="M43.1816 63.1599L67.8534 57.3685L43.1816 63.1599Z" fill="#3373CC"/>
<path d="M43.1816 63.1599L67.8534 57.3685" stroke="white" stroke-width="2" stroke-linecap="round" stroke-linejoin="round"/>
<path fill-rule="evenodd" clip-rule="evenodd" d="M44.52 68.853L69.1917 63.0616L44.52 68.853Z" fill="#3373CC"/>
<path d="M44.52 68.853L69.1917 63.0616" stroke="white" stroke-width="2" stroke-linecap="round" stroke-linejoin="round"/>
<path fill-rule="evenodd" clip-rule="evenodd" d="M45.8584 74.5462L70.5301 68.7548L45.8584 74.5462Z" fill="#3373CC"/>
<path d="M45.8584 74.5462L70.5301 68.7548" stroke="white" stroke-width="2" stroke-linecap="round" stroke-linejoin="round"/>
<path fill-rule="evenodd" clip-rule="evenodd" d="M47.1963 80.2393L71.868 74.4479L47.1963 80.2393Z" fill="#3373CC"/>
<path d="M47.1963 80.2393L71.868 74.4479" stroke="white" stroke-width="2" stroke-linecap="round" stroke-linejoin="round"/>
<path fill-rule="evenodd" clip-rule="evenodd" d="M41.0737 15.6916C41.0737 14.5268 42.0166 13.5839 43.1814 13.5839C44.3463 13.5839 45.2891 14.5268 45.2891 15.6916C45.2891 16.8551 44.3463 17.798 43.1814 17.798C42.0166 17.798 41.0737 16.8551 41.0737 15.6916Z" fill="white"/>
<path fill-rule="evenodd" clip-rule="evenodd" d="M41.0737 15.6916C41.0737 14.5268 42.0166 13.5839 43.1814 13.5839C44.3463 13.5839 45.2891 14.5268 45.2891 15.6916C45.2891 16.8551 44.3463 17.798 43.1814 17.798C42.0166 17.798 41.0737 16.8551 41.0737 15.6916Z" stroke="white" stroke-width="2" stroke-linecap="round" stroke-linejoin="round"/>
<path fill-rule="evenodd" clip-rule="evenodd" d="M71.3901 149.862C71.3901 147.507 73.2991 145.6 75.6521 145.6C78.0065 145.6 79.9155 147.507 79.9155 149.862C79.9155 152.216 78.0065 154.124 75.6521 154.124C73.2991 154.124 71.3901 152.216 71.3901 149.862Z" fill="white"/>
<path fill-rule="evenodd" clip-rule="evenodd" d="M71.3901 149.862C71.3901 147.507 73.2991 145.6 75.6521 145.6C78.0065 145.6 79.9155 147.507 79.9155 149.862C79.9155 152.216 78.0065 154.124 75.6521 154.124C73.2991 154.124 71.3901 152.216 71.3901 149.862Z" stroke="white" stroke-width="2" stroke-linecap="round" stroke-linejoin="round"/>
<path fill-rule="evenodd" clip-rule="evenodd" d="M80.5267 90.8387L46.3662 98.8571C46.3662 98.8571 39.3551 58.8229 56.8019 50.8375L90.9624 42.8205C67.853 61.4692 80.5267 90.8387 80.5267 90.8387Z" fill="#C4F7BF"/>
<path fill-rule="evenodd" clip-rule="evenodd" d="M80.5267 90.8387L46.3662 98.8571C46.3662 98.8571 39.3551 58.8229 56.8019 50.8375L90.9624 42.8205C67.853 61.4692 80.5267 90.8387 80.5267 90.8387Z" stroke="white" stroke-width="2" stroke-linecap="round" stroke-linejoin="round"/>
<path d="M56.2676 56.0991L80.3349 50.6201" stroke="white" stroke-width="2" stroke-linecap="round" stroke-linejoin="round"/>
<path d="M52.5054 61.4803L76.9098 56.0986" stroke="white" stroke-width="2" stroke-linecap="round" stroke-linejoin="round"/>
<path d="M50.1582 68.4824L74.5613 63.1007" stroke="white" stroke-width="2" stroke-linecap="round" stroke-linejoin="round"/>
<path d="M49.2549 77.2041L73.658 71.8224" stroke="white" stroke-width="2" stroke-linecap="round" stroke-linejoin="round"/>
<path fill-rule="evenodd" clip-rule="evenodd" d="M48.3887 58.2651L43.1811 59.4958C40.1936 63.9579 44.52 84.4799 44.52 84.4799C44.52 84.4799 44.0801 68.8791 48.3887 58.2651Z" fill="#1A3540"/>
<path fill-rule="evenodd" clip-rule="evenodd" d="M133.318 4.01356L141.749 2.60888C140.063 1 136.637 1 136.637 1L91.7953 7.99601C89.5382 8.3482 86.1012 10.1298 84.4443 11.7016" fill="#3373CC"/>
<path d="M133.318 4.01356L141.749 2.60888C140.063 1 136.637 1 136.637 1L91.7953 7.99601C89.5382 8.3482 86.1012 10.1298 84.4443 11.7016" stroke="white" stroke-width="2" stroke-linecap="round" stroke-linejoin="round"/>
<path fill-rule="evenodd" clip-rule="evenodd" d="M133.317 4.01355L93.7465 10.608C78.0744 5.11126 64.3071 40.2407 64.3071 40.2407L103.907 32.4608C103.907 32.4608 119.842 10.2777 133.317 4.01355Z" fill="#3373CC"/>
<path d="M133.317 4.01355L93.7465 10.608C78.0744 5.11126 64.3071 40.2407 64.3071 40.2407L103.907 32.4608C103.907 32.4608 119.842 10.2777 133.317 4.01355" stroke="white" stroke-width="2" stroke-linecap="round" stroke-linejoin="round"/>
<path fill-rule="evenodd" clip-rule="evenodd" d="M118.856 10.8429L92.2559 15.5846L118.856 10.8429Z" fill="#3373CC"/>
<path d="M118.856 10.8429L92.2559 15.5846" stroke="white" stroke-width="2" stroke-linecap="round" stroke-linejoin="round"/>
<path fill-rule="evenodd" clip-rule="evenodd" d="M83.5566 21.6391L113.261 16.3232L83.5566 21.6391Z" fill="#3373CC"/>
<path d="M83.5566 21.6391L113.261 16.3232" stroke="white" stroke-width="2" stroke-linecap="round" stroke-linejoin="round"/>
<path fill-rule="evenodd" clip-rule="evenodd" d="M105.919 22.1141L78.0757 27.1202L105.919 22.1141Z" fill="#3373CC"/>
<path d="M105.919 22.1141L78.0757 27.1202" stroke="white" stroke-width="2" stroke-linecap="round" stroke-linejoin="round"/>
<path fill-rule="evenodd" clip-rule="evenodd" d="M129.197 6.35161L80.5264 14.5467C80.5264 14.5467 87.1729 8.39628 93.7468 10.6081L133.318 4.01367L129.197 6.35161Z" fill="white"/>
</svg>
