<svg width="191" height="191" viewBox="0 0 191 191" fill="none" xmlns="http://www.w3.org/2000/svg">
<path d="M22.4502 64.7528C22.1752 64.7528 21.9536 61.8649 21.9536 58.3009C21.9536 54.7368 22.1752 51.8489 22.4502 51.8489C22.7253 51.8489 22.9506 54.7368 22.9506 58.3009C22.9506 61.8649 22.7253 64.7528 22.4502 64.7528Z" fill="#E0E0E0"/>
<path d="M18.8938 61.1926C18.6188 61.1926 18.3972 59.8174 18.3972 58.1366C18.3972 56.4558 18.6188 55.0806 18.8938 55.0806C19.1689 55.0806 19.3904 56.4558 19.3904 58.1366C19.3904 59.8174 19.1689 61.1926 18.8938 61.1926Z" fill="#E0E0E0"/>
<path d="M15.3221 60.1994C15.0508 60.1994 14.7911 59.5042 14.7491 58.6141C14.707 57.7241 14.8942 56.9982 15.1654 56.983C15.4367 56.9677 15.7002 57.6782 15.7423 58.5683C15.7843 59.4583 15.5971 60.1841 15.3221 60.1994Z" fill="#E0E0E0"/>
<path d="M26.167 61.6243C25.892 61.6243 25.7048 59.974 25.743 57.9456C25.7812 55.9172 26.0371 54.2784 26.3122 54.286C26.5872 54.2937 26.7782 55.9363 26.7362 57.9647C26.6942 59.9931 26.442 61.6319 26.167 61.6243Z" fill="#E0E0E0"/>
<path d="M30.2084 60.2758C29.9334 60.2758 29.708 59.5576 29.708 58.6714C29.708 57.7851 29.9334 57.0632 30.2084 57.0632C30.4835 57.0632 30.705 57.7813 30.705 58.6714C30.705 59.5614 30.4835 60.2758 30.2084 60.2758Z" fill="#E0E0E0"/>
<path d="M35.228 58.6714C35.228 58.6714 35.228 58.5988 35.228 58.4651C35.228 58.3314 35.2051 58.1175 35.186 57.8577C35.186 57.724 35.186 57.5751 35.1593 57.4108C35.1325 57.2465 35.1058 57.0708 35.079 56.876C35.0223 56.432 34.9329 55.9928 34.8116 55.5619C34.5143 54.367 34.0364 53.2244 33.3944 52.1736C32.466 50.6294 31.2217 49.2989 29.7432 48.2693C28.2646 47.2397 26.585 46.5342 24.8147 46.1991C24.2845 46.1028 23.7485 46.0416 23.2103 46.0157C22.9353 46.0157 22.6602 45.9775 22.3814 45.9852L21.541 46.0272C21.3996 46.0272 21.2583 46.0272 21.1169 46.0539L20.6929 46.1189C20.4102 46.1685 20.1237 46.1991 19.8411 46.2602C19.2665 46.3876 18.7011 46.5535 18.1488 46.7568C17.5811 46.9597 17.0284 47.2022 16.4947 47.4826C16.2273 47.6278 15.9714 47.7959 15.704 47.9563C15.4368 48.1131 15.1814 48.2893 14.94 48.4835C14.4333 48.857 13.9534 49.2654 13.5037 49.7059C13.0432 50.1696 12.6156 50.6648 12.224 51.188C11.4367 52.247 10.8253 53.4259 10.4133 54.6795C9.54239 57.276 9.54239 60.0858 10.4133 62.6824C10.8257 63.9334 11.4371 65.1098 12.224 66.1662C12.6047 66.6823 13.0194 67.1724 13.4655 67.6331C13.9183 68.0728 14.3993 68.4824 14.9056 68.8593C15.1489 69.051 15.4041 69.2271 15.6696 69.3865C15.937 69.5431 16.193 69.7112 16.4604 69.8564C16.9947 70.1364 17.5473 70.3801 18.1144 70.586C18.6673 70.7875 19.2326 70.9534 19.8067 71.0826C20.0894 71.1399 20.3797 71.1743 20.6624 71.2201L21.0826 71.285C21.2239 71.285 21.3652 71.285 21.5066 71.3156L22.347 71.3576C22.6258 71.3576 22.9009 71.3347 23.1759 71.3271C23.7144 71.3021 24.2505 71.2395 24.7803 71.1399C26.5513 70.8066 28.2316 70.1019 29.7104 69.0721C31.1893 68.0423 32.4331 66.7108 33.36 65.1654C34.0013 64.1156 34.4791 62.9744 34.7773 61.7809C34.8989 61.3488 34.9883 60.9083 35.0447 60.463C35.0714 60.272 35.1096 60.081 35.1249 59.9282C35.1402 59.7754 35.144 59.6188 35.1516 59.4851C35.1516 59.2215 35.1822 59.0228 35.1936 58.8777C35.2051 58.7325 35.1936 58.6714 35.1936 58.6714C35.1936 58.6714 35.1936 58.7402 35.1936 58.8777C35.1936 59.0152 35.1936 59.2253 35.1936 59.4851C35.1936 59.6188 35.1936 59.7716 35.1936 59.9358C35.1936 60.1001 35.1478 60.2758 35.1211 60.4706C35.072 60.9194 34.989 61.3638 34.8728 61.8C34.5851 63.0107 34.1136 64.1701 33.4746 65.238C32.5461 66.8041 31.2951 68.1549 29.8047 69.2007C28.3143 70.2466 26.6186 70.9636 24.83 71.3041C24.2926 71.4051 23.7488 71.4689 23.2027 71.4951C22.9276 71.4951 22.6488 71.5333 22.3661 71.5295L21.5142 71.4875C21.3729 71.4875 21.2277 71.4875 21.0826 71.4608L20.6547 71.3958C20.3682 71.35 20.0779 71.3156 19.7876 71.2583C19.2054 71.1297 18.6324 70.9625 18.0724 70.7579C17.4965 70.5509 16.935 70.3058 16.3916 70.0244C16.1204 69.8755 15.8568 69.7036 15.5894 69.5469C15.3226 69.3866 15.0673 69.2079 14.8254 69.0121C14.312 68.6311 13.8245 68.2164 13.3662 67.7706C12.9114 67.3033 12.4889 66.8055 12.1017 66.2808C11.3009 65.2042 10.678 64.006 10.2567 62.7321C9.36789 60.0966 9.36789 57.2424 10.2567 54.6069C10.6751 53.3324 11.2968 52.134 12.0979 51.0581C12.4851 50.5334 12.9076 50.0357 13.3623 49.5683C13.8207 49.1238 14.3082 48.7103 14.8216 48.3307C15.0635 48.1349 15.3188 47.9562 15.5856 47.7959C15.8568 47.6354 16.1166 47.4635 16.3878 47.3184C16.931 47.0419 17.4926 46.8032 18.0686 46.604C18.6286 46.3994 19.2016 46.2322 19.7838 46.1036C20.0741 46.0425 20.3644 46.0119 20.6509 45.9623L21.0787 45.8973C21.2239 45.8973 21.3652 45.8973 21.5104 45.8706L22.3623 45.8286C22.6411 45.8286 22.9238 45.8553 23.1988 45.8629C23.745 45.8923 24.2885 45.9574 24.8262 46.0578C26.6157 46.3999 28.3119 47.1187 29.8023 48.1666C31.2928 49.2144 32.5433 50.5673 33.4708 52.1354C34.1096 53.2033 34.5811 54.3627 34.8689 55.5734C34.9848 56.0084 35.0678 56.4515 35.1172 56.8989C35.144 57.0937 35.1745 57.2809 35.1898 57.4375C35.2051 57.5942 35.1898 57.7508 35.1898 57.8845C35.1898 58.1481 35.1898 58.3505 35.1898 58.4957C35.1898 58.6408 35.228 58.6714 35.228 58.6714Z" fill="#E0E0E0"/>
<path d="M113.798 31.4539C113.071 31.4539 112.352 31.3108 111.681 31.0328C111.01 30.7549 110.4 30.3474 109.886 29.8338C109.373 29.3201 108.965 28.7104 108.687 28.0393C108.409 27.3682 108.266 26.6489 108.266 25.9225V19.4285C108.266 18.7018 108.409 17.9821 108.686 17.3106C108.964 16.6391 109.371 16.0288 109.885 15.5148C110.399 15.0008 111.009 14.593 111.68 14.3148C112.351 14.0365 113.071 13.8933 113.798 13.8933C115.265 13.8933 116.672 14.4761 117.709 15.5134C118.746 16.5508 119.329 17.9577 119.329 19.4247V25.9187C119.33 26.6454 119.187 27.3651 118.909 28.0366C118.631 28.7082 118.224 29.3184 117.71 29.8324C117.197 30.3465 116.587 30.7542 115.915 31.0325C115.244 31.3107 114.524 31.4539 113.798 31.4539Z" fill="#F5F5F5"/>
<path d="M113.798 34.8231C111.632 34.8211 109.556 33.96 108.025 32.4288C106.494 30.8976 105.633 28.8214 105.631 26.656H106.421C106.423 28.6117 107.201 30.4867 108.584 31.8697C109.967 33.2526 111.842 34.0304 113.798 34.0324C118.137 34.0324 121.17 30.9764 121.17 26.656H121.965C121.965 31.4615 118.603 34.8193 113.798 34.8231Z" fill="#F5F5F5"/>
<path d="M114.191 34.4258H113.4V38.4254H114.191V34.4258Z" fill="#F5F5F5"/>
<path d="M118.626 37.8524H108.969V38.6432H118.626V37.8524Z" fill="#F5F5F5"/>
<path d="M105.642 17.5109C105.143 17.4418 104.66 17.2881 104.213 17.0563C103.037 16.5559 102.64 16.2923 102.781 15.8798L102.834 15.7155L103.022 15.62C103.434 15.4328 104.481 15.8645 104.683 15.9523C104.886 16.0402 105.925 16.4948 106.078 16.9226L106.135 17.0831L106.055 17.2741C106.018 17.3509 105.959 17.4149 105.886 17.4572C105.812 17.4995 105.727 17.5183 105.642 17.5109Z" fill="#F5F5F5"/>
<path d="M108.801 13.37C108.549 13.37 108.167 13.0873 107.372 12.0101C106.429 10.7266 106.475 10.4171 106.494 10.314L106.517 10.1536L106.796 9.93201L106.983 9.95111C107.086 9.95111 107.399 10.016 108.339 11.2957C109.443 12.7932 109.317 13.0759 109.049 13.2707C108.98 13.3302 108.893 13.3651 108.801 13.37Z" fill="#F5F5F5"/>
<path d="M113.676 11.8726L113.523 11.7427C113.446 11.6701 113.221 11.4562 113.236 9.94729C113.252 8.43839 113.485 8.22829 113.561 8.15571L113.691 8.04111H113.89C114.13 8.06021 114.463 8.08695 114.44 9.95111C114.417 11.8153 114.088 11.842 113.848 11.8611L113.676 11.8726Z" fill="#F5F5F5"/>
<path d="M118.527 12.946L118.363 12.8161C118.015 12.4952 118.328 12.0521 119.008 11.1315C119.688 10.2109 120.04 9.79831 120.448 10.0428L120.601 10.1345L120.655 10.3407C120.75 10.8106 120.051 11.7503 119.971 11.8687C119.891 11.9872 119.18 12.904 118.707 12.946H118.527Z" fill="#F5F5F5"/>
<path d="M122.106 17.4498C122.027 17.4569 121.948 17.4395 121.88 17.3998C121.812 17.3601 121.757 17.3001 121.724 17.2282C121.51 16.8462 121.919 16.5368 122.106 16.384C122.393 16.1689 122.692 15.9724 123.004 15.7957C124.471 14.9629 124.742 15.1501 124.891 15.4137C125.105 15.7957 124.696 16.1051 124.509 16.2579C124.223 16.473 123.924 16.6683 123.611 16.8424C122.813 17.3008 122.37 17.4498 122.106 17.4498Z" fill="#F5F5F5"/>
<path d="M136.756 178.776C129.991 175.72 127.206 168.191 126.129 161.162C125.949 159.989 125.594 158.786 125.957 157.659C126.32 156.532 127.485 155.596 128.631 155.894C129.571 156.139 130.136 157.075 130.774 157.804C131.625 158.796 132.74 159.525 133.99 159.905C134.804 160.154 135.767 160.218 136.424 159.68C137.329 158.939 137.188 157.525 136.966 156.368C136.551 154.211 136.136 152.053 135.721 149.893C135.436 148.747 135.338 147.563 135.431 146.386C135.587 145.221 136.194 144.048 137.241 143.537C138.288 143.025 139.766 143.403 140.209 144.495C140.343 144.967 140.444 145.447 140.511 145.932C140.633 146.409 140.958 146.898 141.439 146.948C141.921 146.997 142.329 146.566 142.612 146.184C143.59 144.789 144.14 143.128 144.602 141.493C145.065 139.858 145.534 138.181 146.382 136.703C147.23 135.224 148.545 133.933 150.202 133.532C151.86 133.131 153.805 133.822 154.527 135.377C155.249 136.932 154.607 138.765 153.816 140.282C152.636 142.538 151.136 144.61 149.362 146.436C149.005 146.731 148.752 147.132 148.64 147.582C148.533 148.403 149.404 149.034 150.218 149.144C151.135 149.274 152.055 149.011 152.98 148.946C153.904 148.881 154.958 149.102 155.459 149.893C156.154 150.989 155.394 152.414 154.569 153.411C152.917 155.402 150.937 157.095 148.713 158.415C147.918 158.885 147.07 159.328 146.493 160.054C145.916 160.78 145.695 161.899 146.264 162.64C146.833 163.381 147.945 163.443 148.808 163.11C149.671 162.778 150.378 162.144 151.173 161.666C152.651 160.769 154.729 160.497 156.005 161.685C156.405 162.101 156.703 162.603 156.876 163.153C157.048 163.704 157.09 164.287 156.998 164.856C156.808 165.99 156.392 167.075 155.776 168.046C153.813 171.54 150.96 174.452 147.506 176.484C144.048 178.451 140.691 179.433 136.768 178.776" fill="#EBEBEB"/>
<path d="M137.352 180.048C137.092 177.233 137.375 177.783 137.757 174.07C138.212 170.051 138.898 166.061 139.812 162.121C140.045 161.074 140.278 160.035 140.507 159.015C140.736 157.995 140.969 156.987 141.252 156.013C141.804 154.145 142.458 152.308 143.212 150.512C143.922 148.789 144.656 147.185 145.351 145.687C146.046 144.19 146.734 142.807 147.406 141.573C148.46 139.621 149.667 137.756 151.016 135.996C151.49 135.373 151.876 134.903 152.139 134.586L152.445 134.227C152.477 134.185 152.514 134.147 152.556 134.113C152.526 134.158 152.494 134.201 152.46 134.242C152.391 134.334 152.296 134.46 152.174 134.624C151.921 134.949 151.547 135.43 151.081 136.061C149.764 137.836 148.581 139.708 147.544 141.661C146.879 142.895 146.207 144.278 145.515 145.775C144.824 147.272 144.098 148.881 143.395 150.6C142.651 152.392 142.004 154.223 141.458 156.085C141.176 157.055 140.95 158.056 140.717 159.076C140.484 160.096 140.259 161.131 140.022 162.182C139.113 166.114 138.426 170.095 137.963 174.104C137.581 177.802 137.272 177.24 137.512 180.044" fill="#E0E0E0"/>
<path d="M141.306 155.994C141.219 155.844 141.15 155.685 141.099 155.52C140.981 155.21 140.82 154.756 140.633 154.198C140.251 153.052 139.785 151.501 139.273 149.771C138.761 148.04 138.272 146.478 137.875 145.362C137.68 144.805 137.52 144.354 137.401 144.045C137.331 143.888 137.278 143.724 137.245 143.556C137.339 143.7 137.417 143.853 137.478 144.014C137.619 144.316 137.806 144.759 138.02 145.309C138.452 146.417 138.968 147.983 139.48 149.71C139.991 151.436 140.431 152.968 140.778 154.148C140.935 154.683 141.073 155.134 141.179 155.493C141.241 155.654 141.283 155.822 141.306 155.994Z" fill="#E0E0E0"/>
<path d="M155.692 150.439C155.505 150.519 155.31 150.58 155.111 150.623C154.729 150.726 154.191 150.875 153.522 151.081C152.185 151.482 150.355 152.101 148.369 152.873C146.382 153.644 144.614 154.424 143.349 155.023C142.719 155.317 142.203 155.57 141.86 155.741C141.684 155.844 141.498 155.928 141.306 155.994C141.467 155.869 141.639 155.76 141.821 155.669C142.161 155.47 142.658 155.195 143.284 154.882C144.534 154.248 146.298 153.442 148.289 152.666C149.988 152 151.721 151.421 153.48 150.932C154.152 150.745 154.706 150.619 155.092 150.55C155.288 150.495 155.489 150.458 155.692 150.439Z" fill="#E0E0E0"/>
<path d="M137.902 173.76C137.902 173.76 137.849 173.711 137.765 173.6L137.409 173.107C137.104 172.679 136.676 172.045 136.16 171.258C135.121 169.684 133.761 167.465 132.29 164.997C130.82 162.53 129.475 160.299 128.47 158.706L127.279 156.823L126.958 156.307C126.915 156.25 126.881 156.187 126.858 156.12C126.909 156.169 126.954 156.224 126.992 156.284C127.091 156.418 127.206 156.578 127.347 156.777C127.657 157.205 128.081 157.835 128.6 158.622C129.636 160.196 130.999 162.415 132.47 164.887C133.941 167.358 135.281 169.581 136.29 171.174L137.482 173.058L137.807 173.573C137.844 173.632 137.876 173.695 137.902 173.76Z" fill="#E0E0E0"/>
<path d="M156.509 163.698C156.454 163.747 156.393 163.787 156.326 163.817L155.787 164.115L153.793 165.196C152.112 166.113 149.801 167.4 147.253 168.825C144.706 170.25 142.375 171.522 140.675 172.4C139.824 172.84 139.147 173.187 138.647 173.42L138.089 173.684C138.027 173.719 137.96 173.745 137.891 173.76C137.945 173.713 138.005 173.673 138.07 173.642L138.609 173.344L140.603 172.263C142.287 171.35 144.595 170.063 147.146 168.634C149.698 167.205 152.021 165.937 153.721 165.058C154.573 164.619 155.249 164.271 155.749 164.042L156.307 163.779C156.371 163.744 156.439 163.717 156.509 163.698Z" fill="#E0E0E0"/>
<path d="M183.903 180.029C183.903 180.086 144.32 180.128 95.5039 180.128C46.6881 180.128 7.09766 180.086 7.09766 180.029C7.09766 179.972 46.6729 179.922 95.5001 179.922C144.327 179.922 183.903 179.975 183.903 180.029Z" fill="#263238"/>
<path d="M29.1198 168.844C29.5018 167.263 28.4742 165.685 27.3091 164.546C26.144 163.408 24.7497 162.388 24.1347 160.875C23.1453 158.431 24.4403 155.245 22.7595 153.205C21.774 152.009 20.0091 151.616 19.1305 150.332C18.724 149.625 18.4532 148.847 18.3321 148.04C17.3811 143.968 15.3548 140.225 12.4646 137.203C12.2895 140.837 13.0971 144.452 14.8025 147.666C15.4862 148.949 16.3305 150.199 16.5558 151.635C16.9378 153.965 15.6429 156.376 16.2273 158.66C16.8996 161.277 19.8525 163.015 20.0053 165.708C20.1352 168 18.1602 170.001 18.3207 172.278C18.446 173.246 18.7995 174.17 19.3521 174.975C21.1322 177.894 23.7336 179.899 27.6568 179.811L32.47 179.922L29.1198 168.844Z" fill="#3373CC"/>
<g opacity="0.3">
<path d="M29.1198 168.844C29.5018 167.263 28.4742 165.685 27.3091 164.546C26.144 163.408 24.7497 162.388 24.1347 160.875C23.1453 158.431 24.4403 155.245 22.7595 153.205C21.774 152.009 20.0091 151.616 19.1305 150.332C18.724 149.625 18.4532 148.847 18.3321 148.04C17.3811 143.968 15.3548 140.225 12.4646 137.203C12.2895 140.837 13.0971 144.452 14.8025 147.666C15.4862 148.949 16.3305 150.199 16.5558 151.635C16.9378 153.965 15.6429 156.376 16.2273 158.66C16.8996 161.277 19.8525 163.015 20.0053 165.708C20.1352 168 18.1602 170.001 18.3207 172.278C18.446 173.246 18.7995 174.17 19.3521 174.975C21.1322 177.894 23.7336 179.899 27.6568 179.811L32.47 179.922L29.1198 168.844Z" fill="black"/>
</g>
<path d="M33.4364 180.056C33.4364 180.056 33.5549 180.056 33.7726 180.056C34.1045 180.051 34.4354 180.019 34.762 179.96C35.2833 179.868 35.7949 179.727 36.29 179.54C36.9706 179.289 37.6045 178.926 38.1656 178.467C38.494 178.195 38.7489 177.846 38.9067 177.45C39.04 176.996 39.1069 176.526 39.1053 176.052C39.105 175.526 39.1356 175.001 39.197 174.479C39.2853 173.91 39.4838 173.363 39.7815 172.87C40.3545 171.843 41.2636 170.903 41.5348 169.608C41.8061 168.313 41.596 166.934 41.3553 165.475C41.1146 164.016 40.874 162.419 41.4317 160.849C41.9894 159.279 42.9941 157.923 43.483 156.284C43.972 154.645 43.7237 152.827 43.8192 150.97C43.8481 150.015 44.0608 149.075 44.4457 148.201C44.8277 147.318 45.3778 146.512 45.7789 145.638C46.5887 143.884 46.73 141.863 46.9478 139.843C47.0547 138.83 47.1617 137.803 47.2725 136.767C47.3368 135.709 47.5122 134.661 47.7958 133.639C48.1176 132.612 48.5003 131.606 48.9418 130.625C49.161 130.14 49.3387 129.638 49.4728 129.124C49.5478 128.592 49.5949 128.056 49.6141 127.519C49.659 126.425 49.6104 125.328 49.469 124.242C49.3315 123.145 49.1252 122.045 48.9991 120.922C48.9991 120.857 48.9991 120.788 48.9762 120.727L49.1939 120.85C48.2204 121.354 47.376 122.075 46.7262 122.958C46.0861 123.836 45.5718 124.799 45.1982 125.819C44.4342 127.848 44.1439 129.991 43.7466 132.069C43.3493 134.147 42.8413 136.221 41.7602 137.994C41.2216 138.872 40.5875 139.659 40.0412 140.481C39.4697 141.261 39.0784 142.159 38.8952 143.109C38.6164 145.019 39.7394 146.791 39.5179 148.713C39.4048 149.634 39.0975 150.52 38.6164 151.314C38.1694 152.101 37.6537 152.819 37.1724 153.533C36.6859 154.217 36.2627 154.943 35.908 155.703C35.5831 156.442 35.3917 157.232 35.3426 158.037C35.228 159.623 35.461 161.162 35.3426 162.648C35.2079 164.056 34.7991 165.423 34.1393 166.674C33.551 167.866 32.9055 168.936 32.363 169.967C32.0963 170.464 31.8553 170.974 31.641 171.495C31.4487 171.974 31.3091 172.472 31.2247 172.981C31.0788 173.876 31.0634 174.787 31.1788 175.686C31.2968 176.941 31.7536 178.142 32.5005 179.158C32.7782 179.496 33.092 179.802 33.4364 180.071C33.4364 180.071 33.3409 180.014 33.1614 179.88C33.0465 179.804 32.9402 179.715 32.8443 179.616C32.7061 179.487 32.5783 179.346 32.4623 179.196C31.6823 178.185 31.1994 176.975 31.068 175.705C30.9347 174.795 30.9347 173.871 31.068 172.962C31.1512 172.439 31.2895 171.927 31.4806 171.434C31.6954 170.913 31.9364 170.403 32.2026 169.906C32.7374 168.867 33.3791 167.794 33.9521 166.609C34.588 165.377 34.9773 164.033 35.0981 162.652C35.2089 161.196 34.9683 159.661 35.0981 158.041C35.144 157.208 35.3394 156.39 35.675 155.627C36.0324 154.848 36.4594 154.102 36.9508 153.4C37.4322 152.682 37.944 151.967 38.3757 151.196C38.8372 150.433 39.1315 149.582 39.239 148.697C39.4606 146.894 38.3299 145.114 38.6049 143.082C38.7875 142.09 39.1895 141.152 39.7815 140.335C40.3315 139.495 40.9657 138.712 41.489 137.852C42.5357 136.13 43.0476 134.093 43.4296 132.027C43.8116 129.96 44.1019 127.794 44.8926 125.724C45.2755 124.674 45.8054 123.684 46.4665 122.782C47.1432 121.861 48.0245 121.109 49.0411 120.586L49.236 120.487L49.2589 120.708C49.2589 120.765 49.2589 120.834 49.2818 120.899C49.4079 122.011 49.6141 123.107 49.7517 124.215C49.8951 125.318 49.9437 126.431 49.8968 127.542C49.8785 128.096 49.83 128.648 49.7517 129.196C49.6129 129.73 49.4302 130.251 49.2054 130.755C48.7644 131.724 48.3817 132.719 48.0594 133.734C47.7811 134.74 47.6083 135.772 47.5437 136.813C47.4342 137.847 47.3247 138.866 47.2152 139.869C46.9936 141.879 46.8561 143.934 46.0119 145.748C45.5955 146.646 45.0607 147.452 44.6749 148.308C44.3 149.151 44.0924 150.059 44.0637 150.982C43.9644 152.8 44.2203 154.637 43.7046 156.353C43.1889 158.068 42.1422 159.409 41.6342 160.937C41.1261 162.465 41.3171 164.012 41.5463 165.452C41.7755 166.892 42.0238 168.336 41.7029 169.654C41.382 170.972 40.4691 171.946 39.9075 172.954C39.6221 173.428 39.4314 173.952 39.346 174.498C39.282 175.013 39.2475 175.533 39.2428 176.052C39.24 176.539 39.1666 177.023 39.0251 177.489C38.8536 177.902 38.5834 178.266 38.2382 178.551C37.6643 179.009 37.019 179.37 36.3282 179.62C35.8208 179.806 35.2961 179.94 34.762 180.021C34.3256 180.111 33.8769 180.122 33.4364 180.056Z" fill="#263238"/>
<path d="M48.3038 123.34C48.3114 123.391 48.3114 123.442 48.3038 123.493C48.2809 123.608 48.258 123.753 48.2274 123.932C48.1548 124.314 48.067 124.883 47.9027 125.617C47.7384 126.35 47.3144 127.172 46.9668 128.161C46.6192 129.15 46.2295 130.293 45.8896 131.576C45.5496 132.86 45.244 134.277 44.9231 135.809C44.6022 137.34 44.2546 139.01 43.4142 140.584C43.0322 141.374 42.5929 142.165 42.2682 143.009C41.9383 143.877 41.7188 144.783 41.615 145.706C41.386 147.671 41.0519 149.622 40.6141 151.551L37.9401 162.675L35.6481 171.732C34.9873 174.287 34.4525 176.366 34.0781 177.844L33.6159 179.486C33.5662 179.658 33.528 179.8 33.4937 179.914C33.4593 180.029 33.4478 180.06 33.4402 180.056C33.4429 180.005 33.4506 179.955 33.4631 179.907C33.4886 179.792 33.5191 179.647 33.5548 179.471C33.6503 179.066 33.7802 178.509 33.9368 177.802L35.4151 171.69C36.0492 169.1 36.8056 166.029 37.6422 162.617C38.4788 159.206 39.3535 155.44 40.2971 151.497C40.7332 149.576 41.0673 147.633 41.2979 145.676C41.4078 144.731 41.6349 143.803 41.9741 142.914C42.3217 142.047 42.761 141.252 43.1506 140.469C43.9834 138.941 44.3234 137.291 44.6786 135.767C45.0339 134.242 45.328 132.814 45.6871 131.53C46.0462 130.247 46.4282 129.101 46.8102 128.115C47.1922 127.13 47.6086 126.308 47.7919 125.598C47.9753 124.887 48.0784 124.31 48.1739 123.932L48.2771 123.497C48.2811 123.444 48.2901 123.391 48.3038 123.34Z" fill="#263238"/>
<path d="M34.2883 180.067C37.4168 178.184 38.284 172.511 36.9623 169.111C35.6405 165.712 33.3256 162.617 32.9513 158.973C32.6609 156.181 33.5625 153.304 32.894 150.569C31.9963 146.89 28.3787 144.056 28.4016 140.255C28.4016 138.127 29.6088 136.118 29.5018 133.998C29.3681 131.393 27.3588 129.338 26.1058 127.049C24.1958 123.546 24.043 119.409 23.3707 115.46C22.6984 111.51 21.1665 107.342 17.6674 105.432C17.1708 108.778 16.3037 111.074 16.6055 115.605C16.7124 117.228 18.6224 120.334 18.8975 123.898C19.0655 126.026 19.184 128.161 19.3253 130.293C19.4628 132.367 19.608 134.495 20.3643 136.405C20.945 137.891 21.8656 139.239 22.2973 140.771C23.1109 143.655 22.0833 146.791 22.7442 149.717C23.3019 152.196 25.0362 154.32 25.3953 156.834C25.9072 160.364 23.6419 164.05 24.8338 167.415C25.422 169.085 26.8049 170.418 27.206 172.144C27.5154 173.481 27.206 174.903 27.4772 176.247C27.9318 178.417 32.0612 180.067 34.2883 179.93" fill="#3373CC"/>
<path d="M18.5498 108.732C18.5705 108.792 18.5858 108.853 18.5956 108.916C18.6224 109.053 18.6568 109.233 18.6988 109.458C18.7943 109.936 18.9012 110.65 19.0808 111.552C19.2603 112.453 19.7684 113.462 20.1733 114.73C20.6513 116.141 21.058 117.575 21.3919 119.027C21.7739 120.639 22.0986 122.423 22.4347 124.337C22.7709 126.251 23.1262 128.302 24.085 130.266C24.5319 131.259 25.04 132.264 25.4258 133.356C25.8043 134.468 26.0417 135.623 26.1325 136.794C26.3331 139.245 26.6634 141.683 27.1219 144.098C28.1036 149.045 29.0319 153.759 29.8876 158.049C30.7432 162.339 31.5569 166.181 32.2254 169.425C32.8939 172.668 33.4058 175.269 33.7763 177.103C33.9482 177.997 34.0857 178.696 34.1812 179.192C34.2233 179.418 34.2538 179.597 34.2806 179.739C34.2933 179.8 34.301 179.863 34.3035 179.926C34.2784 179.868 34.2604 179.808 34.25 179.746C34.2156 179.609 34.1736 179.429 34.1201 179.204C34.0093 178.711 33.8565 178.016 33.6579 177.126L32.0115 169.486C31.3277 166.243 30.514 162.396 29.6125 158.121L26.8201 144.167C26.3695 141.748 26.0482 139.308 25.8575 136.855C25.7746 135.702 25.5462 134.563 25.1775 133.467C24.7955 132.397 24.2989 131.397 23.8558 130.411C22.8893 128.421 22.5455 126.316 22.2094 124.414C21.8732 122.511 21.5752 120.716 21.2085 119.108C20.8418 117.499 20.4445 116.052 20.032 114.814C19.6194 113.576 19.1648 112.522 18.9815 111.605C18.7981 110.688 18.7293 109.982 18.6529 109.5L18.5804 108.95C18.5621 108.879 18.5518 108.806 18.5498 108.732Z" fill="#263238"/>
<path d="M136.435 159.042C136.91 159.268 137.336 159.588 137.685 159.982C138.035 160.375 138.302 160.835 138.471 161.334C138.798 162.34 138.891 163.407 138.742 164.455C138.509 166.479 137.36 168.523 136.122 170.143C134.414 168.657 134.021 166.059 133.906 164.726C133.723 162.625 134.67 158.713 136.435 159.027" fill="#3373CC"/>
<path d="M138.105 173.504C137.987 172.925 138.026 172.325 138.216 171.766C138.405 171.206 138.74 170.707 139.186 170.319C139.637 169.939 140.16 169.652 140.723 169.476C141.287 169.301 141.879 169.239 142.467 169.295C142.739 169.292 143.009 169.348 143.258 169.459C143.507 169.571 143.728 169.735 143.907 169.94C144.039 170.159 144.111 170.408 144.115 170.663C144.119 170.918 144.055 171.17 143.93 171.392C143.67 171.833 143.298 172.198 142.853 172.45C141.374 173.378 139.774 174.005 138.105 173.504Z" fill="#3373CC"/>
<path d="M135.916 179.716C135.921 179.575 135.942 179.436 135.977 179.299C136.03 179.005 136.099 178.627 136.183 178.172C136.369 176.92 136.756 175.707 137.329 174.578C137.932 173.453 138.821 172.508 139.907 171.839C140.238 171.643 140.591 171.487 140.958 171.373C141.058 171.342 141.16 171.316 141.264 171.296C141.299 171.291 141.335 171.291 141.37 171.296C140.88 171.464 140.408 171.68 139.961 171.942C138.911 172.625 138.05 173.561 137.459 174.666C136.888 175.782 136.488 176.976 136.271 178.211C136.168 178.68 136.084 179.062 136.019 179.326C135.997 179.459 135.963 179.59 135.916 179.716Z" fill="#263238"/>
<path d="M135.992 162.086C135.998 162.146 135.998 162.206 135.992 162.266C135.992 162.4 136.011 162.575 136.023 162.789C136.049 163.244 136.076 163.901 136.103 164.699C136.152 166.323 136.194 168.565 136.183 171.044C136.171 173.524 136.114 175.766 136.045 177.389C136.015 178.199 135.98 178.856 135.954 179.299C135.954 179.513 135.927 179.681 135.916 179.823C135.915 179.883 135.909 179.943 135.896 180.002C135.888 179.941 135.888 179.88 135.896 179.819C135.896 179.685 135.896 179.509 135.896 179.296C135.896 178.826 135.923 178.172 135.942 177.386C135.98 175.762 136.026 173.52 136.038 171.044C136.049 168.569 136.038 166.327 135.996 164.703C135.996 163.905 135.973 163.252 135.965 162.793V162.27C135.968 162.208 135.977 162.146 135.992 162.086Z" fill="#263238"/>
<path d="M135.151 174.734C134.944 173.509 134.447 172.35 133.703 171.353C132.959 170.357 131.989 169.552 130.873 169.004C130.304 168.729 129.559 168.554 129.089 168.978C128.619 169.402 128.726 170.162 128.955 170.754C129.457 171.977 130.308 173.024 131.404 173.763C132.499 174.503 133.788 174.902 135.109 174.91" fill="#3373CC"/>
<path d="M131.148 170.918C131.274 170.958 131.396 171.01 131.511 171.075C131.651 171.14 131.787 171.213 131.92 171.293C132.073 171.388 132.26 171.484 132.443 171.621C132.649 171.76 132.848 171.909 133.039 172.068C133.26 172.25 133.472 172.442 133.673 172.645C134.131 173.114 134.534 173.633 134.876 174.192C135.209 174.758 135.476 175.361 135.671 175.987C135.752 176.261 135.819 176.539 135.87 176.82C135.919 177.065 135.953 177.312 135.973 177.561C135.992 177.764 136.001 177.968 136 178.172C136.012 178.328 136.012 178.483 136 178.639C135.998 178.767 135.983 178.895 135.954 179.021C135.923 179.021 135.98 178.459 135.881 177.561C135.851 177.34 135.824 177.095 135.763 176.835C135.702 176.576 135.633 176.304 135.553 176.022C135.352 175.409 135.087 174.818 134.762 174.261C134.426 173.711 134.031 173.199 133.585 172.733C133.391 172.529 133.186 172.337 132.97 172.156C132.775 171.976 132.588 171.835 132.393 171.698C131.649 171.182 131.137 170.945 131.148 170.918Z" fill="#263238"/>
<path d="M98.2084 180.029L43.4373 179.777C40.2736 179.762 37.2454 178.491 35.0183 176.244C32.7913 173.997 31.5477 170.957 31.5609 167.794L32.1415 30.4836C32.148 28.9163 32.4633 27.3656 33.0693 25.9202C33.6754 24.4748 34.5603 23.163 35.6735 22.0597C36.7867 20.9564 38.1064 20.0833 39.5572 19.4903C41.008 18.8972 42.5614 18.5959 44.1287 18.6034L98.8998 18.8555C100.467 18.862 102.017 19.1772 103.462 19.783C104.907 20.3888 106.219 21.2733 107.322 22.3861C108.426 23.4989 109.299 24.8182 109.892 26.2685C110.485 27.7189 110.787 29.2719 110.78 30.8389L110.199 168.149C110.193 169.716 109.878 171.267 109.271 172.713C108.665 174.159 107.78 175.471 106.666 176.574C105.552 177.677 104.232 178.55 102.781 179.143C101.33 179.736 99.776 180.037 98.2084 180.029Z" fill="#455A64"/>
<path d="M98.8197 23.5962L88.2001 23.5465C87.5027 23.5596 86.8388 23.8481 86.3535 24.3492C85.8682 24.8502 85.601 25.523 85.6102 26.2205V28.1305C85.6204 28.8283 85.3535 29.5016 84.868 30.0029C84.3824 30.5042 83.718 30.7924 83.0202 30.8045L62.3235 30.709C61.9769 30.7001 61.6356 30.6229 61.319 30.4819C61.0023 30.3409 60.7166 30.1388 60.4782 29.8873C60.2397 29.6357 60.0532 29.3396 59.9294 29.0158C59.8055 28.6921 59.7468 28.3471 59.7564 28.0006V26.0906C59.7729 25.3917 59.5122 24.7146 59.0312 24.2072C58.5503 23.6998 57.8882 23.4032 57.1894 23.3822H53.4534L44.1594 23.3402C43.0611 23.3342 41.9724 23.5447 40.9556 23.9596C39.9387 24.3745 39.0136 24.9858 38.2331 25.7585C37.4526 26.5312 36.8321 27.4501 36.4069 28.4628C35.9818 29.4754 35.7604 30.5619 35.7554 31.6602L35.1976 165.689C35.1916 166.787 35.4019 167.875 35.8167 168.892C36.2314 169.908 36.8423 170.833 37.6146 171.614C38.3869 172.394 39.3053 173.015 40.3175 173.44C41.3297 173.865 42.4158 174.087 43.5138 174.093L98.178 174.345C99.2762 174.351 100.365 174.14 101.382 173.725C102.399 173.31 103.324 172.699 104.104 171.927C104.885 171.154 105.505 170.235 105.93 169.222C106.356 168.21 106.577 167.123 106.582 166.025L107.147 31.9963C107.153 30.8976 106.943 29.8085 106.527 28.7914C106.112 27.7742 105.5 26.849 104.726 26.0687C103.953 25.2884 103.033 24.6684 102.019 24.2441C101.006 23.8199 99.9185 23.5997 98.8197 23.5962Z" fill="#FAFAFA"/>
<path d="M71.6633 125.338C71.7168 125.338 71.7626 128.707 71.7626 132.86C71.7626 137.012 71.7168 140.385 71.6633 140.385C71.6098 140.385 71.564 137.016 71.564 132.86C71.564 128.703 71.6098 125.338 71.6633 125.338Z" fill="#3373CC"/>
<path d="M69.7036 126.992C69.757 126.992 69.8029 129.563 69.8029 132.722C69.8029 135.881 69.757 138.452 69.7036 138.452C69.6501 138.452 69.6042 135.881 69.6042 132.722C69.6042 129.563 69.6463 126.992 69.7036 126.992Z" fill="#3373CC"/>
<path d="M67.4956 128.635C67.549 128.635 67.5949 130.495 67.5949 132.791C67.5949 135.087 67.549 136.951 67.4956 136.951C67.4421 136.951 67.3962 135.091 67.3962 132.791C67.3962 130.491 67.4421 128.635 67.4956 128.635Z" fill="#3373CC"/>
<path d="M65.5702 130.048C65.7078 131.591 65.7078 133.143 65.5702 134.686C65.4378 133.143 65.4378 131.591 65.5702 130.048Z" fill="#3373CC"/>
<path d="M63.8742 131.179C64.0066 132.023 64.0066 132.883 63.8742 133.727C63.7418 132.883 63.7418 132.023 63.8742 131.179Z" fill="#3373CC"/>
<path d="M61.9527 129.823C62.0851 131.366 62.0851 132.917 61.9527 134.46C61.8152 132.917 61.8152 131.365 61.9527 129.823Z" fill="#3373CC"/>
<path d="M60.1422 127.97C60.1957 127.97 60.2415 129.918 60.2415 132.325C60.2415 134.731 60.1957 136.683 60.1422 136.683C60.0887 136.683 60.0391 134.731 60.0391 132.325C60.0391 129.918 60.0849 127.97 60.1422 127.97Z" fill="#3373CC"/>
<path d="M83.1003 128.635C83.1538 128.635 83.1996 130.495 83.1996 132.791C83.1996 135.087 83.1538 136.951 83.1003 136.951C83.0468 136.951 83.001 135.091 83.001 132.791C83.001 130.491 83.0468 128.635 83.1003 128.635Z" fill="#3373CC"/>
<path d="M81.175 130.048C81.3074 131.591 81.3074 133.143 81.175 134.686C81.0426 133.143 81.0426 131.591 81.175 130.048Z" fill="#3373CC"/>
<path d="M79.479 131.179C79.6114 132.023 79.6114 132.883 79.479 133.727C79.3465 132.883 79.3465 132.023 79.479 131.179Z" fill="#3373CC"/>
<path d="M77.5461 129.143C77.6493 130.139 77.6837 131.141 77.6492 132.141C77.6837 133.142 77.6493 134.144 77.5461 135.14C77.4477 134.144 77.4145 133.142 77.4467 132.141C77.4145 131.141 77.4477 130.139 77.5461 129.143Z" fill="#3373CC"/>
<path d="M75.7431 127.97C75.8004 127.97 75.8463 129.918 75.8463 132.325C75.8463 134.731 75.8004 136.683 75.7431 136.683C75.6858 136.683 75.6438 134.731 75.6438 132.325C75.6438 129.918 75.6896 127.97 75.7431 127.97Z" fill="#3373CC"/>
<path d="M73.5388 127.049C73.5923 127.049 73.6381 129.532 73.6381 132.592C73.6381 135.652 73.5923 138.139 73.5388 138.139C73.4853 138.139 73.4395 135.656 73.4395 132.592C73.4395 129.529 73.4815 127.049 73.5388 127.049Z" fill="#3373CC"/>
<path d="M85.1555 134.464C85.0231 132.921 85.0231 131.37 85.1555 129.827C85.2879 131.37 85.2879 132.921 85.1555 134.464Z" fill="#3373CC"/>
<path d="M86.8554 133.318C86.723 132.474 86.723 131.614 86.8554 130.77C86.9878 131.614 86.9878 132.474 86.8554 133.318Z" fill="#3373CC"/>
<path d="M58.3696 129.823C58.502 131.366 58.502 132.917 58.3696 134.46C58.2372 132.917 58.2372 131.366 58.3696 129.823Z" fill="#3373CC"/>
<path d="M56.6697 130.953C56.8021 131.796 56.8021 132.655 56.6697 133.498C56.5372 132.655 56.5372 131.796 56.6697 130.953Z" fill="#3373CC"/>
<path d="M54.9775 129.823C55.1099 131.366 55.1099 132.917 54.9775 134.46C54.8451 132.917 54.8451 131.366 54.9775 129.823Z" fill="#3373CC"/>
<path d="M53.1667 127.97C53.2202 127.97 53.266 129.918 53.266 132.325C53.266 134.731 53.2202 136.683 53.1667 136.683C53.1132 136.683 53.0674 134.731 53.0674 132.325C53.0674 129.918 53.0979 127.97 53.1667 127.97Z" fill="#3373CC"/>
<path d="M51.3942 129.823C51.5266 131.366 51.5266 132.917 51.3942 134.46C51.2618 132.917 51.2618 131.366 51.3942 129.823Z" fill="#3373CC"/>
<path d="M49.6982 130.953C49.8307 131.796 49.8307 132.655 49.6982 133.498C49.5658 132.655 49.5658 131.796 49.6982 130.953Z" fill="#3373CC"/>
<path d="M92.2341 129.823C92.3665 131.366 92.3665 132.917 92.2341 134.46C92.1017 132.917 92.1017 131.366 92.2341 129.823Z" fill="#3373CC"/>
<path d="M90.4233 127.97C90.4806 127.97 90.5226 129.918 90.5226 132.325C90.5226 134.731 90.4806 136.683 90.4233 136.683C90.366 136.683 90.324 134.731 90.324 132.325C90.324 129.918 90.3698 127.97 90.4233 127.97Z" fill="#3373CC"/>
<path d="M88.6546 129.823C88.787 131.366 88.787 132.917 88.6546 134.46C88.5171 132.917 88.5171 131.365 88.6546 129.823Z" fill="#3373CC"/>
<path d="M86.9548 130.953C87.0873 131.796 87.0873 132.655 86.9548 133.498C86.8224 132.655 86.8224 131.796 86.9548 130.953Z" fill="#3373CC"/>
<path d="M94.4458 130.953C94.5782 131.796 94.5782 132.655 94.4458 133.498C94.3133 132.655 94.3133 131.796 94.4458 130.953Z" fill="#3373CC"/>
<g opacity="0.3">
<path d="M101.165 77.6377C101.165 77.6377 101.165 77.4773 101.142 77.164C101.119 76.8508 101.142 76.4 101.081 75.7774C100.961 74.0036 100.681 72.2444 100.245 70.5211C99.9284 69.2758 99.5289 68.0532 99.0489 66.8615C98.4864 65.4432 97.8107 64.0725 97.0282 62.7626C95.1084 59.565 92.5988 56.7611 89.6326 54.5C86.0289 51.7606 81.8352 49.9005 77.3857 49.0679C74.9158 48.607 72.3963 48.4696 69.8909 48.6592C68.5827 48.7525 67.2822 48.9337 65.9983 49.2016C64.6791 49.4868 63.3801 49.8581 62.1095 50.3133C56.7058 52.2829 52.0059 55.8078 48.602 60.4439C47.7135 61.6531 46.9216 62.9304 46.2336 64.2639C45.8745 64.9286 45.5689 65.6238 45.2557 66.3191C44.9425 67.0143 44.6865 67.7325 44.4573 68.4659C43.4759 71.4231 42.973 74.5181 42.9675 77.6339C42.9772 79.2011 43.1049 80.7654 43.3495 82.3134C43.5923 83.8401 43.9615 85.344 44.4535 86.8095C44.6865 87.543 44.973 88.2497 45.2557 88.9564C45.5384 89.6631 45.8707 90.3469 46.2298 91.0115C49.5865 97.4884 55.2543 102.468 62.1095 104.962C63.3801 105.417 64.6791 105.789 65.9983 106.074C69.7513 106.852 73.6194 106.898 77.3895 106.207C81.8382 105.376 86.0308 103.516 89.6326 100.775C92.6001 98.5128 95.1099 95.7061 97.0282 92.5052C97.8148 91.1964 98.4932 89.8255 99.0566 88.4063C99.5382 87.2161 99.9389 85.9947 100.256 84.7506C100.69 83.0268 100.969 81.2677 101.089 79.4942C101.142 78.8869 101.131 78.4208 101.15 78.1076C101.169 77.7943 101.173 77.6377 101.173 77.6377C101.173 77.6377 101.173 77.7943 101.173 78.1076C101.173 78.4208 101.173 78.8716 101.131 79.4981C101.029 81.2762 100.762 83.0411 100.332 84.7697C99.6456 87.5083 98.5661 90.1331 97.1275 92.5625C95.2108 95.781 92.6983 98.6047 89.7243 100.882C87.9968 102.207 86.1245 103.331 84.1433 104.233C82.0006 105.219 79.7435 105.935 77.4239 106.364C74.9394 106.832 72.4046 106.975 69.8832 106.788C68.5662 106.695 67.2569 106.513 65.9639 106.246C64.6372 105.961 63.3306 105.589 62.0522 105.134C56.6092 103.154 51.8745 99.6063 48.4454 94.9385C47.552 93.7229 46.755 92.4393 46.0617 91.0994C45.6797 90.4271 45.3932 89.728 45.0762 89.029C44.7591 88.3299 44.5032 87.6041 44.2701 86.8668C43.7757 85.3908 43.4027 83.8769 43.1547 82.3401C42.9101 80.7818 42.7824 79.2074 42.7727 77.6301C42.7788 74.4925 43.2843 71.3758 44.2701 68.3971C44.5032 67.6599 44.7973 66.9494 45.08 66.235C45.3627 65.5207 45.7026 64.8407 46.0617 64.1684C46.7558 62.8342 47.5541 61.5569 48.4492 60.3484C51.877 55.6818 56.6106 52.1353 62.0522 50.1566C63.3306 49.7014 64.6372 49.3301 65.9639 49.045C67.2568 48.7771 68.5662 48.5959 69.8832 48.5026C72.3982 48.3068 74.9279 48.4391 77.4086 48.896C81.8806 49.7355 86.0934 51.6117 89.709 54.3739C92.6832 56.6525 95.1969 59.476 97.116 62.6939C97.9007 64.0105 98.5765 65.389 99.1368 66.8157C99.613 68.0128 100.009 69.2405 100.321 70.4905C100.751 72.219 101.018 73.9839 101.119 75.7621C101.169 76.3733 101.15 76.8393 101.161 77.1526C101.173 77.4658 101.165 77.6377 101.165 77.6377Z" fill="#3373CC"/>
</g>
<path d="M97.4712 77.0074C97.4712 77.0074 97.4712 76.8699 97.4712 76.5986C97.4712 76.3274 97.4712 75.9263 97.4139 75.403C97.1713 71.8179 96.1634 68.3264 94.4581 65.1635C92.7528 62.0007 90.3896 59.2399 87.5277 57.067C84.4197 54.7054 80.8027 53.103 76.9654 52.3875C74.8353 51.9908 72.6628 51.8713 70.502 52.0322C69.3723 52.1145 68.2493 52.2715 67.1404 52.5021C66.0041 52.7487 64.885 53.069 63.7903 53.4609C57.8805 55.6149 52.9937 59.9074 50.0956 65.4901C49.4876 66.6532 48.9766 67.8644 48.5676 69.1114C46.8613 74.2476 46.8613 79.7977 48.5676 84.9339C48.9733 86.1834 49.4844 87.3961 50.0956 88.5591C50.6891 89.7075 51.3725 90.8073 52.1393 91.8481C55.0749 95.8487 59.1287 98.8911 63.7903 100.592C64.8852 100.982 66.0043 101.301 67.1404 101.547C68.249 101.78 69.3721 101.937 70.502 102.017C72.6628 102.182 74.8358 102.062 76.9654 101.662C80.8027 100.946 84.4197 99.3437 87.5277 96.9822C90.3951 94.8061 92.7613 92.0394 94.4663 88.8693C96.1713 85.6992 97.1752 82.1998 97.4101 78.608C97.4597 78.0846 97.4483 77.6835 97.4674 77.4123C97.4865 77.1411 97.4674 77.0074 97.4674 77.0074C97.4674 77.0074 97.4674 77.5613 97.433 78.6118C97.2095 82.5935 96.0303 86.4627 93.995 89.8922C92.3406 92.6694 90.1731 95.1066 87.608 97.0738C84.4866 99.4598 80.8495 101.081 76.9884 101.807C73.7163 102.415 70.357 102.38 67.0984 101.704C65.9533 101.457 64.8253 101.137 63.7215 100.745C59.0241 99.0409 54.9366 95.9836 51.975 91.9589C51.2002 90.9103 50.5104 89.8015 49.9122 88.6431C49.3005 87.4712 48.7893 86.2495 48.3842 84.9912C46.6626 79.8157 46.6626 74.222 48.3842 69.0465C48.7894 67.7882 49.3006 66.5665 49.9122 65.3946C50.5114 64.2387 51.1998 63.1314 51.9712 62.0826C54.9325 58.0576 59.02 55.0002 63.7177 53.2966C64.8209 52.9029 65.949 52.5826 67.0946 52.3378C68.2093 52.1035 69.3389 51.9465 70.4753 51.868C72.6473 51.7133 74.8303 51.8417 76.9693 52.25C80.8285 52.976 84.4642 54.5956 87.585 56.9791C90.1468 58.9332 92.3142 61.356 93.9721 64.1187C96.0073 67.5482 97.1866 71.4175 97.4101 75.3992C97.4865 76.4535 97.4712 77.0074 97.4712 77.0074Z" fill="#3373CC"/>
<path d="M72.0146 98.3459C83.4515 98.3459 92.7228 89.0745 92.7228 77.6377C92.7228 66.2008 83.4515 56.9294 72.0146 56.9294C60.5778 56.9294 51.3064 66.2008 51.3064 77.6377C51.3064 89.0745 60.5778 98.3459 72.0146 98.3459Z" fill="#3373CC"/>
<path d="M72.1827 71.35H71.7816C70.3807 71.35 69.2451 72.4856 69.2451 73.8865V77.504C69.2451 78.9049 70.3807 80.0405 71.7816 80.0405H72.1827C73.5836 80.0405 74.7192 78.9049 74.7192 77.504V73.8865C74.7192 72.4856 73.5836 71.35 72.1827 71.35Z" fill="#FAFAFA"/>
<path d="M71.9802 81.6984C70.911 81.6963 69.8861 81.2707 69.13 80.5146C68.374 79.7586 67.9483 78.7337 67.9463 77.6644C67.9463 77.6138 67.9664 77.5652 68.0022 77.5294C68.0381 77.4936 68.0866 77.4734 68.1373 77.4734C68.1879 77.4734 68.2365 77.4936 68.2723 77.5294C68.3082 77.5652 68.3283 77.6138 68.3283 77.6644C68.3293 78.6327 68.7144 79.561 69.399 80.2456C70.0837 80.9303 71.012 81.3154 71.9802 81.3164C72.4659 81.3386 72.9508 81.2594 73.4042 81.0838C73.8575 80.9082 74.2693 80.6401 74.6133 80.2965C74.9572 79.9529 75.2258 79.5414 75.4019 79.0882C75.578 78.635 75.6577 78.1501 75.636 77.6644C75.636 77.6138 75.6561 77.5652 75.6919 77.5294C75.7277 77.4936 75.7763 77.4734 75.827 77.4734C75.8776 77.4734 75.9262 77.4936 75.962 77.5294C75.9978 77.5652 76.018 77.6138 76.018 77.6644C76.018 80.0367 74.3562 81.6945 71.9802 81.6984Z" fill="#FAFAFA"/>
<path d="M72.1713 81.5035H71.7893V83.4823H72.1713V81.5035Z" fill="white"/>
<path d="M74.3717 83.5893H69.5929C69.5422 83.5893 69.4936 83.5691 69.4578 83.5333C69.422 83.4975 69.4019 83.4489 69.4019 83.3983C69.4019 83.3476 69.422 83.299 69.4578 83.2632C69.4936 83.2274 69.5422 83.2073 69.5929 83.2073H74.3717C74.4223 83.2073 74.4709 83.2274 74.5067 83.2632C74.5426 83.299 74.5627 83.3476 74.5627 83.3983C74.5617 83.4486 74.5413 83.4966 74.5057 83.5322C74.47 83.5679 74.422 83.5883 74.3717 83.5893Z" fill="white"/>
<path d="M67.9961 72.9314C67.9732 72.9811 67.6828 72.8779 67.339 72.7328C66.9952 72.5876 66.7202 72.4463 66.7355 72.3928C66.7508 72.3393 67.064 72.3928 67.4154 72.5494C67.7669 72.706 67.9961 72.8818 67.9961 72.9314Z" fill="white"/>
<path d="M69.5241 70.884C69.4821 70.9183 69.2338 70.6548 68.9702 70.2995C68.7067 69.9442 68.5309 69.6272 68.5882 69.5966C68.6455 69.5661 68.8786 69.8258 69.1421 70.1811C69.4057 70.5363 69.5623 70.8534 69.5241 70.884Z" fill="white"/>
<path d="M71.9955 70.1505C71.9382 70.1505 71.9 69.8182 71.9038 69.3865C71.9076 68.9548 71.9573 68.6225 72.0108 68.6225C72.1431 69.1142 72.1431 69.6321 72.0108 70.1238L71.9955 70.1505Z" fill="white"/>
<path d="M75.1738 69.6119C75.2196 69.6425 75.1012 69.9251 74.8797 70.2231C74.6581 70.5211 74.4136 70.7121 74.3754 70.6739C74.3372 70.6357 74.5015 70.3912 74.7192 70.1009C74.937 69.8105 75.1241 69.5852 75.1738 69.6119Z" fill="white"/>
<path d="M77.3093 72.198C77.336 72.2477 77.0801 72.4425 76.7401 72.6373C76.4001 72.8321 76.1022 72.9467 76.0754 72.9009C76.0487 72.855 76.3008 72.6564 76.6408 72.4616C76.9808 72.2668 77.2826 72.1522 77.3093 72.198Z" fill="white"/>
<path d="M56.0776 118.37L55.4664 117.488H54.7902V118.37H54.053V115.196H55.4282C56.2762 115.196 56.8072 115.639 56.8072 116.342C56.8179 116.557 56.7606 116.771 56.6433 116.952C56.5261 117.133 56.3549 117.272 56.154 117.35L56.8645 118.37H56.0776ZM55.39 115.796H54.7941V116.892H55.39C55.8407 116.892 56.0661 116.682 56.0661 116.338C56.0661 115.994 55.8369 115.796 55.39 115.796Z" fill="#263238"/>
<path d="M59.7142 117.35H57.8692C57.9062 117.503 57.9975 117.638 58.1261 117.728C58.2547 117.819 58.4118 117.86 58.5682 117.843C58.6808 117.847 58.793 117.828 58.898 117.787C59.003 117.746 59.0987 117.685 59.1794 117.606L59.5614 118.015C59.4306 118.148 59.2729 118.25 59.0988 118.316C58.9248 118.382 58.7386 118.41 58.5529 118.397C58.3773 118.415 58.1998 118.395 58.0321 118.34C57.8644 118.285 57.71 118.195 57.579 118.077C57.4481 117.959 57.3433 117.814 57.2716 117.653C57.1998 117.491 57.1627 117.317 57.1625 117.14C57.1602 116.971 57.1926 116.803 57.2576 116.647C57.3226 116.491 57.4189 116.349 57.5405 116.232C57.6622 116.114 57.8066 116.022 57.9649 115.962C58.1233 115.903 58.2922 115.876 58.4613 115.884C58.6301 115.874 58.799 115.901 58.957 115.961C59.1151 116.021 59.2587 116.114 59.3786 116.233C59.4986 116.352 59.5921 116.495 59.6532 116.653C59.7143 116.81 59.7416 116.979 59.7333 117.148C59.7295 117.217 59.718 117.293 59.7142 117.35ZM57.8615 116.938H59.061C59.0382 116.795 58.9652 116.665 58.8553 116.572C58.7454 116.478 58.6057 116.427 58.4613 116.427C58.3168 116.427 58.1771 116.478 58.0672 116.572C57.9573 116.665 57.8844 116.795 57.8615 116.938Z" fill="#263238"/>
<path d="M62.2929 116.98V118.37H61.6282V118.069C61.5466 118.187 61.4347 118.28 61.3043 118.34C61.1739 118.4 61.0298 118.424 60.8871 118.409C60.3141 118.409 59.9741 118.091 59.9741 117.667C59.9741 117.243 60.2797 116.938 61.0208 116.938H61.5823C61.5823 116.636 61.4028 116.457 61.0208 116.457C60.768 116.456 60.5216 116.536 60.3179 116.686L60.0658 116.189C60.3799 115.991 60.745 115.889 61.1163 115.895C61.8612 115.895 62.2929 116.243 62.2929 116.98ZM61.5823 117.603V117.35H61.0972C60.7687 117.35 60.6617 117.473 60.6617 117.637C60.6617 117.801 60.8145 117.931 61.0437 117.931C61.1572 117.944 61.2717 117.918 61.3691 117.859C61.4666 117.799 61.5416 117.709 61.5823 117.603Z" fill="#263238"/>
<path d="M65.4442 115.009V118.37H64.7681V118.091C64.6737 118.2 64.5557 118.284 64.4232 118.339C64.2907 118.394 64.1473 118.418 64.0041 118.409C63.6708 118.409 63.3511 118.276 63.1154 118.04C62.8797 117.805 62.7473 117.485 62.7473 117.152C62.7473 116.818 62.8797 116.499 63.1154 116.263C63.3511 116.027 63.6708 115.895 64.0041 115.895C64.1397 115.889 64.2751 115.912 64.401 115.962C64.5269 116.013 64.6404 116.09 64.7337 116.189V115.009H65.4442ZM64.749 117.152C64.7393 117.03 64.6943 116.914 64.6195 116.818C64.5448 116.721 64.4434 116.649 64.328 116.609C64.2126 116.569 64.0881 116.564 63.9699 116.594C63.8516 116.624 63.7447 116.688 63.6624 116.778C63.58 116.868 63.5257 116.981 63.5061 117.101C63.4866 117.222 63.5026 117.345 63.5523 117.456C63.602 117.568 63.6831 117.662 63.7858 117.728C63.8884 117.794 64.0081 117.829 64.1302 117.828C64.2165 117.828 64.3019 117.811 64.381 117.776C64.4601 117.741 64.531 117.691 64.5893 117.627C64.6476 117.563 64.6919 117.488 64.7194 117.406C64.7469 117.324 64.757 117.238 64.749 117.152Z" fill="#263238"/>
<path d="M68.5193 115.933L67.4153 118.523C67.3609 118.747 67.2308 118.946 67.0471 119.085C66.8634 119.224 66.6372 119.295 66.4068 119.287C66.1615 119.293 65.9214 119.215 65.7269 119.066L65.9828 118.561C66.0943 118.658 66.2361 118.714 66.3839 118.718C66.5787 118.718 66.6857 118.63 66.7659 118.412V118.389L65.7078 115.933H66.4679L67.1517 117.587L67.8431 115.933H68.5193Z" fill="#263238"/>
<path d="M71.6671 118.256C71.4942 118.363 71.2934 118.416 71.0902 118.409C70.9699 118.425 70.8473 118.415 70.7317 118.377C70.6162 118.34 70.5106 118.276 70.423 118.192C70.3355 118.108 70.2682 118.005 70.2263 117.891C70.1844 117.777 70.1689 117.655 70.1811 117.534V116.533H69.7991V115.987H70.1811V115.391H70.8878V115.987H71.4952V116.533H70.8878V117.522C70.882 117.564 70.8857 117.607 70.8985 117.648C70.9113 117.688 70.9329 117.725 70.9618 117.756C70.9906 117.787 71.0261 117.811 71.0654 117.827C71.1048 117.843 71.1472 117.85 71.1896 117.847C71.2924 117.848 71.3927 117.815 71.4761 117.755L71.6671 118.256Z" fill="#263238"/>
<path d="M71.8161 117.152C71.7985 116.883 71.8622 116.614 71.999 116.382C72.1358 116.149 72.3394 115.963 72.5832 115.848C72.8271 115.733 73.1 115.694 73.3664 115.736C73.6329 115.777 73.8806 115.898 74.0774 116.083C74.2742 116.267 74.411 116.507 74.47 116.77C74.529 117.033 74.5074 117.308 74.4081 117.559C74.3089 117.81 74.1365 118.025 73.9133 118.176C73.6902 118.328 73.4267 118.409 73.1569 118.409C72.985 118.42 72.8124 118.396 72.6501 118.338C72.4878 118.28 72.3392 118.189 72.2134 118.072C72.0877 117.954 71.9875 117.811 71.9191 117.653C71.8508 117.495 71.8157 117.324 71.8161 117.152ZM73.7796 117.152C73.7699 117.03 73.725 116.914 73.6504 116.818C73.5758 116.722 73.4747 116.649 73.3595 116.609C73.2443 116.569 73.12 116.564 73.0019 116.594C72.8837 116.624 72.7768 116.687 72.6942 116.777C72.6117 116.867 72.5571 116.978 72.5371 117.099C72.5171 117.219 72.5326 117.342 72.5817 117.454C72.6308 117.565 72.7114 117.66 72.8136 117.727C72.9157 117.793 73.0351 117.828 73.1569 117.828C73.2429 117.828 73.3279 117.81 73.4066 117.775C73.4852 117.74 73.5557 117.689 73.6136 117.625C73.6714 117.562 73.7154 117.487 73.7427 117.405C73.7699 117.324 73.7799 117.237 73.7719 117.152H73.7796Z" fill="#263238"/>
<path d="M76.2434 115.009H76.9501V118.37H76.2434V115.009Z" fill="#263238"/>
<path d="M77.5232 115.196C77.5261 115.142 77.5398 115.089 77.5636 115.04C77.5875 114.991 77.6209 114.947 77.6618 114.912C77.7028 114.876 77.7506 114.849 77.8022 114.832C77.8539 114.815 77.9084 114.809 77.9625 114.814C78.0172 114.806 78.0731 114.809 78.1263 114.825C78.1795 114.84 78.2287 114.867 78.2705 114.903C78.3123 114.94 78.3457 114.985 78.3683 115.035C78.391 115.086 78.4024 115.141 78.4018 115.196C78.4018 115.312 78.3555 115.424 78.2731 115.507C78.1907 115.589 78.079 115.635 77.9625 115.635C77.846 115.635 77.7342 115.589 77.6519 115.507C77.5695 115.424 77.5232 115.312 77.5232 115.196ZM77.6111 115.933H78.3101V118.37H77.6034L77.6111 115.933Z" fill="#263238"/>
<path d="M78.7378 118.145L78.9746 117.637C79.231 117.79 79.5239 117.872 79.8227 117.874C80.1512 117.874 80.2734 117.786 80.2734 117.652C80.2734 117.251 78.7989 117.652 78.7989 116.686C78.7989 116.223 79.2153 115.895 79.9258 115.895C80.2519 115.888 80.5746 115.962 80.8655 116.109L80.6287 116.613C80.4149 116.49 80.1723 116.427 79.9258 116.43C79.6088 116.43 79.4751 116.533 79.4751 116.659C79.4751 117.075 80.9458 116.659 80.9458 117.633C80.9458 118.088 80.5256 118.397 79.7998 118.397C79.4298 118.407 79.0636 118.32 78.7378 118.145Z" fill="#263238"/>
<path d="M82.959 118.256C82.7861 118.363 82.5853 118.416 82.3821 118.409C82.2616 118.425 82.1389 118.414 82.0232 118.377C81.9075 118.339 81.8017 118.276 81.7139 118.192C81.6261 118.108 81.5584 118.005 81.516 117.891C81.4737 117.777 81.4576 117.655 81.4692 117.534V116.533H81.0872V115.987H81.4692V115.391H82.1759V115.987H82.7832V116.533H82.1759V117.522C82.17 117.565 82.1738 117.608 82.1868 117.649C82.1998 117.689 82.2218 117.727 82.2511 117.758C82.2804 117.789 82.3163 117.813 82.3561 117.828C82.396 117.844 82.4388 117.85 82.4815 117.847C82.5841 117.847 82.6841 117.815 82.768 117.755L82.959 118.256Z" fill="#263238"/>
<path d="M85.6559 117.35H83.8108C83.8479 117.503 83.9392 117.638 84.0678 117.728C84.1963 117.819 84.3534 117.86 84.5099 117.843C84.6224 117.847 84.7346 117.828 84.8396 117.787C84.9447 117.746 85.0404 117.685 85.1211 117.606L85.5031 118.015C85.3733 118.148 85.2163 118.251 85.0428 118.317C84.8693 118.383 84.6836 118.41 84.4984 118.397C83.6542 118.397 83.1041 117.866 83.1041 117.14C83.1018 116.971 83.1343 116.802 83.1995 116.646C83.2648 116.489 83.3614 116.348 83.4835 116.23C83.6055 116.112 83.7504 116.021 83.9092 115.961C84.068 115.902 84.2373 115.875 84.4067 115.884C84.5756 115.874 84.7445 115.901 84.9025 115.961C85.0606 116.021 85.2042 116.114 85.3241 116.233C85.444 116.352 85.5376 116.495 85.5987 116.653C85.6598 116.81 85.6871 116.979 85.6788 117.148C85.6712 117.217 85.6597 117.293 85.6559 117.35ZM83.7994 116.938H85.0027C84.9774 116.797 84.9033 116.669 84.7933 116.577C84.6833 116.485 84.5444 116.434 84.401 116.434C84.2576 116.434 84.1187 116.485 84.0087 116.577C83.8987 116.669 83.8246 116.797 83.7994 116.938Z" fill="#263238"/>
<path d="M88.6241 116.976V118.37H87.9174V117.083C87.9174 116.701 87.7341 116.51 87.4246 116.51C87.1152 116.51 86.8364 116.716 86.8364 117.167V118.37H86.1411V115.933H86.8173V116.22C86.9213 116.112 87.0468 116.027 87.1857 115.971C87.3245 115.915 87.4737 115.889 87.6233 115.895C87.7636 115.888 87.9039 115.911 88.0341 115.964C88.1644 116.017 88.2814 116.098 88.3769 116.201C88.4724 116.304 88.544 116.427 88.5867 116.561C88.6295 116.695 88.6422 116.837 88.6241 116.976Z" fill="#263238"/>
<path d="M65.5016 155.818C65.4993 155.644 65.5327 155.471 65.5996 155.31C65.6666 155.15 65.7658 155.004 65.891 154.883C66.0163 154.762 66.165 154.668 66.3279 154.607C66.4909 154.546 66.6647 154.518 66.8386 154.527C67.0164 154.518 67.1939 154.548 67.3593 154.614C67.5246 154.68 67.674 154.78 67.7974 154.909L67.5606 155.138C67.471 155.04 67.3616 154.963 67.2398 154.911C67.1179 154.859 66.9863 154.833 66.8539 154.836C66.5965 154.836 66.3497 154.938 66.1678 155.12C65.9858 155.302 65.8836 155.549 65.8836 155.806C65.8836 156.064 65.9858 156.31 66.1678 156.492C66.3497 156.674 66.5965 156.777 66.8539 156.777C66.9866 156.779 67.1182 156.753 67.2401 156.7C67.3619 156.647 67.4712 156.569 67.5606 156.471L67.7974 156.7C67.6734 156.829 67.5234 156.929 67.3574 156.995C67.1914 157.061 67.0132 157.091 66.8348 157.082C66.6634 157.09 66.4923 157.063 66.3316 157.003C66.1708 156.943 66.0239 156.851 65.8994 156.733C65.775 156.615 65.6756 156.473 65.6072 156.316C65.5389 156.159 65.5029 155.989 65.5016 155.818Z" fill="#263238"/>
<path d="M69.7493 155.925V157.071H69.4208V156.819C69.348 156.913 69.2524 156.988 69.1429 157.036C69.0334 157.085 68.9135 157.104 68.7943 157.094C68.3627 157.094 68.0876 156.861 68.0876 156.532C68.0876 156.204 68.2863 155.971 68.8516 155.971H69.3979V155.902C69.3979 155.611 69.2298 155.443 68.886 155.443C68.6673 155.442 68.4545 155.515 68.2825 155.65L68.1373 155.39C68.3661 155.222 68.6445 155.136 68.928 155.145C69.4514 155.153 69.7493 155.405 69.7493 155.925ZM69.4017 156.494V156.238H68.8707C68.5269 156.238 68.4314 156.372 68.4314 156.536C68.4314 156.7 68.5881 156.845 68.8516 156.845C68.9688 156.853 69.0855 156.823 69.1844 156.76C69.2834 156.697 69.3596 156.604 69.4017 156.494Z" fill="#263238"/>
<path d="M72.1981 155.978V157.078H71.8505V156.02C71.8505 155.638 71.6633 155.463 71.3386 155.463C71.2548 155.456 71.1705 155.468 71.0918 155.497C71.0131 155.527 70.9421 155.574 70.8839 155.635C70.8257 155.696 70.7818 155.769 70.7554 155.849C70.729 155.928 70.7207 156.013 70.7313 156.097V157.078H70.3875V155.168H70.716V155.474C70.7983 155.371 70.9041 155.29 71.0244 155.237C71.1448 155.184 71.2761 155.16 71.4074 155.168C71.515 155.16 71.6232 155.175 71.7242 155.213C71.8253 155.251 71.9168 155.311 71.9922 155.388C72.0676 155.466 72.1251 155.559 72.1607 155.66C72.1963 155.762 72.2091 155.871 72.1981 155.978Z" fill="#263238"/>
<path d="M72.6755 156.123C72.6732 155.992 72.6981 155.861 72.7487 155.739C72.7993 155.618 72.8745 155.508 72.9695 155.417C73.0646 155.326 73.1775 155.255 73.3011 155.21C73.4247 155.165 73.5564 155.145 73.6878 155.153C73.8398 155.146 73.9911 155.179 74.1256 155.25C74.2601 155.322 74.3728 155.428 74.4518 155.558L74.1882 155.726C74.133 155.64 74.0564 155.57 73.9661 155.523C73.8757 155.475 73.7746 155.452 73.6725 155.455C73.4942 155.455 73.3232 155.526 73.1971 155.652C73.071 155.778 73.0002 155.949 73.0002 156.127C73.0002 156.306 73.071 156.477 73.1971 156.603C73.3232 156.729 73.4942 156.8 73.6725 156.8C73.7749 156.802 73.8761 156.778 73.9664 156.73C74.0567 156.681 74.1331 156.611 74.1882 156.525L74.4518 156.689C74.3735 156.82 74.2611 156.928 74.1266 157C73.9921 157.073 73.8405 157.108 73.6878 157.101C73.5558 157.109 73.4238 157.089 73.2999 157.043C73.176 156.997 73.063 156.925 72.9679 156.834C72.8729 156.742 72.7978 156.631 72.7475 156.509C72.6972 156.387 72.6727 156.256 72.6755 156.123Z" fill="#263238"/>
<path d="M76.5987 156.238H75.0516C75.0727 156.402 75.1563 156.553 75.285 156.657C75.4137 156.762 75.5777 156.813 75.7431 156.8C75.8462 156.803 75.9488 156.784 76.0438 156.744C76.1388 156.703 76.2239 156.643 76.2931 156.567L76.4841 156.792C76.3425 156.934 76.1628 157.033 75.9666 157.075C75.7704 157.118 75.5661 157.103 75.3781 157.033C75.1901 156.962 75.0265 156.839 74.9069 156.677C74.7874 156.516 74.7169 156.324 74.704 156.123C74.6993 155.996 74.7207 155.868 74.7671 155.749C74.8135 155.63 74.8837 155.522 74.9736 155.431C75.0634 155.34 75.1709 155.268 75.2895 155.221C75.408 155.173 75.5351 155.15 75.6628 155.153C75.791 155.15 75.9184 155.173 76.037 155.222C76.1556 155.27 76.2627 155.343 76.3516 155.435C76.4404 155.528 76.5089 155.638 76.5528 155.758C76.5967 155.879 76.6149 156.007 76.6064 156.135C76.6057 156.169 76.6032 156.204 76.5987 156.238ZM75.0516 155.99H76.274C76.2572 155.839 76.1856 155.701 76.0728 155.6C75.9601 155.499 75.8141 155.443 75.6628 155.443C75.5116 155.443 75.3656 155.499 75.2529 155.6C75.1401 155.701 75.0685 155.839 75.0516 155.99Z" fill="#263238"/>
<path d="M77.0876 154.404H77.4314V157.078H77.0876V154.404Z" fill="#263238"/>
<path d="M88.9717 162.285C88.9717 162.285 89.0672 162.285 89.2506 162.258L89.5906 162.235L90.0604 162.159C91.3944 161.895 92.5933 161.171 93.4479 160.113C94.3025 159.056 94.7584 157.731 94.7361 156.372C94.7478 155.872 94.7312 155.372 94.6865 154.874C94.6191 154.349 94.4829 153.836 94.2815 153.346C94.057 152.833 93.7655 152.351 93.4144 151.914C93.0322 151.465 92.5885 151.073 92.0965 150.749C91.0187 150.07 89.7536 149.75 88.4828 149.836H84.3228H75.1548H54.1448C53.2201 149.845 52.3111 150.076 51.4937 150.508C50.6932 150.923 50.003 151.523 49.4806 152.258C48.9587 152.978 48.618 153.814 48.4874 154.695C48.45 154.911 48.4296 155.129 48.4263 155.348C48.4263 155.566 48.4263 155.791 48.4263 156.013C48.4124 156.448 48.4355 156.884 48.495 157.315C48.6165 158.167 48.93 158.979 49.4118 159.691C49.8904 160.385 50.5132 160.968 51.2378 161.399C51.9485 161.82 52.7424 162.08 53.5642 162.163L54.1715 162.19H56.0051L73.1684 162.209L84.7392 162.239H87.8869L84.7392 162.258L73.1684 162.289L56.0051 162.308H54.1715L53.5451 162.277C52.6964 162.193 51.8763 161.925 51.1423 161.491C50.3929 161.046 49.748 160.445 49.2514 159.729C48.7542 158.992 48.4291 158.153 48.3002 157.273C48.2411 156.831 48.2181 156.386 48.2314 155.94C48.2314 155.715 48.2314 155.497 48.2314 155.268C48.2328 155.041 48.2533 154.815 48.2926 154.592C48.4286 153.682 48.7795 152.817 49.3163 152.07C49.8591 151.31 50.5737 150.688 51.402 150.256C52.244 149.824 53.1757 149.596 54.1219 149.591H75.1319H84.2999H88.4599C89.4093 149.523 90.3612 149.683 91.2368 150.056C92.1124 150.429 92.8864 151.006 93.4946 151.738C94.2075 152.602 94.6547 153.654 94.782 154.767C94.8227 155.276 94.8367 155.786 94.824 156.295C94.8467 157.146 94.6839 157.992 94.3468 158.774C94.0097 159.555 93.5064 160.254 92.872 160.822C92.0815 161.529 91.1113 162.005 90.0681 162.197L89.5944 162.262C89.4607 162.262 89.3423 162.262 89.2506 162.262L88.9717 162.285Z" fill="#263238"/>
<path d="M101.165 38.4025C100.185 38.5104 99.1979 38.5462 98.2123 38.5094C97.2254 38.5463 96.2372 38.5105 95.2556 38.4025C96.2374 38.2967 97.2254 38.261 98.2123 38.2955C99.1979 38.261 100.185 38.2968 101.165 38.4025Z" fill="#263238"/>
<path d="M101.165 36.8592C100.185 36.9672 99.1979 37.0029 98.2123 36.9661C97.2254 37.003 96.2372 36.9672 95.2556 36.8592C96.2374 36.7534 97.2254 36.7177 98.2123 36.7522C99.1979 36.7178 100.185 36.7535 101.165 36.8592Z" fill="#263238"/>
<path d="M101.165 35.3159C100.185 35.4239 99.1979 35.4596 98.2123 35.4229C97.2254 35.4597 96.2372 35.424 95.2556 35.3159C96.2374 35.2102 97.2254 35.1744 98.2123 35.209C99.1979 35.1745 100.185 35.2102 101.165 35.3159Z" fill="#263238"/>
<path d="M42.2759 39.3995C42.3177 39.3942 42.3601 39.3942 42.4019 39.3995H42.7572L44.0598 39.3689L44.0254 39.4071C44.0254 39.1168 44.0254 38.8036 44.0254 38.4598C44.0254 38.284 44.0254 38.1198 44.0254 37.9173C44.0497 37.8158 44.1051 37.7244 44.1838 37.6559C44.2626 37.5874 44.3608 37.5452 44.4647 37.5353C44.6748 37.5353 44.8467 37.5353 45.0874 37.5353C45.2072 37.5545 45.3161 37.6158 45.3946 37.7083C45.4731 37.8008 45.5158 37.9183 45.5152 38.0396C45.5152 38.4789 45.5152 38.9411 45.5152 39.4186L45.4541 39.3575H47.1005L47.0356 39.4186C47.0356 38.7577 47.0356 38.0739 47.0356 37.3711C47.0356 37.1953 47.0356 37.0196 47.0356 36.8477C47.0273 36.7712 47.0026 36.6975 46.963 36.6315C46.9234 36.5656 46.87 36.509 46.8064 36.4657L46.0882 35.759L45.393 35.0752L45.0568 34.7429C44.9422 34.6321 44.8506 34.5137 44.7169 34.487C44.6519 34.4692 44.5837 34.4665 44.5175 34.4791C44.4513 34.4917 44.3888 34.5192 44.3349 34.5595C44.2355 34.6436 44.1286 34.762 44.0293 34.8613C43.8268 35.0638 43.6473 35.2433 43.441 35.4572C43.059 35.8392 42.677 36.1945 42.3981 36.5268C42.3154 36.7206 42.2876 36.9334 42.3179 37.1419C42.3179 37.3443 42.3179 37.5239 42.3179 37.7225C42.3179 38.0778 42.3179 38.3872 42.3179 38.6546C42.3179 38.922 42.3179 39.0901 42.3179 39.2505C42.3233 39.323 42.3233 39.3958 42.3179 39.4682C42.3125 39.4021 42.3125 39.3357 42.3179 39.2696C42.3179 39.1092 42.3179 38.9182 42.3179 38.6813C42.3179 38.4445 42.3179 38.0969 42.295 37.7416C42.295 37.5544 42.295 37.3596 42.295 37.1495C42.295 37.0425 42.295 36.9356 42.295 36.8248C42.2955 36.7042 42.3271 36.5858 42.3867 36.481C42.6923 36.099 43.0552 35.7781 43.4295 35.3808L43.9299 34.7123C44.0369 34.6092 44.1209 34.5061 44.247 34.3991C44.3142 34.3481 44.3921 34.313 44.4748 34.2965C44.5575 34.2799 44.6429 34.2824 44.7245 34.3036C44.8757 34.3604 45.008 34.4583 45.1065 34.5863L45.4465 34.9186L46.1417 35.5986L46.8599 36.3091C46.9298 36.3678 46.9926 36.4345 47.0471 36.5077C47.0998 36.5899 47.1289 36.6851 47.1311 36.7828C47.1311 36.9585 47.1311 37.1304 47.1311 37.3099C47.1311 38.009 47.1311 38.6966 47.1311 39.3575V39.4224H47.0662H45.4197H45.3624V39.3613C45.3624 38.8838 45.3624 38.4216 45.3624 37.9823C45.3632 37.889 45.3299 37.7986 45.2687 37.7283C45.2074 37.6579 45.1226 37.6124 45.0301 37.6003C44.8391 37.6003 44.6175 37.6003 44.4304 37.6003C44.3452 37.6092 44.2651 37.6452 44.2019 37.7029C44.1387 37.7607 44.0956 37.8371 44.0789 37.9211C44.0789 38.0854 44.0789 38.2764 44.0789 38.4445V39.4262H44.0407H42.7152H42.3714L42.2759 39.3995Z" fill="#263238"/>
<path d="M145.725 60.8335C145.779 62.6251 144.511 62.797 143.636 62.8696C142.761 62.9422 141.76 62.5449 140.962 62.1667C139.342 61.4027 137.772 60.6081 137.119 58.8204" fill="#FFBE9D"/>
<path d="M165.597 44.1134C165.65 44.1134 165.696 46.7874 165.696 50.0535C165.696 53.3196 165.65 55.9898 165.597 55.9898C165.543 55.9898 165.498 53.3158 165.498 50.0535C165.498 46.7912 165.543 44.1134 165.597 44.1134Z" fill="#3373CC"/>
<path d="M167.144 45.4198C167.197 45.4198 167.243 47.4482 167.243 49.9541C167.243 52.4601 167.197 54.4847 167.144 54.4847C167.091 54.4847 167.045 52.4562 167.045 49.9541C167.045 47.452 167.091 45.4198 167.144 45.4198Z" fill="#3373CC"/>
<path d="M168.886 46.7148C168.984 47.8056 169.017 48.9014 168.985 49.9962C169.017 51.0922 168.984 52.1892 168.886 53.2814C168.785 52.1894 168.752 51.0922 168.787 49.9962C168.752 48.9014 168.785 47.8055 168.886 46.7148Z" fill="#3373CC"/>
<path d="M170.402 47.8303C170.503 48.436 170.536 49.0509 170.502 49.6639C170.536 50.2756 170.502 50.8892 170.402 51.4936C170.304 50.889 170.271 50.2756 170.303 49.6639C170.271 49.0509 170.304 48.4362 170.402 47.8303Z" fill="#3373CC"/>
<path d="M171.743 48.7241C171.876 49.3873 171.876 50.0702 171.743 50.7334C171.611 50.0702 171.611 49.3873 171.743 48.7241Z" fill="#3373CC"/>
<path d="M173.264 47.6507C173.362 48.2566 173.395 48.8713 173.363 49.4843C173.395 50.096 173.362 50.7094 173.264 51.3141C173.163 50.7097 173.13 50.096 173.164 49.4843C173.13 48.8713 173.163 48.2564 173.264 47.6507Z" fill="#3373CC"/>
<path d="M174.692 46.18C174.791 47.3232 174.824 48.471 174.792 49.618C174.824 50.7649 174.791 51.9128 174.692 53.056C174.592 51.9129 174.559 50.7649 174.593 49.618C174.559 48.471 174.592 47.323 174.692 46.18Z" fill="#3373CC"/>
<path d="M156.57 46.7148C156.669 47.8056 156.702 48.9014 156.67 49.9962C156.702 51.0922 156.669 52.1892 156.57 53.2814C156.47 52.1894 156.436 51.0922 156.471 49.9962C156.437 48.9014 156.47 47.8055 156.57 46.7148Z" fill="#3373CC"/>
<path d="M158.087 47.8303C158.187 48.436 158.22 49.0509 158.186 49.6639C158.22 50.2756 158.187 50.8892 158.087 51.4936C157.989 50.889 157.955 50.2756 157.987 49.6639C157.955 49.0509 157.989 48.4362 158.087 47.8303Z" fill="#3373CC"/>
<path d="M159.428 48.7241C159.56 49.3873 159.56 50.0702 159.428 50.7334C159.328 50.4084 159.295 50.0669 159.328 49.7288C159.295 49.3906 159.328 49.0492 159.428 48.7241Z" fill="#3373CC"/>
<path d="M160.944 47.1159C161.045 47.9011 161.078 48.6935 161.043 49.4843C161.078 50.2739 161.045 51.065 160.944 51.8489C160.846 51.0648 160.813 50.2739 160.845 49.4843C160.813 48.6934 160.846 47.9013 160.944 47.1159Z" fill="#3373CC"/>
<path d="M162.373 46.18C162.476 47.3229 162.51 48.471 162.476 49.618C162.51 50.765 162.476 51.9131 162.373 53.056C162.274 51.9128 162.241 50.7649 162.273 49.618C162.241 48.471 162.274 47.3232 162.373 46.18Z" fill="#3373CC"/>
<path d="M164.115 45.458C164.172 45.458 164.214 47.4177 164.214 49.8319C164.214 52.2461 164.172 54.2096 164.115 54.2096C164.057 54.2096 164.015 52.25 164.015 49.8319C164.015 47.4138 164.061 45.458 164.115 45.458Z" fill="#3373CC"/>
<path d="M154.947 51.3141C154.846 50.7097 154.813 50.096 154.847 49.4843C154.813 48.8713 154.846 48.2564 154.947 47.6507C155.045 48.2566 155.078 48.8713 155.046 49.4843C155.078 50.096 155.045 50.7094 154.947 51.3141Z" fill="#3373CC"/>
<path d="M153.606 50.4241C153.473 49.7608 153.473 49.078 153.606 48.4147C153.738 49.078 153.738 49.7608 153.606 50.4241Z" fill="#3373CC"/>
<path d="M176.102 47.6507C176.2 48.2566 176.233 48.8713 176.201 49.4843C176.233 50.096 176.2 50.7094 176.102 51.3141C176.002 50.7097 175.968 50.096 176.003 49.4843C175.968 48.8713 176.002 48.2564 176.102 47.6507Z" fill="#3373CC"/>
<path d="M177.431 48.5446C177.564 49.2078 177.564 49.8907 177.431 50.5539C177.332 50.229 177.298 49.8874 177.332 49.5493C177.298 49.2111 177.332 48.8697 177.431 48.5446Z" fill="#3373CC"/>
<path d="M163.958 164.669L166.743 172.744C166.743 172.744 175.888 172.63 176.545 174.074L161.082 180.029L156.238 167.622L163.958 164.669Z" fill="#3373CC"/>
<path d="M161.7 173.917C161.569 174.02 161.481 174.168 161.452 174.332C161.423 174.496 161.456 174.665 161.544 174.807C161.641 174.942 161.787 175.034 161.95 175.064C162.114 175.095 162.283 175.062 162.422 174.971C162.561 174.862 162.655 174.705 162.685 174.531C162.715 174.357 162.68 174.178 162.587 174.028C162.47 173.897 162.307 173.817 162.133 173.805C161.958 173.792 161.785 173.847 161.651 173.959" fill="#E0E0E0"/>
<g opacity="0.6">
<path d="M161.082 180.029L160.638 178.776L175.632 173.539C175.632 173.539 176.438 173.573 176.545 174.089L161.082 180.029Z" fill="white"/>
</g>
<path d="M166.964 172.569C166.991 172.645 166.624 172.824 166.346 173.21C166.067 173.596 165.994 173.993 165.914 173.974C165.834 173.955 165.776 173.489 166.12 173.031C166.464 172.572 166.953 172.496 166.964 172.569Z" fill="#263238"/>
<path d="M168.844 172.614C168.89 172.683 168.611 172.935 168.462 173.355C168.313 173.776 168.385 174.139 168.309 174.165C168.233 174.192 168.019 173.783 168.194 173.264C168.37 172.744 168.813 172.546 168.844 172.614Z" fill="#263238"/>
<path d="M170.513 174.192C170.452 174.234 170.2 173.898 170.234 173.428C170.269 172.958 170.559 172.637 170.616 172.691C170.674 172.744 170.536 173.046 170.517 173.455C170.498 173.863 170.586 174.165 170.513 174.192Z" fill="#263238"/>
<path d="M166.124 170.8C166.124 170.88 165.742 170.911 165.318 171.102C164.894 171.293 164.619 171.56 164.554 171.51C164.489 171.461 164.703 171.067 165.196 170.846C165.689 170.624 166.139 170.727 166.124 170.8Z" fill="#263238"/>
<path d="M105.119 161.758L104.943 161.987L101.612 166.357L97.4673 169.199L103.018 179.895H109.13C109.13 179.895 108.687 178.425 105.749 177.664L105.554 171.793L110.833 165.994" fill="#3373CC"/>
<g opacity="0.6">
<path d="M97.4519 169.199L103.002 179.891L109.114 179.899L108.427 178.978L103.457 178.7L98.3343 168.592L97.4519 169.199Z" fill="white"/>
</g>
<path d="M105.695 174.979C105.65 175.04 105.313 174.841 104.824 174.853C104.335 174.864 104.003 175.063 103.957 175.002C103.911 174.941 104.244 174.589 104.821 174.585C105.397 174.582 105.753 174.929 105.695 174.979Z" fill="#263238"/>
<path d="M105.596 173.524C105.535 173.566 105.264 173.206 104.775 173.111C104.286 173.015 103.9 173.237 103.862 173.172C103.824 173.107 103.912 173.042 104.083 172.951C104.313 172.833 104.576 172.797 104.829 172.848C105.082 172.898 105.311 173.033 105.478 173.229C105.6 173.382 105.627 173.504 105.596 173.524Z" fill="#263238"/>
<path d="M105.638 171.652C105.569 171.686 105.363 171.335 104.939 171.186C104.515 171.037 104.129 171.186 104.099 171.109C104.068 171.033 104.16 170.991 104.328 170.93C104.554 170.849 104.801 170.849 105.027 170.93C105.253 171.01 105.445 171.163 105.573 171.365C105.665 171.518 105.669 171.64 105.638 171.652Z" fill="#263238"/>
<path d="M107.273 170.204C107.201 170.231 107.032 169.883 106.65 169.635C106.268 169.386 105.886 169.352 105.886 169.276C105.886 169.199 106.341 169.104 106.799 169.413C107.258 169.723 107.342 170.196 107.273 170.204Z" fill="#263238"/>
<g opacity="0.6">
<path d="M102.326 169.016C102.326 169.159 102.284 169.3 102.204 169.419C102.124 169.538 102.011 169.632 101.878 169.686C101.745 169.741 101.6 169.756 101.459 169.728C101.318 169.7 101.189 169.631 101.087 169.529C100.986 169.428 100.916 169.298 100.888 169.158C100.86 169.017 100.875 168.871 100.93 168.738C100.985 168.606 101.078 168.492 101.197 168.412C101.316 168.333 101.457 168.29 101.6 168.29C101.793 168.29 101.977 168.367 102.114 168.503C102.25 168.639 102.326 168.823 102.326 169.016Z" fill="white"/>
</g>
<path d="M137.176 113.145C138.62 113.679 131.702 142.142 131.702 142.142L110.818 167.251L103.858 161.254L119.478 137.23L124.379 98.5178L135.641 99.129L137.176 113.145Z" fill="#263238"/>
<path d="M146.768 98.5178C146.967 99.0679 158.572 139.048 158.572 139.048L165.024 166.311L156.62 169.05C156.62 169.05 145.595 143.537 144.27 139.254C142.944 134.972 139.812 128.734 139.812 128.734L133.7 112.575C133.7 112.575 123.928 107.178 124.646 98.0594L146.768 98.5178Z" fill="#263238"/>
<path d="M166.013 168.263L165.517 164.982L155.401 168.267L156.578 171.736L166.013 168.263Z" fill="#263238"/>
<path d="M124.727 98.5178C124.727 98.5178 124.746 98.6248 124.773 98.8387L124.891 99.7784C125.03 100.972 125.253 102.154 125.56 103.316C125.787 104.142 126.106 104.94 126.511 105.696C126.995 106.581 127.591 107.402 128.283 108.137C129.977 109.887 131.973 111.318 134.174 112.362L134.208 112.381V112.415C134.59 113.867 135.09 115.368 135.637 116.919C136.183 118.47 136.783 120.07 137.402 121.721C138.647 125.017 140.022 128.501 141.447 132.103C143.433 137.069 145.267 141.84 147.051 146.134C148.835 150.428 150.458 154.275 151.834 157.506C153.209 160.738 154.328 163.351 155.069 165.169C155.451 166.078 155.722 166.789 155.906 167.27L156.112 167.824C156.158 167.946 156.177 168.011 156.177 168.011C156.177 168.011 156.146 167.95 156.093 167.828L155.871 167.285L155 165.2C154.236 163.389 153.09 160.78 151.704 157.56C150.317 154.339 148.648 150.493 146.879 146.199C145.11 141.905 143.25 137.138 141.267 132.172C139.843 128.57 138.471 125.086 137.23 121.782C136.607 120.135 136.019 118.527 135.476 116.972C134.934 115.418 134.433 113.916 134.055 112.453L134.097 112.507C131.884 111.448 129.881 109.997 128.184 108.224C127.489 107.478 126.89 106.646 126.404 105.749C126.003 104.983 125.689 104.174 125.468 103.339C125.169 102.171 124.96 100.982 124.841 99.7822C124.799 99.3735 124.769 99.0603 124.746 98.8387C124.723 98.6171 124.727 98.5178 124.727 98.5178Z" fill="#455A64"/>
<path d="M141.863 114.298C141.779 114.371 141.682 114.427 141.577 114.463C141.301 114.578 141.008 114.647 140.71 114.665C139.709 114.705 138.731 114.362 137.974 113.706C137.244 113.046 136.673 112.228 136.305 111.315C136.16 110.971 136.061 110.685 135.996 110.486C135.952 110.386 135.928 110.278 135.923 110.169C135.954 110.169 136.114 110.589 136.435 111.254C136.83 112.123 137.398 112.903 138.104 113.546C138.826 114.169 139.748 114.513 140.702 114.516C141.097 114.493 141.487 114.42 141.863 114.298Z" fill="#455A64"/>
<path d="M124.505 138.666C123.76 138.233 122.979 137.865 122.171 137.566C121.342 137.332 120.495 137.168 119.638 137.077C119.889 137.018 120.147 137.004 120.402 137.035C121.651 137.1 122.86 137.496 123.905 138.181C124.132 138.306 124.335 138.47 124.505 138.666Z" fill="#455A64"/>
<path d="M165.406 165.024C165.406 165.074 163.198 165.864 160.44 166.789C157.682 167.713 155.432 168.42 155.413 168.367C155.394 168.313 157.617 167.522 160.379 166.602C163.141 165.681 165.406 164.963 165.406 165.024Z" fill="#455A64"/>
<path d="M101.723 163.591L103.583 160.318L111.773 167.255L109.256 170.001L101.723 163.591Z" fill="#263238"/>
<path d="M111.773 167.255C111.65 167.184 111.537 167.096 111.437 166.995L110.57 166.231C109.84 165.589 108.832 164.703 107.674 163.786C106.517 162.87 105.497 161.991 104.756 161.361C104.374 161.047 104.087 160.788 103.885 160.597C103.682 160.406 103.572 160.31 103.583 160.299C103.708 160.366 103.826 160.445 103.935 160.536C104.152 160.7 104.462 160.94 104.844 161.238C105.608 161.842 106.654 162.682 107.8 163.622C108.946 164.562 109.959 165.448 110.665 166.117C111.021 166.449 111.299 166.724 111.49 166.919C111.598 167.019 111.693 167.132 111.773 167.255Z" fill="#455A64"/>
<path d="M142.104 37.436C142.455 36.1296 143.437 35.4878 144.713 35.0523C145.356 34.839 146.042 34.7845 146.711 34.8936C147.38 35.0027 148.013 35.2721 148.556 35.6788C149.274 36.2251 149.835 37.0196 150.687 37.3138C152.093 37.8027 153.743 36.7522 155.088 37.3825C155.499 37.5644 155.833 37.8857 156.031 38.2896C156.229 38.6936 156.278 39.1543 156.169 39.5908C156.06 40.0272 155.801 40.4113 155.437 40.6754C155.073 40.9395 154.627 41.0666 154.179 41.0345C155.096 41.3706 155.378 42.6771 154.843 43.4945C154.309 44.312 153.209 44.6176 152.25 44.4381C151.296 44.2056 150.424 43.7169 149.729 43.0247C149.003 42.3753 148.353 41.6342 147.578 41.0421C146.824 40.4066 145.871 40.0563 144.885 40.0527C143.567 40.1253 142.436 41.1185 141.848 42.3027C141.26 43.4869 141.122 44.8392 141.049 46.1571C140.977 47.475 140.954 48.8311 140.561 50.0802C140.515 50.2292 140.446 50.3935 140.297 50.4393C140.083 50.5042 139.915 50.2789 139.797 50.0802C138.592 47.8463 137.839 45.3969 137.581 42.8719C137.432 41.4088 137.47 40.026 138.272 38.7959C139.075 37.5659 141.107 36.6567 142.092 37.436" fill="#263238"/>
<path d="M139.56 43.548L138.888 58.3467C138.769 60.8641 139.117 64.5847 143.09 64.5847C146.547 64.325 147.57 61.0933 147.674 58.744C147.723 57.6285 147.769 56.7003 147.781 56.5857C147.781 56.5857 151.566 56.4023 152.005 52.6854C152.219 50.89 152.361 47.1579 152.445 43.7772C152.489 42.029 151.875 40.328 150.724 39.0117C149.572 37.6955 147.968 36.8603 146.23 36.672L145.871 36.6338C141.974 36.439 139.64 39.644 139.56 43.548Z" fill="#FFBE9D"/>
<path d="M147.807 56.536C146.084 56.3822 144.447 55.7171 143.105 54.626C143.105 54.626 143.964 57.4261 147.715 57.4872L147.807 56.536Z" fill="#EB996E"/>
<path d="M151.111 46.1456C151.098 46.2841 151.031 46.4119 150.924 46.5018C150.818 46.5916 150.681 46.6365 150.542 46.6269C150.474 46.625 150.407 46.6094 150.345 46.5811C150.283 46.5528 150.227 46.5124 150.18 46.4622C150.134 46.412 150.098 46.3531 150.075 46.2889C150.052 46.2247 150.042 46.1565 150.046 46.0883C150.059 45.9498 150.126 45.822 150.233 45.7322C150.339 45.6423 150.476 45.5974 150.615 45.607C150.683 45.6089 150.75 45.6245 150.812 45.6528C150.874 45.6811 150.93 45.7215 150.977 45.7717C151.023 45.8219 151.059 45.8808 151.082 45.945C151.105 46.0092 151.115 46.0774 151.111 46.1456Z" fill="#263238"/>
<path d="M151.467 45.5077C151.394 45.5726 151.023 45.2288 150.45 45.1715C149.877 45.1142 149.431 45.3549 149.373 45.2785C149.316 45.2021 149.427 45.1257 149.625 45.0111C149.891 44.8654 150.195 44.8054 150.496 44.8392C150.793 44.8721 151.072 44.9962 151.295 45.1944C151.455 45.3511 151.505 45.4809 151.467 45.5077Z" fill="#263238"/>
<path d="M145.481 45.7407C145.468 45.8799 145.402 46.0087 145.295 46.0993C145.189 46.19 145.051 46.2354 144.912 46.2259C144.844 46.2234 144.777 46.2075 144.715 46.179C144.653 46.1506 144.597 46.1101 144.551 46.0601C144.505 46.01 144.469 45.9513 144.446 45.8873C144.422 45.8233 144.412 45.7553 144.415 45.6872C144.429 45.5487 144.496 45.421 144.602 45.3311C144.708 45.2412 144.845 45.1963 144.984 45.2059C145.052 45.2074 145.119 45.2225 145.182 45.2503C145.244 45.2782 145.299 45.3183 145.346 45.3682C145.392 45.4181 145.428 45.4767 145.451 45.5407C145.474 45.6047 145.484 45.6727 145.481 45.7407Z" fill="#263238"/>
<path d="M145.836 45.0187C145.76 45.0798 145.389 44.7399 144.82 44.6787C144.251 44.6176 143.796 44.8621 143.743 44.7857C143.689 44.7093 143.796 44.6329 143.991 44.5183C144.257 44.374 144.561 44.3153 144.862 44.3502C145.16 44.3806 145.441 44.505 145.664 44.7055C145.825 44.8583 145.87 44.9882 145.836 45.0187Z" fill="#263238"/>
<path d="M147.452 49.4805C147.763 49.4165 148.082 49.3934 148.399 49.4117C148.544 49.4117 148.686 49.4117 148.72 49.3009C148.75 49.1517 148.733 48.9968 148.67 48.8578C148.571 48.4758 148.468 48.0938 148.357 47.7118C147.926 46.0616 147.631 44.7169 147.696 44.6978C147.761 44.6787 148.166 46.0043 148.598 47.6507C148.701 48.0556 148.8 48.4414 148.892 48.7967C148.961 48.984 148.961 49.19 148.892 49.3773C148.865 49.4266 148.827 49.4693 148.782 49.5023C148.736 49.5353 148.684 49.5579 148.628 49.5683C148.545 49.5776 148.46 49.5776 148.376 49.5683C148.066 49.5767 147.755 49.5472 147.452 49.4805Z" fill="#263238"/>
<path d="M146.222 42.784C146.149 42.933 145.584 42.784 144.904 42.8108C144.224 42.8375 143.662 42.9445 143.59 42.8108C143.555 42.7382 143.666 42.6045 143.903 42.4746C144.213 42.3181 144.557 42.2381 144.904 42.2416C145.251 42.2346 145.594 42.3119 145.905 42.467C146.142 42.5854 146.252 42.7191 146.222 42.784Z" fill="#263238"/>
<path d="M151.432 43.8307C151.318 43.9491 150.939 43.7734 150.466 43.7161C149.992 43.6588 149.583 43.7161 149.503 43.5671C149.469 43.4945 149.549 43.3723 149.736 43.2692C149.985 43.1408 150.269 43.0953 150.546 43.1393C150.824 43.1735 151.084 43.2937 151.291 43.4831C151.444 43.6321 151.486 43.7734 151.432 43.8307Z" fill="#263238"/>
<path d="M139.571 46.329C139.51 46.2946 137.096 45.3014 136.897 47.857C136.699 50.4125 139.311 50.0726 139.319 50C139.327 49.9274 139.571 46.329 139.571 46.329Z" fill="#FFBE9D"/>
<path d="M138.62 48.9724C138.62 48.9724 138.574 48.9992 138.494 49.0297C138.387 49.0725 138.268 49.0725 138.162 49.0297C138.004 48.9137 137.88 48.7575 137.804 48.5774C137.727 48.3973 137.7 48.2 137.726 48.006C137.736 47.7828 137.796 47.5647 137.902 47.368C137.931 47.2896 137.979 47.2195 138.041 47.1641C138.104 47.1088 138.18 47.0699 138.261 47.051C138.313 47.0403 138.368 47.0486 138.415 47.0745C138.462 47.1004 138.498 47.1422 138.517 47.1923C138.544 47.2649 138.517 47.3146 138.517 47.3222C138.517 47.3298 138.574 47.2802 138.563 47.1732C138.553 47.11 138.522 47.052 138.475 47.009C138.443 46.9792 138.405 46.9565 138.363 46.942C138.322 46.9276 138.278 46.9217 138.234 46.9249C138.128 46.9371 138.027 46.9766 137.941 47.0396C137.854 47.1025 137.786 47.1867 137.741 47.284C137.615 47.4978 137.543 47.739 137.531 47.9869C137.502 48.2128 137.54 48.4426 137.641 48.6467C137.742 48.8508 137.902 49.0201 138.101 49.1329C138.168 49.1576 138.24 49.167 138.311 49.1604C138.383 49.1538 138.452 49.1314 138.513 49.0947C138.609 49.0336 138.628 48.9763 138.62 48.9724Z" fill="#EB996E"/>
<path d="M153.331 43.0782C152.484 43.2025 151.62 43.124 150.81 42.8491C150 42.5741 149.266 42.1106 148.67 41.4967C147.849 40.6296 147.268 39.453 146.168 38.9832C145.792 38.8389 145.391 38.771 144.988 38.7834C144.585 38.7959 144.189 38.8885 143.823 39.0557C143.095 39.3933 142.445 39.877 141.913 40.4768C142.428 42.4441 141.722 44.5069 141.023 46.4169C140.969 46.6366 140.842 46.8316 140.664 46.9708C140.339 47.1694 139.9 46.944 139.674 46.6384C139.337 46.1246 139.159 45.5226 139.162 44.908C139.041 43.5157 139.199 42.1133 139.625 40.7824C140.057 39.4482 140.871 38.2702 141.966 37.394C143.379 36.3443 145.145 35.8841 146.89 36.1105C148.629 36.3484 150.248 37.1292 151.516 38.3414C152.129 38.8735 152.6 39.5495 152.888 40.3087" fill="#263238"/>
<path d="M147.635 51.0964C147.558 51.3263 147.447 51.5438 147.307 51.7419C147.236 51.8411 147.145 51.9241 147.039 51.9853C146.934 52.0466 146.817 52.0847 146.696 52.0972C146.566 52.0979 146.439 52.0656 146.325 52.0035C146.211 51.9413 146.115 51.8513 146.046 51.7419C145.908 51.5205 145.844 51.2611 145.863 51.0009C145.863 50.7678 145.981 50.489 146.214 50.4622C146.312 50.4581 146.409 50.4791 146.497 50.5234L147.716 51.0161" fill="#EB996E"/>
<path d="M147.15 52.0972C146.929 52.1126 146.707 52.0853 146.497 52.0169C146.285 51.9344 146.111 51.7767 146.008 51.5738C145.951 51.4484 145.922 51.3123 145.922 51.1746C145.922 51.0369 145.951 50.9008 146.008 50.7754C146.034 50.7103 146.069 50.6487 146.111 50.5921C146.161 50.5424 146.153 50.5424 146.203 50.5501L146.401 50.6265L146.6 50.7105C146.86 50.8137 147.097 50.9092 147.295 50.9817C147.504 51.0841 147.729 51.1512 147.96 51.1804C147.777 51.0371 147.574 50.9225 147.356 50.8404C147.165 50.7487 146.936 50.6418 146.68 50.5272L146.481 50.4355C146.409 50.4087 146.355 50.3743 146.26 50.3438C146.2 50.325 146.136 50.325 146.077 50.3438C146.023 50.3668 145.977 50.4038 145.943 50.4508C145.888 50.5211 145.841 50.5981 145.805 50.6799C145.74 50.8351 145.709 51.0029 145.716 51.1713C145.722 51.3396 145.766 51.5045 145.844 51.6541C145.908 51.7749 145.995 51.8816 146.102 51.9676C146.208 52.0536 146.331 52.1172 146.462 52.1545C146.633 52.2105 146.815 52.2184 146.99 52.1774C147.097 52.1506 147.154 52.1125 147.15 52.0972Z" fill="#263238"/>
<path d="M159.695 71.6174L152.632 86.714C152.302 87.4193 151.799 88.0298 151.17 88.4886C150.541 88.9474 149.806 89.2397 149.033 89.3384C148.043 89.4651 147.037 89.2675 146.168 88.7751C145.299 88.2827 144.613 87.5221 144.213 86.6071L138.941 74.532L148.109 63.7405L149.003 76.7018L154.798 68.4926L159.695 71.6174Z" fill="#3373CC"/>
<path d="M146.94 81.7939C147.178 80.8814 147.483 79.9876 147.853 79.1199C148.158 78.2334 148.524 77.3693 148.949 76.5338C148.71 77.4398 148.405 78.3271 148.036 79.1887C147.732 80.0816 147.366 80.9522 146.94 81.7939Z" fill="#263238"/>
<path d="M146.768 98.5178L148.418 96.6804C148.703 96.3653 148.92 95.9945 149.055 95.5915C149.19 95.1885 149.24 94.762 149.201 94.3388L148.327 92.1232L149.496 65.8225C149.614 63.6909 149.587 60.6196 147.586 59.7563L138.933 57.1969C138.933 57.1969 133.035 58.4537 131.641 61.5364C130.545 63.9545 128.837 80.3041 128.837 80.3041L126.354 86.9394C126.068 88.2459 124.173 95.565 124.062 97.2534L124.391 98.5255L146.768 98.5178Z" fill="#3373CC"/>
<path d="M148.327 92.1231C148.327 92.1231 148.327 92.0773 148.327 91.9856C148.327 91.8939 148.327 91.7488 148.327 91.6036C148.327 91.2216 148.327 90.7288 148.327 90.1062C148.327 88.8036 148.353 86.9929 148.369 84.869C148.491 83.3868 148.594 81.7366 148.693 79.9985C148.881 76.6483 149.026 73.6152 149.182 71.4187C149.259 70.3224 149.335 69.4362 149.392 68.825C149.427 68.5346 149.45 68.3016 149.469 68.1183C149.475 68.0356 149.489 67.9537 149.511 67.8738C149.521 67.9563 149.521 68.0396 149.511 68.1221C149.511 68.3054 149.488 68.5385 149.473 68.8288C149.434 69.4667 149.385 70.3568 149.324 71.4302C149.213 73.6458 149.06 76.6712 148.892 80.0099C148.793 81.748 148.682 83.4021 148.548 84.8881C148.502 87.012 148.464 88.8188 148.434 90.1253C148.415 90.7479 148.395 91.2484 148.384 91.6189C148.384 91.7755 148.384 91.9054 148.365 92.0009C148.356 92.0426 148.343 92.0835 148.327 92.1231Z" fill="#263238"/>
<path d="M132.691 103.728L140.507 101.016L133.734 82.7985L138.368 66.9914C139.075 64.2639 137.841 60.4286 135.113 59.7334C134.995 59.7028 134.781 58.7249 134.663 58.7745C133.589 59.2138 130.911 61.0283 129.804 62.8199C128.963 64.2001 128.354 65.7085 128.001 67.2855L125.189 79.372C124.639 81.7353 124.83 84.2107 125.735 86.4619L132.691 103.728Z" fill="#3373CC"/>
<path d="M125.296 85.186C125.315 85.2113 125.329 85.2398 125.338 85.2701L125.449 85.5298L125.857 86.5383L127.385 90.3392L132.642 103.686L132.523 103.633L140.45 100.913L140.503 101.104C140.415 101.033 140.347 100.941 140.305 100.837L140.224 100.626C140.171 100.489 140.117 100.348 140.06 100.206C139.953 99.9236 139.846 99.6371 139.735 99.3506C139.514 98.7738 139.292 98.1855 139.067 97.5934C137.039 92.1919 135.132 87.1266 133.513 82.8176V82.7947V82.768C134.601 78.0503 135.511 74.1119 136.152 71.3385C136.473 69.9672 136.729 68.8861 136.916 68.1374C137.004 67.7745 137.073 67.4956 137.123 67.297C137.145 67.2053 137.165 67.1365 137.176 67.0792L137.199 67.0067C137.203 67.0319 137.203 67.0578 137.199 67.0831C137.199 67.1404 137.172 67.2091 137.157 67.3008C137.111 67.5032 137.054 67.7859 136.977 68.1488C136.809 68.9128 136.572 69.9863 136.271 71.3615L133.7 82.8215V82.7718C135.323 87.0769 137.237 92.1384 139.277 97.5399L139.942 99.2933L140.27 100.153L140.431 100.573L140.511 100.779C140.517 100.787 140.52 100.796 140.52 100.806C140.52 100.816 140.517 100.825 140.511 100.833C140.508 100.845 140.508 100.858 140.511 100.871V100.898V100.917L140.53 101.008L140.564 101.108L132.554 103.812L132.47 103.843L132.439 103.759L127.252 90.3889L125.785 86.5689L125.403 85.5528C125.365 85.442 125.334 85.3541 125.307 85.2892C125.281 85.2242 125.296 85.186 125.296 85.186Z" fill="#263238"/>
<path d="M129.441 83.3295C129.59 83.1675 129.771 83.0375 129.972 82.9475C130.439 82.702 130.946 82.5403 131.469 82.47C131.992 82.3972 132.524 82.4179 133.039 82.5311C133.257 82.5591 133.465 82.6348 133.65 82.7527C132.939 82.631 132.215 82.6015 131.496 82.6648C130.786 82.7989 130.095 83.0222 129.441 83.3295Z" fill="#263238"/>
<g opacity="0.3">
<path d="M150.336 74.8376L150.978 88.624C150.302 89.1359 149.366 89.3384 148.304 89.388C148.323 88.9564 149.033 76.7171 149.033 76.7171L150.336 74.8376Z" fill="black"/>
</g>
<path d="M149.488 63.7405C149.442 63.778 149.392 63.8101 149.339 63.836C149.192 63.9227 149.04 64.0005 148.884 64.0691C148.31 64.3265 147.707 64.515 147.089 64.6306C145.042 64.9829 142.94 64.8427 140.958 64.2219C138.965 63.6141 137.149 62.5343 135.663 61.0742C135.215 60.6352 134.803 60.1613 134.429 59.657C134.296 59.4812 134.204 59.3323 134.139 59.2368C134.104 59.1879 134.075 59.1353 134.051 59.0801C134.198 59.2432 134.336 59.414 134.464 59.592C134.855 60.0748 135.279 60.5304 135.732 60.9558C137.225 62.3666 139.024 63.4126 140.988 64.0118C142.952 64.6335 145.032 64.7981 147.07 64.4931C147.683 64.3919 148.284 64.2254 148.861 63.9965C149.066 63.9008 149.275 63.8153 149.488 63.7405Z" fill="#FAFAFA"/>
<path d="M136.057 71.3195C135.93 71.3394 135.801 71.3394 135.675 71.3195C135.334 71.2907 134.994 71.2423 134.659 71.1743C133.55 70.9472 132.483 70.5489 131.496 69.9939C130.514 69.4319 129.622 68.7263 128.848 67.9006C128.614 67.6572 128.392 67.4022 128.184 67.1366C128.102 67.0414 128.033 66.9361 127.978 66.8233C128.004 66.8004 128.34 67.2053 128.948 67.8165C129.739 68.6023 130.629 69.2816 131.595 69.8373C132.566 70.3817 133.607 70.7905 134.689 71.0521C135.53 71.2278 136.061 71.2851 136.057 71.3195Z" fill="#FAFAFA"/>
<path d="M148.728 74.8377C148.571 74.9163 148.408 74.979 148.239 75.0248C147.787 75.1823 147.325 75.3099 146.856 75.4068C146.163 75.5586 145.459 75.6582 144.751 75.7048C143.883 75.7586 143.012 75.7446 142.146 75.6628C140.574 75.4844 139.033 75.099 137.562 74.5168C137 74.2952 136.549 74.0966 136.252 73.9438C136.09 73.8749 135.935 73.7904 135.789 73.6917C135.959 73.7364 136.124 73.7965 136.282 73.8712C136.592 74.0049 137.046 74.1806 137.611 74.3831C139.082 74.9174 140.61 75.2752 142.165 75.4488C143.019 75.5309 143.878 75.5513 144.736 75.51C145.437 75.4673 146.135 75.3818 146.825 75.254C148.009 75.0401 148.716 74.7995 148.728 74.8377Z" fill="#FAFAFA"/>
<path d="M148.216 85.251C148.045 85.3453 147.866 85.4233 147.681 85.484C147.469 85.5705 147.252 85.6457 147.032 85.7094C146.776 85.7858 146.489 85.8889 146.157 85.9615C145.825 86.0341 145.473 86.1258 145.08 86.1869C144.686 86.248 144.266 86.3053 143.823 86.355C142.857 86.4368 141.886 86.4368 140.92 86.355C139.956 86.2529 139.002 86.0675 138.07 85.8011C137.642 85.6674 137.237 85.5451 136.87 85.3962C136.504 85.2472 136.16 85.1058 135.854 84.9645C135.549 84.8231 135.281 84.6742 135.041 84.5519C134.8 84.4297 134.609 84.3074 134.449 84.2043C134.279 84.1086 134.118 83.9987 133.967 83.8758C134.15 83.9463 134.325 84.0345 134.491 84.1394C134.651 84.231 134.854 84.3418 135.094 84.4526C135.335 84.5634 135.598 84.7124 135.912 84.8346C136.225 84.9569 136.553 85.1135 136.928 85.2395C137.302 85.3656 137.692 85.4993 138.12 85.6215C139.05 85.8709 139.999 86.0447 140.958 86.1411C141.912 86.2289 142.871 86.2391 143.827 86.1716C144.266 86.1258 144.682 86.0952 145.072 86.0226C145.462 85.9501 145.817 85.8966 146.145 85.824C146.474 85.7514 146.764 85.6712 147.02 85.6024C147.276 85.5337 147.498 85.4687 147.673 85.4114C147.848 85.3399 148.03 85.2861 148.216 85.251Z" fill="#FAFAFA"/>
<path d="M154.519 83.6007C154.169 83.5694 153.825 83.487 153.499 83.3563C151.885 82.8075 150.447 81.8367 149.335 80.5447C149.094 80.2903 148.89 80.0036 148.728 79.6929C148.98 79.934 149.218 80.1891 149.442 80.4569C150.593 81.6744 152.001 82.6194 153.564 83.2226C154.141 83.4594 154.527 83.5702 154.519 83.6007Z" fill="#FAFAFA"/>
<path d="M157.766 75.6093C157.454 75.5668 157.15 75.478 156.864 75.3457C156.156 75.0696 155.485 74.7064 154.866 74.2647C154.246 73.8254 153.682 73.3123 153.186 72.7367C152.968 72.5096 152.784 72.2523 152.639 71.9727C153.357 72.7509 154.14 73.4654 154.981 74.108C155.863 74.6893 156.795 75.1916 157.766 75.6093Z" fill="#FAFAFA"/>
<path d="M133.837 80.602C133.727 80.645 133.611 80.6708 133.494 80.6784C133.177 80.726 132.858 80.7541 132.539 80.7624C130.407 80.8305 128.302 80.277 126.48 79.1695C126.205 79.0039 125.941 78.8215 125.689 78.6233C125.514 78.4819 125.418 78.4017 125.426 78.3902C125.433 78.3788 125.85 78.6576 126.572 79.0473C128.401 80.0677 130.459 80.6091 132.554 80.6211C133.337 80.6249 133.834 80.5676 133.837 80.602Z" fill="#FAFAFA"/>
<path d="M134.689 86.4657C134.689 86.5001 134.223 86.4925 133.486 86.5803C131.552 86.8081 129.721 87.5789 128.207 88.8036C127.626 89.2696 127.309 89.6096 127.286 89.5867C127.263 89.5637 127.343 89.4835 127.481 89.3269C127.677 89.1016 127.889 88.8909 128.115 88.6966C129.609 87.3887 131.484 86.597 133.463 86.439C133.761 86.419 134.059 86.419 134.357 86.439C134.468 86.4298 134.581 86.4389 134.689 86.4657Z" fill="#FAFAFA"/>
<path d="M138.811 96.6995C138.811 96.7377 138.322 96.6536 137.539 96.6613C137.082 96.6689 136.626 96.711 136.175 96.7873C135.07 96.9749 134.011 97.3717 133.054 97.9563C132.663 98.1925 132.291 98.4594 131.943 98.7546C131.347 99.2627 131.037 99.6409 131.007 99.618C131.059 99.5148 131.126 99.4196 131.205 99.3353C131.401 99.0907 131.615 98.862 131.847 98.6515C132.191 98.3356 132.561 98.0505 132.955 97.7996C133.439 97.4978 133.951 97.242 134.483 97.0357C135.02 96.8385 135.575 96.6951 136.141 96.6078C136.602 96.5358 137.069 96.5076 137.535 96.5238C137.849 96.528 138.162 96.5587 138.471 96.6155C138.588 96.6269 138.702 96.6553 138.811 96.6995Z" fill="#FAFAFA"/>
<path d="M128.604 93.9414C127.326 93.9176 126.053 93.7627 124.807 93.4792C125.446 93.455 126.087 93.4985 126.717 93.6091C127.356 93.6553 127.988 93.7667 128.604 93.9414Z" fill="#FAFAFA"/>
<g opacity="0.3">
<path d="M125.918 88.7615C125.981 90.5378 126.286 92.2972 126.824 93.9911C127.206 95.2441 125.888 97.2228 127.439 98.5178H130.495C129.009 94.8621 127.592 91.0268 126.224 87.585" fill="black"/>
</g>
<path d="M147.834 92.3944C147.769 92.4901 147.692 92.5774 147.605 92.6541C147.382 92.8753 147.143 93.0796 146.89 93.2653C146.514 93.5414 146.113 93.7842 145.695 93.9911C145.18 94.2413 144.643 94.4421 144.09 94.5909C143.534 94.7303 142.966 94.8172 142.394 94.8506C141.927 94.8756 141.459 94.8577 140.996 94.7971C140.685 94.7626 140.377 94.7025 140.075 94.6176C139.962 94.5954 139.852 94.5555 139.751 94.4992C139.751 94.4648 140.232 94.5909 141.011 94.6596C141.468 94.6945 141.926 94.6945 142.383 94.6596C142.942 94.6177 143.497 94.5283 144.041 94.3922C144.58 94.2434 145.106 94.0518 145.614 93.8192C146.029 93.6243 146.428 93.3969 146.806 93.1393C147.452 92.7076 147.796 92.3676 147.834 92.3944Z" fill="#263238"/>
<path d="M143.781 94.5603C143.557 94.7185 143.31 94.8398 143.047 94.9194C142.426 95.1441 141.777 95.2829 141.118 95.3319C140.461 95.3792 139.801 95.3484 139.151 95.2403C138.879 95.2151 138.613 95.1494 138.36 95.0454C138.36 94.9767 139.594 95.2403 141.103 95.1333C142.012 95.0298 142.909 94.8379 143.781 94.5603Z" fill="#FAFAFA"/>
<path d="M161.357 64.8063L165.1 64.5351C165.1 64.5351 165.918 65.5741 165.265 66.384C164.611 67.1938 163.355 69.3216 163.355 69.3216L160.44 69.7341L159.271 71.8466L154.847 68.9816L156.857 64.9782L160.108 62.1323L162.174 62.1743L163.32 63.561C163.32 63.561 162.044 64.1875 161.433 63.179L160.444 63.3738V63.9468C160.442 64.0647 160.465 64.1815 160.512 64.29C160.558 64.3984 160.626 64.4961 160.712 64.5769C160.797 64.6577 160.899 64.7198 161.01 64.7593C161.121 64.7988 161.239 64.8148 161.357 64.8063Z" fill="#FFBE9D"/>
<path d="M165.054 64.6765L167.602 63.943C167.76 63.9239 167.92 63.9435 168.068 64C168.217 64.0566 168.349 64.1485 168.454 64.2677L168.531 64.5313L165.406 65.8836L165.054 64.6765Z" fill="#FFBE9D"/>
<path d="M159.489 67.4765C159.579 67.2779 159.695 67.0918 159.833 66.9226C160.138 66.5126 160.346 66.0384 160.44 65.5359C160.481 65.2641 160.456 64.9863 160.367 64.7261C160.323 64.6019 160.29 64.4741 160.268 64.3441C160.248 64.2278 160.248 64.109 160.268 63.9927C160.292 63.7726 160.357 63.5589 160.459 63.3624C160.467 63.58 160.45 63.7978 160.409 64.0118C160.386 64.2351 160.427 64.4606 160.528 64.6612C160.634 64.9477 160.667 65.2564 160.623 65.5589C160.525 66.0931 160.287 66.5915 159.932 67.0028C159.676 67.3199 159.508 67.4918 159.489 67.4765Z" fill="#EB996E"/>
<path d="M169.887 61.6281C169.887 61.7007 170.269 62.5105 170.269 62.5105L159.905 67.6561L159.385 66.6858L169.887 61.6281Z" fill="#263238"/>
<path d="M163.343 69.142C163.398 69.0839 163.441 69.0152 163.47 68.9402C163.498 68.8651 163.511 68.7852 163.508 68.705C163.504 68.6249 163.485 68.5462 163.451 68.4736C163.417 68.4011 163.368 68.3361 163.309 68.2825C163.056 68.0726 162.749 67.94 162.423 67.9005C161.904 67.7774 161.374 67.7146 160.841 67.7133C160.666 67.7099 160.493 67.7492 160.337 67.8279C160.259 67.8692 160.195 67.9327 160.154 68.0102C160.112 68.0878 160.095 68.1759 160.104 68.2634C160.146 68.4735 160.367 68.5881 160.566 68.6645C161.103 68.87 161.662 69.0135 162.232 69.0924" fill="#FFBE9D"/>
<path d="M162.232 69.1153C161.888 69.1251 161.544 69.0786 161.215 68.9777C161.063 68.9395 160.895 68.8899 160.719 68.8326C160.515 68.7798 160.324 68.6862 160.157 68.5575C160.108 68.5127 160.069 68.4578 160.042 68.3965C160.016 68.3352 160.003 68.269 160.005 68.2023C160.016 68.0658 160.079 67.9388 160.18 67.847C160.386 67.689 160.644 67.614 160.902 67.6369C161.36 67.6401 161.816 67.6939 162.262 67.7974C162.644 67.8377 163.007 67.9787 163.316 68.2061C163.418 68.2952 163.492 68.4117 163.53 68.5418C163.567 68.6719 163.566 68.81 163.527 68.9395C163.458 69.1229 163.343 69.1611 163.343 69.1535C163.343 69.1458 163.416 69.0809 163.454 68.9204C163.473 68.8074 163.461 68.6914 163.421 68.5842C163.381 68.4769 163.313 68.3821 163.225 68.3092C162.924 68.1191 162.582 68.0051 162.228 67.9769C161.793 67.8872 161.35 67.8399 160.906 67.8356C160.697 67.8133 160.486 67.8675 160.314 67.9884C160.28 68.0124 160.251 68.0439 160.231 68.0805C160.21 68.1171 160.198 68.1578 160.196 68.1997C160.193 68.2415 160.2 68.2834 160.216 68.3222C160.232 68.361 160.256 68.3958 160.287 68.4238C160.431 68.5383 160.596 68.6239 160.772 68.676C160.944 68.7409 161.105 68.7944 161.254 68.8402C161.85 69.0236 162.235 69.0809 162.232 69.1153Z" fill="#EB996E"/>
<path d="M164.619 67.1212C163.802 66.7622 163.206 66.5711 162.388 66.2159C162.135 66.0702 161.842 66.01 161.552 66.044C161.265 66.1089 161.036 66.4527 161.192 66.6972C161.257 66.778 161.338 66.8444 161.429 66.892L163.805 68.336" fill="#FFBE9D"/>
<path d="M163.805 68.336C163.477 68.204 163.162 68.0402 162.866 67.847L161.872 67.2702L161.284 66.9188C161.22 66.8803 161.165 66.8282 161.124 66.7661C161.082 66.704 161.055 66.6336 161.043 66.5597C161.04 66.4848 161.052 66.4101 161.079 66.3399C161.105 66.2697 161.145 66.2054 161.196 66.151C161.295 66.0377 161.43 65.9632 161.578 65.9409C161.704 65.916 161.834 65.916 161.96 65.9409C162.182 66.0064 162.398 66.0907 162.606 66.193L163.664 66.6399C163.999 66.7558 164.318 66.9123 164.615 67.106C164.273 67.0183 163.937 66.906 163.61 66.7698C163.305 66.659 162.934 66.5291 162.533 66.3611C162.334 66.2678 162.127 66.1911 161.914 66.1319C161.816 66.0981 161.71 66.0927 161.609 66.1163C161.507 66.14 161.415 66.1917 161.341 66.2656C161.275 66.337 161.238 66.4313 161.238 66.5291C161.245 66.5742 161.263 66.617 161.289 66.6541C161.316 66.6912 161.351 66.7217 161.391 66.7431L161.964 67.0983L162.934 67.7133C163.244 67.8928 163.535 68.1013 163.805 68.336Z" fill="#EB996E"/>
<path d="M165.406 65.8836L163.167 65.0623C162.904 64.9348 162.607 64.8947 162.319 64.9477C162.041 65.0279 161.83 65.387 162.002 65.62C162.071 65.6987 162.155 65.7614 162.251 65.8033L164.715 67.0907" fill="#FFBE9D"/>
<path d="M164.711 67.0907C164.376 66.9779 164.052 66.8347 163.744 66.6628L162.732 66.1509L162.124 65.8415C162.058 65.8097 161.999 65.7633 161.953 65.7058C161.907 65.6483 161.874 65.5811 161.857 65.5092C161.846 65.4344 161.85 65.3582 161.87 65.2852C161.89 65.2123 161.924 65.1442 161.972 65.0852C162.057 64.9666 162.181 64.8815 162.323 64.8445C162.449 64.8195 162.579 64.8195 162.705 64.8445C162.932 64.8898 163.153 64.9589 163.366 65.0508L164.435 65.4633C164.772 65.5737 165.095 65.7184 165.402 65.895C165.055 65.8251 164.715 65.7254 164.386 65.597L163.305 65.215C163.101 65.1337 162.89 65.071 162.674 65.0279C162.574 65.0022 162.468 65.0054 162.37 65.0372C162.271 65.069 162.183 65.128 162.117 65.2074C161.788 65.6238 162.476 65.7766 162.804 65.9943L163.809 66.5444C164.126 66.6971 164.428 66.8801 164.711 67.0907Z" fill="#EB996E"/>
<path d="M165.242 61.884C165.219 61.884 165.284 61.6587 165.501 61.3683C165.792 60.9952 166.181 60.7108 166.624 60.547C167.069 60.3827 167.551 60.3482 168.015 60.4477C168.366 60.5279 168.557 60.6502 168.546 60.6731C168.534 60.696 168.332 60.6273 167.992 60.5891C167.554 60.5346 167.109 60.5844 166.693 60.7342C166.281 60.8897 165.91 61.1381 165.608 61.46C165.379 61.7083 165.268 61.884 165.242 61.884Z" fill="#263238"/>
<path d="M164.355 61.4142C164.434 61.1364 164.581 60.8828 164.783 60.6769C165.245 60.1503 165.852 59.7727 166.529 59.592C167.203 59.4142 167.909 59.4037 168.588 59.5615C168.87 59.6088 169.141 59.7086 169.386 59.8556C169.386 59.8862 169.069 59.783 168.561 59.7028C167.903 59.5899 167.229 59.6173 166.583 59.783C165.94 59.9569 165.354 60.2983 164.886 60.7724C164.531 61.1391 164.386 61.4333 164.355 61.4142Z" fill="#263238"/>
<path d="M163.072 60.994C163.072 60.994 163.11 60.887 163.221 60.7228C163.377 60.4915 163.555 60.2754 163.752 60.0772C164.401 59.4094 165.208 58.9143 166.097 58.637C166.987 58.3658 167.931 58.3186 168.844 58.4995C169.118 58.5532 169.387 58.6325 169.646 58.7364C169.745 58.7651 169.839 58.8117 169.921 58.8739C169.921 58.9083 169.505 58.744 168.821 58.637C167.931 58.4954 167.021 58.5595 166.16 58.8243C165.3 59.0892 164.511 59.5479 163.855 60.165C163.343 60.6502 163.114 61.0131 163.072 60.994Z" fill="#263238"/>
<path d="M162.163 60.5623C162.184 60.4358 162.226 60.3133 162.285 60.1994C162.429 59.8816 162.62 59.5869 162.85 59.3246C163.19 58.934 163.587 58.5966 164.027 58.3238C164.564 57.9903 165.139 57.7199 165.738 57.5178C166.831 57.1382 168.005 57.0616 169.138 57.2962C169.478 57.3629 169.811 57.4587 170.135 57.5827C170.258 57.6167 170.374 57.671 170.479 57.7432C170.479 57.7775 169.963 57.5751 169.111 57.4337C168.003 57.2459 166.866 57.3392 165.803 57.705C164.729 58.0362 163.751 58.6235 162.953 59.4163C162.65 59.769 162.385 60.1532 162.163 60.5623Z" fill="#263238"/>
<path d="M140.878 104.378C140.114 104.103 140.179 104.641 140.457 105.275C138.975 106.211 137.356 107.376 135.602 107.388L133.738 103.216L139.048 101.406L139.143 101.673C139.678 102.182 140.259 102.641 140.878 103.045C141.194 103.256 141.544 103.412 141.913 103.507C142.367 103.641 142.837 103.711 143.311 103.717C143.401 103.703 143.492 103.718 143.573 103.759C143.654 103.8 143.72 103.865 143.762 103.945C143.804 104.026 143.82 104.117 143.808 104.207C143.795 104.297 143.755 104.381 143.693 104.446C143.387 104.706 142.196 104.844 140.878 104.378Z" fill="#FFBE9D"/>
<path d="M141.031 104.848C140.847 105.097 140.627 105.317 140.377 105.501C139.802 105.979 139.169 106.385 138.494 106.708C137.82 107.032 137.108 107.271 136.374 107.418C136.074 107.497 135.764 107.532 135.453 107.522C137.503 107.103 139.418 106.184 141.027 104.848H141.031Z" fill="#455A64"/>
</svg>
