<svg width="77" height="79" viewBox="0 0 77 79" fill="none" xmlns="http://www.w3.org/2000/svg">
<path d="M75.8611 15.1289C75.4726 15.2379 62.9413 24.0282 61.9045 24.8005C60.8678 25.5727 58.8276 28.3005 59.0929 28.5495C59.5036 28.9354 63.0156 27.6868 63.4857 27.4192C63.9558 27.1516 77.0521 18.0708 77.6937 17.6354C78.3353 17.1999 76.2524 15.0205 75.8611 15.1289Z" fill="#3373CC"/>
<path d="M52.7481 43.2905C47.1948 43.6034 42.1082 39.2575 34.1739 36.8192C30.8439 37.3887 24.5353 37.0737 23.6289 35.055C11.7675 36.7805 1.76194 44.1565 0.207944 49.116C-1.28112 53.8614 5.60254 63.2397 8.90646 66.3032C10.365 58.1581 12.393 49.485 15.6147 41.8327C15.7779 41.4446 16.1425 41.6822 16.0188 42.0572C12.489 52.7321 9.98849 63.709 8.55015 74.8433C14.8216 78.4845 34.8017 79.3347 41.2752 77.7771C41.3279 75.0897 41.7142 66.0688 42.0705 59.089C39.2894 58.871 36.5149 58.5527 33.7627 58.108C33.3231 58.0371 33.5168 57.581 33.9475 57.6377C39.1234 58.32 49.5985 59.5152 55.648 57.8878C59.3665 56.8872 67 53.0373 73.075 34.8888C71.3179 33.5944 68.3303 32.4772 65.3871 32.1638C64.5835 34.4381 55.4804 43.1363 52.7481 43.2905Z" fill="#3373CC"/>
<path d="M49.7605 4.90029C52.7846 6.97945 55.4966 9.46489 57.8175 12.284C58.1854 12.7129 58.5945 12.3755 58.872 12.0251C62.5605 7.34462 64.533 4.59782 69.4636 0.580075C69.8521 0.265065 69.4125 -0.196005 68.9979 0.0895749C65.6185 2.40801 60.4226 7.29393 58.2043 10.7449C55.8344 8.22349 53.1272 6.02932 50.1568 4.22231C49.5879 3.88114 49.2083 4.5395 49.7605 4.90029Z" fill="#3373CC"/>
<path d="M53.0818 4.38695C54.0392 4.49595 60.9889 4.20764 62.0728 4.18857C62.6134 4.17876 62.6533 3.33074 62.1039 3.35145C61.01 3.39232 54.0009 3.55146 53.0185 3.72259C52.6162 3.79235 52.7216 4.34498 53.0818 4.38695Z" fill="#3373CC"/>
<path d="M50.7884 25.1415C50.3061 24.9279 49.9098 25.5726 50.3494 25.8402C52.8084 27.3452 55.1572 29.0174 57.3785 30.8444C58.0489 31.3943 58.8736 30.3468 58.211 29.792C55.971 27.9078 53.4724 26.3423 50.7884 25.1415Z" fill="#3373CC"/>
<path d="M65.0801 14.1494C65.104 12.1171 64.9019 9.93873 64.8908 7.89389C64.8908 7.37614 64.1571 7.46279 64.1616 7.98C64.1797 10.1458 64.1982 12.31 64.2171 14.4726C62.561 14.4726 55.0884 14.6715 53.3835 14.986C53.2037 13.127 53.1176 11.2533 52.839 9.40408C52.8248 9.33086 52.7836 9.26535 52.7233 9.22012C52.663 9.17489 52.5878 9.15313 52.5121 9.159C52.4365 9.16488 52.3657 9.19798 52.3133 9.25196C52.261 9.30594 52.2308 9.377 52.2285 9.4515C52.3168 11.2674 52.395 13.1226 52.5365 14.9386C52.612 15.9048 52.6154 15.8405 53.586 15.7713C56.9471 15.531 60.3693 15.3353 63.7387 15.3053C64.711 15.2961 65.0657 15.3615 65.0801 14.1494Z" fill="#3373CC"/>
<path d="M60.9018 21.574C59.0431 21.5975 57.0168 21.6258 55.1686 21.8324C53.24 22.0504 53.376 22.2095 53.5125 23.9164C53.544 24.3653 53.6025 24.8119 53.6879 25.2539C53.698 25.3367 53.7388 25.413 53.8023 25.4683C53.8659 25.5236 53.9479 25.5542 54.0328 25.5542C54.1178 25.5542 54.1998 25.5236 54.2633 25.4683C54.3269 25.413 54.3676 25.3367 54.3777 25.2539C54.3777 24.9432 54.224 22.8335 54.2667 22.7818C54.3095 22.73 60.1453 22.3278 60.7686 22.2858C61.3058 22.2493 61.4373 21.5669 60.9018 21.574Z" fill="#3373CC"/>
<path d="M54.6811 29.9213C54.6624 29.8386 54.6137 29.7654 54.5441 29.7154C54.4745 29.6654 54.3888 29.6419 54.3028 29.6493C54.2169 29.6567 54.1367 29.6945 54.077 29.7556C54.0174 29.8168 53.9824 29.8971 53.9785 29.9818C54.003 31.1116 54.0866 32.2394 54.2288 33.3608C54.2207 33.4668 54.2558 33.5717 54.3263 33.6524C54.3969 33.7331 54.4971 33.7831 54.6051 33.7913C54.6606 33.7957 58.9125 33.6883 62.0221 33.3995C62.8174 33.3259 62.334 32.6266 61.8684 32.6621C59.6717 32.8256 57.2119 32.9122 55.0064 32.9765C54.9187 31.9274 54.8438 30.9268 54.6811 29.9213Z" fill="#3373CC"/>
<path d="M35.808 20.0033C34.7363 19.939 34.0991 21.2372 34.6747 21.3538C34.9733 21.4143 35.0698 20.6807 35.7597 20.6851C35.8518 20.6914 35.9426 20.6615 36.0122 20.602C36.0819 20.5425 36.1246 20.4583 36.131 20.3679C36.1374 20.2775 36.107 20.1883 36.0464 20.1199C35.9858 20.0515 35.9001 20.0096 35.808 20.0033Z" fill="#191919"/>
<path d="M37.3058 18.8388C37.1459 18.5227 36.8618 18.78 36.9367 19.0803C37.4079 20.9283 37.9424 21.9578 38.3425 24.0114C38.5578 25.1156 37.5305 24.4425 37.4989 25.3058C37.4787 25.9454 37.4127 26.5828 37.3013 27.2133C36.8558 27.1365 36.4483 26.9182 36.1414 26.592C35.9438 26.3375 35.6014 26.5664 35.764 26.907C35.9099 27.1719 36.1186 27.3984 36.3724 27.5674C36.6263 27.7363 36.9179 27.8427 37.2225 27.8776C36.8668 30.6571 35.371 30.8163 32.9784 30.3301C32.5389 30.2413 32.0988 30.0876 31.6165 30.0239C31.3834 29.9933 30.784 30.4555 32.3502 30.8866C32.3502 31.6332 32.5167 35.4428 32.7326 36.1415C32.8241 36.4347 33.2953 36.3998 33.2687 36.0679C33.1299 34.3419 33.075 32.7287 33.0467 31.0419C37.8197 32 37.7431 29.1311 38.1249 25.4557C39.109 25.3172 39.1534 24.5177 39.0035 23.7514C38.6678 22.0457 38.0966 20.3929 37.3058 18.8388Z" fill="#191919"/>
<path d="M23.7977 10.9314C22.5212 6.39697 17.5767 1.70343 10.9217 5.11186C4.2667 8.52029 5.1497 17.6921 8.72945 21.5741C10.9783 24.0119 13.1228 26.889 12.7932 29.1235C12.4635 31.358 15.9661 29.4167 14.1418 22.0957C12.6838 16.2457 17.4452 11.3799 21.1703 13.6705C21.8534 12.5961 22.7463 11.6651 23.7977 10.9314Z" fill="#191919"/>
<path d="M30.4393 21.725C31.4333 22.3043 37.6115 17.4097 37.2313 16.2848C34.1788 7.26121 22.8269 9.60144 21.007 16.0559C18.9652 23.2984 25.0441 28.9789 25.4309 28.9293C25.9931 28.8568 27.7619 27.7429 28.4185 25.5727C28.7077 25.7389 29.0367 25.8265 29.3717 25.8265C29.7068 25.8265 30.0358 25.7389 30.3249 25.5727C30.7023 25.3618 30.4298 24.941 30.0308 25.0822C29.0584 25.4228 28.01 24.6505 28.1155 23.003C28.1179 22.7375 28.1917 22.4774 28.3294 22.2489C28.4672 22.0204 28.6639 21.8318 28.8998 21.702C29.1357 21.5723 29.4023 21.5061 29.6727 21.5101C29.943 21.5142 30.2075 21.5883 30.4393 21.725Z" fill="#191919"/>
<path d="M25.1195 29.7702C24.7591 31.403 24.5663 33.0672 24.5439 34.7379C24.5509 34.8071 24.5826 34.8716 24.6335 34.92C24.6843 34.9684 24.751 34.9975 24.8217 35.0022C24.8923 35.0068 24.9624 34.9867 25.0194 34.9454C25.0763 34.9041 25.1165 34.8442 25.1328 34.7766C25.4691 33.1868 25.5213 31.4722 25.8182 29.8198C25.8887 29.4252 25.195 29.3865 25.1195 29.7702Z" fill="#191919"/>
<path d="M36.4665 22.2029C36.2135 21.3385 35.3799 21.3009 35.7068 22.5179C36.0042 23.6199 36.7335 23.112 36.4665 22.2029Z" fill="#191919"/>
<path d="M63.5988 22.0868C63.8635 21.8252 65.8188 21.6759 65.967 21.6295C66.3039 21.5205 66.2262 21.0339 65.9448 20.9265C65.3781 20.7085 63.7747 21.0213 63.2386 21.308C62.7025 21.5947 62.6126 22.5555 62.1358 23.5643C61.8911 24.082 61.5631 24.5584 61.3494 25.087C61.2456 25.3448 61.5625 25.523 61.789 25.3459C62.8695 24.5099 63.5855 22.0999 63.5988 22.0868Z" fill="#191919"/>
<path d="M62.2859 26.6039C62.212 26.6003 62.1393 26.6226 62.0806 26.6667C62.0219 26.7108 61.981 26.7739 61.9652 26.8449C61.9494 26.9158 61.9598 26.9899 61.9944 27.0541C62.029 27.1182 62.0857 27.1682 62.1544 27.1952C65.9778 28.5708 65.743 31.074 66.2752 31.6686C66.3901 31.7972 67.1421 32.0719 66.9562 31.0146C66.581 28.8814 64.5042 26.7756 62.2859 26.6039Z" fill="#191919"/>
<path d="M70.1139 24.0843C71.6002 27.642 71.6734 28.52 71.5769 32.3683C71.5658 32.7999 72.2245 32.9732 72.3411 32.5318C73.0165 29.9768 72.2256 25.8828 70.6672 23.7267C70.4374 23.4085 69.9768 23.7567 70.1139 24.0843Z" fill="#191919"/>
<path d="M67.6807 25.219C67.5936 26.1859 66.972 26.1782 66.3626 26.3581C65.6011 26.5826 66.0329 26.7892 66.3626 26.8671C66.6162 26.9374 66.8836 26.9438 67.1404 26.8859C67.3972 26.8279 67.635 26.7075 67.8319 26.5356C68.0288 26.3637 68.1785 26.146 68.2672 25.9024C68.3559 25.6588 68.3808 25.3972 68.3395 25.1417C68.2474 24.7155 67.7179 24.8054 67.6807 25.219Z" fill="#191919"/>
<path d="M94.9494 11.7677C95.793 11.722 95.5466 10.4532 94.7118 10.4995C88.6806 10.8352 82.5462 10.4777 76.6999 10.8363C76.0339 10.8767 76.151 11.8669 76.7554 11.9361C80.2413 12.3351 91.545 11.9569 94.9494 11.7677Z" fill="#191919"/>
<path d="M104.755 3.85613C97.5684 3.62287 82.4158 3.69263 75.7381 4.3826C75.193 4.4371 75.0437 5.42192 75.6986 5.4181C83.3427 5.37123 95.9445 4.8682 104.878 5.1456C105.73 5.17285 105.59 3.88338 104.755 3.85613Z" fill="#191919"/>
<path d="M103.863 21.906C95.1594 22.6145 84.7282 21.7321 76.7967 22.6739C76.1684 22.7485 76.326 23.7988 76.9721 23.7639C84.0533 23.348 94.5445 23.6467 103.898 23.2118C104.741 23.1698 104.719 21.8362 103.863 21.906Z" fill="#191919"/>
<path d="M93.8419 27.9632C89.7732 27.7245 80.7683 27.7506 77.3584 27.9152C76.7213 27.9463 76.6291 29.0014 77.2923 29.0412C82.3712 29.3475 87.915 29.3317 93.7664 29.2139C94.4568 29.2003 94.6017 28.0073 93.8419 27.9632Z" fill="#191919"/>
</svg>
