<svg width="94" height="92" viewBox="0 0 94 92" fill="none" xmlns="http://www.w3.org/2000/svg">
<path d="M15.4334 27.3663C15.0671 24.7672 15.2666 24.638 14.9182 24.4856C14.5955 24.3574 14.4921 24.6588 14.0803 24.8612C13.6923 25.0517 13.6112 24.8548 13.3741 25.0354C13.3008 25.1012 13.2538 25.1914 13.242 25.2893C13.1429 26.3471 13.1954 27.4136 13.3979 28.4566C13.3857 28.4898 13.3826 28.5257 13.3889 28.5605C13.3953 28.5953 13.4108 28.6278 13.434 28.6546C13.7034 29.0742 14.1142 29.3834 14.5921 29.5261C14.7018 29.5614 14.8179 29.5721 14.9322 29.5574C15.0465 29.5427 15.1562 29.503 15.2534 29.4411C15.3506 29.3792 15.4329 29.2966 15.4946 29.1992C15.5562 29.1019 15.5957 28.9921 15.61 28.8777C15.6212 28.3682 15.5617 27.8596 15.4334 27.3663Z" fill="#3373CC"/>
<path d="M12.7383 22.802C12.5928 23.6795 13.8419 24.0333 14.4501 23.4667C14.6871 23.2459 14.5144 22.9475 14.2106 23.0534C14.0126 23.1232 13.2609 23.0227 13.1807 22.7604C13.0975 22.4858 12.7897 22.4897 12.7383 22.802Z" fill="#191919"/>
<path d="M13.7227 21.1831C13.7227 21.3238 13.7576 21.4588 13.8199 21.5583C13.8822 21.6577 13.9667 21.7136 14.0547 21.7136C14.1428 21.7136 14.2273 21.6577 14.2895 21.5583C14.3518 21.4588 14.3868 21.3238 14.3868 21.1831C14.3868 21.0424 14.3518 20.9075 14.2895 20.808C14.2273 20.7085 14.1428 20.6526 14.0547 20.6526C13.9667 20.6526 13.8822 20.7085 13.8199 20.808C13.7576 20.9075 13.7227 21.0424 13.7227 21.1831Z" fill="#191919"/>
<path d="M15.4673 33.3279C15.5762 33.7653 15.9414 35.6539 16.3656 35.5494C16.8323 35.4465 16.3532 33.8138 16.1617 33.0591C16.085 32.7563 15.838 31.815 15.7306 31.5527C15.5213 31.086 15.3936 30.7178 15.1561 30.792C14.7319 30.9118 15.1937 32.2267 15.4673 33.3279Z" fill="#3373CC"/>
<path d="M18.5204 32.7972C18.753 33.345 18.9351 33.9107 19.143 34.4521C19.4067 35.1405 19.5087 35.388 19.7418 35.3311C20.2981 35.195 19.4236 33.0343 19.2029 32.5102C18.9707 31.9361 18.6862 31.3846 18.3531 30.8627C18.1166 30.5504 17.739 30.0441 17.5153 30.2045C17.1881 30.4123 17.8582 31.2363 18.5204 32.7972Z" fill="#3373CC"/>
<path d="M9.42221 43.4002C9.53591 41.4308 9.76361 39.4695 10.1042 37.5264C10.1159 37.4648 10.1029 37.401 10.0679 37.3489C10.033 37.2969 9.97885 37.2607 9.91737 37.2484C9.85589 37.236 9.79201 37.2483 9.7396 37.2828C9.6872 37.3172 9.6505 37.371 9.63749 37.4323C9.23877 39.3848 8.9629 41.3603 8.81151 43.3473C8.81151 43.9095 8.92781 43.5121 10.8708 46.6393C11.4572 47.5687 12.009 48.5145 12.5465 49.4632L8.84715 53.3293C1.84986 49.7487 -1.22838 43.3834 2.03495 36.0214C3.27218 33.2005 5.26808 31.2026 7.47035 29.0325C7.50519 28.9976 7.53269 28.956 7.55122 28.9103C7.56975 28.8646 7.57894 28.8156 7.57824 28.7663C7.52083 26.4299 7.32486 23.65 7.93753 21.3701C8.09023 20.7384 8.29857 20.1215 8.56011 19.5266C10.2774 15.8961 15.0684 15.4462 15.2907 17.7915C15.2931 17.8198 15.301 17.8474 15.3141 17.8726C15.3271 17.8978 15.345 17.9202 15.3667 17.9385C15.3884 17.9569 15.4135 17.9707 15.4406 17.9793C15.4677 17.9879 15.4962 17.9911 15.5245 17.9887C15.5528 17.9863 15.5803 17.9784 15.6056 17.9653C15.6308 17.9523 15.6532 17.9344 15.6715 17.9126C15.6898 17.8909 15.7037 17.8658 15.7123 17.8388C15.7209 17.8117 15.7241 17.7832 15.7217 17.7549C15.5668 15.5774 12.7231 15.4131 10.7654 16.3959C9.55125 17.0189 8.56845 18.0142 7.96079 19.2361C6.51373 22.1208 6.7775 25.8479 6.84728 28.6252C5.55456 29.8419 4.35411 31.153 3.25585 32.5477C0.231556 36.541 -1.0423 41.8864 0.982804 46.525C2.3596 49.6804 5.10081 52.2846 8.7645 54.0969C8.83291 54.1312 8.91054 54.1428 8.98599 54.1298C9.06144 54.1168 9.13073 54.0799 9.18367 54.0246C9.73399 53.4609 12.4277 50.6163 13.2418 49.7621C13.2929 49.7064 13.3251 49.636 13.334 49.561C13.3429 49.4859 13.3279 49.41 13.2913 49.3439C12.1522 47.2686 10.8589 45.2818 9.42221 43.4002Z" fill="#191919"/>
<path d="M27.3435 36.515C26.4962 34.7769 26.5596 34.9214 26.1102 34.1153C23.9599 30.3991 20.8886 26.6835 16.6177 27.1605C16.5374 26.1005 16.3729 25.0485 16.1258 24.0145C16.0744 23.8728 16.0191 23.7325 15.96 23.5938C16.0184 23.3621 16.0538 23.1253 16.0659 22.8866L16.9037 22.5402C16.9907 22.5001 17.0584 22.4273 17.092 22.3376C17.1257 22.2479 17.1226 22.1486 17.0834 22.0612C16.253 20.1365 15.7388 18.8973 14.5931 17.4878C14.53 17.3951 14.4398 17.3242 14.3348 17.2846C14.2298 17.2451 14.1152 17.239 14.0066 17.2671C13.5451 17.4602 13.1322 17.7533 12.7976 18.1253C12.1749 18.9179 11.8004 19.8769 11.7212 20.8818C11.7175 20.9241 11.7214 20.9666 11.7326 21.0075C11.1961 23.0549 11.5025 25.277 12.1404 27.2778C12.2982 27.7164 12.5426 28.1187 12.859 28.4609C13.1755 28.8031 13.5575 29.0782 13.9824 29.2698C15.5576 30.023 15.9897 28.9684 15.3715 27.5084C15.3505 27.4481 15.3063 27.3985 15.2487 27.3707C15.1911 27.3429 15.1248 27.3392 15.0645 27.3602C15.0041 27.3813 14.9546 27.4255 14.9268 27.4831C14.899 27.5406 14.8952 27.6069 14.9162 27.6673C14.986 27.9058 15.1305 28.665 14.9524 28.8392C14.8272 28.9327 13.2598 28.3443 12.8451 27.0576C12.2257 25.189 12.0311 23.2058 12.2755 21.2525C12.7099 21.1625 13.1229 20.9898 13.4919 20.7437C14.1328 20.387 14.6488 19.8422 14.9702 19.1829C15.3166 19.9118 15.2508 19.6985 16.2693 22.0087L15.5512 22.2982C15.4859 22.3277 15.4306 22.3755 15.392 22.4359C15.3534 22.4963 15.3333 22.5666 15.3339 22.6382C15.3339 23.8754 14.7297 24.7905 13.5142 25.0013C13.4387 25.0131 13.3693 25.0499 13.3172 25.1058C13.2651 25.1617 13.2332 25.2335 13.2267 25.3096C13.1588 26.0087 13.179 26.7135 13.2866 27.4075C13.2938 27.4696 13.3249 27.5264 13.3734 27.566C13.4218 27.6055 13.4837 27.6246 13.546 27.6193C13.6083 27.614 13.6661 27.5846 13.7071 27.5374C13.7481 27.4902 13.7691 27.4288 13.7656 27.3664C13.7629 26.7903 13.803 26.2148 13.8854 25.6447C14.5386 25.5075 15.1167 25.1305 15.5057 24.5881C15.5646 24.9459 15.6645 25.6922 15.9446 26.918C16.0397 27.2397 16.1268 27.6495 16.4034 27.5856C16.5271 27.6559 16.689 27.5559 17.6683 27.7138C22.2842 28.4562 24.5607 33.031 26.9228 36.7466C26.9374 36.7744 26.9575 36.799 26.9818 36.8189C27.0062 36.8388 27.0343 36.8535 27.0645 36.8623C27.0947 36.871 27.1263 36.8736 27.1575 36.8698C27.1887 36.866 27.2188 36.8559 27.246 36.8401C27.3007 36.8086 27.3412 36.7574 27.3593 36.6969C27.3774 36.6365 27.3718 36.5714 27.3435 36.515Z" fill="#191919"/>
<path d="M9.90068 54.0782C9.94234 54.2579 10.0109 54.4303 10.1041 54.5895C10.3717 54.924 10.7169 55.1882 11.1097 55.359C11.3795 55.5134 11.685 55.5946 11.9958 55.5946C12.3066 55.5946 12.6121 55.5134 12.8819 55.359C12.942 55.34 12.9921 55.2979 13.0212 55.2419C13.0502 55.1859 13.0558 55.1207 13.0368 55.0606C13.0178 55.0005 12.9757 54.9504 12.9197 54.9214C12.8637 54.8923 12.7985 54.8867 12.7384 54.9057C12.5982 54.9091 12.4579 54.9003 12.3192 54.8795C12.2232 54.8735 12.1396 54.8716 12.0436 54.8602C11.6013 54.802 11.1854 54.6167 10.8464 54.3267C10.7628 54.2653 10.7029 54.1995 10.6311 54.1362C10.6108 54.1198 10.3273 53.904 10.2847 53.865C10.2564 53.814 10.2091 53.7764 10.1531 53.7604C10.097 53.7444 10.037 53.7513 9.98605 53.7796C9.93512 53.8079 9.89751 53.8552 9.8815 53.9112C9.8655 53.9672 9.87239 54.0273 9.90068 54.0782Z" fill="#191919"/>
<path d="M12.4739 54.1628C12.5359 54.2571 12.6128 54.3407 12.7016 54.4103C12.9264 54.5302 13.1687 54.6137 13.4197 54.6577C13.5987 54.7203 13.7896 54.7418 13.978 54.7205C14.1665 54.6993 14.3478 54.6359 14.5084 54.535C14.5398 54.5294 14.5698 54.5176 14.5965 54.5002C14.6233 54.4828 14.6463 54.4603 14.6642 54.4338C14.6821 54.4074 14.6946 54.3777 14.7008 54.3464C14.707 54.3152 14.7069 54.2829 14.7005 54.2517C14.6941 54.2204 14.6815 54.1908 14.6635 54.1645C14.6454 54.1382 14.6223 54.1157 14.5954 54.0985C14.5686 54.0813 14.5386 54.0696 14.5071 54.0642C14.4757 54.0587 14.4435 54.0596 14.4124 54.0668C14.3169 54.0525 14.2333 54.006 14.1372 53.9931C13.9576 53.9703 13.778 53.9713 13.5983 53.9387C13.3424 53.8931 13.0851 53.7902 12.9159 53.7734C12.8203 53.764 12.7605 53.7813 12.6768 53.7768C12.6513 53.7598 12.6224 53.7483 12.5921 53.7431C12.5619 53.7379 12.5308 53.7392 12.5011 53.7468C12.4713 53.7544 12.4435 53.7681 12.4194 53.7871C12.3952 53.8062 12.3754 53.83 12.3611 53.8572C12.3468 53.8844 12.3384 53.9143 12.3364 53.9449C12.3344 53.9756 12.3389 54.0063 12.3495 54.0351C12.3601 54.064 12.3767 54.0902 12.3981 54.1122C12.4196 54.1342 12.4454 54.1515 12.4739 54.1628Z" fill="#191919"/>
<path d="M12.7505 51.1836C12.7533 51.3643 12.7856 51.5433 12.846 51.7137C13.0294 52.0673 13.2627 52.3926 13.5389 52.6797C13.8816 53.1395 14.3721 53.4673 14.928 53.6081C14.984 53.6382 15.0497 53.6449 15.1105 53.6266C15.1714 53.6083 15.2226 53.5666 15.2527 53.5106C15.2828 53.4546 15.2895 53.389 15.2712 53.3281C15.2529 53.2672 15.2112 53.2161 15.1552 53.186C15.0473 53.0919 14.9651 52.9727 14.8439 52.8658C14.302 52.4511 13.8328 51.9494 13.4552 51.3811C13.4364 51.3573 13.1816 51.0723 13.1677 51.049C13.1483 50.9952 13.1088 50.951 13.0574 50.9258C13.006 50.9006 12.9468 50.8964 12.8924 50.9141C12.838 50.9318 12.7926 50.97 12.7658 51.0206C12.739 51.0712 12.733 51.1302 12.749 51.1851L12.7505 51.1836Z" fill="#191919"/>
<path d="M17.8861 88.2367C17.1596 87.5542 16.2658 87.4008 15.2399 87.2964C14.0482 87.1999 12.8688 87.1746 12.5858 87.1796C12.5684 86.9322 12.5363 86.6971 12.5051 86.4971C12.6823 86.5061 12.8599 86.513 13.0371 86.5164C13.1183 86.5177 13.1976 86.492 13.2626 86.4433C13.3276 86.3947 13.3746 86.3259 13.3964 86.2477C14.5465 82.2322 15.2656 77.7222 15.9104 73.5359C16.4504 70.087 16.9141 67.0286 17.1318 63.543C17.136 63.4716 17.1173 63.4007 17.0785 63.3405C17.0397 63.2804 16.9829 63.2342 16.9161 63.2085C14.3288 62.3033 12.9203 59.1132 12.8218 56.372H12.8456C12.8453 56.3373 12.8378 56.3031 12.8234 56.2716C12.8091 56.24 12.7882 56.2118 12.7623 56.1888C12.7364 56.1658 12.7059 56.1485 12.6728 56.138C12.6398 56.1276 12.6049 56.1242 12.5704 56.128C12.1585 56.1769 11.741 56.1363 11.3462 56.0088C10.9515 55.8814 10.589 55.6702 10.2835 55.3897C10.2457 55.3429 10.193 55.3105 10.1341 55.298C10.0753 55.2855 10.0139 55.2935 9.96035 55.3209C9.50851 55.548 10.2221 55.89 10.3563 60.3292C10.4191 62.8116 10.2439 65.2519 10.2246 67.5096C10.1256 73.6408 10.0915 79.6345 9.30313 85.7682C9.29026 85.8639 9.31567 85.961 9.37385 86.0381C9.43203 86.1153 9.51829 86.1664 9.61392 86.1804L9.82029 86.2116C9.67422 86.524 9.59018 86.8619 9.57285 87.2063C9.1758 87.5191 8.86497 87.9279 8.66967 88.3941C8.20546 89.4294 8.40045 90.629 9.59116 90.9814C10.868 91.3431 12.318 91.1679 13.5899 91.1298C14.8152 91.0902 16.0173 91.1858 17.2412 90.8329C17.5127 90.7728 17.7619 90.6382 17.961 90.4442C18.1601 90.2502 18.3011 90.0044 18.3681 89.7346C18.4351 89.4648 18.4255 89.1817 18.3404 88.917C18.2552 88.6524 18.0979 88.4168 17.8861 88.2367ZM11.9993 86.4679C11.942 86.7487 11.9048 87.0331 11.888 87.3192C11.3598 87.4441 10.8093 87.4392 10.2835 87.3048C10.2835 87.1029 10.3424 86.7812 10.329 86.2863C10.8858 86.363 11.4322 86.4254 11.9993 86.4679ZM17.6604 89.5477C17.4001 90.5112 15.2255 90.3395 13.5661 90.3949C12.3522 90.4365 10.9348 90.6057 9.78268 90.2959C8.7058 90.0208 9.08389 88.4624 9.66787 87.7467C10.1266 88.3406 12.4002 88.2416 12.5828 87.6587C12.6818 87.6587 13.9403 87.8071 14.1407 87.8329C14.9809 87.8941 15.8118 88.0471 16.6186 88.2892C17.1868 88.5084 17.8227 88.9647 17.6604 89.5477Z" fill="#191919"/>
<path d="M33.3647 86.619C32.6382 85.9355 31.7414 85.7826 30.719 85.6787C29.2774 85.5624 28.8344 85.5861 28.0852 85.5619C28.0273 85.5619 28.1084 85.6064 27.9743 84.824C28.0405 84.8158 28.1016 84.784 28.1463 84.7345C28.191 84.685 28.2164 84.621 28.2178 84.5543C28.3628 78.7437 28.2321 78.1098 27.4997 70.1836C27.1429 66.6139 26.9702 65.634 26.6015 63.0492C26.5953 63.0009 26.5794 62.9544 26.5547 62.9125C26.5301 62.8705 26.4971 62.834 26.458 62.8052C26.4188 62.7764 26.3741 62.7558 26.3267 62.7448C26.2793 62.7337 26.2302 62.7324 26.1823 62.7409C24.6114 63.0657 22.9984 63.1347 21.4056 62.9453C21.3455 62.9345 21.2838 62.9387 21.2257 62.9574C21.1677 62.976 21.1151 63.0086 21.0725 63.0524C21.03 63.0961 20.9988 63.1495 20.9817 63.2081C20.9647 63.2666 20.9622 63.3285 20.9745 63.3882C21.8104 67.1034 24.997 80.8579 24.997 84.6636C25.0009 84.7176 25.0224 84.7688 25.0582 84.8093C25.0939 84.8499 25.142 84.8777 25.195 84.8883C25.1046 85.1108 25.0556 85.348 25.0505 85.5881C24.6532 85.9017 24.3423 86.3113 24.1473 86.7783C23.6831 87.8131 23.8781 89.0128 25.0688 89.3651C26.3501 89.7279 27.8095 89.5517 29.0675 89.5136C30.281 89.4745 31.4955 89.57 32.7193 89.2167C32.9913 89.157 33.2411 89.0226 33.4406 88.8285C33.6402 88.6344 33.7815 88.3884 33.8486 88.1182C33.9157 87.848 33.906 87.5645 33.8205 87.2996C33.735 87.0346 33.5771 86.7989 33.3647 86.619ZM27.4794 84.8374C27.4219 85.1218 27.3842 85.4098 27.3666 85.6995C26.8388 85.825 26.2885 85.8209 25.7626 85.6876C25.7626 85.5391 25.8121 85.1432 25.8121 84.8809L27.4794 84.8374ZM33.137 87.9294C32.8767 88.893 30.7017 88.7213 29.0428 88.7767C27.8293 88.8183 26.4124 88.9875 25.2598 88.6777C24.1824 88.4026 24.561 86.8466 25.1445 86.1285C25.6013 86.7224 27.8763 86.6234 28.0594 86.0409C28.1584 86.0409 29.4169 86.1894 29.6173 86.2146C30.4577 86.276 31.2888 86.4291 32.0958 86.6714C32.6659 86.8887 33.3013 87.3465 33.137 87.9309V87.9294Z" fill="#191919"/>
<path d="M18.5874 45.1979C18.7432 45.1801 18.9008 45.1868 19.0546 45.2177C19.1817 45.2485 19.3007 45.3065 19.4032 45.3878C19.5057 45.469 19.5894 45.5716 19.6485 45.6883C19.8457 46.1118 19.9337 46.578 19.9043 47.0443C19.9043 47.7124 19.8405 48.3063 19.2689 48.723C19.1073 48.8279 18.9235 48.894 18.7321 48.9159C18.5407 48.9379 18.3468 48.9153 18.1656 48.8497C17.9844 48.7842 17.8208 48.6775 17.6878 48.5382C17.5547 48.3988 17.4558 48.2305 17.3987 48.0465C17.0795 47.272 17.1626 45.8303 17.8698 45.3587C17.9721 45.2844 18.0886 45.2317 18.212 45.2041C18.3354 45.1764 18.4631 45.1743 18.5874 45.1979ZM18.5602 45.6329C17.9376 45.6522 17.8485 46.9587 18.0014 47.5536C18.0198 47.7108 18.088 47.858 18.196 47.9738C18.304 48.0895 18.4462 48.1677 18.6018 48.1969C18.6589 48.2012 18.7163 48.1927 18.7697 48.1719C18.8231 48.1512 18.8712 48.1188 18.9106 48.0772C19.1239 47.7784 19.2226 47.4128 19.1887 47.0473C19.1895 46.7063 19.1623 46.3658 19.1075 46.0293C18.9888 45.7665 18.9893 45.7398 18.6324 45.6591C18.6071 45.6541 18.5828 45.6453 18.5602 45.6329Z" fill="#191919"/>
<path d="M24.5666 44.7103C24.7227 44.6959 24.8802 44.7059 25.0333 44.74C25.1602 44.7732 25.2784 44.8336 25.3797 44.917C25.4809 45.0004 25.5628 45.1048 25.6197 45.223C25.8082 45.6507 25.8865 46.1188 25.8474 46.5845C25.832 47.2521 25.7573 47.8445 25.1768 48.2488C25.0131 48.3504 24.828 48.4126 24.6362 48.4306C24.4444 48.4486 24.251 48.422 24.0713 48.3527C23.8915 48.2834 23.7302 48.1734 23.6001 48.0313C23.47 47.8892 23.3746 47.7188 23.3214 47.5337C23.0186 46.7527 23.1314 45.3136 23.848 44.8568C23.9516 44.7849 24.0687 44.7348 24.1922 44.7096C24.3158 44.6845 24.4431 44.6847 24.5666 44.7103ZM24.5305 45.1448C23.9074 45.1513 23.7911 46.4558 23.9316 47.0536C23.9471 47.211 24.0123 47.3593 24.1179 47.477C24.2234 47.5946 24.3638 47.6755 24.5186 47.7079C24.5757 47.7133 24.6333 47.7059 24.6871 47.6862C24.741 47.6665 24.7898 47.635 24.8299 47.5941C25.0484 47.2995 25.1537 46.9363 25.1268 46.5706C25.1347 46.2297 25.1147 45.8888 25.0669 45.5511C24.9536 45.2864 24.9546 45.2596 24.5997 45.1716C24.5755 45.1656 24.5521 45.1563 24.5305 45.1438V45.1448Z" fill="#191919"/>
<path d="M21.3221 51.4547C21.4784 51.4401 21.636 51.4499 21.7893 51.4839C21.9161 51.5172 22.0343 51.5777 22.1355 51.6611C22.2367 51.7445 22.3187 51.8488 22.3757 51.9669C22.5642 52.3946 22.6425 52.8627 22.6034 53.3284C22.588 53.9965 22.5128 54.5889 21.9328 54.9932C21.769 55.0947 21.584 55.1568 21.3921 55.1748C21.2003 55.1927 21.007 55.166 20.8272 55.0968C20.6474 55.0275 20.4861 54.9175 20.356 54.7755C20.2258 54.6335 20.1303 54.4632 20.0769 54.2781C19.7746 53.4971 19.8874 52.0575 20.604 51.6007C20.7075 51.5288 20.8245 51.4787 20.948 51.4536C21.0715 51.4285 21.1988 51.4289 21.3221 51.4547ZM21.2865 51.8892C20.6634 51.8952 20.5471 53.2002 20.6876 53.7975C20.7029 53.9546 20.7679 54.1027 20.8731 54.2204C20.9783 54.338 21.1182 54.4191 21.2726 54.4518C21.3297 54.4573 21.3872 54.4499 21.4411 54.4303C21.4949 54.4107 21.5437 54.3793 21.5839 54.3385C21.8026 54.0439 21.908 53.6804 21.8808 53.3145C21.8891 52.9738 21.8693 52.633 21.8214 52.2955C21.7081 52.0303 21.7091 52.0036 21.3543 51.9155C21.3305 51.9101 21.3077 51.9013 21.2865 51.8892Z" fill="#191919"/>
<path d="M27.1795 50.9762C27.3358 50.9617 27.4935 50.9717 27.6467 51.0059C27.7736 51.0391 27.8918 51.0995 27.993 51.1829C28.0943 51.2663 28.1762 51.3707 28.2331 51.4889C28.4214 51.9166 28.4996 52.3846 28.4608 52.8503C28.4455 53.5179 28.3702 54.1103 27.7902 54.5151C27.6264 54.6166 27.4413 54.6787 27.2495 54.6967C27.0576 54.7146 26.8642 54.6879 26.6845 54.6185C26.5047 54.5492 26.3434 54.4392 26.2133 54.2971C26.0831 54.155 25.9877 53.9847 25.9344 53.7995C25.632 53.0186 25.7448 51.5794 26.4614 51.1227C26.5649 51.0508 26.6819 51.0007 26.8054 50.9755C26.9289 50.9503 27.0562 50.9505 27.1795 50.9762ZM27.1439 51.4107C26.5203 51.4171 26.4045 52.7217 26.5451 53.3195C26.5605 53.4768 26.6256 53.625 26.7311 53.7427C26.8366 53.8604 26.9769 53.9413 27.1315 53.9737C27.1886 53.9792 27.2461 53.9718 27.3 53.9522C27.3538 53.9326 27.4026 53.9012 27.4428 53.8604C27.6623 53.5661 27.7686 53.2027 27.7422 52.8365C27.7506 52.4957 27.7306 52.1549 27.6823 51.8175C27.5695 51.5522 27.57 51.5255 27.2156 51.4374C27.1905 51.4323 27.1663 51.4233 27.1439 51.4107Z" fill="#191919"/>
<path d="M27.7676 44.5618C27.924 44.5474 28.0816 44.5574 28.2348 44.5915C28.3617 44.6248 28.4798 44.6853 28.5811 44.7686C28.6823 44.852 28.7643 44.9564 28.8213 45.0745C29.0093 45.5023 29.0874 45.9703 29.0484 46.436C29.0331 47.1036 28.9584 47.696 28.3783 48.1008C28.2145 48.2023 28.0294 48.2644 27.8376 48.2823C27.6458 48.3003 27.4524 48.2735 27.2726 48.2042C27.0928 48.1349 26.9315 48.0249 26.8014 47.8828C26.6712 47.7407 26.5758 47.5704 26.5225 47.3852C26.2196 46.6043 26.333 45.1651 27.0491 44.7083C27.1526 44.6364 27.2698 44.5864 27.3933 44.5612C27.5168 44.536 27.6442 44.5362 27.7676 44.5618ZM27.7315 44.9964C27.1084 45.0028 26.9926 46.3073 27.1332 46.9052C27.1486 47.0624 27.2138 47.2107 27.3192 47.3284C27.4247 47.446 27.565 47.527 27.7196 47.5594C27.7767 47.5648 27.8342 47.5575 27.8881 47.5379C27.9419 47.5183 27.9907 47.4869 28.0309 47.4461C28.2505 47.1518 28.3567 46.7883 28.3303 46.4221C28.3387 46.0814 28.3187 45.7406 28.2705 45.4032C28.1571 45.1379 28.1581 45.1112 27.8033 45.0231C27.778 45.0171 27.7538 45.0072 27.7315 44.9939V44.9964Z" fill="#191919"/>
<path d="M35.955 43.8616C36.1113 43.8472 36.2689 43.8571 36.4222 43.8908C37.1546 44.0556 37.2482 44.9919 37.2482 45.7397C37.2482 48.0088 35.2349 48.0741 34.698 46.6914C34.401 45.9322 34.5089 44.4837 35.2369 44.0081C35.3405 43.9364 35.4576 43.8865 35.581 43.8614C35.7044 43.8362 35.8316 43.8363 35.955 43.8616ZM35.9194 44.304C35.3008 44.31 35.1939 45.6125 35.3324 46.2074C35.4062 46.5236 35.5601 46.8082 35.907 46.8567C35.9621 46.8622 36.0178 46.8551 36.0698 46.8357C36.1217 46.8163 36.1684 46.7852 36.2064 46.7448C36.4381 46.4583 36.5497 46.093 36.5177 45.7258C36.523 45.3852 36.4989 45.0448 36.4459 44.7083C36.4098 44.5836 36.3682 44.45 36.2183 44.398C36.1391 44.3684 35.959 44.3253 35.9194 44.304Z" fill="#191919"/>
<path d="M33.8935 50.2125C34.0498 50.1979 34.2073 50.2076 34.3607 50.2412C35.0931 50.406 35.1866 51.3423 35.1866 52.0901C35.1866 54.3597 33.1739 54.4245 32.6365 53.0418C32.3395 52.2826 32.4474 50.8341 33.1754 50.3585C33.279 50.2868 33.396 50.2369 33.5195 50.2118C33.6429 50.1867 33.7701 50.1869 33.8935 50.2125ZM33.8579 50.6544C33.2392 50.6604 33.1323 51.9629 33.2709 52.5578C33.3446 52.874 33.4986 53.1586 33.8455 53.2076C33.9006 53.213 33.9563 53.2058 34.0082 53.1864C34.0601 53.167 34.1068 53.136 34.1449 53.0957C34.3768 52.8091 34.4884 52.4436 34.4562 52.0762C34.4614 51.7358 34.4374 51.3956 34.3844 51.0592C34.3766 50.9922 34.3515 50.9284 34.3117 50.8739C34.2719 50.8195 34.2187 50.7763 34.1573 50.7484C34.0781 50.7188 33.8979 50.6762 33.8584 50.6544H33.8579Z" fill="#191919"/>
<path d="M21.3782 46.5049C21.3426 46.5484 21.3065 46.592 21.2708 46.6375C21.2452 46.69 21.1997 46.7302 21.1444 46.7491C21.0892 46.7681 21.0286 46.7644 20.9761 46.7387C20.9236 46.713 20.8835 46.6676 20.8645 46.6123C20.8455 46.557 20.8493 46.4965 20.8749 46.444C20.9521 45.9928 21.1191 45.5616 21.3659 45.1761C21.4033 45.1081 21.4618 45.0542 21.5326 45.0224C21.6034 44.9906 21.6826 44.9827 21.7583 44.9998C21.834 45.017 21.902 45.0582 21.9522 45.1174C22.0024 45.1766 22.0319 45.2505 22.0364 45.328C22.2403 48.0326 22.1027 48.0385 22.0726 48.5448C22.0742 48.6081 22.0514 48.6696 22.0091 48.7166C21.9668 48.7636 21.908 48.7927 21.8449 48.7977C21.8135 48.8002 21.782 48.7963 21.7521 48.7863C21.7223 48.7762 21.6948 48.7603 21.6713 48.7393C21.6478 48.7184 21.6288 48.6929 21.6154 48.6644C21.6021 48.6359 21.5946 48.605 21.5935 48.5735C21.4162 47.8991 21.3436 47.2014 21.3782 46.5049Z" fill="#191919"/>
<path d="M18.1351 53.2497C18.0994 53.2938 18.0633 53.3373 18.0277 53.3829C18.002 53.4354 17.9565 53.4755 17.9013 53.4945C17.846 53.5135 17.7855 53.5097 17.733 53.4841C17.6805 53.4584 17.6403 53.413 17.6213 53.3577C17.6023 53.3024 17.6061 53.2419 17.6318 53.1894C17.7089 52.738 17.8758 52.3067 18.1227 51.921C18.1601 51.853 18.2187 51.799 18.2895 51.7673C18.3602 51.7355 18.4394 51.7275 18.5151 51.7447C18.5908 51.7618 18.6589 51.8031 18.709 51.8623C18.7592 51.9215 18.7888 51.9954 18.7933 52.0729C18.9972 54.778 18.8596 54.7839 18.8289 55.2897C18.8305 55.3529 18.8079 55.4143 18.7656 55.4613C18.7234 55.5083 18.6647 55.5374 18.6017 55.5426C18.5704 55.5451 18.5388 55.5413 18.509 55.5313C18.4792 55.5214 18.4517 55.5054 18.4282 55.4845C18.4047 55.4636 18.3857 55.4382 18.3723 55.4097C18.3589 55.3812 18.3514 55.3503 18.3503 55.3189C18.1731 54.6443 18.1005 53.9464 18.1351 53.2497Z" fill="#191919"/>
<path d="M23.992 52.7717C23.9564 52.8153 23.9202 52.8588 23.8841 52.9043C23.8714 52.9303 23.8537 52.9536 23.832 52.9727C23.8103 52.9919 23.7851 53.0066 23.7577 53.016C23.7304 53.0254 23.7014 53.0293 23.6725 53.0275C23.6436 53.0257 23.6154 53.0183 23.5894 53.0056C23.5634 52.9928 23.5402 52.9751 23.521 52.9535C23.5019 52.9318 23.4872 52.9065 23.4778 52.8792C23.4684 52.8518 23.4645 52.8228 23.4662 52.794C23.468 52.7651 23.4755 52.7368 23.4882 52.7108C23.5654 52.2596 23.7324 51.8285 23.9791 51.4429C24.0166 51.375 24.0751 51.321 24.1459 51.2892C24.2167 51.2574 24.2959 51.2495 24.3716 51.2667C24.4473 51.2838 24.5153 51.3251 24.5655 51.3843C24.6156 51.4435 24.6452 51.5174 24.6497 51.5949C24.8531 54.2995 24.716 54.3054 24.6853 54.8117C24.6869 54.8749 24.6643 54.9363 24.6221 54.9833C24.5798 55.0303 24.5212 55.0594 24.4582 55.0646C24.4268 55.067 24.3953 55.0632 24.3654 55.0531C24.3356 55.0431 24.3081 55.0271 24.2846 55.0062C24.2611 54.9852 24.2421 54.9597 24.2287 54.9312C24.2154 54.9027 24.2079 54.8718 24.2068 54.8404C24.0297 54.1659 23.9572 53.4682 23.992 52.7717Z" fill="#191919"/>
<path d="M30.6139 45.6779C30.5778 45.7175 30.554 45.7576 30.5179 45.7987C30.5049 45.8247 30.4869 45.8479 30.465 45.8669C30.443 45.8859 30.4175 45.9005 30.3899 45.9097C30.3624 45.9189 30.3333 45.9225 30.3043 45.9205C30.2753 45.9184 30.247 45.9107 30.221 45.8977C30.195 45.8847 30.1718 45.8667 30.1528 45.8447C30.1337 45.8228 30.1192 45.7973 30.11 45.7697C30.1008 45.7421 30.0971 45.713 30.0992 45.684C30.1012 45.655 30.109 45.6267 30.122 45.6007C30.1997 45.1509 30.3621 44.72 30.6006 44.3308C30.6404 44.2626 30.7009 44.2089 30.7733 44.1773C30.8457 44.1457 30.9263 44.138 31.0033 44.1552C31.0804 44.1723 31.1501 44.2136 31.2022 44.2729C31.2543 44.3322 31.2863 44.4066 31.2934 44.4852C31.3924 45.7957 31.3894 46.4039 31.3894 47.1245C31.3657 47.316 31.3399 47.5011 31.3177 47.701C31.3197 47.7329 31.3154 47.7648 31.305 47.795C31.2946 47.8252 31.2784 47.8531 31.2573 47.877C31.2361 47.9009 31.2105 47.9204 31.1818 47.9344C31.1531 47.9483 31.1219 47.9565 31.09 47.9584C31.0252 47.9615 30.9617 47.9395 30.9127 47.897C30.8637 47.8546 30.8329 47.7948 30.8267 47.7303C30.6596 47.0596 30.588 46.3686 30.6139 45.6779Z" fill="#191919"/>
<path d="M36.8698 51.4583C36.8337 51.4984 36.8099 51.538 36.7738 51.5796C36.7608 51.6056 36.7428 51.6287 36.7208 51.6478C36.6989 51.6668 36.6734 51.6814 36.6458 51.6906C36.6182 51.6997 36.5891 51.7034 36.5601 51.7014C36.5311 51.6993 36.5028 51.6915 36.4768 51.6785C36.4508 51.6655 36.4277 51.6476 36.4086 51.6256C36.3896 51.6036 36.375 51.5781 36.3658 51.5506C36.3567 51.523 36.353 51.4939 36.355 51.4649C36.3571 51.4359 36.3649 51.4076 36.3779 51.3816C36.4554 50.9319 36.6178 50.5012 36.8564 50.1122C36.8961 50.0437 36.9565 49.9896 37.029 49.9579C37.1015 49.9261 37.1822 49.9182 37.2594 49.9354C37.3367 49.9526 37.4064 49.994 37.4586 50.0536C37.5107 50.1131 37.5425 50.1878 37.5493 50.2666C37.6482 51.5766 37.6453 52.1853 37.6453 52.9054C37.6215 53.0969 37.5958 53.2825 37.5735 53.4819C37.5757 53.5138 37.5715 53.5458 37.5611 53.5761C37.5508 53.6063 37.5346 53.6342 37.5134 53.6582C37.4923 53.6821 37.4666 53.7016 37.4378 53.7155C37.409 53.7294 37.3778 53.7375 37.3459 53.7393C37.2811 53.7424 37.2177 53.7205 37.1687 53.6781C37.1197 53.6357 37.0889 53.5761 37.0826 53.5116C36.9152 52.8406 36.8435 52.1494 36.8698 51.4583Z" fill="#191919"/>
<path d="M32.7721 45.5164C32.736 45.556 32.7122 45.5956 32.6761 45.6372C32.6631 45.6632 32.6451 45.6864 32.6232 45.7054C32.6012 45.7244 32.5757 45.739 32.5482 45.7482C32.5206 45.7574 32.4915 45.761 32.4625 45.759C32.4335 45.7569 32.4052 45.7492 32.3792 45.7362C32.3532 45.7232 32.33 45.7052 32.311 45.6832C32.2919 45.6613 32.2774 45.6358 32.2682 45.6082C32.259 45.5806 32.2553 45.5515 32.2574 45.5225C32.2595 45.4935 32.2672 45.4652 32.2802 45.4392C32.3578 44.9896 32.5202 44.5588 32.7588 44.1698C32.7984 44.1013 32.8589 44.0473 32.9313 44.0155C33.0038 43.9837 33.0845 43.9758 33.1618 43.993C33.239 44.0103 33.3088 44.0516 33.3609 44.1112C33.413 44.1708 33.4448 44.2454 33.4516 44.3242C33.5506 45.6347 33.5476 46.2429 33.5476 46.963C33.5239 47.155 33.4981 47.3401 33.4759 47.5395C33.4779 47.5714 33.4737 47.6034 33.4634 47.6337C33.453 47.6639 33.4368 47.6919 33.4157 47.7158C33.3945 47.7398 33.3688 47.7593 33.3401 47.7733C33.3113 47.7873 33.2801 47.7955 33.2482 47.7974C33.1834 47.8005 33.1199 47.7785 33.0709 47.736C33.0219 47.6935 32.9911 47.6338 32.9849 47.5692C32.8172 46.8985 32.7455 46.2073 32.7721 45.5164Z" fill="#191919"/>
<path d="M30.7106 51.8669C30.6745 51.9065 30.6507 51.9466 30.6146 51.9876C30.6016 52.0136 30.5836 52.0368 30.5616 52.0559C30.5397 52.0749 30.5142 52.0894 30.4866 52.0986C30.4591 52.1078 30.4299 52.1115 30.4009 52.1094C30.372 52.1074 30.3437 52.0996 30.3177 52.0866C30.2917 52.0736 30.2685 52.0556 30.2494 52.0337C30.2304 52.0117 30.2159 51.9862 30.2067 51.9587C30.1975 51.9311 30.1938 51.902 30.1959 51.873C30.1979 51.844 30.2057 51.8157 30.2187 51.7897C30.2961 51.3399 30.4586 50.9089 30.6972 50.5198C30.7371 50.4516 30.7976 50.3979 30.87 50.3663C30.9424 50.3347 31.0229 50.3269 31.1 50.3441C31.1771 50.3613 31.2467 50.4025 31.2989 50.4619C31.351 50.5212 31.383 50.5955 31.3901 50.6742C31.4891 51.9847 31.4861 52.5929 31.4861 53.3135C31.4623 53.505 31.4366 53.6901 31.4143 53.89C31.4163 53.9219 31.4121 53.9538 31.4017 53.984C31.3913 54.0142 31.3751 54.0421 31.354 54.066C31.3328 54.0899 31.3071 54.1094 31.2784 54.1233C31.2497 54.1373 31.2186 54.1455 31.1867 54.1474C31.1219 54.1505 31.0584 54.1285 31.0094 54.086C30.9603 54.0435 30.9296 53.9838 30.9234 53.9192C30.756 53.2486 30.6843 52.5576 30.7106 51.8669Z" fill="#191919"/>
<path d="M33.7969 5.24999C33.7969 5.62787 33.947 5.99027 34.2142 6.25748C34.4814 6.52468 34.8438 6.67479 35.2217 6.67479C35.5996 6.67479 35.962 6.52468 36.2292 6.25748C36.4964 5.99027 36.6465 5.62787 36.6465 5.24999C36.6465 4.87211 36.4964 4.50971 36.2292 4.24251C35.962 3.97531 35.5996 3.8252 35.2217 3.8252C34.8438 3.8252 34.4814 3.97531 34.2142 4.24251C33.947 4.50971 33.7969 4.87211 33.7969 5.24999Z" fill="#3373CC"/>
<path d="M35.2219 3.58461C34.9925 3.56496 34.7615 3.59371 34.5439 3.669C34.3264 3.74428 34.127 3.86443 33.9588 4.02165C33.7906 4.17888 33.6574 4.36968 33.5676 4.58169C33.4778 4.7937 33.4336 5.02221 33.4378 5.2524C33.4336 5.54716 33.5027 5.83835 33.6388 6.09985C33.7749 6.36135 33.9737 6.585 34.2175 6.75075C34.4613 6.9165 34.7424 7.01917 35.0356 7.04955C35.3288 7.07994 35.625 7.03709 35.8976 6.92485C36.1701 6.81261 36.4106 6.63448 36.5974 6.40644C36.7842 6.17839 36.9115 5.90756 36.9679 5.61821C37.0243 5.32886 37.008 5.03005 36.9205 4.74854C36.833 4.46704 36.677 4.21165 36.4665 4.00527C36.2976 3.85648 36.0999 3.74395 35.8857 3.67466C35.6716 3.60536 35.4454 3.58078 35.2214 3.60243L35.2219 3.58461ZM35.2219 4.05031C35.5132 4.09179 35.7802 4.23545 35.9754 4.45564C36.1706 4.67584 36.2811 4.95823 36.2874 5.2524C36.2833 5.46004 36.2187 5.66198 36.1014 5.83335C35.9841 6.00472 35.8192 6.13806 35.6271 6.21694C35.435 6.29583 35.224 6.31683 35.0201 6.27735C34.8162 6.23787 34.6283 6.13964 34.4795 5.99474C34.3368 5.83582 34.2408 5.64053 34.2022 5.43047C34.1636 5.2204 34.1838 5.00374 34.2606 4.80445C34.3374 4.60516 34.4679 4.43099 34.6375 4.30122C34.8072 4.17144 35.0094 4.09112 35.2219 4.06911V4.05031Z" fill="#191919"/>
<path d="M40.3375 3.49651C40.1084 3.47723 39.8777 3.50625 39.6604 3.5817C39.4431 3.65715 39.2441 3.77736 39.0762 3.93454C38.9083 4.09173 38.7752 4.2824 38.6856 4.49423C38.596 4.70606 38.5518 4.93433 38.5559 5.1643C38.5524 5.45827 38.6217 5.74855 38.7577 6.00917C38.8938 6.2698 39.0923 6.49265 39.3355 6.65781C39.5787 6.82296 39.859 6.92528 40.1515 6.95559C40.4439 6.98591 40.7393 6.94329 41.0112 6.83154C41.2831 6.7198 41.5231 6.54241 41.7097 6.31523C41.8963 6.08805 42.0237 5.81818 42.0806 5.52973C42.1374 5.24127 42.1218 4.94324 42.0353 4.66227C41.9487 4.3813 41.7939 4.12616 41.5847 3.91965C41.4159 3.77084 41.2183 3.6583 41.0042 3.58901C40.7901 3.51971 40.564 3.49513 40.34 3.5168L40.3375 3.49651ZM40.3375 3.96221C40.6288 4.0038 40.8957 4.1475 41.0908 4.36769C41.2859 4.58787 41.3964 4.8702 41.4026 5.1643C41.3987 5.37194 41.3341 5.57391 41.2169 5.74533C41.0996 5.91675 40.9348 6.05012 40.7427 6.12902C40.5506 6.20793 40.3396 6.22892 40.1357 6.1894C39.9318 6.14989 39.7439 6.0516 39.5952 5.90664C39.4525 5.74772 39.3565 5.55243 39.3179 5.34237C39.2793 5.1323 39.2995 4.91564 39.3763 4.71635C39.4531 4.51705 39.5836 4.34289 39.7532 4.21312C39.9229 4.08334 40.1251 4.00301 40.3375 3.98101V3.96221Z" fill="#191919"/>
<path d="M45.8385 3.31707C45.6093 3.29778 45.3786 3.32681 45.1612 3.4023C44.9439 3.47778 44.7449 3.59802 44.577 3.75526C44.409 3.9125 44.276 4.10323 44.1864 4.31512C44.0968 4.52701 44.0527 4.75534 44.0569 4.98535C44.0525 5.28019 44.1212 5.57153 44.2571 5.83323C44.393 6.09494 44.5917 6.31883 44.8354 6.48482C45.0791 6.65082 45.3602 6.75373 45.6535 6.78433C45.9467 6.81492 46.243 6.77225 46.5158 6.66013C46.7885 6.54801 47.0291 6.36995 47.2161 6.14192C47.403 5.9139 47.5305 5.64303 47.5869 5.35362C47.6434 5.06421 47.6272 4.76531 47.5397 4.48371C47.4522 4.20212 47.2962 3.94665 47.0857 3.7402C46.9168 3.59135 46.7191 3.47881 46.5049 3.4096C46.2907 3.34038 46.0646 3.31596 45.8405 3.33785L45.8385 3.31707ZM45.8385 3.78276C46.1299 3.82436 46.397 3.96812 46.5921 4.18839C46.7873 4.40867 46.8978 4.69112 46.904 4.98535C46.9001 5.193 46.8356 5.39497 46.7183 5.56638C46.6011 5.7378 46.4363 5.87117 46.2442 5.95008C46.052 6.02898 45.8411 6.04997 45.6372 6.01046C45.4333 5.97094 45.2454 5.87265 45.0967 5.72769C44.9539 5.56883 44.8579 5.37357 44.8193 5.16352C44.7806 4.95347 44.8008 4.73682 44.8777 4.53755C44.9545 4.33827 45.085 4.16414 45.2546 4.03442C45.4243 3.9047 45.6266 3.82446 45.839 3.80256L45.8385 3.78276Z" fill="#191919"/>
<path d="M37.1541 14.355C37.8247 14.3382 40.0399 14.3515 40.4828 14.3392C43.0805 14.2669 51.2338 13.9081 52.7066 13.8042C54.1418 13.7052 54.9248 13.5894 55.6636 13.5241C55.7262 13.5184 55.7842 13.4888 55.8255 13.4414C55.8667 13.394 55.888 13.3325 55.885 13.2697C55.8819 13.2069 55.8547 13.1478 55.809 13.1046C55.7633 13.0614 55.7027 13.0376 55.6399 13.0381C55.1376 13.0589 53.1615 13.0787 52.6705 13.0955C50.6949 13.1638 39.836 13.6567 39.345 13.6963C38.6027 13.7552 37.8742 13.8507 37.1304 13.9096C37.1003 13.91 37.0707 13.9165 37.0432 13.9286C37.0157 13.9408 36.9909 13.9583 36.9704 13.9803C36.9498 14.0022 36.9339 14.0281 36.9236 14.0564C36.9134 14.0846 36.9089 14.1146 36.9105 14.1447C36.9121 14.1747 36.9197 14.2041 36.933 14.2311C36.9462 14.258 36.9647 14.2821 36.9875 14.3017C37.0103 14.3214 37.0367 14.3362 37.0654 14.3454C37.094 14.3545 37.1242 14.3578 37.1541 14.355Z" fill="#191919"/>
<path d="M36.9756 17.7827C37.7383 17.8005 38.6395 17.8767 40.232 17.8663C44.0843 17.8451 56.7332 17.0745 58.597 17.0221C58.6615 17.0221 58.7233 16.9964 58.7688 16.9509C58.8144 16.9053 58.84 16.8435 58.84 16.7791C58.84 16.7146 58.8144 16.6528 58.7688 16.6072C58.7233 16.5617 58.6615 16.5361 58.597 16.5361C56.9391 16.5232 56.6768 16.4589 54.2632 16.5291C52.1199 16.5925 38.2589 17.3076 36.9756 17.3373C36.9166 17.3373 36.8599 17.3608 36.8182 17.4025C36.7764 17.4443 36.7529 17.5009 36.7529 17.56C36.7529 17.6191 36.7764 17.6757 36.8182 17.7175C36.8599 17.7592 36.9166 17.7827 36.9756 17.7827Z" fill="#191919"/>
<path d="M42.3745 21.2524C42.8456 21.3231 43.3593 21.3964 43.8349 21.4211C45.187 21.4934 48.2489 21.3746 49.8231 21.2573C50.4363 21.2113 50.8159 21.1395 51.4513 21.05C51.4832 21.0484 51.5144 21.0405 51.5431 21.0267C51.5719 21.013 51.5976 20.9936 51.6188 20.9698C51.64 20.946 51.6563 20.9182 51.6666 20.888C51.6769 20.8578 51.6811 20.8259 51.679 20.7941C51.6753 20.7307 51.6469 20.6713 51.5999 20.6285C51.5529 20.5858 51.491 20.5631 51.4276 20.5655C49.3282 20.5041 50.6046 20.5298 46.7221 20.6585C44.1932 20.7426 45.3171 20.6174 42.4002 20.807C42.3703 20.8042 42.3401 20.8074 42.3115 20.8166C42.2828 20.8258 42.2564 20.8406 42.2336 20.8602C42.2108 20.8799 42.1923 20.9039 42.1791 20.9309C42.1658 20.9579 42.1582 20.9873 42.1566 21.0173C42.155 21.0473 42.1594 21.0774 42.1697 21.1056C42.18 21.1338 42.1959 21.1597 42.2165 21.1817C42.237 21.2036 42.2618 21.2212 42.2893 21.2334C42.3168 21.2455 42.3464 21.252 42.3765 21.2524H42.3745Z" fill="#3373CC"/>
<path d="M54.3111 21.2307C54.8446 21.3505 54.7748 21.3619 56.1917 21.3237C56.8253 21.3682 57.4618 21.3012 58.0723 21.1258C58.1349 21.1202 58.193 21.0905 58.2342 21.043C58.2755 20.9956 58.2968 20.934 58.2937 20.8711C58.2905 20.8083 58.2632 20.7491 58.2174 20.706C58.1716 20.6629 58.1109 20.6392 58.048 20.6398C57.7877 20.5846 57.5223 20.5562 57.2562 20.5552C56.7499 20.5552 55.196 20.5844 54.8495 20.6373C54.6582 20.6713 54.47 20.721 54.2868 20.7858C54.2278 20.789 54.1725 20.8155 54.1331 20.8595C54.0936 20.9035 54.0733 20.9614 54.0765 21.0204C54.0797 21.0794 54.1062 21.1347 54.1502 21.1741C54.1942 21.2136 54.2521 21.2339 54.3111 21.2307Z" fill="#191919"/>
<path d="M42.6531 24.8533C43.1473 24.8883 43.6432 24.8911 44.1377 24.8617C44.262 24.8548 48.7185 24.5267 48.8427 24.5153C49.2139 24.4807 49.8706 24.3723 50.0161 24.3505C50.0805 24.347 50.1412 24.319 50.1857 24.2723C50.2302 24.2256 50.2552 24.1636 50.2556 24.0991C50.2518 24.0352 50.2236 23.9752 50.1768 23.9314C50.13 23.8877 50.0683 23.8636 50.0042 23.864C48.7673 23.7663 47.5237 23.7945 46.2925 23.9482C43.5577 24.1412 43.3667 24.2402 42.6174 24.4104C42.5616 24.4188 42.5111 24.448 42.476 24.4922C42.4409 24.5364 42.4239 24.5923 42.4285 24.6485C42.433 24.7048 42.4587 24.7572 42.5004 24.7952C42.5421 24.8332 42.5966 24.854 42.6531 24.8533Z" fill="#3373CC"/>
<path d="M53.5683 24.1387C53.7209 24.1824 53.8771 24.2124 54.035 24.2283C54.3137 24.2437 55.54 24.1293 55.9745 24.0799C56.1917 24.0523 56.4048 23.9985 56.609 23.9195C56.6408 23.9181 56.672 23.9104 56.7008 23.8968C56.7296 23.8831 56.7553 23.8639 56.7766 23.8401C56.7978 23.8163 56.814 23.7886 56.8243 23.7584C56.8347 23.7283 56.8388 23.6964 56.8366 23.6646C56.833 23.6011 56.8047 23.5415 56.7577 23.4986C56.7107 23.4557 56.6488 23.4328 56.5852 23.435C55.9181 23.3157 56.1784 23.3246 55.0407 23.4157C53.8005 23.5147 53.9108 23.5513 53.5322 23.6968C53.4736 23.7015 53.4193 23.7292 53.3811 23.774C53.343 23.8187 53.3242 23.8767 53.3288 23.9353C53.3347 23.9936 53.363 24.0474 53.4076 24.0853C53.4523 24.1232 53.5099 24.1424 53.5683 24.1387Z" fill="#191919"/>
<path d="M71.9687 12.5878C72.6935 12.5984 73.4179 12.5539 74.1359 12.4547C74.4383 12.4161 75.0712 12.327 75.0455 12.0395C75.0455 11.6703 74.1463 11.7223 73.7766 11.7485C73.2378 11.7871 72.699 11.8278 72.1603 11.8707C71.9009 11.89 71.264 11.9573 71.2383 12.2171C71.2383 12.4789 71.8589 12.5754 71.9687 12.5878Z" fill="#3373CC"/>
<path d="M71.6767 15.5197C71.9737 15.5197 72.6403 15.4207 73.101 15.3712C73.4841 15.3306 73.8676 15.3217 74.2507 15.2598C74.8708 15.1554 75.0529 15.0757 75.0529 14.8708C75.0093 14.3868 73.3796 14.5878 72.9575 14.6313C72.4839 14.6808 70.8898 14.8446 70.9824 15.3113C71.018 15.4914 71.1551 15.5157 71.6767 15.5197Z" fill="#3373CC"/>
<path d="M72.2731 18.3439C72.9946 18.4072 73.7208 18.3968 74.4402 18.3127C74.8287 18.2281 75.0509 18.1841 75.0509 17.9633C75.0509 17.5125 73.7147 17.6229 73.2431 17.6318C72.9085 17.6382 71.6268 17.558 71.5906 17.9237C71.5664 18.1727 72.1137 18.3142 72.2731 18.3439Z" fill="#3373CC"/>
<path d="M77.5049 18.5393C78.511 18.7002 79.0193 18.7581 83.3353 18.5081C83.8525 18.4801 84.368 18.4257 84.8798 18.3453C84.9117 18.3445 84.943 18.3375 84.9722 18.3246C85.0013 18.3117 85.0276 18.2932 85.0495 18.2701C85.0715 18.247 85.0887 18.2199 85.1002 18.1901C85.1117 18.1604 85.1172 18.1287 85.1164 18.0969C85.1156 18.065 85.1085 18.0337 85.0956 18.0045C85.0827 17.9754 85.0642 17.9491 85.0411 17.9272C85.0181 17.9052 84.9909 17.888 84.9612 17.8765C84.9315 17.8651 84.8998 17.8596 84.8679 17.8603C84.1331 17.771 83.3914 17.7513 82.6528 17.8014C77.7306 17.9747 78.4551 17.989 77.5059 18.0949C77.4468 18.0949 77.3902 18.1184 77.3484 18.1601C77.3067 18.2019 77.2832 18.2585 77.2832 18.3176C77.2832 18.3767 77.3067 18.4333 77.3484 18.4751C77.3902 18.5169 77.4468 18.5403 77.5059 18.5403L77.5049 18.5393Z" fill="#191919"/>
<path d="M76.9922 15.2023C77.4025 15.2558 77.9647 15.331 78.4165 15.3558C79.4905 15.4221 84.9491 15.4325 85.253 15.4216C85.6489 15.4072 86.0448 15.3721 86.4501 15.3523C86.5122 15.3502 86.5711 15.3244 86.6148 15.2803C86.6585 15.2361 86.6836 15.177 86.6852 15.1149C86.6867 15.0528 86.6644 14.9925 86.6229 14.9463C86.5815 14.9001 86.5239 14.8715 86.462 14.8663C86.2106 14.8376 85.9592 14.8074 85.7078 14.7837C84.4587 14.6644 79.1618 14.608 78.0335 14.6768C77.6871 14.6976 77.351 14.7322 77.0041 14.7574C76.945 14.7559 76.8878 14.7778 76.8449 14.8185C76.802 14.8591 76.777 14.9151 76.7755 14.9742C76.7739 15.0333 76.7958 15.0905 76.8365 15.1334C76.8772 15.1763 76.9332 15.2013 76.9922 15.2028V15.2023Z" fill="#191919"/>
<path d="M77.2597 11.9603C78.8716 12.376 79.6802 12.4171 84.5272 12.3651C85.7709 12.3518 85.6199 12.3181 86.4424 12.2874C86.5052 12.2881 86.5658 12.2644 86.6115 12.2214C86.6572 12.1783 86.6845 12.1193 86.6876 12.0566C86.6907 11.9939 86.6695 11.9324 86.6283 11.885C86.5871 11.8377 86.5292 11.8081 86.4667 11.8024C83.8601 11.4664 84.0625 11.7529 78.7681 11.5486C78.3648 11.5327 77.618 11.5317 77.3196 11.5198C77.2907 11.5159 77.2612 11.5177 77.233 11.5252C77.2048 11.5326 77.1783 11.5455 77.1551 11.5632C77.1319 11.5808 77.1123 11.6029 77.0976 11.6281C77.0829 11.6534 77.0733 11.6812 77.0694 11.7101C77.0655 11.7391 77.0673 11.7685 77.0747 11.7967C77.0821 11.8249 77.0951 11.8514 77.1127 11.8746C77.1304 11.8979 77.1525 11.9174 77.1777 11.9321C77.2029 11.9468 77.2308 11.9564 77.2597 11.9603Z" fill="#191919"/>
<path d="M66.4847 34.8096C67.002 34.7872 67.5176 34.736 68.0292 34.6562C68.3123 34.584 68.5509 34.5078 68.532 34.2994C68.532 34.052 67.9951 33.9753 67.9456 33.9688C67.4269 33.9623 66.909 34.0121 66.401 34.1173C66.3045 34.148 65.8567 34.3365 65.8982 34.5409C65.918 34.7379 66.4327 34.8072 66.4847 34.8096Z" fill="#3373CC"/>
<path d="M70.5199 34.6214C70.9987 34.6337 71.4778 34.6205 71.9551 34.5818C76.6244 34.2052 76.2003 34.224 77.3544 33.9414C77.4171 33.9306 77.4731 33.8957 77.5103 33.8442C77.5476 33.7926 77.5632 33.7285 77.5539 33.6656C77.5445 33.6027 77.5109 33.5459 77.4602 33.5075C77.4095 33.469 77.3458 33.452 77.2826 33.4599C75.6813 33.4794 74.0824 33.5898 72.4936 33.7905C71.7973 33.8331 71.1093 33.9643 70.4462 34.181C70.3878 34.1908 70.3357 34.2233 70.3013 34.2715C70.2669 34.3198 70.2531 34.3797 70.2628 34.4381C70.2726 34.4965 70.3052 34.5486 70.3534 34.583C70.4016 34.6174 70.4615 34.6312 70.5199 34.6214Z" fill="#191919"/>
<path d="M72.8898 37.8452C73.0389 37.8417 73.1873 37.8233 73.3328 37.7902C73.3823 37.7779 73.7564 37.5829 73.7396 37.3943C73.7138 37.1028 73.2773 37.0613 72.9255 37.087C72.4202 37.1301 72.197 37.429 72.2074 37.5324C72.2178 37.6358 72.4548 37.8764 72.8898 37.8452Z" fill="#3373CC"/>
<path d="M75.2728 37.6085C75.6521 37.634 76.0328 37.6279 76.4111 37.5902C76.6481 37.567 79.6536 37.2121 79.9906 37.1557C80.3187 37.1008 80.6785 37.0003 80.8765 36.9548C80.9407 36.9482 80.9996 36.9164 81.0404 36.8664C81.0811 36.8164 81.1003 36.7522 81.0938 36.688C81.0872 36.6239 81.0554 36.5649 81.0054 36.5242C80.9553 36.4834 80.8912 36.4642 80.827 36.4708C79.8817 36.414 78.933 36.472 78.0017 36.6435C75.9038 36.8855 75.8058 36.9761 75.2124 37.1691C75.1543 37.1784 75.1021 37.2097 75.0664 37.2565C75.0307 37.3033 75.0145 37.362 75.0209 37.4205C75.0302 37.4784 75.0617 37.5305 75.1087 37.5656C75.1558 37.6007 75.2146 37.6161 75.2728 37.6085Z" fill="#191919"/>
<path d="M72.8303 40.5037C73.9843 40.4612 75.1351 40.3582 76.2782 40.1949C77.5352 40.1285 78.7867 39.9837 80.0256 39.7614C80.0881 39.7557 80.146 39.7261 80.1872 39.6788C80.2284 39.6314 80.2496 39.5699 80.2465 39.5072C80.2434 39.4445 80.2161 39.3855 80.1704 39.3424C80.1247 39.2994 80.0641 39.2757 80.0013 39.2764C79.5411 39.2605 79.1476 39.2313 78.6844 39.2526C77.0767 39.3352 75.4744 39.5014 73.884 39.7505C73.499 39.834 73.1189 39.9391 72.7457 40.0652C72.7169 40.0704 72.6894 40.0812 72.6648 40.097C72.6402 40.1129 72.6189 40.1334 72.6022 40.1574C72.5856 40.1815 72.5738 40.2085 72.5676 40.2371C72.5614 40.2657 72.5609 40.2953 72.5661 40.3241C72.5784 40.3823 72.6128 40.4336 72.662 40.4671C72.7113 40.5006 72.7716 40.5137 72.8303 40.5037Z" fill="#191919"/>
<path d="M76.853 42.6857C78.8657 42.8446 79.3769 42.6362 84.1319 42.0424C85.4127 41.885 85.3196 41.8593 86.0357 41.7633C86.0685 41.7629 86.1009 41.756 86.1309 41.7428C86.161 41.7297 86.1881 41.7106 86.2105 41.6867C86.233 41.6628 86.2504 41.6347 86.2618 41.6039C86.2731 41.5731 86.2781 41.5404 86.2765 41.5076C86.2748 41.4749 86.2666 41.4428 86.2523 41.4133C86.2379 41.3838 86.2178 41.3575 86.193 41.336C86.1683 41.3145 86.1395 41.2982 86.1083 41.2881C86.0771 41.278 86.0441 41.2743 86.0115 41.2773C85.3889 41.2436 84.7647 41.2548 84.1438 41.3109C83.875 41.3342 79.6947 41.8405 76.8411 42.2398C76.8118 42.2406 76.783 42.2472 76.7562 42.2591C76.7295 42.271 76.7054 42.2881 76.6852 42.3093C76.6651 42.3306 76.6493 42.3556 76.6388 42.383C76.6283 42.4103 76.6233 42.4394 76.6241 42.4687C76.6249 42.498 76.6314 42.5268 76.6433 42.5536C76.6553 42.5803 76.6724 42.6045 76.6936 42.6246C76.7149 42.6448 76.7399 42.6606 76.7672 42.671C76.7946 42.6815 76.8237 42.6865 76.853 42.6857Z" fill="#191919"/>
<path d="M77.7268 45.2251C79.5084 45.3736 79.9221 45.2518 84.4791 44.7114C85.5975 44.5788 85.5441 44.5506 86.2508 44.4491C86.3151 44.446 86.3754 44.4174 86.4186 44.3698C86.4618 44.3221 86.4843 44.2592 86.4812 44.195C86.478 44.1307 86.4495 44.0704 86.4018 44.0272C86.3542 43.984 86.2913 43.9615 86.227 43.9646C84.9477 43.9151 84.7998 43.8859 79.0556 44.5748C78.6888 44.6174 77.8812 44.754 77.7149 44.7797C77.6856 44.7805 77.6568 44.787 77.6301 44.7989C77.6034 44.8108 77.5793 44.8279 77.5592 44.8491C77.539 44.8704 77.5233 44.8954 77.5128 44.9227C77.5023 44.95 77.4973 44.9791 77.4981 45.0083C77.4989 45.0376 77.5054 45.0664 77.5174 45.0931C77.5293 45.1198 77.5463 45.144 77.5676 45.1641C77.5888 45.1842 77.6138 45.2 77.6411 45.2104C77.6684 45.2209 77.6975 45.2259 77.7268 45.2251Z" fill="#191919"/>
<path d="M77.7031 48.0089C78.2351 48.0041 78.7665 47.9721 79.2952 47.9129C85.132 47.2542 84.064 47.4017 85.6046 47.1211C85.6369 47.1195 85.6685 47.1114 85.6976 47.0973C85.7267 47.0833 85.7528 47.0635 85.7741 47.0393C85.7955 47.0151 85.8118 46.9868 85.8221 46.9561C85.8324 46.9255 85.8365 46.8931 85.8341 46.8608C85.8317 46.8286 85.8229 46.7972 85.8081 46.7684C85.7934 46.7396 85.773 46.7141 85.7483 46.6933C85.7235 46.6725 85.6949 46.6568 85.664 46.6473C85.6331 46.6377 85.6006 46.6344 85.5685 46.6376C85.1617 46.6326 84.7662 46.6133 84.3594 46.6292C82.2935 46.7523 80.2379 47.0114 78.2059 47.4047C78.0134 47.4542 77.8224 47.515 77.6309 47.5714C77.6017 47.5758 77.5737 47.586 77.5485 47.6013C77.5233 47.6166 77.5014 47.6368 77.484 47.6606C77.4667 47.6845 77.4542 47.7115 77.4474 47.7402C77.4406 47.7689 77.4396 47.7987 77.4444 47.8278C77.4491 47.8569 77.4597 47.8847 77.4753 47.9097C77.4909 47.9348 77.5114 47.9564 77.5355 47.9734C77.5595 47.9905 77.5867 48.0026 77.6155 48.009C77.6443 48.0154 77.6741 48.0161 77.7031 48.0109V48.0089Z" fill="#191919"/>
<path d="M78.3621 50.3154C81.4255 50.0991 79.3024 50.1382 84.3503 49.7314C85.1105 49.673 85.3179 49.6181 85.8469 49.5483C85.8796 49.5487 85.9121 49.5425 85.9424 49.53C85.9727 49.5176 86.0001 49.4992 86.0231 49.4758C86.0461 49.4525 86.0642 49.4248 86.0762 49.3944C86.0882 49.3639 86.094 49.3314 86.0932 49.2987C86.0923 49.2659 86.0849 49.2337 86.0713 49.2039C86.0578 49.1741 86.0383 49.1474 86.0142 49.1253C85.99 49.1032 85.9617 49.0861 85.9308 49.0752C85.8999 49.0643 85.8672 49.0598 85.8345 49.0618C84.5657 48.9507 83.2884 48.9866 82.0278 49.1687C81.1359 49.2491 80.2488 49.375 79.3697 49.5458C78.9968 49.6367 78.6292 49.7483 78.2686 49.8799C78.2141 49.8954 78.1675 49.931 78.1383 49.9796C78.1091 50.0282 78.0995 50.086 78.1114 50.1415C78.1233 50.1969 78.1559 50.2457 78.2024 50.278C78.249 50.3103 78.3061 50.3237 78.3621 50.3154Z" fill="#191919"/>
<path d="M29.0481 37.7938C23.8433 38.0085 19.2493 38.8751 13.9044 38.4703C13.8754 38.4682 13.8471 38.4604 13.8211 38.4474C13.7952 38.4343 13.772 38.4163 13.7531 38.3942C13.7341 38.3722 13.7197 38.3466 13.7107 38.319C13.7017 38.2913 13.6982 38.2622 13.7005 38.2332C13.7061 38.1745 13.7341 38.1202 13.7787 38.0817C13.8233 38.0431 13.8811 38.0233 13.94 38.0264C18.8142 38.3431 24.1418 37.3211 29.3842 37.0722C29.4336 37.0681 29.4834 37.0747 29.53 37.0916C29.5767 37.1086 29.6191 37.1354 29.6543 37.1703C29.6896 37.2052 29.7169 37.2473 29.7343 37.2938C29.7518 37.3402 29.7589 37.3899 29.7553 37.4394C29.6504 41.4416 34.6018 40.9621 35.1546 37.2415C35.1672 37.1593 35.2072 37.0839 35.2681 37.0273C35.3291 36.9708 35.4073 36.9366 35.4902 36.9302C37.7058 36.7718 39.8833 36.5145 42.1826 36.4491C42.2796 36.4463 42.3738 36.4813 42.4453 36.5468C42.5169 36.6124 42.56 36.7032 42.5656 36.8C42.6968 38.8998 42.6973 41.0536 42.6973 43.2792C50.379 42.3804 50.9125 50.8619 43.1283 51.5577C43.0922 52.8162 42.9606 60.2411 42.9606 60.2411C42.954 60.3269 42.9184 60.408 42.8597 60.4709C42.8009 60.5339 42.7226 60.575 42.6374 60.5875C41.0696 60.7855 35.8777 61.6268 31.0485 61.8743C26.4623 62.1054 14.284 65.6978 13.5451 57.5543C13.5389 57.4905 13.5579 57.4268 13.5982 57.3769C13.6384 57.327 13.6967 57.2949 13.7604 57.2876C13.8252 57.2829 13.8895 57.3027 13.9405 57.343C13.9915 57.3833 14.0256 57.4412 14.036 57.5053C14.3711 60.6004 16.5026 61.7842 19.1958 62.1123C23.0377 62.5805 28.1761 61.3027 31.0124 61.1487C35.8999 60.8835 40.9043 60.06 42.2306 59.8902C42.2687 59.4196 42.3855 51.2509 42.386 51.2009C42.3872 51.1078 42.4236 51.0185 42.4878 50.951C42.5521 50.8836 42.6394 50.8429 42.7324 50.8372C50.0044 50.4195 49.5258 42.9223 42.386 44.0789C42.3333 44.0871 42.2794 44.0837 42.2282 44.069C42.1769 44.0543 42.1294 44.0287 42.0891 43.9938C41.7694 43.7241 42.1326 43.4212 41.8495 37.2078C39.8808 37.2761 37.8543 37.4988 35.8277 37.6473C34.9319 41.8895 29.2154 42.2028 29.0481 37.7938Z" fill="#3373CC"/>
<path d="M90.8595 1.87282C93.4824 4.44626 92.9801 8.6088 92.9544 12.2695C92.944 13.7596 93.0959 37.076 93.2419 42.0482C93.3315 45.1091 93.4013 51.3963 91.1109 53.4308C88.9561 55.344 85.2741 55.7954 82.4072 56.0582C64.8811 57.6621 63.438 56.3521 63.3712 57.0935C63.3697 57.1587 63.394 57.2218 63.4389 57.2692C63.4837 57.3166 63.5455 57.3443 63.6107 57.3464C69.9054 57.6064 76.2107 57.4193 82.479 56.7866C85.5384 56.514 89.3045 56.025 91.6018 53.9875C92.6663 53.0428 93.2998 51.3181 93.6368 49.385C94.352 45.2833 93.8214 44.0308 93.6368 12.2715C93.6156 8.6093 93.9798 4.0741 91.1708 1.54866C91.1271 1.51177 91.0709 1.49292 91.0138 1.49592C90.9567 1.49892 90.9028 1.52355 90.8632 1.56481C90.8236 1.60608 90.8011 1.66088 90.8004 1.71809C90.7997 1.77529 90.8209 1.83061 90.8595 1.87282Z" fill="#191919"/>
<path d="M91.6477 25.7089C91.7348 25.6912 91.8126 25.6424 91.8663 25.5715C91.9201 25.5006 91.9461 25.4126 91.9397 25.3239C91.8518 23.5422 91.8158 21.7584 91.8318 19.9746C91.8704 8.43766 92.5197 4.27116 90.3471 1.96051C88.6422 0.114554 85.3586 0.198686 82.17 0.0799118C75.4506 -0.151828 68.7233 0.120632 62.0447 0.895001C61.9859 0.901563 61.9322 0.93119 61.8953 0.977363C61.8584 1.02354 61.8414 1.08247 61.8479 1.14121C61.8545 1.19995 61.8841 1.25367 61.9303 1.29056C61.9765 1.32745 62.0354 1.34449 62.0942 1.33793C68.7582 0.753738 75.4518 0.577887 82.1373 0.811364C88.2418 1.04594 90.9959 0.985072 91.1701 7.15688C90.1061 7.17371 78.9408 7.32762 75.2534 7.44738C72.8709 7.53399 63.3175 8.04125 62.4673 8.0462C62.4082 8.0462 62.3516 8.06967 62.3098 8.11143C62.2681 8.1532 62.2446 8.20984 62.2446 8.26891C62.2446 8.32797 62.2681 8.38461 62.3098 8.42638C62.3516 8.46814 62.4082 8.49161 62.4673 8.49161C69.1776 8.66333 69.0236 8.39956 75.2776 8.19715C83.5507 7.90021 86.0356 8.00958 91.1795 7.65524C91.2958 15.5859 90.9034 18.9294 91.1884 25.0022C88.1904 25.2571 85.1844 25.3684 82.1734 25.6654C82.4803 19.1274 74.3715 20.032 73.9127 26.4834C70.155 26.8833 66.1473 26.9566 62.3238 27.1382C62.2248 27.1426 62.2154 21.5459 62.0843 19.0808C68.7223 18.7453 69.2647 13.103 66.2503 11.2378C65.1491 10.5449 63.6407 10.3905 62.2278 10.5291C62.0244 8.99491 61.2702 2.6301 61.1143 0.993485C61.1107 0.956162 61.0978 0.920342 61.0767 0.889334C61.0556 0.858325 61.027 0.833126 60.9937 0.816063C60.9603 0.799 60.9231 0.790622 60.8856 0.791704C60.8482 0.792785 60.8116 0.803291 60.7792 0.822251C60.6307 0.80691 36.0841 1.43889 35.171 1.38989C31.2301 1.1761 30.2389 4.17466 30.2621 8.10213C30.2968 15.1682 30.084 22.2175 30.4418 29.2296C30.448 29.3288 30.4931 29.4216 30.5671 29.4879C30.6412 29.5542 30.7384 29.5887 30.8377 29.5839C34.1535 29.4221 37.3965 29.5092 40.7029 29.4558C42.7542 29.4231 44.8021 29.2449 46.8326 29.2222C46.861 29.6397 46.9272 30.0539 47.0306 30.4594C39.6201 30.7667 39.9215 30.7613 32.7633 30.4243C32.7047 30.4177 32.6459 30.4347 32.5998 30.4715C32.5538 30.5083 32.5242 30.5619 32.5176 30.6205C32.511 30.6791 32.528 30.7379 32.5648 30.784C32.6016 30.8301 32.6552 30.8597 32.7138 30.8662C37.0931 31.6798 43.0571 31.569 47.2236 30.9528C48.3089 33.1012 51.4995 32.7448 52.6239 30.3377C52.8235 29.8759 52.9568 29.3882 53.0198 28.8891C55.0548 28.6328 57.1739 28.4462 59.2332 28.1468C59.4861 28.1107 61.9709 27.7365 62.1783 27.5767C62.223 27.6107 62.2781 27.6282 62.3342 27.6262C66.3388 27.5133 70.203 27.5311 74.2824 27.1387C74.3649 27.129 74.4413 27.0906 74.4983 27.0301C74.5552 26.9696 74.589 26.891 74.5937 26.8081C74.8995 20.9461 82.0067 19.889 81.4059 26.0445C81.402 26.0987 81.4095 26.1532 81.428 26.2044C81.4465 26.2555 81.4755 26.3022 81.5133 26.3414C81.7226 26.5394 81.5459 26.4265 84.7459 26.1969C86.8848 26.0435 89.0237 25.9351 91.1632 25.756C91.4299 28.8085 91.4839 50.1383 89.8339 52.5791C87.8726 55.3505 66.8783 56.0607 62.1545 55.4738C62.1783 53.325 62.25 46.2816 62.25 44.9063C63.1679 44.9819 64.0919 44.8957 64.9799 44.6515C67.3336 43.8972 68.4228 40.9947 66.4764 38.7192C65.982 38.1325 65.3581 37.6686 64.6539 37.364C63.9497 37.0594 63.1844 36.9224 62.4183 36.9638C62.2446 34.7368 62.1189 31.3126 62.1431 28.3319C62.1415 28.2748 62.1179 28.2206 62.0773 28.1805C62.0366 28.1404 61.9821 28.1175 61.925 28.1166C61.8679 28.1157 61.8127 28.1369 61.7708 28.1757C61.7289 28.2145 61.7036 28.268 61.7002 28.3249C61.6507 31.5086 61.5834 33.3209 61.8076 37.3434C61.8105 37.3877 61.8228 37.431 61.8436 37.4703C61.8644 37.5095 61.8932 37.544 61.9283 37.5713C61.9633 37.5987 62.0038 37.6183 62.047 37.6289C62.0901 37.6395 62.135 37.6409 62.1788 37.6329C62.8846 37.5495 63.6001 37.6469 64.258 37.9158C64.9159 38.1848 65.4947 38.6165 65.94 39.1705C67.5088 41.0442 66.6759 43.3509 64.7522 43.9556C63.8224 44.1945 62.8565 44.2594 61.9031 44.1472C61.8531 44.1434 61.8028 44.1502 61.7556 44.1672C61.7083 44.1842 61.6652 44.2109 61.629 44.2457C61.5929 44.2805 61.5645 44.3226 61.5457 44.3692C61.5269 44.4157 61.5182 44.4657 61.5201 44.5159C61.5201 46.0193 61.4241 53.5333 61.4003 55.7925C61.4002 55.8812 61.4314 55.9671 61.4883 56.0352C61.5452 56.1032 61.6243 56.1491 61.7116 56.1646C65.2823 56.7798 88.1602 56.37 90.4327 53.0028C92.3826 50.2497 92.0169 29.1613 91.6477 25.7089ZM32.1497 3.16458C32.7604 2.44649 33.7061 2.03919 35.1309 2.11343C38.1497 2.26189 57.4308 1.46413 60.6916 1.31022C60.8233 2.86072 61.2687 7.36177 61.3464 8.05709C55.3898 7.93931 53.0084 8.1244 44.5413 8.43717C36.4201 8.76627 35.8836 8.51388 31.0035 9.05875C31 7.16133 30.8951 4.62105 32.1497 3.16458ZM61.6854 18.3682C61.637 18.3694 61.5894 18.3804 61.5454 18.4006C61.5014 18.4208 61.462 18.4498 61.4296 18.4857C61.3972 18.5217 61.3724 18.5638 61.3568 18.6096C61.3413 18.6555 61.3352 18.704 61.3389 18.7522C61.5141 22.891 61.4186 24.3005 61.5666 26.9902C58.67 27.591 55.5898 27.8033 52.6353 28.1839C52.5504 28.1929 52.4714 28.2316 52.4123 28.2932C52.3532 28.3548 52.3177 28.4352 52.3121 28.5204C52.2753 29.0391 52.1497 29.5477 51.9409 30.0239C50.9823 32.1104 48.0659 32.2316 47.6665 29.9333L47.523 28.8005C47.5126 28.7095 47.4689 28.6254 47.4005 28.5644C47.332 28.5035 47.2435 28.4698 47.1518 28.4699C45.0109 28.4759 42.8413 28.6704 40.6871 28.7045C37.5509 28.754 34.3524 28.6783 31.1693 28.8183C30.8664 22.5669 31.0094 15.234 31.005 9.50861C33.664 9.37153 40.543 9.33293 44.5779 9.18545C46.8643 9.09686 60.3249 8.59801 61.4043 8.56386C61.4924 9.34282 61.6022 10.1183 61.674 10.8963C61.6784 10.9356 61.6907 10.9737 61.7101 11.0082C61.7295 11.0428 61.7555 11.0731 61.7868 11.0974C61.8181 11.1217 61.8539 11.1395 61.8921 11.1497C61.9304 11.16 61.9703 11.1625 62.0095 11.1571C64.4385 10.8805 66.8174 11.4808 67.2554 13.8666C67.3346 14.3102 67.3235 14.7652 67.2226 15.2043C67.1218 15.6435 66.9333 16.0577 66.6684 16.4223C65.601 17.8322 63.4615 18.3464 61.6854 18.3682Z" fill="#191919"/>
<path d="M50.984 33.1265C53.841 32.8597 53.4669 31.2325 54.8511 30.5278C56.4461 29.7166 58.9894 29.925 61.3881 29.444C61.4206 29.441 61.4521 29.4315 61.4808 29.4161C61.5095 29.4008 61.5348 29.3798 61.5552 29.3544C61.5757 29.329 61.5908 29.2998 61.5997 29.2685C61.6086 29.2371 61.6111 29.2043 61.6071 29.172C61.6031 29.1397 61.5926 29.1085 61.5763 29.0803C61.56 29.0521 61.5382 29.0275 61.5122 29.0079C61.4862 28.9883 61.4565 28.9741 61.4249 28.9662C61.3933 28.9583 61.3604 28.9569 61.3283 28.9619C60.091 29.0431 56.4258 28.8931 54.5161 29.8602C52.8537 30.7015 53.457 32.008 50.9004 32.6875C50.8715 32.693 50.8441 32.7041 50.8196 32.7202C50.795 32.7363 50.7739 32.7571 50.7574 32.7813C50.7409 32.8056 50.7294 32.8329 50.7234 32.8616C50.7174 32.8903 50.7172 32.92 50.7227 32.9488C50.7282 32.9776 50.7393 33.0051 50.7554 33.0296C50.7715 33.0541 50.7923 33.0752 50.8166 33.0917C50.8408 33.1082 50.8681 33.1198 50.8968 33.1258C50.9256 33.1317 50.9552 33.1319 50.984 33.1265Z" fill="#191919"/>
</svg>
