<svg width="259" height="259" viewBox="0 0 259 259" fill="none" xmlns="http://www.w3.org/2000/svg">
<path d="M123.491 176.913H23.4706C22.6866 176.911 21.935 176.599 21.3806 176.045C20.8263 175.491 20.5142 174.739 20.5128 173.955V33.3542C20.521 32.5747 20.8361 31.8298 21.3897 31.281C21.9434 30.7322 22.691 30.4237 23.4706 30.4224H123.491C124.275 30.4237 125.026 30.736 125.579 31.2905C126.133 31.845 126.444 32.5966 126.444 33.3801V173.955C126.444 174.739 126.133 175.49 125.579 176.045C125.026 176.599 124.275 176.911 123.491 176.913ZM23.4706 30.526C22.7209 30.5273 22.0023 30.8258 21.4722 31.3559C20.9421 31.886 20.6437 32.6046 20.6423 33.3542V173.955C20.6437 174.705 20.9421 175.423 21.4722 175.953C22.0023 176.483 22.7209 176.782 23.4706 176.783H123.491C124.24 176.782 124.958 176.483 125.488 175.953C126.017 175.423 126.314 174.704 126.314 173.955V33.3542C126.314 32.605 126.017 31.8864 125.488 31.3562C124.958 30.8259 124.24 30.5273 123.491 30.526H23.4706Z" fill="#E6E6E6"/>
<path d="M235.535 176.913H135.509C134.725 176.911 133.974 176.599 133.421 176.045C132.867 175.49 132.556 174.739 132.556 173.955V33.3542C132.563 32.5752 132.877 31.8303 133.43 31.2813C133.983 30.7324 134.73 30.4237 135.509 30.4224H235.535C236.314 30.4237 237.061 30.7324 237.614 31.2813C238.166 31.8303 238.48 32.5752 238.487 33.3542V173.955C238.487 174.739 238.176 175.49 237.623 176.045C237.069 176.599 236.318 176.911 235.535 176.913ZM135.509 30.526C134.76 30.5273 134.041 30.8259 133.512 31.3562C132.983 31.8864 132.686 32.605 132.686 33.3542V173.955C132.686 174.704 132.983 175.423 133.512 175.953C134.041 176.483 134.76 176.782 135.509 176.783H235.535C236.285 176.782 237.004 176.484 237.535 175.954C238.066 175.424 238.365 174.705 238.368 173.955V33.3542C238.365 32.6041 238.066 31.8855 237.535 31.3555C237.004 30.8256 236.285 30.5273 235.535 30.526H135.509Z" fill="#E6E6E6"/>
<path d="M107.614 102.284L106.905 163.17C104.398 183.429 68.4848 199.513 68.4848 199.513C68.4848 199.513 32.5666 183.445 30.044 163.17L29.3136 102.284L67.6974 89.6504L107.614 102.284Z" fill="#F5F5F5"/>
<path d="M102.605 106.138L101.989 160.808C99.8031 178.477 68.4796 192.504 68.4796 192.504C68.4796 192.504 37.1561 178.477 34.9754 160.808L34.3175 106.138L67.7958 95.1201L102.605 106.138Z" fill="#E0E0E0"/>
<path d="M100.409 109.588L99.8289 159.777C97.7569 176.353 68.4122 189.49 68.4122 189.49C68.4122 189.49 39.0468 176.338 37.0007 159.777L36.3843 109.588L67.7699 99.2593L100.409 109.588Z" stroke="white" stroke-width="3" stroke-linecap="round" stroke-linejoin="round"/>
<path d="M228.086 81.7354H158.995V202.968H228.086V81.7354Z" fill="#F5F5F5"/>
<path d="M223.077 86.501H164.102V202.968H223.077V86.501Z" fill="#E0E0E0"/>
<path d="M165.76 203.486C165.657 203.486 165.554 203.465 165.46 203.424C165.366 203.386 165.281 203.33 165.211 203.258C165.136 203.187 165.077 203.1 165.04 203.004C165.003 202.91 164.983 202.81 164.983 202.709C164.983 202.594 165.009 202.481 165.058 202.377C165.107 202.273 165.178 202.182 165.267 202.109C165.356 202.036 165.459 201.984 165.57 201.956C165.682 201.928 165.798 201.925 165.91 201.947L166.055 201.989L166.19 202.061C166.232 202.091 166.272 202.124 166.309 202.16C166.346 202.195 166.377 202.235 166.402 202.279C166.433 202.32 166.457 202.365 166.475 202.413C166.496 202.46 166.511 202.509 166.521 202.559C166.527 202.608 166.527 202.659 166.521 202.709C166.522 202.81 166.501 202.911 166.459 203.004C166.422 203.099 166.366 203.186 166.294 203.258C166.151 203.399 165.96 203.48 165.76 203.486Z" fill="white"/>
<path d="M164.973 183.626C164.973 183.523 164.994 183.422 165.034 183.328C165.074 183.233 165.133 183.148 165.206 183.076C165.279 183.004 165.366 182.948 165.461 182.91C165.556 182.872 165.658 182.853 165.76 182.854C165.966 182.854 166.164 182.936 166.309 183.082C166.455 183.227 166.537 183.425 166.537 183.631C166.537 183.837 166.455 184.035 166.309 184.181C166.164 184.326 165.966 184.408 165.76 184.408C165.657 184.41 165.554 184.39 165.458 184.352C165.362 184.313 165.275 184.255 165.202 184.182C165.129 184.11 165.071 184.023 165.031 183.927C164.992 183.832 164.972 183.729 164.973 183.626ZM164.973 164.548C164.973 164.342 165.055 164.144 165.2 163.999C165.346 163.853 165.544 163.771 165.75 163.771C165.956 163.771 166.153 163.853 166.299 163.999C166.445 164.144 166.527 164.342 166.527 164.548C166.527 164.754 166.445 164.952 166.299 165.097C166.153 165.243 165.956 165.325 165.75 165.325C165.544 165.325 165.346 165.243 165.2 165.097C165.055 164.952 164.973 164.754 164.973 164.548ZM164.973 145.465C164.973 145.259 165.055 145.061 165.2 144.915C165.346 144.77 165.544 144.688 165.75 144.688C165.956 144.688 166.153 144.77 166.299 144.915C166.445 145.061 166.527 145.259 166.527 145.465C166.527 145.671 166.445 145.869 166.299 146.014C166.153 146.16 165.956 146.242 165.75 146.242C165.648 146.242 165.547 146.222 165.452 146.183C165.358 146.144 165.272 146.086 165.2 146.014C165.128 145.942 165.071 145.857 165.032 145.762C164.993 145.668 164.973 145.567 164.973 145.465ZM164.973 126.382C164.973 126.176 165.055 125.978 165.2 125.832C165.346 125.687 165.544 125.605 165.75 125.605C165.956 125.605 166.153 125.687 166.299 125.832C166.445 125.978 166.527 126.176 166.527 126.382C166.527 126.588 166.445 126.786 166.299 126.931C166.153 127.077 165.956 127.159 165.75 127.159C165.545 127.159 165.349 127.078 165.204 126.935C165.058 126.791 164.975 126.596 164.973 126.392V126.382ZM164.973 107.304C164.973 107.098 165.055 106.9 165.2 106.754C165.346 106.609 165.544 106.527 165.75 106.527C165.956 106.527 166.153 106.609 166.299 106.754C166.445 106.9 166.527 107.098 166.527 107.304C166.527 107.51 166.445 107.708 166.299 107.853C166.153 107.999 165.956 108.081 165.75 108.081C165.648 108.081 165.547 108.061 165.452 108.022C165.358 107.983 165.272 107.925 165.2 107.853C165.128 107.781 165.071 107.695 165.032 107.601C164.993 107.507 164.973 107.406 164.973 107.304Z" fill="white"/>
<path d="M165.76 88.9978C165.658 88.9983 165.557 88.9784 165.462 88.9392C165.368 88.9001 165.283 88.8425 165.211 88.7699C165.173 88.735 165.14 88.6949 165.112 88.6507C165.085 88.6094 165.061 88.5661 165.04 88.5212C165.019 88.4735 165.005 88.4229 164.999 88.371C164.993 88.3211 164.993 88.2707 164.999 88.2208C165 88.015 165.082 87.8179 165.226 87.6717C165.261 87.635 165.299 87.602 165.34 87.5733C165.383 87.5457 165.428 87.5231 165.475 87.506C165.522 87.4858 165.57 87.4702 165.62 87.4593C165.721 87.4387 165.825 87.4387 165.926 87.4593C165.975 87.4702 166.024 87.4858 166.071 87.506C166.118 87.5231 166.163 87.5457 166.205 87.5733C166.247 87.6033 166.287 87.6361 166.325 87.6717C166.469 87.8179 166.551 88.015 166.553 88.2208C166.558 88.2707 166.558 88.3211 166.553 88.371C166.542 88.4225 166.526 88.4727 166.506 88.5212C166.487 88.5671 166.463 88.6105 166.433 88.6507C166.408 88.6948 166.377 88.7349 166.34 88.7699C166.264 88.8454 166.173 88.9045 166.074 88.9437C165.974 88.9829 165.867 89.0013 165.76 88.9978Z" fill="white"/>
<path d="M201.958 88.2204C201.958 88.0143 202.04 87.8167 202.185 87.6709C202.331 87.5252 202.529 87.4434 202.735 87.4434C202.941 87.4434 203.139 87.5252 203.284 87.6709C203.43 87.8167 203.512 88.0143 203.512 88.2204C203.512 88.4264 203.43 88.6241 203.284 88.7698C203.139 88.9155 202.941 88.9974 202.735 88.9974C202.529 88.9974 202.331 88.9155 202.185 88.7698C202.04 88.6241 201.958 88.4264 201.958 88.2204ZM183.465 88.2204C183.465 88.0143 183.547 87.8167 183.693 87.6709C183.839 87.5252 184.036 87.4434 184.242 87.4434C184.448 87.4434 184.646 87.5252 184.792 87.6709C184.937 87.8167 185.019 88.0143 185.019 88.2204C185.019 88.4264 184.937 88.6241 184.792 88.7698C184.646 88.9155 184.448 88.9974 184.242 88.9974C184.036 88.9974 183.839 88.9155 183.693 88.7698C183.547 88.6241 183.465 88.4264 183.465 88.2204Z" fill="white"/>
<path d="M221.227 88.9974C221.177 89.0025 221.127 89.0025 221.077 88.9974L220.932 88.956L220.798 88.8834C220.756 88.8535 220.716 88.8206 220.678 88.785C220.533 88.6394 220.451 88.4419 220.45 88.2359C220.452 88.0302 220.534 87.8331 220.678 87.6869C220.714 87.6514 220.754 87.6201 220.798 87.5936C220.838 87.5625 220.884 87.538 220.932 87.5211C220.979 87.5002 221.027 87.4845 221.077 87.4745C221.178 87.4538 221.282 87.4538 221.383 87.4745L221.528 87.5211C221.575 87.5381 221.618 87.5626 221.657 87.5936C221.701 87.6187 221.742 87.6501 221.777 87.6869C221.921 87.8331 222.003 88.0302 222.004 88.2359C222.004 88.4419 221.922 88.6394 221.777 88.785C221.74 88.8218 221.7 88.8548 221.657 88.8834C221.616 88.9107 221.573 88.9349 221.528 88.956L221.383 88.9974C221.331 89.0025 221.279 89.0025 221.227 88.9974Z" fill="white"/>
<path d="M220.45 183.626C220.45 183.42 220.532 183.222 220.678 183.077C220.824 182.931 221.021 182.849 221.227 182.849C221.434 182.849 221.631 182.931 221.777 183.077C221.923 183.222 222.004 183.42 222.004 183.626C222.004 183.832 221.923 184.03 221.777 184.175C221.631 184.321 221.434 184.403 221.227 184.403C221.021 184.403 220.824 184.321 220.678 184.175C220.532 184.03 220.45 183.832 220.45 183.626ZM220.45 164.548C220.45 164.342 220.532 164.144 220.678 163.999C220.824 163.853 221.021 163.771 221.227 163.771C221.434 163.771 221.631 163.853 221.777 163.999C221.923 164.144 222.004 164.342 222.004 164.548C222.004 164.754 221.923 164.952 221.777 165.097C221.631 165.243 221.434 165.325 221.227 165.325C221.021 165.325 220.824 165.243 220.678 165.097C220.532 164.952 220.45 164.754 220.45 164.548ZM220.45 145.465C220.45 145.259 220.532 145.061 220.678 144.915C220.824 144.77 221.021 144.688 221.227 144.688C221.434 144.688 221.631 144.77 221.777 144.915C221.923 145.061 222.004 145.259 222.004 145.465C222.004 145.671 221.923 145.869 221.777 146.014C221.631 146.16 221.434 146.242 221.227 146.242C221.125 146.242 221.024 146.222 220.93 146.183C220.836 146.144 220.75 146.086 220.678 146.014C220.606 145.942 220.549 145.857 220.51 145.762C220.471 145.668 220.45 145.567 220.45 145.465ZM220.45 126.382C220.45 126.176 220.532 125.978 220.678 125.832C220.824 125.687 221.021 125.605 221.227 125.605C221.434 125.605 221.631 125.687 221.777 125.832C221.923 125.978 222.004 126.176 222.004 126.382C222.004 126.588 221.923 126.786 221.777 126.931C221.631 127.077 221.434 127.159 221.227 127.159C221.023 127.159 220.827 127.078 220.682 126.935C220.536 126.791 220.453 126.596 220.45 126.392V126.382ZM220.45 107.304C220.45 107.098 220.532 106.9 220.678 106.754C220.824 106.609 221.021 106.527 221.227 106.527C221.434 106.527 221.631 106.609 221.777 106.754C221.923 106.9 222.004 107.098 222.004 107.304C222.004 107.51 221.923 107.708 221.777 107.853C221.631 107.999 221.434 108.081 221.227 108.081C221.125 108.081 221.024 108.061 220.93 108.022C220.836 107.983 220.75 107.925 220.678 107.853C220.606 107.781 220.549 107.695 220.51 107.601C220.471 107.507 220.45 107.406 220.45 107.304Z" fill="white"/>
<path d="M221.227 203.486C221.074 203.486 220.924 203.44 220.796 203.355C220.669 203.27 220.569 203.148 220.51 203.006C220.452 202.864 220.436 202.708 220.466 202.558C220.496 202.407 220.57 202.269 220.678 202.16C220.716 202.124 220.756 202.092 220.798 202.062L220.932 201.989L221.077 201.948C221.178 201.927 221.282 201.927 221.383 201.948L221.528 201.989C221.573 202.01 221.616 202.034 221.657 202.062C221.7 202.09 221.74 202.123 221.777 202.16C221.922 202.306 222.004 202.503 222.004 202.709C222.006 202.811 221.986 202.913 221.947 203.007C221.908 203.101 221.85 203.187 221.777 203.258C221.631 203.404 221.433 203.486 221.227 203.486Z" fill="white"/>
<path d="M49.2101 203.165H27.8633V203.295H49.2101V203.165Z" fill="#E0E0E0"/>
<path d="M92.7221 202.129H71.3131V202.258H92.7221V202.129Z" fill="#E0E0E0"/>
<path d="M120.58 202.129H115.4V202.258H120.58V202.129Z" fill="#E0E0E0"/>
<path d="M68.806 206.553H44.8485V206.682H68.806V206.553Z" fill="#E0E0E0"/>
<path d="M151.67 203.098H140.482V203.227H151.67V203.098Z" fill="#E0E0E0"/>
<path d="M170.748 203.098H156.281V203.227H170.748V203.098Z" fill="#E0E0E0"/>
<path d="M240.523 205.289H208.179V205.418H240.523V205.289Z" fill="#E0E0E0"/>
<path d="M120.906 45.4025H97.0421L98.3475 30.5308H122.207L120.906 45.4025Z" fill="#EBEBEB"/>
<path d="M121.388 28.5107L120.735 36.2756L120.083 45.6099H97.1354L98.4407 28.5107H121.388Z" fill="#FAFAFA"/>
<path d="M119.197 30.531L120.497 45.4028H96.6381L95.3328 30.531H97.3633L98.0678 29.4121H104.496L105.418 30.531H119.197Z" fill="#E0E0E0"/>
<path d="M157.892 48.7231H132.499V74.1155H157.892V48.7231Z" fill="#EBEBEB"/>
<path d="M158.539 48.7231H157.892V74.1155H158.539V48.7231Z" fill="#E0E0E0"/>
<path d="M155.54 51.0747H134.841V71.774H155.54V51.0747Z" fill="#F5F5F5"/>
<path d="M135.037 51.0747H134.846V71.774H135.037V51.0747Z" fill="#E0E0E0"/>
<path d="M145.387 64.4133C147.616 64.4133 149.422 62.1127 149.422 59.2748C149.422 56.4368 147.616 54.1362 145.387 54.1362C143.158 54.1362 141.352 56.4368 141.352 59.2748C141.352 62.1127 143.158 64.4133 145.387 64.4133Z" fill="#E0E0E0"/>
<path d="M143.279 67.0137H147.532V62.7609H143.279V67.0137Z" fill="#E0E0E0"/>
<path d="M153.053 71.7739H137.472V70.3235C137.472 68.9992 137.998 67.729 138.935 66.7926C139.871 65.8561 141.141 65.33 142.466 65.33H148.081C149.405 65.33 150.675 65.8561 151.612 66.7926C152.548 67.729 153.074 68.9992 153.074 70.3235V71.7739H153.053Z" fill="#E0E0E0"/>
<path d="M137.083 63.134C137.083 63.9784 138.637 64.688 138.637 64.688C138.637 64.688 140.191 63.9991 140.191 63.134C140.191 62.73 139.632 62.5021 139.264 62.616C139.123 62.6652 138.994 62.7417 138.882 62.8413C138.771 62.9409 138.681 63.0615 138.617 63.1962C138.418 62.929 138.157 62.7154 137.855 62.5746C137.767 62.5436 137.672 62.5345 137.58 62.5481C137.487 62.5616 137.399 62.5974 137.323 62.6524C137.247 62.7074 137.186 62.7799 137.144 62.8638C137.102 62.9477 137.082 63.0404 137.083 63.134Z" fill="#E0E0E0"/>
<path d="M150.873 59.3577C150.873 60.4714 152.888 61.3727 152.888 61.3727C152.888 61.3727 154.903 60.4714 154.903 59.3577C154.903 58.8397 154.157 58.534 153.685 58.6687C153.33 58.8107 153.044 59.0857 152.888 59.4354C152.625 59.0863 152.282 58.8056 151.888 58.6169C151.771 58.5756 151.646 58.5633 151.524 58.5812C151.401 58.5991 151.285 58.6466 151.185 58.7196C151.085 58.7925 151.004 58.8888 150.95 59C150.895 59.1111 150.869 59.2339 150.873 59.3577Z" fill="#E0E0E0"/>
<path d="M106.558 186.128C106.796 187.625 107.879 188.915 107.962 190.427C108.029 191.613 107.475 192.727 107.2 193.882C106.926 195.037 107.06 196.472 108.07 197.083C108.438 197.27 108.849 197.356 109.26 197.331C109.672 197.306 110.069 197.173 110.412 196.944C111.088 196.475 111.647 195.856 112.043 195.136C113.632 192.567 114.5 189.619 114.556 186.599C114.556 185.33 114.426 183.983 113.68 182.973C111.37 179.746 105.967 182.398 106.558 186.128Z" fill="#F5F5F5"/>
<path d="M104.636 182.165C104.859 182.408 105.149 182.58 105.47 182.657C105.664 182.72 105.871 182.733 106.071 182.694C106.272 182.655 106.459 182.566 106.615 182.434C106.734 182.281 106.819 182.105 106.863 181.916C106.908 181.727 106.912 181.531 106.874 181.341C106.842 180.864 106.679 180.405 106.402 180.015C106.264 179.823 106.079 179.668 105.866 179.564C105.653 179.46 105.417 179.41 105.18 179.42C104.943 179.439 104.721 179.539 104.549 179.703C104.377 179.867 104.267 180.085 104.237 180.321C104.18 180.962 104.319 181.605 104.636 182.165Z" fill="#F5F5F5"/>
<path d="M108.941 179.052C108.835 178.888 108.683 178.759 108.504 178.681C108.326 178.602 108.128 178.578 107.936 178.612C107.745 178.654 107.573 178.753 107.44 178.895C107.306 179.038 107.219 179.217 107.19 179.409C107.181 179.535 107.181 179.662 107.19 179.788C107.192 179.991 107.214 180.194 107.257 180.394C107.3 180.586 107.391 180.764 107.521 180.912C107.699 181.084 107.925 181.2 108.169 181.243C108.32 181.279 108.477 181.278 108.628 181.241C108.779 181.203 108.918 181.129 109.034 181.026C109.137 180.9 109.214 180.755 109.26 180.6C109.306 180.444 109.321 180.281 109.303 180.119C109.291 179.735 109.165 179.364 108.941 179.052Z" fill="#F5F5F5"/>
<path d="M111.339 178.922C111.254 178.766 111.116 178.646 110.949 178.583C110.783 178.52 110.599 178.519 110.432 178.581C110.269 178.648 110.126 178.755 110.014 178.892C109.902 179.028 109.825 179.19 109.79 179.363C109.79 179.477 109.759 179.591 109.754 179.705C109.751 179.893 109.772 180.081 109.816 180.264C109.853 180.444 109.948 180.608 110.085 180.73C110.232 180.853 110.413 180.929 110.603 180.948C110.727 180.963 110.853 180.951 110.972 180.913C111.091 180.874 111.201 180.81 111.292 180.725C111.494 180.496 111.604 180.201 111.603 179.896C111.626 179.551 111.533 179.209 111.339 178.922Z" fill="#F5F5F5"/>
<path d="M113.478 179.42C113.224 179.042 112.96 179.016 112.67 179.176C112.412 179.365 112.229 179.638 112.152 179.948C112.123 180.048 112.102 180.15 112.09 180.254C112.062 180.425 112.062 180.6 112.09 180.772C112.124 180.938 112.22 181.084 112.359 181.181C112.488 181.261 112.639 181.297 112.789 181.285C112.985 181.267 113.169 181.181 113.307 181.041C113.498 180.837 113.619 180.578 113.654 180.3C113.707 179.995 113.644 179.681 113.478 179.42Z" fill="#F5F5F5"/>
<path d="M113.898 181.518C113.87 181.64 113.87 181.768 113.898 181.891C113.908 181.953 113.934 182.013 113.973 182.063C114.012 182.114 114.062 182.154 114.121 182.181C114.226 182.205 114.337 182.197 114.438 182.158C114.54 182.119 114.628 182.052 114.69 181.963C114.844 181.806 114.956 181.614 115.017 181.404C115.047 181.298 115.056 181.188 115.042 181.08C115.029 180.971 114.994 180.866 114.939 180.772C114.478 180.021 113.96 181.145 113.898 181.518Z" fill="#F5F5F5"/>
<path d="M114.317 220.725C114.664 219.502 114.867 218.161 114.405 216.975C112.981 213.281 107.097 214.457 106.708 218.218L114.317 220.725Z" fill="#F5F5F5"/>
<path d="M105.89 213.898C106.043 214.191 106.282 214.431 106.573 214.587C106.744 214.697 106.94 214.762 107.143 214.776C107.346 214.79 107.55 214.751 107.734 214.664C107.885 214.545 108.009 214.396 108.099 214.225C108.188 214.055 108.24 213.867 108.252 213.675C108.343 213.207 108.304 212.723 108.138 212.276C108.052 212.053 107.912 211.855 107.732 211.699C107.551 211.543 107.335 211.433 107.102 211.38C106.869 211.339 106.629 211.378 106.421 211.493C106.214 211.607 106.052 211.788 105.962 212.007C105.748 212.615 105.722 213.275 105.89 213.898Z" fill="#F5F5F5"/>
<path d="M110.852 211.987C110.791 211.801 110.676 211.638 110.524 211.517C110.371 211.395 110.186 211.321 109.992 211.303C109.797 211.296 109.605 211.348 109.44 211.451C109.275 211.555 109.144 211.705 109.065 211.883C109.019 212.001 108.981 212.122 108.951 212.246C108.899 212.442 108.867 212.643 108.858 212.846C108.845 213.049 108.886 213.251 108.977 213.432C109.1 213.639 109.28 213.806 109.495 213.914C109.631 213.986 109.783 214.024 109.938 214.024C110.092 214.024 110.244 213.986 110.381 213.914C110.516 213.821 110.632 213.703 110.721 213.565C110.81 213.427 110.871 213.272 110.899 213.111C110.992 212.739 110.975 212.349 110.852 211.987Z" fill="#F5F5F5"/>
<path d="M113.183 212.479C113.141 212.308 113.04 212.158 112.897 212.055C112.755 211.951 112.581 211.902 112.406 211.914C112.231 211.939 112.064 212.006 111.921 212.11C111.777 212.214 111.661 212.351 111.582 212.51C111.536 212.613 111.494 212.718 111.458 212.826C111.4 213.002 111.365 213.185 111.354 213.37C111.344 213.552 111.391 213.733 111.489 213.888C111.604 214.05 111.767 214.171 111.955 214.235C112.072 214.282 112.197 214.302 112.323 214.295C112.448 214.288 112.57 214.253 112.68 214.193C112.935 214.026 113.119 213.772 113.198 213.478C113.304 213.152 113.298 212.801 113.183 212.479Z" fill="#F5F5F5"/>
<path d="M115.12 213.509C114.975 213.074 114.701 212.991 114.405 213.064C114.104 213.176 113.851 213.391 113.691 213.67C113.639 213.76 113.592 213.854 113.551 213.95C113.487 214.105 113.449 214.269 113.437 214.437C113.427 214.604 113.481 214.768 113.587 214.898C113.69 215.009 113.826 215.084 113.976 215.11C114.169 215.148 114.37 215.113 114.54 215.012C114.774 214.861 114.955 214.642 115.058 214.385C115.185 214.11 115.207 213.799 115.12 213.509Z" fill="#F5F5F5"/>
<path d="M114.996 215.643C114.933 215.752 114.896 215.875 114.887 216.001C114.882 216.064 114.892 216.127 114.917 216.186C114.941 216.245 114.979 216.296 115.027 216.337C115.123 216.388 115.232 216.409 115.34 216.398C115.447 216.387 115.55 216.344 115.633 216.275C115.821 216.162 115.979 216.006 116.094 215.819C116.15 215.725 116.187 215.621 116.202 215.512C116.217 215.404 116.21 215.293 116.182 215.187C115.913 214.343 115.162 215.307 114.996 215.643Z" fill="#F5F5F5"/>
<path d="M93.8979 198.736C94.0895 200.243 93.3799 201.782 93.7425 203.258C94.0067 204.413 94.851 205.33 95.4312 206.366C96.0113 207.402 96.2859 208.811 95.4778 209.681C95.1777 209.964 94.8077 210.16 94.4061 210.251C94.0045 210.342 93.5858 210.325 93.1934 210.199C92.4139 209.932 91.7053 209.491 91.1214 208.91C88.8842 206.882 87.2344 204.289 86.3454 201.404C85.9725 200.186 85.7446 198.855 86.1797 197.659C87.542 193.934 93.4369 194.991 93.8979 198.736Z" fill="#F5F5F5"/>
<path d="M94.6282 194.405C94.4826 194.7 94.2515 194.944 93.9652 195.105C93.797 195.22 93.6019 195.29 93.3986 195.309C93.1953 195.327 92.9908 195.292 92.8049 195.208C92.6471 195.095 92.5158 194.949 92.4202 194.78C92.3245 194.611 92.2666 194.423 92.2506 194.229C92.1506 193.762 92.1793 193.277 92.3335 192.825C92.4173 192.6 92.5558 192.398 92.7366 192.239C92.9174 192.08 93.1348 191.968 93.3695 191.914C93.6017 191.867 93.843 191.901 94.0532 192.01C94.2634 192.119 94.4298 192.297 94.5246 192.515C94.6697 192.996 94.851 193.934 94.6282 194.405Z" fill="#F5F5F5"/>
<path d="M89.6503 192.597C89.7073 192.411 89.8176 192.244 89.9675 192.119C90.1175 191.994 90.3006 191.916 90.4946 191.893C90.6893 191.883 90.8826 191.931 91.0497 192.032C91.2167 192.133 91.3499 192.281 91.4322 192.457C91.4823 192.573 91.5238 192.693 91.5565 192.815C91.6124 193.009 91.6471 193.209 91.6601 193.411C91.6789 193.614 91.6412 193.818 91.5513 194.001C91.4362 194.223 91.2553 194.404 91.0333 194.519C90.9 194.597 90.7494 194.642 90.595 194.648C90.4405 194.654 90.2868 194.622 90.1475 194.555C90.0123 194.464 89.8967 194.346 89.8078 194.209C89.7188 194.072 89.6582 193.918 89.6295 193.758C89.5171 193.378 89.5243 192.973 89.6503 192.597Z" fill="#F5F5F5"/>
<path d="M87.3089 193.136C87.3471 192.962 87.4466 192.808 87.5893 192.701C87.732 192.595 87.9083 192.543 88.0859 192.556C88.261 192.578 88.4283 192.641 88.5736 192.741C88.7188 192.841 88.8376 192.975 88.9199 193.131C88.9697 193.234 89.0129 193.339 89.0494 193.447C89.1128 193.622 89.1529 193.805 89.1686 193.991C89.179 194.173 89.1338 194.353 89.0391 194.509C88.9286 194.673 88.7691 194.798 88.5832 194.866C88.468 194.916 88.3431 194.94 88.2177 194.935C88.0922 194.931 87.9694 194.898 87.858 194.841C87.6047 194.677 87.4204 194.426 87.34 194.136C87.2198 193.815 87.2088 193.464 87.3089 193.136Z" fill="#F5F5F5"/>
<path d="M85.3923 194.208C85.5321 193.773 85.8015 193.69 86.1019 193.747C86.4059 193.855 86.6626 194.066 86.8271 194.343C86.8814 194.431 86.9299 194.523 86.9722 194.618C87.0419 194.77 87.084 194.933 87.0965 195.099C87.1128 195.267 87.0626 195.435 86.9566 195.566C86.8564 195.678 86.7216 195.755 86.5733 195.783C86.3796 195.826 86.177 195.796 86.0035 195.7C85.7631 195.556 85.5731 195.34 85.4596 195.084C85.3319 194.81 85.308 194.499 85.3923 194.208Z" fill="#F5F5F5"/>
<path d="M85.5685 196.322C85.6326 196.431 85.6732 196.553 85.6876 196.679C85.6934 196.743 85.6842 196.807 85.6608 196.866C85.6374 196.926 85.6005 196.979 85.5529 197.021C85.4569 197.072 85.3481 197.095 85.2397 197.086C85.1312 197.076 85.0277 197.036 84.9417 196.969C84.752 196.862 84.5919 196.709 84.4755 196.524C84.4167 196.431 84.3776 196.327 84.3606 196.218C84.3437 196.109 84.3493 195.998 84.3771 195.892C84.6205 195.058 85.3924 196.006 85.5685 196.322Z" fill="#F5F5F5"/>
<path d="M81.1861 74.3798C79.994 74.5474 78.779 74.3578 77.6947 73.8348C76.6104 73.3118 75.7056 72.4791 75.0946 71.4418C74.4836 70.4046 74.1939 69.2094 74.2621 68.0075C74.3304 66.8057 74.7535 65.651 75.478 64.6896C76.2025 63.7282 77.1958 63.0032 78.3323 62.6064C79.4689 62.2095 80.6976 62.1586 81.863 62.4601C83.0285 62.7615 84.0784 63.4018 84.8799 64.3C85.6815 65.1982 86.1987 66.3139 86.3661 67.506C86.5878 69.104 86.1672 70.7247 85.1962 72.0131C84.2253 73.3015 82.7833 74.1525 81.1861 74.3798ZM79.9533 65.522C79.394 65.5991 78.8701 65.8404 78.4479 66.2154C78.0257 66.5903 77.7242 67.082 77.5815 67.6283C77.4388 68.1746 77.4614 68.751 77.6464 69.2845C77.8313 69.818 78.1704 70.2846 78.6206 70.6253C79.0708 70.9661 79.612 71.1656 80.1757 71.1988C80.7393 71.2319 81.3002 71.0971 81.7872 70.8114C82.2742 70.5257 82.6656 70.102 82.9117 69.5938C83.1579 69.0857 83.2478 68.5159 83.1701 67.9566C83.0647 67.208 82.6671 66.5316 82.0642 66.0753C81.4614 65.6191 80.7024 65.4202 79.9533 65.522Z" fill="#E0E0E0"/>
<path d="M78.9045 50.1956L76.6165 50.5151L78.6719 65.2337L80.96 64.9142L78.9045 50.1956Z" fill="#E0E0E0"/>
<path d="M80.84 48.1474L76.5477 48.7544L76.8712 51.0416L81.1635 50.4346L80.84 48.1474Z" fill="#E0E0E0"/>
<path d="M81.1929 51.2586L77.1553 51.8218L77.4744 54.1099L81.512 53.5468L81.1929 51.2586Z" fill="#E0E0E0"/>
<path d="M81.7813 55.4069L78.2567 55.8984L78.5758 58.1866L82.1004 57.695L81.7813 55.4069Z" fill="#E0E0E0"/>
<path d="M129.5 229.262C184.969 229.262 229.935 226.636 229.935 223.398C229.935 220.159 184.969 217.534 129.5 217.534C74.0312 217.534 29.0649 220.159 29.0649 223.398C29.0649 226.636 74.0312 229.262 129.5 229.262Z" fill="#F5F5F5"/>
<path d="M76.3896 126.017C81.1652 121.028 80.6239 112.76 75.1806 107.549C69.7373 102.338 61.4532 102.158 56.6776 107.147C51.9019 112.136 52.4432 120.404 57.8865 125.615C63.3299 130.826 71.614 131.006 76.3896 126.017Z" fill="#3373CC"/>
<g opacity="0.8">
<path d="M76.3896 126.017C81.1652 121.028 80.6239 112.76 75.1806 107.549C69.7373 102.338 61.4532 102.158 56.6776 107.147C51.9019 112.136 52.4432 120.404 57.8865 125.615C63.3299 130.826 71.614 131.006 76.3896 126.017Z" fill="white"/>
</g>
<path d="M60.4455 108.386C60.3368 108.386 60.2308 108.352 60.1426 108.289C60.0544 108.225 59.9885 108.135 59.9541 108.032C59.9197 107.929 59.9186 107.818 59.9511 107.714C59.9835 107.61 60.0477 107.519 60.1347 107.454C61.8789 106.202 63.9813 105.548 66.128 105.589C66.2653 105.589 66.3971 105.644 66.4942 105.741C66.5914 105.838 66.646 105.97 66.646 106.107C66.646 106.245 66.5914 106.376 66.4942 106.474C66.3971 106.571 66.2653 106.625 66.128 106.625C64.2053 106.583 62.3207 107.164 60.7563 108.283C60.6666 108.35 60.5576 108.386 60.4455 108.386Z" fill="#3373CC"/>
<path d="M62.8956 126.206C62.8106 126.205 62.7269 126.184 62.6521 126.143C61.0646 125.295 59.6872 124.101 58.6206 122.651C57.554 121.201 56.8253 119.53 56.4879 117.762C56.1588 116.233 56.174 114.649 56.5323 113.126C56.8907 111.603 57.5833 110.179 58.5599 108.956C58.6478 108.85 58.7742 108.784 58.9112 108.771C59.0481 108.759 59.1845 108.801 59.2903 108.889C59.3961 108.977 59.4626 109.103 59.4752 109.24C59.4879 109.377 59.4456 109.513 59.3576 109.619C58.4754 110.726 57.8507 112.015 57.529 113.393C57.2074 114.771 57.1968 116.203 57.498 117.586C57.8083 119.203 58.4753 120.729 59.4502 122.056C60.4251 123.382 61.6836 124.474 63.1339 125.252C63.2351 125.307 63.3153 125.394 63.3618 125.499C63.4082 125.605 63.4183 125.722 63.3904 125.834C63.3625 125.946 63.2982 126.045 63.2076 126.116C63.1171 126.187 63.0055 126.226 62.8904 126.226L62.8956 126.206Z" fill="#3373CC"/>
<path d="M68.0808 127.558C66.9213 127.552 65.7697 127.367 64.6671 127.008C64.6022 126.987 64.542 126.954 64.4901 126.909C64.4381 126.865 64.3954 126.811 64.3644 126.75C64.3333 126.689 64.3146 126.623 64.3092 126.555C64.3039 126.487 64.3119 126.418 64.333 126.353C64.3541 126.288 64.3878 126.228 64.4321 126.176C64.4765 126.124 64.5306 126.081 64.5915 126.05C64.6523 126.019 64.7187 126.001 64.7868 125.995C64.8549 125.99 64.9233 125.998 64.9883 126.019C68.174 127.055 71.3545 126.475 73.7114 124.465C74.9071 123.41 75.8107 122.064 76.3352 120.558C76.8596 119.052 76.9871 117.436 76.7055 115.866C76.6835 115.729 76.717 115.588 76.7986 115.476C76.8802 115.363 77.0032 115.287 77.1406 115.265C77.278 115.243 77.4184 115.277 77.5311 115.358C77.6438 115.44 77.7195 115.563 77.7415 115.7C78.0555 117.445 77.9128 119.241 77.3274 120.914C76.7419 122.586 75.7336 124.079 74.4004 125.247C72.6438 126.758 70.3978 127.579 68.0808 127.558Z" fill="#3373CC"/>
<path d="M76.7935 114.54C76.6836 114.54 76.5767 114.504 76.4882 114.439C76.3998 114.374 76.3343 114.282 76.3014 114.178C75.8249 112.707 75.0448 111.352 74.0114 110.202C72.9781 109.052 71.7147 108.131 70.3029 107.501C70.1765 107.446 70.0772 107.343 70.0266 107.215C69.9761 107.086 69.9786 106.943 70.0336 106.817C70.0885 106.69 70.1914 106.591 70.3197 106.541C70.4479 106.49 70.5909 106.493 70.7173 106.547C72.2633 107.239 73.6469 108.247 74.7784 109.507C75.9099 110.767 76.7641 112.25 77.2856 113.862C77.3281 113.992 77.317 114.134 77.2549 114.257C77.1927 114.379 77.0845 114.472 76.9541 114.514C76.9019 114.53 76.8479 114.539 76.7935 114.54Z" fill="#3373CC"/>
<path d="M68.6299 106.916C68.5903 106.921 68.5503 106.921 68.5107 106.916C67.7312 106.734 66.9335 106.642 66.1331 106.641C65.9957 106.641 65.864 106.586 65.7668 106.489C65.6697 106.392 65.6151 106.26 65.6151 106.123C65.6151 105.986 65.6697 105.854 65.7668 105.757C65.864 105.66 65.9957 105.605 66.1331 105.605C67.0053 105.608 67.8743 105.71 68.7231 105.911C68.8605 105.926 68.986 105.996 69.0719 106.104C69.1579 106.213 69.1973 106.351 69.1815 106.488C69.1657 106.626 69.096 106.751 68.9877 106.837C68.8794 106.923 68.7414 106.962 68.604 106.947L68.6299 106.916Z" fill="#3373CC"/>
<path d="M59.4923 119.29C59.3865 119.291 59.2831 119.259 59.196 119.198C59.1089 119.138 59.0424 119.053 59.0054 118.954C58.5198 117.7 58.349 116.347 58.508 115.012C58.6669 113.677 59.1507 112.402 59.9171 111.298C60.6414 110.251 61.6116 109.399 62.7424 108.816C63.8732 108.232 65.1301 107.935 66.4024 107.951C66.5398 107.951 66.6716 108.006 66.7687 108.103C66.8658 108.2 66.9204 108.332 66.9204 108.469C66.9204 108.607 66.8658 108.738 66.7687 108.836C66.6716 108.933 66.5398 108.987 66.4024 108.987C65.2969 108.974 64.205 109.232 63.2218 109.737C62.2386 110.243 61.3939 110.981 60.7614 111.888C60.0894 112.861 59.6666 113.983 59.5302 115.158C59.3939 116.332 59.548 117.521 59.9792 118.622C60.0261 118.751 60.0203 118.892 59.9631 119.017C59.9058 119.141 59.8018 119.237 59.6736 119.285C59.6139 119.297 59.5526 119.299 59.4923 119.29Z" fill="#3373CC"/>
<path d="M67.7078 125.206C66.1551 125.154 64.638 124.728 63.2852 123.964C61.9325 123.201 60.7841 122.121 59.9378 120.819C59.8749 120.704 59.8576 120.57 59.8893 120.444C59.9209 120.317 59.9993 120.207 60.1087 120.135C60.218 120.064 60.3503 120.037 60.479 120.059C60.6077 120.081 60.7234 120.15 60.8028 120.254C61.5551 121.413 62.5752 122.374 63.777 123.055C64.9788 123.737 66.3271 124.119 67.7078 124.17C67.8452 124.17 67.9769 124.225 68.0741 124.322C68.1712 124.419 68.2258 124.551 68.2258 124.688C68.2258 124.826 68.1712 124.957 68.0741 125.054C67.9769 125.152 67.8452 125.206 67.7078 125.206Z" fill="#3373CC"/>
<path d="M69.6451 124.983C69.5268 124.986 69.4108 124.949 69.3166 124.878C69.2223 124.806 69.1555 124.704 69.1271 124.589C69.0942 124.456 69.1156 124.315 69.1865 124.198C69.2574 124.08 69.372 123.996 69.5053 123.963C73.7062 122.927 74.794 119.244 74.447 116.415C73.9963 112.727 71.0852 108.992 66.3869 108.987C66.2495 108.987 66.1178 108.933 66.0206 108.835C65.9235 108.738 65.8689 108.607 65.8689 108.469C65.8689 108.332 65.9235 108.2 66.0206 108.103C66.1178 108.006 66.2495 107.951 66.3869 107.951C71.686 107.951 74.9702 112.147 75.4778 116.291C75.9958 120.564 73.7529 123.973 69.7539 124.967C69.7183 124.976 69.6818 124.982 69.6451 124.983Z" fill="#3373CC"/>
<path d="M64.2838 111.847C64.1856 111.846 64.0897 111.817 64.0071 111.764C63.9246 111.711 63.8589 111.635 63.8176 111.546C63.7593 111.422 63.7527 111.279 63.7993 111.15C63.8459 111.021 63.942 110.916 64.0663 110.857C64.8604 110.506 65.7207 110.329 66.5889 110.339C66.7263 110.339 66.8581 110.394 66.9552 110.491C67.0524 110.588 67.1069 110.72 67.1069 110.857C67.1069 110.995 67.0524 111.126 66.9552 111.224C66.8581 111.321 66.7263 111.375 66.5889 111.375C65.874 111.376 65.1675 111.529 64.5169 111.826C64.4418 111.851 64.3621 111.858 64.2838 111.847Z" fill="#3373CC"/>
<path d="M67.6145 122.792C66.3026 122.771 65.0242 122.375 63.9308 121.649C62.8374 120.924 61.9747 119.901 61.4451 118.7C60.3729 116.364 60.6888 113.924 62.2895 112.163C62.3823 112.062 62.5113 112.002 62.6482 111.997C62.7851 111.991 62.9187 112.039 63.0198 112.132C63.1206 112.225 63.1804 112.354 63.1862 112.491C63.192 112.628 63.1434 112.761 63.0509 112.862C62.4073 113.59 61.9994 114.496 61.881 115.461C61.7626 116.425 61.9394 117.403 62.3879 118.265C62.8457 119.311 63.6009 120.2 64.5596 120.821C65.5183 121.441 66.6382 121.767 67.7803 121.756C68.6442 121.75 69.4879 121.494 70.2095 121.019C70.931 120.543 71.4996 119.869 71.8466 119.078C72.2367 118.145 72.3543 117.12 72.1856 116.122C72.0169 115.125 71.5688 114.196 70.8934 113.442C70.8492 113.391 70.8156 113.331 70.7946 113.266C70.7735 113.201 70.7654 113.133 70.7707 113.065C70.776 112.998 70.7946 112.931 70.8254 112.871C70.8562 112.81 70.8987 112.756 70.9504 112.712C71.0021 112.668 71.062 112.634 71.1267 112.613C71.1914 112.592 71.2596 112.584 71.3274 112.589C71.3952 112.595 71.4614 112.613 71.522 112.644C71.5826 112.675 71.6366 112.717 71.6808 112.769C72.4849 113.671 73.0164 114.782 73.2136 115.975C73.4107 117.167 73.2654 118.39 72.7945 119.503C72.3695 120.474 71.6731 121.301 70.7891 121.886C69.905 122.47 68.871 122.787 67.8113 122.797L67.6145 122.792Z" fill="#3373CC"/>
<path d="M69.7953 112.303C69.6976 112.303 69.6019 112.274 69.5208 112.22C68.6461 111.657 67.6291 111.355 66.5889 111.349C66.4515 111.349 66.3198 111.295 66.2226 111.198C66.1255 111.101 66.0709 110.969 66.0709 110.831C66.0709 110.694 66.1255 110.562 66.2226 110.465C66.3198 110.368 66.4515 110.313 66.5889 110.313C67.8262 110.318 69.0361 110.678 70.0751 111.349C70.1689 111.41 70.2406 111.499 70.2795 111.604C70.3185 111.709 70.3225 111.823 70.291 111.93C70.2596 112.038 70.1943 112.132 70.105 112.199C70.0157 112.266 69.907 112.302 69.7953 112.303Z" fill="#3373CC"/>
<path d="M67.34 120.456C66.7348 120.452 66.1378 120.315 65.591 120.056C65.0442 119.796 64.5609 119.42 64.175 118.954C63.6772 118.384 63.3538 117.683 63.2436 116.934C63.1334 116.186 63.2409 115.421 63.5534 114.732C63.8324 114.107 64.2889 113.577 64.8662 113.208C65.4436 112.84 66.1165 112.649 66.8013 112.66C66.9387 112.66 67.0704 112.715 67.1676 112.812C67.2647 112.909 67.3193 113.041 67.3193 113.178C67.3193 113.315 67.2647 113.447 67.1676 113.544C67.0704 113.642 66.9387 113.696 66.8013 113.696C66.3169 113.687 65.8405 113.82 65.4309 114.079C65.0213 114.338 64.6964 114.711 64.4962 115.152C64.2684 115.66 64.1918 116.224 64.2753 116.775C64.3589 117.326 64.5992 117.841 64.9676 118.26C65.3343 118.709 65.8211 119.045 66.3713 119.228C66.9216 119.412 67.5126 119.435 68.0756 119.296C68.5336 119.193 68.9524 118.96 69.2821 118.626C69.6118 118.292 69.8384 117.87 69.9352 117.41C69.9649 117.276 70.0465 117.16 70.162 117.086C70.2776 117.012 70.4177 116.987 70.5516 117.016C70.6183 117.031 70.6816 117.058 70.7378 117.096C70.794 117.135 70.842 117.185 70.8791 117.242C70.9162 117.299 70.9415 117.363 70.9538 117.43C70.966 117.497 70.9649 117.566 70.9505 117.633C70.8133 118.281 70.4937 118.877 70.0293 119.349C69.5649 119.822 68.9751 120.152 68.3294 120.301C68.007 120.392 67.6748 120.444 67.34 120.456Z" fill="#3373CC"/>
<path d="M70.3547 116.354C70.2405 116.359 70.1277 116.326 70.034 116.26C69.9403 116.195 69.8709 116.1 69.8367 115.991C69.63 115.342 69.226 114.774 68.6809 114.365C68.1359 113.957 67.477 113.728 66.7961 113.712C66.6587 113.712 66.5269 113.657 66.4298 113.56C66.3327 113.463 66.2781 113.331 66.2781 113.194C66.2781 113.056 66.3327 112.925 66.4298 112.827C66.5269 112.73 66.6587 112.676 66.7961 112.676C67.6967 112.696 68.5687 112.996 69.2909 113.534C70.0132 114.073 70.5497 114.823 70.8261 115.68C70.847 115.745 70.8549 115.814 70.8493 115.882C70.8437 115.95 70.8247 116.016 70.7934 116.076C70.7621 116.137 70.7192 116.191 70.667 116.235C70.6148 116.279 70.5545 116.312 70.4894 116.333C70.4456 116.346 70.4004 116.353 70.3547 116.354Z" fill="#3373CC"/>
<path d="M67.4799 118.301C67.3425 118.301 67.2108 118.247 67.1136 118.149C67.0165 118.052 66.9619 117.921 66.9619 117.783C66.9619 117.646 67.0165 117.514 67.1136 117.417C67.2108 117.32 67.3425 117.265 67.4799 117.265C67.5506 117.265 67.6206 117.251 67.6856 117.223C67.7505 117.195 67.8091 117.154 67.8576 117.103C67.9062 117.051 67.9436 116.99 67.9678 116.924C67.9919 116.857 68.0022 116.787 67.9979 116.716C68.0007 116.615 67.9833 116.515 67.947 116.421C67.9106 116.327 67.8558 116.241 67.786 116.168C67.7161 116.095 67.6324 116.037 67.5399 115.997C67.4473 115.957 67.3477 115.935 67.2468 115.934C67.1708 115.936 67.096 115.953 67.0266 115.984C66.9573 116.015 66.8948 116.06 66.8428 116.115C66.7897 116.178 66.7495 116.25 66.7246 116.329C66.6997 116.407 66.6906 116.489 66.6977 116.571C66.7018 116.639 66.6925 116.707 66.6702 116.772C66.6479 116.836 66.6132 116.895 66.568 116.946C66.5228 116.997 66.468 117.039 66.4067 117.069C66.3454 117.099 66.2788 117.116 66.2108 117.12C66.1428 117.124 66.0746 117.115 66.0102 117.093C65.9458 117.07 65.8864 117.036 65.8354 116.99C65.7844 116.945 65.7429 116.89 65.7131 116.829C65.6832 116.768 65.6658 116.701 65.6617 116.633C65.6433 116.416 65.6695 116.197 65.7387 115.99C65.8079 115.783 65.9187 115.593 66.0642 115.43C66.2098 115.268 66.387 115.137 66.585 115.045C66.783 114.954 66.9976 114.904 67.2157 114.898C67.4528 114.899 67.6875 114.946 67.906 115.038C68.1246 115.13 68.3227 115.265 68.4889 115.434C68.6552 115.603 68.7862 115.803 68.8744 116.023C68.9626 116.244 69.0063 116.479 69.0028 116.716C69.007 116.923 68.9698 117.128 68.8936 117.32C68.8173 117.513 68.7035 117.688 68.5588 117.835C68.4141 117.983 68.2414 118.1 68.0508 118.18C67.8602 118.26 67.6555 118.301 67.4488 118.301H67.4799Z" fill="#3373CC"/>
<path d="M80.8081 116.576C81.44 123.792 76.0994 129.64 68.8941 129.64H68.3346C75.2033 129.288 80.1916 123.58 79.5804 116.592C79.2274 113.171 77.6762 109.986 75.201 107.599C72.7259 105.212 69.4864 103.777 66.0554 103.548C66.2367 103.548 66.4232 103.548 66.6097 103.548C73.8358 103.517 80.1968 109.366 80.8081 116.576Z" fill="#3373CC"/>
<g opacity="0.4">
<path d="M80.8081 116.576C81.44 123.792 76.0994 129.64 68.8941 129.64H68.3346C75.2033 129.288 80.1916 123.58 79.5804 116.592C79.2274 113.171 77.6762 109.986 75.201 107.599C72.7259 105.212 69.4864 103.777 66.0554 103.548C66.2367 103.548 66.4232 103.548 66.6097 103.548C73.8358 103.517 80.1968 109.366 80.8081 116.576Z" fill="white"/>
</g>
<path d="M91.3855 52.9086C91.3982 53.0632 91.419 53.2171 91.4477 53.3696C91.6431 54.3677 92.1554 55.276 92.9084 55.9596C93.7616 56.7585 94.8838 57.2078 96.0527 57.2183H139.819C140.329 57.2286 140.837 57.1373 141.312 56.9495C141.788 56.7617 142.221 56.4813 142.587 56.1246C142.952 55.7679 143.244 55.342 143.444 54.8717C143.643 54.4014 143.747 53.8961 143.75 53.3851C143.758 53.2316 143.758 53.0777 143.75 52.9241C143.628 51.7643 143.087 50.6888 142.229 49.8992C141.371 49.1097 140.254 48.6602 139.088 48.6351H95.3119C94.7632 48.624 94.2183 48.7298 93.7136 48.9454C93.2088 49.161 92.7557 49.4816 92.3843 49.8858C92.013 50.29 91.7319 50.7685 91.5597 51.2897C91.3874 51.8109 91.3281 52.3627 91.3855 52.9086Z" fill="#3373CC"/>
<path opacity="0.8" d="M91.3855 52.9086C91.3982 53.0632 91.419 53.2171 91.4477 53.3696C91.6431 54.3677 92.1554 55.276 92.9084 55.9596C93.7616 56.7585 94.8838 57.2078 96.0527 57.2183H139.819C140.329 57.2286 140.837 57.1373 141.312 56.9495C141.788 56.7617 142.221 56.4813 142.587 56.1246C142.952 55.7679 143.244 55.342 143.444 54.8717C143.643 54.4014 143.747 53.8961 143.75 53.3851C143.758 53.2316 143.758 53.0777 143.75 52.9241C143.628 51.7643 143.087 50.6888 142.229 49.8992C141.371 49.1097 140.254 48.6602 139.088 48.6351H95.3119C94.7632 48.624 94.2183 48.7298 93.7136 48.9454C93.2088 49.161 92.7557 49.4816 92.3843 49.8858C92.013 50.29 91.7319 50.7685 91.5597 51.2897C91.3874 51.8109 91.3281 52.3627 91.3855 52.9086Z" fill="white"/>
<path d="M143.75 53.3541C143.75 53.4928 143.74 53.6313 143.719 53.7685C143.565 52.6349 143.01 51.594 142.155 50.834C141.3 50.0739 140.201 49.6449 139.057 49.6245L92.5251 49.7281C92.894 49.3692 93.3301 49.0866 93.8082 48.8964C94.2864 48.7062 94.7974 48.6121 95.312 48.6195H139.078C140.244 48.6447 141.36 49.0941 142.219 49.8837C143.077 50.6733 143.618 51.7488 143.74 52.9086C143.75 53.0568 143.754 53.2055 143.75 53.3541Z" fill="#3373CC"/>
<path opacity="0.5" d="M143.75 53.3541C143.75 53.4928 143.74 53.6313 143.719 53.7685C143.565 52.6349 143.01 51.594 142.155 50.834C141.3 50.0739 140.201 49.6449 139.057 49.6245L92.5251 49.7281C92.894 49.3692 93.3301 49.0866 93.8082 48.8964C94.2864 48.7062 94.7974 48.6121 95.312 48.6195H139.078C140.244 48.6447 141.36 49.0941 142.219 49.8837C143.077 50.6733 143.618 51.7488 143.74 52.9086C143.75 53.0568 143.754 53.2055 143.75 53.3541Z" fill="white"/>
<path d="M136.234 50.6914L136.42 52.7634L138.368 52.0382L138.829 53.0742L136.84 53.7373L138.27 55.4933L137.374 56.1511L135.98 54.3278L134.944 56.1511L133.965 55.4933L135.068 53.7373L132.996 53.0742L133.276 52.0382L135.374 52.7375L135.188 50.6655L136.234 50.6914Z" fill="#3373CC"/>
<path d="M124.242 50.6915L124.429 52.7635L126.376 52.0383L126.843 53.0743L124.838 53.7529L126.268 55.5089L125.377 56.1668L123.983 54.3434L122.947 56.1668L121.963 55.5089L123.072 53.7529L121 53.0899L121.279 52.0539L123.377 52.7532L123.196 50.6812L124.242 50.6915Z" fill="#3373CC"/>
<path d="M112.276 50.6915L112.458 52.7635L114.405 52.0383L114.872 53.0743L112.877 53.7374L114.307 55.4934L113.442 56.1668L112.048 54.3434L111.012 56.1668L110.033 55.5089L111.137 53.7529L109.065 53.0899L109.35 52.0539L111.422 52.7532L111.24 50.6812L112.276 50.6915Z" fill="#3373CC"/>
<path d="M100.305 50.6914L100.487 52.7634L102.44 52.0382L102.901 53.0742L100.906 53.7373L102.341 55.4933L101.445 56.1511L100.052 54.3278L99.0157 56.1511L98.0367 55.4933L99.14 53.7373L97.068 53.0742L97.3477 52.0382L99.4197 52.7375L99.2384 50.6655L100.305 50.6914Z" fill="#3373CC"/>
<path d="M129.319 46.5889H127.278V47.1069H129.319V46.5889Z" fill="#3373CC"/>
<path d="M138.088 46.5889H131.432V47.1069H138.088V46.5889Z" fill="#3373CC"/>
<path opacity="0.8" d="M206.055 65.9105L203.937 90.1322C203.855 90.9052 203.494 91.622 202.922 92.1483C202.35 92.6746 201.606 92.9744 200.829 92.9915H184.009C183.645 92.9935 183.285 92.9187 182.952 92.772C182.618 92.6254 182.32 92.4101 182.075 92.1403C181.831 91.8705 181.646 91.5522 181.533 91.2062C181.42 90.8602 181.381 90.4942 181.419 90.1322L183.538 65.9053C183.616 65.131 183.976 64.4123 184.549 63.8853C185.121 63.3584 185.868 63.0597 186.646 63.0459H203.465C203.83 63.0439 204.191 63.1188 204.524 63.2658C204.858 63.4128 205.156 63.6285 205.401 63.8989C205.645 64.1693 205.83 64.4882 205.943 64.8348C206.056 65.1815 206.094 65.548 206.055 65.9105Z" fill="#3373CC"/>
<path opacity="0.8" d="M206.055 65.9105L203.937 90.1322C203.855 90.9052 203.494 91.622 202.922 92.1483C202.35 92.6746 201.606 92.9744 200.829 92.9915H184.009C183.645 92.9935 183.285 92.9187 182.952 92.772C182.618 92.6254 182.32 92.4101 182.075 92.1403C181.831 91.8705 181.646 91.5522 181.533 91.2062C181.42 90.8602 181.381 90.4942 181.419 90.1322L183.538 65.9053C183.616 65.131 183.976 64.4123 184.549 63.8853C185.121 63.3584 185.868 63.0597 186.646 63.0459H203.465C203.83 63.0439 204.191 63.1188 204.524 63.2658C204.858 63.4128 205.156 63.6285 205.401 63.8989C205.645 64.1693 205.83 64.4882 205.943 64.8348C206.056 65.1815 206.094 65.548 206.055 65.9105Z" fill="white"/>
<path d="M185.071 69.8162H185.024C184.888 69.8044 184.761 69.7388 184.673 69.6339C184.585 69.5291 184.541 69.3934 184.553 69.2568L184.75 67.0397C184.761 66.9106 184.821 66.7905 184.917 66.7032C185.013 66.616 185.138 66.5678 185.268 66.5684H187.609C187.747 66.5684 187.878 66.6229 187.975 66.7201C188.073 66.8172 188.127 66.949 188.127 67.0864C188.127 67.2237 188.073 67.3555 187.975 67.4526C187.878 67.5498 187.747 67.6044 187.609 67.6044H185.744L185.589 69.3448C185.577 69.474 185.518 69.5941 185.422 69.6813C185.326 69.7686 185.201 69.8168 185.071 69.8162Z" fill="#3373CC"/>
<path d="M203.905 69.8162H203.859C203.722 69.8044 203.596 69.7388 203.507 69.6339C203.419 69.5291 203.376 69.3934 203.387 69.2568L203.532 67.6044H201.761C201.624 67.6044 201.492 67.5498 201.395 67.4526C201.298 67.3555 201.243 67.2237 201.243 67.0864C201.243 66.949 201.298 66.8172 201.395 66.7201C201.492 66.6229 201.624 66.5684 201.761 66.5684H204.092C204.164 66.5681 204.235 66.5829 204.302 66.6117C204.368 66.6406 204.427 66.683 204.476 66.7362C204.524 66.7893 204.562 66.8521 204.585 66.9204C204.608 66.9887 204.616 67.0612 204.61 67.133L204.413 69.3448C204.402 69.4722 204.343 69.5909 204.25 69.6779C204.156 69.7649 204.033 69.8142 203.905 69.8162Z" fill="#3373CC"/>
<path d="M185.962 86.5321H183.621C183.55 86.5319 183.479 86.517 183.414 86.4885C183.349 86.46 183.291 86.4184 183.242 86.3663C183.194 86.3136 183.157 86.2514 183.134 86.1836C183.111 86.1159 183.102 86.044 183.108 85.9727L183.299 83.7556C183.311 83.6182 183.377 83.4911 183.482 83.4022C183.588 83.3134 183.724 83.27 183.861 83.2817C183.999 83.2933 184.126 83.3591 184.215 83.4645C184.304 83.5699 184.347 83.7063 184.335 83.8437L184.19 85.4961H185.962C186.099 85.4961 186.231 85.5507 186.328 85.6478C186.425 85.745 186.48 85.8767 186.48 86.0141C186.48 86.1515 186.425 86.2832 186.328 86.3804C186.231 86.4775 186.099 86.5321 185.962 86.5321Z" fill="#3373CC"/>
<path d="M202.44 86.5319H200.103C199.966 86.5319 199.834 86.4773 199.737 86.3802C199.64 86.283 199.585 86.1513 199.585 86.0139C199.585 85.8765 199.64 85.7448 199.737 85.6476C199.834 85.5505 199.966 85.4959 200.103 85.4959H201.968L202.118 83.7554C202.13 83.6188 202.196 83.4925 202.301 83.4041C202.406 83.3157 202.541 83.2726 202.678 83.284C202.814 83.2959 202.941 83.3615 203.029 83.4663C203.117 83.5712 203.161 83.7068 203.149 83.8435L202.958 86.0605C202.946 86.1897 202.886 86.3098 202.79 86.397C202.694 86.4843 202.569 86.5324 202.44 86.5319Z" fill="#3373CC"/>
<path d="M200.657 78.1802C201.826 73.6453 199.819 69.207 196.173 68.2669C192.528 67.3268 188.624 70.2409 187.455 74.7758C186.285 79.3106 188.293 83.7489 191.938 84.689C195.584 85.6291 199.487 82.715 200.657 78.1802Z" fill="white"/>
<path d="M196.089 89.3707H189.381L189.966 82.6626H196.674L196.089 89.3707Z" fill="white"/>
<path d="M203.937 90.132C203.855 90.905 203.494 91.6218 202.922 92.1481C202.35 92.6744 201.606 92.9742 200.829 92.9913H184.009C183.645 92.9933 183.285 92.9185 182.952 92.7719C182.618 92.6252 182.32 92.4099 182.075 92.1401C181.831 91.8703 181.646 91.552 181.533 91.206C181.42 90.86 181.381 90.494 181.419 90.132C181.419 90.132 189.148 87.687 190.101 87.687H196.073L203.937 90.132Z" fill="white"/>
<path d="M207.032 72.9894L206.248 82.5039L206.764 82.5464L207.548 73.0319L207.032 72.9894Z" fill="#3373CC"/>
<path d="M207.577 68.6356L207.423 70.5044L207.939 70.5469L208.093 68.6781L207.577 68.6356Z" fill="#3373CC"/>
<path d="M189.526 126.428H187.485V126.946H189.526V126.428Z" fill="#3373CC"/>
<path d="M198.296 126.428H191.639V126.946H198.296V126.428Z" fill="#3373CC"/>
<path d="M210.479 117.586L209.189 132.349C209.122 133.001 208.818 133.607 208.335 134.05C207.853 134.494 207.224 134.746 206.568 134.758C206.259 134.763 205.953 134.703 205.67 134.581C205.386 134.459 205.132 134.278 204.924 134.05C204.715 133.822 204.558 133.553 204.462 133.259C204.366 132.966 204.333 132.656 204.366 132.349L205.646 117.586C205.765 116.485 205.649 115.371 205.305 114.318C204.96 113.266 204.396 112.298 203.65 111.48C202.903 110.662 201.991 110.012 200.974 109.573C199.958 109.135 198.859 108.917 197.752 108.935H192.489C190.135 108.98 187.879 109.884 186.146 111.478C184.413 113.071 183.323 115.244 183.082 117.586L182.564 123.615H177.746L178.264 117.586C178.912 110.158 185.485 104.118 192.908 104.118H198.192C199.916 104.089 201.626 104.428 203.209 105.111C204.792 105.794 206.212 106.806 207.374 108.08C208.536 109.354 209.414 110.86 209.949 112.499C210.484 114.138 210.665 115.872 210.479 117.586Z" fill="#3373CC"/>
<g opacity="0.5">
<path d="M210.479 117.586L209.189 132.349C209.122 133.001 208.818 133.607 208.335 134.05C207.853 134.494 207.224 134.746 206.568 134.758C206.259 134.763 205.953 134.703 205.67 134.581C205.386 134.459 205.132 134.278 204.924 134.05C204.715 133.822 204.558 133.553 204.462 133.259C204.366 132.966 204.333 132.656 204.366 132.349L205.646 117.586C205.765 116.485 205.649 115.371 205.305 114.318C204.96 113.266 204.396 112.298 203.65 111.48C202.903 110.662 201.991 110.012 200.974 109.573C199.958 109.135 198.859 108.917 197.752 108.935H192.489C190.135 108.98 187.879 109.884 186.146 111.478C184.413 113.071 183.323 115.244 183.082 117.586L182.564 123.615H177.746L178.264 117.586C178.912 110.158 185.485 104.118 192.908 104.118H198.192C199.916 104.089 201.626 104.428 203.209 105.111C204.792 105.794 206.212 106.806 207.374 108.08C208.536 109.354 209.414 110.86 209.949 112.499C210.484 114.138 210.665 115.872 210.479 117.586Z" fill="white"/>
</g>
<path d="M210.826 131.81L208.314 160.58C208.222 161.472 207.807 162.299 207.146 162.906C206.486 163.512 205.626 163.855 204.729 163.869H175.959C175.538 163.877 175.12 163.795 174.733 163.628C174.346 163.461 173.998 163.214 173.714 162.903C173.43 162.592 173.215 162.224 173.084 161.823C172.953 161.423 172.909 160.999 172.955 160.58L175.472 131.81C175.53 131.236 175.723 130.685 176.034 130.199C176.346 129.714 176.767 129.31 177.265 129.018C177.805 128.687 178.424 128.508 179.057 128.5H207.822C208.409 128.497 208.986 128.66 209.484 128.971C209.95 129.273 210.322 129.699 210.559 130.2C210.796 130.701 210.888 131.259 210.826 131.81Z" fill="#3373CC"/>
<path d="M180.911 144.377L188.386 155.882L213.038 131.23C213.076 131.184 213.096 131.127 213.095 131.067C213.095 131.008 213.072 130.95 213.033 130.906C212.993 130.861 212.939 130.833 212.88 130.825C212.821 130.817 212.761 130.83 212.712 130.862L189.22 149.277L184.781 142.124L180.911 144.377Z" fill="white"/>
<path d="M63.196 88.7385H44.4547C43.5876 88.7228 42.7562 88.39 42.1177 87.803C41.4792 87.2161 41.0778 86.4156 40.9893 85.5528L39.368 66.8219C39.323 66.4163 39.365 66.0058 39.4912 65.6177C39.6175 65.2297 39.825 64.873 40.1 64.5715C40.3751 64.27 40.7112 64.0306 41.0861 63.8693C41.461 63.7081 41.8659 63.6286 42.2739 63.6362H60.9945C61.8584 63.6559 62.6853 63.9905 63.3197 64.5772C63.9541 65.1639 64.3522 65.9622 64.4392 66.8219L66.076 85.5425C66.1223 85.9467 66.0821 86.3561 65.9581 86.7436C65.8341 87.1311 65.6292 87.4878 65.3568 87.79C65.0844 88.0923 64.7509 88.3331 64.3784 88.4967C64.0059 88.6602 63.6028 88.7426 63.196 88.7385Z" fill="#3373CC"/>
<path opacity="0.8" d="M63.196 88.7385H44.4547C43.5876 88.7228 42.7562 88.39 42.1177 87.803C41.4792 87.2161 41.0778 86.4156 40.9893 85.5528L39.368 66.8219C39.323 66.4163 39.365 66.0058 39.4912 65.6177C39.6175 65.2297 39.825 64.873 40.1 64.5715C40.3751 64.27 40.7112 64.0306 41.0861 63.8693C41.461 63.7081 41.8659 63.6286 42.2739 63.6362H60.9945C61.8584 63.6559 62.6853 63.9905 63.3197 64.5772C63.9541 65.1639 64.3522 65.9622 64.4392 66.8219L66.076 85.5425C66.1223 85.9467 66.0821 86.3561 65.9581 86.7436C65.8341 87.1311 65.6292 87.4878 65.3568 87.79C65.0844 88.0923 64.7509 88.3331 64.3784 88.4967C64.0059 88.6602 63.6028 88.7426 63.196 88.7385Z" fill="white"/>
<path d="M40.9998 78.0782C40.9998 78.0782 47.6561 68.8112 52.5563 69.0494C57.4566 69.2877 65.5996 77.8554 65.5996 77.8554C65.5996 77.8554 53.5975 84.1595 40.9998 78.0782Z" fill="white"/>
<path d="M41.2121 78.218L40.7925 77.9176C41.0618 77.5395 47.4073 68.7749 52.3698 68.7749H52.5718C57.5239 69.0132 65.4493 77.3115 65.786 77.6638L65.413 78.0212C65.3301 77.9383 57.2908 69.5208 52.5459 69.2929H52.3698C47.656 69.3033 41.2742 78.1403 41.2121 78.218Z" fill="#263238"/>
<path d="M40.3108 78.4042C39.3058 78.4042 38.0005 78.0313 37.5395 76.612C37.5182 76.5467 37.5237 76.4757 37.5548 76.4145C37.5859 76.3533 37.64 76.307 37.7052 76.2856C37.7375 76.2744 37.7717 76.2698 37.8058 76.2721C37.8399 76.2744 37.8732 76.2835 37.9037 76.299C37.9342 76.3145 37.9612 76.336 37.9832 76.3621C38.0051 76.3883 38.0216 76.4187 38.0316 76.4514C38.6273 78.2851 40.8547 77.8448 40.9479 77.8241C41.0151 77.8117 41.0844 77.8258 41.1414 77.8635C41.1984 77.9012 41.2386 77.9595 41.2535 78.0261C41.2603 78.0594 41.2605 78.0938 41.254 78.1272C41.2476 78.1606 41.2346 78.1924 41.2158 78.2208C41.1971 78.2491 41.1729 78.2735 41.1447 78.2926C41.1165 78.3116 41.0848 78.3249 41.0515 78.3317C40.8075 78.38 40.5594 78.4043 40.3108 78.4042Z" fill="#263238"/>
<path d="M44.2631 74.4261C44.2053 74.4273 44.1488 74.409 44.1026 74.3743C44.0249 74.3122 42.186 72.8929 41.7198 71.4476C41.6985 71.3824 41.704 71.3114 41.7351 71.2502C41.7662 71.189 41.8203 71.1426 41.8855 71.1213C41.9508 71.1014 42.0212 71.1076 42.082 71.1385C42.1429 71.1694 42.1894 71.2226 42.2119 71.2871C42.6314 72.5769 44.3978 73.9496 44.4185 73.9599C44.4727 74.0019 44.508 74.0636 44.5167 74.1316C44.5255 74.1996 44.5069 74.2682 44.4652 74.3225C44.4416 74.354 44.4111 74.3797 44.3761 74.3977C44.3411 74.4156 44.3025 74.4253 44.2631 74.4261Z" fill="#263238"/>
<path d="M48.0653 70.8988C47.9974 70.8949 47.9336 70.8655 47.8865 70.8165C47.8395 70.7676 47.8126 70.7026 47.8115 70.6347C47.509 69.5064 47.1335 68.399 46.6874 67.3195C46.5579 66.9776 46.4647 66.7289 46.4439 66.6668C46.4336 66.6338 46.43 66.5991 46.4333 66.5647C46.4366 66.5303 46.4468 66.4969 46.4632 66.4665C46.4796 66.4361 46.5019 66.4093 46.5289 66.3876C46.5558 66.366 46.5868 66.3499 46.62 66.3404C46.6527 66.3309 46.6869 66.3279 46.7207 66.3316C46.7545 66.3353 46.7873 66.3456 46.8171 66.362C46.8469 66.3783 46.8732 66.4004 46.8945 66.4269C46.9158 66.4534 46.9317 66.4839 46.9412 66.5166C46.9412 66.5787 47.05 66.8066 47.1691 67.133C47.8943 69.034 48.3398 70.2824 48.3295 70.645C48.3295 70.6792 48.3226 70.7131 48.3092 70.7446C48.2958 70.7761 48.2762 70.8045 48.2515 70.8283C48.2268 70.852 48.1976 70.8704 48.1656 70.8826C48.1336 70.8947 48.0995 70.9002 48.0653 70.8988Z" fill="#263238"/>
<path d="M52.5562 69.3082C52.4917 69.3062 52.43 69.281 52.3824 69.2372C52.3349 69.1935 52.3047 69.1341 52.2972 69.0699L51.9346 64.9259C51.9285 64.8572 51.9498 64.7889 51.994 64.736C52.0382 64.683 52.1016 64.6498 52.1703 64.6436C52.239 64.6374 52.3074 64.6588 52.3603 64.703C52.4132 64.7472 52.4465 64.8106 52.4526 64.8793L52.8152 69.0544C52.8197 69.122 52.798 69.1888 52.7546 69.2408C52.7112 69.2929 52.6495 69.3263 52.5821 69.3341L52.5562 69.3082Z" fill="#263238"/>
<path d="M66.3765 78.1193C66.1231 78.1206 65.87 78.0998 65.6202 78.0572C65.5869 78.0504 65.5552 78.0371 65.527 78.018C65.4988 77.999 65.4747 77.9746 65.4559 77.9462C65.4371 77.9178 65.4242 77.886 65.4177 77.8526C65.4112 77.8192 65.4114 77.7849 65.4182 77.7516C65.4237 77.7181 65.436 77.6861 65.4544 77.6576C65.4727 77.6291 65.4967 77.6046 65.5248 77.5857C65.5529 77.5667 65.5846 77.5538 65.618 77.5475C65.6513 77.5413 65.6856 77.542 65.7186 77.5495C65.7186 77.5495 66.9877 77.793 67.7647 77.2439C67.931 77.1229 68.0696 76.968 68.1714 76.7894C68.2732 76.6108 68.3359 76.4126 68.3553 76.2079C68.3604 76.1739 68.3721 76.1412 68.3898 76.1118C68.4076 76.0823 68.4309 76.0566 68.4586 76.0361C68.4863 76.0157 68.5177 76.0009 68.551 75.9926C68.5844 75.9843 68.6191 75.9827 68.6531 75.9878C68.6871 75.9929 68.7198 76.0046 68.7493 76.0223C68.7787 76.0401 68.8044 76.0634 68.8249 76.0911C68.8453 76.1187 68.8601 76.1502 68.8684 76.1835C68.8767 76.2169 68.8784 76.2516 68.8733 76.2856C68.842 76.5582 68.7539 76.8212 68.6147 77.0576C68.4755 77.294 68.2883 77.4987 68.0652 77.6583C67.5618 77.9791 66.9731 78.1399 66.3765 78.1193Z" fill="#263238"/>
<path d="M61.7248 74.1515C61.6884 74.1518 61.6523 74.144 61.6192 74.1288C61.5861 74.1136 61.5567 74.0913 61.5332 74.0634C61.5089 74.0394 61.4896 74.0107 61.4765 73.9791C61.4633 73.9476 61.4565 73.9137 61.4565 73.8795C61.4565 73.8453 61.4633 73.8115 61.4765 73.7799C61.4896 73.7484 61.5089 73.7197 61.5332 73.6957C61.5332 73.6957 63.0872 72.3281 63.2529 71.0538C63.2644 70.9864 63.3016 70.9261 63.3566 70.8855C63.4117 70.8449 63.4804 70.8273 63.5482 70.8363C63.5819 70.8414 63.6142 70.853 63.6434 70.8706C63.6726 70.8882 63.698 70.9114 63.7182 70.9388C63.7384 70.9662 63.753 70.9974 63.7612 71.0304C63.7693 71.0635 63.7709 71.0979 63.7657 71.1316C63.5482 72.5923 61.9424 74.022 61.875 74.0842C61.8346 74.1237 61.7813 74.1476 61.7248 74.1515Z" fill="#263238"/>
<path d="M57.3477 71.1423H57.3011C57.2336 71.1297 57.1737 71.0912 57.134 71.0351C57.0944 70.9791 57.0781 70.9097 57.0887 70.8419C57.0887 70.8108 57.6585 67.48 57.7621 66.7963C57.7672 66.7623 57.779 66.7296 57.7967 66.7001C57.8144 66.6707 57.8378 66.645 57.8655 66.6245C57.8931 66.6041 57.9245 66.5893 57.9579 66.581C57.9913 66.5727 58.026 66.571 58.06 66.5761C58.094 66.5812 58.1267 66.593 58.1561 66.6107C58.1856 66.6285 58.2113 66.6518 58.2318 66.6795C58.2522 66.7071 58.267 66.7385 58.2753 66.7719C58.2836 66.8053 58.2852 66.84 58.2801 66.874C58.1765 67.5629 57.6119 70.8988 57.6067 70.9299C57.5957 70.9903 57.5636 71.0447 57.5162 71.0836C57.4688 71.1225 57.4091 71.1433 57.3477 71.1423Z" fill="#263238"/>
<path d="M57.5 79.1634C59.6445 76.9233 59.3994 73.2084 56.9526 70.8661C54.5057 68.5238 50.7838 68.441 48.6393 70.6811C46.4948 72.9213 46.7399 76.6361 49.1867 78.9784C51.6335 81.3208 55.3555 81.4036 57.5 79.1634Z" fill="#3373CC"/>
<path opacity="0.3" d="M55.4985 74.9181C55.5063 74.787 55.5063 74.6555 55.4985 74.5244C55.429 73.8491 55.1144 73.2226 54.6142 72.7635C54.1141 72.3044 53.463 72.0445 52.7842 72.0329C52.4652 72.0273 52.1486 72.0897 51.8555 72.216C51.5625 72.3422 51.2997 72.5294 51.0845 72.7651C50.8694 73.0008 50.707 73.2796 50.6079 73.5829C50.5089 73.8863 50.4756 74.2072 50.5102 74.5244C50.5188 74.6581 50.5431 74.7902 50.5827 74.9181H47.2053C47.1228 74.1712 47.2004 73.4152 47.4329 72.7006C47.6654 71.986 48.0476 71.3292 48.5539 70.7738C49.0602 70.2185 49.679 69.7775 50.3692 69.4801C51.0593 69.1827 51.8049 69.0358 52.5563 69.0492C54.1539 69.0787 55.6856 69.6919 56.8622 70.773C58.0388 71.8542 58.779 73.3286 58.9432 74.9181H55.4985Z" fill="black"/>
<path opacity="0.7" d="M55.4934 74.5246C55.5011 74.6557 55.5011 74.7872 55.4934 74.9183C55.4561 75.4949 55.1978 76.0349 54.7722 76.4257C54.3466 76.8166 53.7867 77.0281 53.209 77.0162C52.6 77.0048 52.0118 76.7932 51.5352 76.414C51.0586 76.0348 50.7202 75.5091 50.5724 74.9183C50.5327 74.7904 50.5084 74.6583 50.4998 74.5246C50.4652 74.2074 50.4985 73.8865 50.5976 73.5831C50.6966 73.2798 50.8591 73.001 51.0742 72.7653C51.2893 72.5296 51.5521 72.3424 51.8452 72.2162C52.1382 72.0899 52.4548 72.0275 52.7739 72.0331C53.4536 72.0434 54.1059 72.3028 54.6071 72.762C55.1083 73.2213 55.4237 73.8484 55.4934 74.5246Z" fill="black"/>
<path opacity="0.7" d="M56.8453 72.0798C56.8733 72.3383 56.8459 72.5999 56.765 72.8471C56.6841 73.0943 56.5516 73.3214 56.3762 73.5135C56.2008 73.7055 55.9866 73.858 55.7478 73.9609C55.5089 74.0639 55.2509 74.1148 54.9909 74.1103C54.4386 74.0994 53.9095 73.8869 53.5031 73.5129C53.0966 73.1389 52.841 72.6292 52.7842 72.0798C52.7554 71.821 52.7821 71.5591 52.8627 71.3116C52.9432 71.064 53.0757 70.8365 53.2513 70.6443C53.4268 70.452 53.6414 70.2995 53.8807 70.1969C54.1199 70.0943 54.3783 70.0439 54.6386 70.0492C55.1912 70.0591 55.7209 70.2712 56.1276 70.6454C56.5343 71.0196 56.7896 71.5299 56.8453 72.0798Z" fill="white"/>
<path d="M48.8267 61.3208H46.7858V61.8388H48.8267V61.3208Z" fill="#3373CC"/>
<path d="M57.5964 61.3208H50.9401V61.8388H57.5964V61.3208Z" fill="#3373CC"/>
<path d="M142.968 99.2745L143.144 99.4869L143.382 99.7614C143.553 99.9427 143.719 100.134 143.9 100.311C144.258 100.683 144.646 101.046 145.04 101.414C145.827 102.139 146.651 102.822 147.511 103.46C148.386 104.113 149.308 104.708 150.23 105.299C150.748 105.579 151.173 105.874 151.66 106.143L152.784 106.765C152.947 106.837 153.131 106.848 153.302 106.796C153.665 106.687 155.747 104.625 156.41 103.859C157.881 102.175 160.109 99.9583 161.31 98.0728L162.652 99.922C161.804 102.232 160.679 104.431 159.301 106.47C158.56 107.572 157.671 108.567 156.659 109.427C156.051 109.939 155.366 110.35 154.628 110.645C153.693 111.018 152.666 111.095 151.686 110.867C151.432 110.806 151.185 110.722 150.945 110.619L150.479 110.417L149.64 110.033C149.075 109.785 148.531 109.484 147.982 109.21C146.884 108.624 145.819 107.979 144.791 107.278C143.755 106.565 142.761 105.794 141.813 104.967C141.321 104.537 140.88 104.102 140.43 103.631C140.207 103.398 139.979 103.154 139.762 102.901L139.44 102.507C139.321 102.362 139.233 102.253 139.073 102.03L142.968 99.2745Z" fill="#FFB573"/>
<path d="M161.098 98.3578L163.502 93.2192L165.796 97.3322C165.796 97.3322 164.289 99.9222 162.652 99.9222L161.098 98.3578Z" fill="#FFB573"/>
<path d="M166.226 91.085L168.65 94.2033L165.817 97.3269L163.522 93.2191L166.226 91.085Z" fill="#FFB573"/>
<path d="M165.382 98.7462H169.199C169.307 98.7454 169.411 98.7047 169.49 98.632C169.57 98.5592 169.619 98.4597 169.629 98.3525L170.422 89.1994C170.428 89.1396 170.421 89.0792 170.402 89.0221C170.383 88.9651 170.352 88.9127 170.312 88.8682C170.271 88.8238 170.222 88.7884 170.167 88.7642C170.112 88.7401 170.052 88.7278 169.992 88.728H166.18C166.071 88.7289 165.967 88.7704 165.887 88.8442C165.808 88.9179 165.759 89.0188 165.75 89.1269L164.947 98.2748C164.942 98.3349 164.949 98.3954 164.969 98.4524C164.988 98.5095 165.02 98.5618 165.061 98.6062C165.102 98.6505 165.151 98.6858 165.206 98.7099C165.262 98.734 165.321 98.7464 165.382 98.7462Z" fill="#3373CC"/>
<path opacity="0.3" d="M165.423 97.8291H169.246L169.961 89.6499H166.138L165.423 97.8291Z" fill="white"/>
<path d="M165.175 96.6688L165.853 96.3218C166.199 96.1461 166.518 95.923 166.801 95.6587L166.925 95.2081C166.853 95.0881 166.744 94.9946 166.614 94.9414C166.485 94.8882 166.341 94.8782 166.205 94.9128L165.641 95.0682L162.838 95.2806L162.771 96.4616L163.59 97.7255H163.869C164.178 97.7365 164.48 97.6355 164.72 97.4413C164.959 97.2471 165.121 96.9728 165.175 96.6688Z" fill="#FFB573"/>
<path d="M138.078 94.2757C140.021 93.9235 153.722 105.801 153.722 105.801L149.661 111.758C149.661 111.758 134.68 101.326 135.157 98.8082C135.618 96.1613 135.25 94.7937 138.078 94.2757Z" fill="#263238"/>
<path opacity="0.2" d="M139.808 98.0728L139.658 104.289C141.212 105.496 146.827 109.8 146.827 109.8L139.808 98.0728Z" fill="black"/>
<path d="M128.946 217.72L133.54 218.171L135.001 207.516L130.401 207.065L128.946 217.72Z" fill="#FFB573"/>
<path d="M83.7088 155.198L82.533 159.673L92.4734 163.957L94.535 159.414L83.7088 155.198Z" fill="#FFB573"/>
<path d="M136.83 219.114C137.225 219.163 137.625 219.075 137.964 218.865C138.037 218.802 138.094 218.721 138.13 218.631C138.166 218.541 138.18 218.444 138.171 218.347C138.171 218.287 138.155 218.227 138.124 218.176C138.093 218.124 138.048 218.081 137.995 218.052C137.441 217.721 135.566 218.612 135.353 218.71C135.333 218.719 135.316 218.735 135.305 218.754C135.294 218.774 135.289 218.796 135.291 218.819C135.294 218.842 135.304 218.863 135.32 218.88C135.336 218.896 135.357 218.908 135.379 218.912C135.856 219.023 136.341 219.091 136.83 219.114ZM137.664 218.187C137.736 218.181 137.808 218.197 137.871 218.233C137.893 218.245 137.911 218.262 137.924 218.283C137.937 218.304 137.943 218.328 137.943 218.353C137.949 218.417 137.939 218.482 137.915 218.543C137.891 218.603 137.852 218.657 137.804 218.7C137.519 218.943 136.768 218.964 135.732 218.767C136.343 218.462 137.001 218.264 137.679 218.182L137.664 218.187Z" fill="#3373CC"/>
<path d="M135.4 218.891H135.441C136.001 218.658 137.125 217.694 137.052 217.166C137.032 217.074 136.981 216.992 136.907 216.934C136.834 216.875 136.742 216.844 136.648 216.845C136.541 216.825 136.43 216.828 136.323 216.855C136.217 216.882 136.117 216.931 136.032 217C135.436 217.461 135.296 218.71 135.286 218.756C135.281 218.775 135.281 218.795 135.285 218.814C135.29 218.833 135.299 218.85 135.312 218.865C135.324 218.875 135.338 218.883 135.353 218.887C135.368 218.892 135.384 218.893 135.4 218.891ZM136.545 217.042H136.607C136.809 217.073 136.819 217.15 136.819 217.176C136.866 217.492 136.099 218.259 135.524 218.565C135.579 218.04 135.801 217.546 136.156 217.156C136.272 217.072 136.414 217.037 136.555 217.057L136.545 217.042Z" fill="#3373CC"/>
<path d="M133.312 216.317L129.168 216.493C129.079 216.494 128.993 216.527 128.927 216.588C128.861 216.648 128.82 216.73 128.811 216.819L127.817 222.605C127.811 222.704 127.825 222.802 127.858 222.895C127.89 222.988 127.941 223.074 128.007 223.147C128.073 223.22 128.153 223.279 128.242 223.322C128.331 223.364 128.428 223.388 128.526 223.393H128.609C130.417 223.299 131.287 223.165 133.577 223.087C134.98 223.04 139.275 223.548 141.191 223.113C143.108 222.678 142.745 220.777 141.922 220.792C139.259 220.844 136.187 219.109 134.67 217.078C134.405 216.907 133.603 216.301 133.312 216.317Z" fill="#263238"/>
<path d="M84.6464 160.259L86.7598 156.669C86.8077 156.593 86.8252 156.502 86.8089 156.414C86.7926 156.325 86.7436 156.246 86.6718 156.193L82.362 152.219C82.2018 152.106 82.0038 152.06 81.8103 152.091C81.6167 152.122 81.4429 152.228 81.326 152.385L81.2794 152.458C80.3781 154.012 80.0206 154.83 78.8448 156.793C78.1196 158 75.3535 161.352 74.7008 163.18C74.0481 165.009 75.8197 165.77 76.2548 165.056C77.6586 162.787 80.7821 161.15 83.3203 160.953C83.5638 160.86 84.5013 160.513 84.6464 160.259Z" fill="#263238"/>
<path opacity="0.2" d="M135.001 207.516L134.25 213.012L129.65 212.561L130.396 207.07L135.001 207.516Z" fill="black"/>
<path opacity="0.2" d="M97.5912 160.523L95.4674 165.314L89.0649 162.486L90.6966 157.922L97.5912 160.523Z" fill="black"/>
<path d="M141.015 99.7409C143.641 104.206 140.43 107.972 137.747 121.316L120.435 121.362C120.715 114.172 120.684 108.36 117.617 94.2138C117.537 93.8653 117.538 93.5032 117.618 93.1547C117.698 92.8062 117.855 92.4803 118.079 92.2014C118.303 91.9224 118.586 91.6976 118.909 91.5438C119.232 91.39 119.585 91.3111 119.943 91.313C121.373 91.313 123.17 91.3596 124.999 91.5461C127.883 91.782 130.747 92.2164 133.571 92.8463C135.103 93.2157 136.609 93.6864 138.078 94.2553C138.969 94.5557 140.041 96.9799 141.015 99.7409Z" fill="#263238"/>
<path d="M138.389 122.216C138.389 122.216 148.112 150.328 147.879 163.848C147.744 171.592 147.159 186.024 144.822 196.171C142.916 204.459 135.146 209.743 135.146 209.743L128.93 209.375C128.93 209.375 125.563 196.736 126.149 191.706C127.314 181.693 130.769 174.172 130.35 164.977C129.686 149.924 125.232 121.983 125.232 121.983L138.389 122.216Z" fill="#3373CC"/>
<path d="M127.682 210.997L136.462 211.515L137.26 208.878L127.449 207.972L127.682 210.997Z" fill="#263238"/>
<path opacity="0.2" d="M128.79 179.01C128.79 179.01 128.79 178.959 128.842 178.964C134.359 179.482 138.166 171.541 137.26 160.668L134.333 132.955L128.79 179.01Z" fill="black"/>
<path d="M134.027 121.983C134.027 121.983 141.756 171.416 125.688 176.979C117.208 180.191 110.075 176.71 101.626 172.97C96.7417 170.81 90.6396 164.962 90.6396 164.962L92.9862 158.575C97.2065 157.434 101.623 157.211 105.936 157.922C114.172 159.197 114.519 161.548 117.446 159.772C123.6 144.563 113.012 132.54 120.207 121.958L134.027 121.983Z" fill="#3373CC"/>
<path d="M93.4472 157.363L90.3081 165.646L92.6184 167.412L96.348 157.554L93.4472 157.363Z" fill="#263238"/>
<path d="M92.1523 112.696C91.3701 113.851 87.4022 113.069 87.4022 113.069L86.5579 108.153L91.4322 110.106L92.1523 112.696Z" fill="#FFB573"/>
<path d="M87.542 107.899L88.2983 113.007L85.3716 113.442C85.213 113.456 85.0547 113.411 84.9274 113.316C84.8001 113.22 84.7129 113.08 84.6827 112.924L83.5586 109.298C83.5395 109.214 83.5536 109.125 83.5979 109.051C83.6423 108.977 83.7136 108.922 83.7969 108.899L87.542 107.899Z" fill="#FFB573"/>
<path d="M86.2314 110.215L87.8994 110.51L89.4793 109.324L88.868 108.888C88.4538 108.594 88.1625 108.157 88.0496 107.661C87.9321 107.142 87.861 106.613 87.8372 106.081V105.905C87.8173 105.749 87.7468 105.603 87.6364 105.491C87.526 105.379 87.3818 105.306 87.226 105.283L86.8116 105.589C86.5526 106.153 86.7391 106.811 86.708 107.252L86.6406 108.106L85.9724 108.396L86.2314 110.215Z" fill="#FFB573"/>
<path d="M118.451 93.2397L108.651 106.708L90.65 110.261V113.214C90.65 113.214 107.568 114.467 111.37 112.256C115.172 110.044 121.549 96.6275 121.549 96.6275L118.451 93.2397Z" fill="#FFB573"/>
<path d="M118.337 67.3398C114.224 65.9619 109.453 68.5157 107.573 72.4214C105.693 76.3271 106.351 81.1186 108.469 84.9C109.106 86.0448 109.868 87.1222 110.391 88.3188C110.972 89.505 111.099 90.863 110.748 92.1365C110.324 93.3745 109.888 94.167 108.355 93.9702C108.355 93.9702 108.355 93.1207 108.941 93.2243C108.941 93.2243 107.697 93.9132 107.21 93.4625C107.775 94.3328 109.282 94.0168 109.764 93.0948C110.484 91.7221 109.158 89.8624 107.604 89.878C106.05 89.8935 104.786 91.4683 104.838 93.0171C104.903 93.7917 105.178 94.5338 105.635 95.163C106.092 95.7921 106.712 96.2843 107.428 96.5861C107.008 96.6553 106.577 96.5836 106.202 96.3821C105.827 96.1806 105.53 95.8608 105.356 95.4724C106.06 97.3165 108.36 98.1297 110.303 97.7671C112.245 97.4045 113.887 96.1613 115.41 94.9026C117.482 93.2036 119.601 91.0538 119.554 88.3965C119.508 86.4126 118.233 84.7084 117.161 83.0352C116.089 81.3621 115.151 79.3211 115.835 77.4615C116.41 75.8816 117.974 74.9285 119.352 73.965C120.347 73.2761 122.367 71.7376 122.129 70.282C121.885 68.8938 119.503 67.7283 118.337 67.3398Z" fill="#263238"/>
<path d="M109.07 113.442L106.356 106.257L106.977 106.309C107.48 106.351 107.985 106.248 108.43 106.011C108.876 105.774 109.244 105.413 109.49 104.973C111.562 101.284 116.913 91.9241 118.42 91.4579C120.57 90.8208 122.781 92.5406 123.6 95.0839C124.216 96.9539 117.902 104.973 114.991 109.531C112.406 113.566 109.07 113.442 109.07 113.442Z" fill="#263238"/>
<path d="M82.5951 162.621V162.678C82.6333 162.777 82.696 162.866 82.7775 162.935C82.8591 163.003 82.9567 163.051 83.0613 163.071C83.1241 163.091 83.191 163.094 83.2554 163.081C83.3198 163.067 83.3796 163.037 83.4291 162.994C83.8642 162.595 83.5845 160.922 83.5586 160.756C83.5557 160.734 83.5462 160.714 83.5313 160.699C83.5165 160.683 83.497 160.672 83.4757 160.668C83.4556 160.665 83.4351 160.668 83.4162 160.675C83.3972 160.682 83.3803 160.694 83.3669 160.709C83.0147 161.207 82.4552 162.092 82.5951 162.621ZM83.3928 161.067C83.4861 161.73 83.5275 162.621 83.284 162.838C83.2587 162.852 83.2302 162.86 83.2012 162.86C83.1722 162.86 83.1437 162.852 83.1183 162.838C83.0487 162.825 82.9835 162.795 82.9291 162.749C82.8747 162.704 82.8328 162.645 82.8075 162.579C82.7142 162.3 82.9111 161.73 83.3928 161.056V161.067Z" fill="#3373CC"/>
<path d="M83.398 160.973C83.5327 161.533 84.061 162.486 84.5272 162.6C84.6122 162.617 84.7005 162.605 84.7776 162.565C84.8547 162.526 84.9162 162.461 84.952 162.382C84.9926 162.308 85.0164 162.227 85.0217 162.142C85.0271 162.058 85.0139 161.974 84.9831 161.895C84.7707 161.253 83.5482 160.725 83.4964 160.699C83.4797 160.69 83.461 160.685 83.442 160.685C83.423 160.685 83.4043 160.69 83.3876 160.699C83.3724 160.711 83.3606 160.727 83.3534 160.745C83.3461 160.763 83.3436 160.783 83.3462 160.802C83.3589 160.861 83.3763 160.918 83.398 160.973ZM84.807 162.009C84.8175 162.055 84.8189 162.103 84.8108 162.149C84.8028 162.195 84.7857 162.239 84.7603 162.279C84.693 162.403 84.6257 162.403 84.5739 162.393C84.2579 162.331 83.7761 161.548 83.6207 161.004C84.0196 161.207 84.6567 161.585 84.7914 161.978C84.7879 161.988 84.7879 161.999 84.7914 162.009H84.807Z" fill="#3373CC"/>
<path d="M120.373 120.486L119.891 122.17C119.829 122.299 119.979 122.434 120.197 122.429H138.068C138.239 122.429 138.379 122.341 138.389 122.237L138.555 120.554C138.555 120.44 138.42 120.336 138.233 120.341H120.673C120.615 120.337 120.556 120.348 120.503 120.373C120.451 120.399 120.406 120.438 120.373 120.486Z" fill="#3373CC"/>
<path opacity="0.5" d="M120.373 120.486L119.891 122.17C119.829 122.299 119.979 122.434 120.197 122.429H138.068C138.239 122.429 138.379 122.341 138.389 122.237L138.555 120.554C138.555 120.44 138.42 120.336 138.233 120.341H120.673C120.615 120.337 120.556 120.348 120.503 120.373C120.451 120.399 120.406 120.438 120.373 120.486Z" fill="white"/>
<path d="M123.802 122.585H123.284C123.186 122.585 123.103 122.533 123.113 122.471L123.346 120.279C123.346 120.217 123.445 120.166 123.548 120.166H124.066C124.165 120.166 124.242 120.217 124.237 120.285L124.004 122.471C123.973 122.533 123.88 122.59 123.802 122.585Z" fill="#3373CC"/>
<path d="M136.685 122.585H136.167C136.073 122.585 135.991 122.533 136.001 122.471L136.234 120.285C136.234 120.217 136.327 120.166 136.426 120.166H136.944C137.042 120.166 137.125 120.217 137.115 120.279L136.881 122.465C136.871 122.533 136.788 122.585 136.685 122.585Z" fill="#3373CC"/>
<path d="M130.774 122.574H130.256C130.158 122.574 130.075 122.523 130.085 122.46L130.318 120.274C130.318 120.207 130.417 120.155 130.515 120.155H131.033C131.132 120.155 131.209 120.207 131.204 120.269L130.966 122.455C130.966 122.523 130.878 122.574 130.774 122.574Z" fill="#3373CC"/>
<path d="M125.807 82.1182C126.356 84.9413 126.895 90.0384 124.978 91.5717C124.978 91.5717 125.745 94.4673 130.868 95.2391C136.524 96.0886 133.556 92.8667 133.556 92.8667C130.474 91.6494 130.552 89.422 131.08 87.3707L125.807 82.1182Z" fill="#FFB573"/>
<path d="M124.999 91.5462C127.732 91.7195 130.449 92.097 133.126 92.6754L137.001 93.8306C137.69 95.2188 136.56 98.073 133.318 98.6169C133.318 98.6169 125.149 99.7409 122.74 91.3286L124.999 91.5462Z" fill="#FFB573"/>
<path opacity="0.2" d="M127.946 84.2681L131.054 87.3761C130.923 87.8573 130.838 88.3499 130.8 88.8472C129.619 88.5001 127.723 87.2 127.594 85.9568C127.595 85.3758 127.715 84.8012 127.946 84.2681Z" fill="black"/>
<path d="M122.346 78.5545C123.735 82.9368 124.222 84.8223 127.065 86.5472C131.303 89.1372 136.389 86.4851 136.338 81.7816C136.296 77.5444 134.043 71.0901 129.231 70.3856C128.173 70.2271 127.092 70.3419 126.091 70.7191C125.09 71.0963 124.203 71.7234 123.513 72.5406C122.823 73.3579 122.353 74.3381 122.149 75.388C121.945 76.438 122.013 77.5227 122.346 78.539V78.5545Z" fill="#FFB573"/>
<path d="M132.805 77.8706C133.295 78.6398 133.889 79.3371 134.571 79.9426C134.412 80.1153 134.216 80.2511 133.999 80.3406C133.782 80.43 133.547 80.471 133.312 80.4606L132.805 77.8706Z" fill="#ED893E"/>
<path d="M132.313 82.802C132.488 82.7827 132.661 82.748 132.831 82.6984C132.844 82.6954 132.857 82.6897 132.868 82.6818C132.879 82.6739 132.888 82.6639 132.895 82.6524C132.903 82.6408 132.907 82.628 132.91 82.6145C132.912 82.6011 132.912 82.5874 132.908 82.5741C132.901 82.5469 132.884 82.5236 132.859 82.5091C132.835 82.4946 132.806 82.4901 132.779 82.4964C132.337 82.6183 131.872 82.6349 131.422 82.545C130.973 82.455 130.55 82.261 130.189 81.9784C130.168 81.9572 130.139 81.9453 130.109 81.9453C130.079 81.9453 130.05 81.9572 130.028 81.9784C130.018 81.9885 130.01 82.0006 130.004 82.014C129.999 82.0273 129.996 82.0416 129.996 82.0561C129.996 82.0706 129.999 82.0849 130.004 82.0982C130.01 82.1116 130.018 82.1237 130.028 82.1338C130.347 82.3898 130.712 82.5806 131.104 82.6952C131.496 82.8099 131.907 82.8462 132.313 82.802Z" fill="#263238"/>
<path d="M120.839 69.8054C120.268 70.1746 119.794 70.6755 119.457 71.2659C119.12 71.8563 118.93 72.519 118.902 73.1983C118.878 73.4581 118.919 73.7196 119.021 73.9598C119.072 74.0786 119.153 74.1819 119.257 74.2592C119.361 74.3365 119.483 74.3851 119.611 74.4001C120.005 74.4001 120.295 74.0478 120.513 73.7163L121.518 72.1623C121.931 71.6575 122.28 71.1023 122.554 70.5099C122.89 69.4894 121.455 69.4117 120.839 69.8054Z" fill="#3373CC"/>
<path d="M121.331 70.8365C118.581 74.0171 117.348 82.8179 125.408 85.2732C126.755 84.2061 124.579 82.2636 123.657 79.8083C123.051 78.2025 126.123 75.2033 127.319 73.9704C128.516 72.7376 129.619 70.9609 131.308 71.2458C131.736 71.3891 132.198 71.4017 132.634 71.282C133.975 70.676 133.323 69.8731 132.634 69.3136C131.577 68.5316 130.319 68.0679 129.008 67.9772C127.593 67.8105 126.159 67.9829 124.824 68.4801C123.489 68.9773 122.292 69.785 121.331 70.8365Z" fill="#263238"/>
<path d="M130.277 69.7691C133.515 72.4679 129.241 72.5352 126.977 74.2446C124.807 75.8867 126.33 78.5751 122.657 79.8235C119.658 80.6989 118.964 80.1705 118.135 79.5904C119.162 79.4126 120.102 78.9002 120.807 78.1328C121.513 77.3655 121.945 76.3864 122.036 75.348C122.289 73.3796 126.579 66.6404 130.277 69.7691Z" fill="#263238"/>
<path d="M121.859 82.2377C122.367 82.9683 123.141 83.4706 124.014 83.6363C125.175 83.8383 125.62 82.7764 125.221 81.7404C124.843 80.808 123.792 79.5804 122.668 79.8445C122.281 79.9445 121.95 80.1938 121.747 80.5375C121.544 80.8813 121.486 81.2915 121.585 81.6783C121.638 81.8814 121.731 82.0717 121.859 82.2377Z" fill="#FFB573"/>
<path d="M129.723 70.0437C130.35 71.6392 132.157 71.4268 133.494 73.0947C134.317 74.1307 135.934 70.9347 133.732 69.6759C131.531 68.4172 128.739 67.547 129.723 70.0437Z" fill="#263238"/>
<path d="M127.816 76.778C127.863 76.7829 127.909 76.773 127.949 76.7497C127.989 76.7265 128.021 76.691 128.039 76.6485C128.464 75.7057 129.738 75.4674 129.749 75.4674C129.806 75.4549 129.855 75.4212 129.888 75.373C129.921 75.3248 129.934 75.2659 129.925 75.2084C129.913 75.1523 129.88 75.1028 129.833 75.0708C129.785 75.0388 129.727 75.0268 129.671 75.0375C129.604 75.0375 128.153 75.3431 127.635 76.4827C127.612 76.5357 127.611 76.5956 127.631 76.6498C127.651 76.7039 127.692 76.748 127.744 76.7728H127.816V76.778Z" fill="#263238"/>
<path d="M134.551 74.8715C134.588 74.8743 134.626 74.8666 134.66 74.8492C134.694 74.8319 134.722 74.8055 134.742 74.7731C134.759 74.7498 134.77 74.7235 134.776 74.6956C134.782 74.6677 134.783 74.6388 134.778 74.6108C134.772 74.5828 134.761 74.5561 134.745 74.5323C134.73 74.5086 134.709 74.4883 134.685 74.4727C134.398 74.2739 134.068 74.1471 133.722 74.1029C133.375 74.0588 133.024 74.0985 132.696 74.2189C132.669 74.2295 132.644 74.2457 132.623 74.2664C132.603 74.287 132.586 74.3118 132.576 74.339C132.565 74.3663 132.56 74.3954 132.561 74.4247C132.562 74.4539 132.569 74.4826 132.582 74.5089C132.605 74.5617 132.648 74.6034 132.701 74.6247C132.754 74.6461 132.814 74.6454 132.867 74.6229C133.125 74.5329 133.4 74.5056 133.67 74.5435C133.941 74.5813 134.198 74.6831 134.421 74.8405C134.461 74.8601 134.506 74.8707 134.551 74.8715Z" fill="#263238"/>
<path d="M155.845 103.227L152.81 104.952L149.655 111.738C149.655 111.738 152.701 113.675 155.105 112.106C157.508 110.536 155.845 103.227 155.845 103.227Z" fill="#3373CC"/>
<path opacity="0.5" d="M155.845 103.227L152.81 104.952L149.655 111.738C149.655 111.738 152.701 113.675 155.105 112.106C157.508 110.536 155.845 103.227 155.845 103.227Z" fill="white"/>
<path d="M102.766 105.325L106.356 106.361L109.759 113.4C109.759 113.4 107.024 115.933 104.061 113.514C101.844 111.681 102.766 105.325 102.766 105.325Z" fill="#3373CC"/>
<g opacity="0.5">
<path d="M102.766 105.325L106.356 106.361L109.759 113.4C109.759 113.4 107.024 115.933 104.061 113.514C101.844 111.681 102.766 105.325 102.766 105.325Z" fill="white"/>
</g>
<path d="M134.343 76.6276C134.592 76.581 134.861 76.8607 134.918 77.2441C134.975 77.6274 134.835 77.9796 134.587 78.0211C134.338 78.0625 134.069 77.788 134.012 77.4046C133.955 77.0213 134.095 76.6639 134.343 76.6276Z" fill="#263238"/>
<path d="M135.11 76.2495L134.234 76.6795C134.763 77.0524 135.11 76.2495 135.11 76.2495Z" fill="#263238"/>
<path d="M130.018 77.5183C130.267 77.4716 130.536 77.7514 130.593 78.1347C130.65 78.518 130.51 78.8702 130.261 78.9117C130.013 78.9531 129.743 78.6786 129.686 78.2953C129.63 77.9119 129.759 77.5649 130.018 77.5183Z" fill="#263238"/>
<path d="M130.774 77.1401L129.899 77.5701C130.427 77.943 130.774 77.1401 130.774 77.1401Z" fill="#263238"/>
<path d="M108.086 97.3373C107.598 97.3401 107.114 97.2486 106.661 97.0679C105.056 96.4101 104.31 94.7421 104.589 92.4836C104.598 92.4157 104.634 92.354 104.688 92.3123C104.743 92.2705 104.811 92.2521 104.879 92.2609C104.913 92.2647 104.946 92.2753 104.976 92.2921C105.006 92.3088 105.032 92.3315 105.053 92.3585C105.073 92.3856 105.088 92.4166 105.097 92.4497C105.106 92.4827 105.107 92.5172 105.102 92.551C104.833 94.5556 105.465 96.0267 106.837 96.5862C107.634 96.8589 108.497 96.8725 109.302 96.625C110.107 96.3774 110.812 95.8815 111.318 95.2083C112.618 93.4782 112.194 91.0229 110.168 88.4743C104.864 81.818 105.216 78.2801 105.967 75.4829C107.055 71.4217 110.241 66.7701 119.254 67.6662C119.323 67.6731 119.386 67.707 119.43 67.7604C119.473 67.8138 119.494 67.8824 119.487 67.9511C119.48 68.0198 119.446 68.083 119.393 68.1267C119.339 68.1704 119.271 68.1911 119.202 68.1842C110.557 67.3244 107.501 71.7584 106.465 75.6227C105.719 78.4199 105.429 81.6885 110.572 88.1583C113.68 92.0589 112.422 94.6126 111.733 95.5243C111.302 96.0827 110.749 96.536 110.118 96.85C109.486 97.1641 108.791 97.3307 108.086 97.3373Z" fill="#263238"/>
</svg>
