<svg width="357" height="357" viewBox="0 0 357 357" fill="none" xmlns="http://www.w3.org/2000/svg">
<path d="M98.0465 210.673C130.976 226.509 175.43 218.42 211.915 206.039C355.522 170.06 291.012 51.2151 197.207 48.4877C103.401 45.7602 -1.6636 162.485 98.0465 210.673Z" fill="#B6CF7B"/>
<g opacity="0.9">
<path d="M98.0465 210.673C130.976 226.509 175.43 218.42 211.915 206.039C355.522 170.06 291.012 51.2151 197.207 48.4877C103.401 45.7602 -1.6636 162.485 98.0465 210.673Z" fill="white"/>
</g>
<path d="M178.5 305.278C254.957 305.278 316.937 301.659 316.937 297.195C316.937 292.731 254.957 289.113 178.5 289.113C102.043 289.113 40.0625 292.731 40.0625 297.195C40.0625 301.659 102.043 305.278 178.5 305.278Z" fill="#F5F5F5"/>
<path d="M135.268 291.155H140.851L141.993 278.224H136.41L135.268 291.155Z" fill="#FFB573"/>
<path d="M141.758 290.505H134.946C134.833 290.507 134.724 290.546 134.635 290.616C134.547 290.685 134.483 290.782 134.453 290.891L133.175 295.853C133.143 295.971 133.139 296.095 133.163 296.216C133.187 296.336 133.239 296.449 133.315 296.545C133.39 296.641 133.488 296.719 133.599 296.771C133.709 296.823 133.831 296.849 133.954 296.845C136.146 296.81 137.752 296.681 140.508 296.681C142.207 296.681 147.313 296.853 149.662 296.853C152.011 296.853 152.389 294.539 151.439 294.325C147.155 293.39 143.978 292.09 142.643 290.848C142.402 290.626 142.085 290.504 141.758 290.505Z" fill="#263238"/>
<path opacity="0.2" d="M136.41 278.232H141.993L141.401 284.893H135.817L136.41 278.232Z" fill="black"/>
<path d="M146.856 162.585C146.856 162.585 150.426 205.918 149.426 222.275C148.298 240.182 144.014 283.601 144.014 283.601H133.79C133.79 283.601 134.682 243.167 134.161 225.767C133.575 205.91 127.585 162.856 127.585 162.856L146.856 162.585Z" fill="#263238"/>
<path d="M144.899 283.822H132.854L132.983 280.224L145.756 279.988L144.899 283.822Z" fill="#B6CF7B"/>
<path d="M143.571 291.483C143.955 291.511 144.336 291.411 144.657 291.198C144.762 291.114 144.844 291.004 144.896 290.879C144.947 290.754 144.965 290.618 144.949 290.484C144.955 290.408 144.938 290.333 144.902 290.267C144.865 290.201 144.809 290.147 144.742 290.112C144.128 289.791 142.293 290.898 142.086 291.026C142.063 291.04 142.045 291.06 142.034 291.085C142.022 291.109 142.018 291.136 142.022 291.162C142.025 291.187 142.036 291.21 142.052 291.23C142.069 291.249 142.09 291.262 142.115 291.269C142.591 291.395 143.079 291.467 143.571 291.483ZM144.442 290.327C144.501 290.327 144.56 290.339 144.614 290.362C144.614 290.362 144.685 290.412 144.685 290.519C144.693 290.609 144.68 290.699 144.647 290.782C144.613 290.865 144.56 290.939 144.492 290.998C143.868 291.283 143.158 291.319 142.507 291.098C143.098 290.721 143.755 290.459 144.442 290.327Z" fill="#B6CF7B"/>
<path d="M142.143 291.312C142.164 291.319 142.187 291.319 142.208 291.312C142.8 290.998 143.957 289.777 143.864 289.17C143.849 289.073 143.8 288.984 143.725 288.92C143.65 288.856 143.555 288.821 143.457 288.82C143.355 288.809 143.252 288.819 143.154 288.848C143.056 288.878 142.965 288.927 142.886 288.992C142.222 289.52 142.029 291.134 142.022 291.198C142.018 291.221 142.02 291.244 142.029 291.266C142.038 291.287 142.053 291.306 142.072 291.319C142.096 291.323 142.121 291.321 142.143 291.312ZM143.357 289.049H143.414C143.586 289.049 143.6 289.149 143.6 289.184C143.657 289.548 142.886 290.477 142.322 290.912C142.385 290.272 142.633 289.664 143.036 289.163C143.122 289.078 143.236 289.027 143.357 289.02V289.049Z" fill="#B6CF7B"/>
<path d="M93.3271 281.352L98.5465 283.144L104.444 271.349L99.2248 269.556L93.3271 281.352Z" fill="#FFB573"/>
<path d="M99.4246 283.365L93.9911 279.46C93.9002 279.397 93.7904 279.366 93.6801 279.374C93.5697 279.382 93.4653 279.427 93.3842 279.503L89.5072 282.93C89.4134 283.01 89.339 283.111 89.2896 283.224C89.2402 283.338 89.217 283.461 89.2218 283.584C89.2266 283.708 89.2593 283.829 89.3173 283.938C89.3754 284.047 89.4574 284.142 89.5571 284.215C91.3279 285.436 92.6845 286.25 94.8836 287.835C96.2402 288.806 100.217 291.89 102.088 293.233C103.959 294.575 105.608 292.861 104.944 292.133C102.088 288.899 100.274 285.971 99.9458 284.172C99.8836 283.846 99.6966 283.556 99.4246 283.365Z" fill="#263238"/>
<path d="M139.173 115.59L140.529 115.29L141.957 114.954C142.907 114.719 143.857 114.461 144.813 114.19C146.698 113.64 148.555 113.033 150.347 112.341C152.106 111.674 153.819 110.889 155.473 109.992C157.005 109.17 158.429 108.163 159.715 106.993L160.143 106.579C160.257 106.443 160.372 106.329 160.493 106.186C160.736 105.886 160.993 105.558 161.243 105.187C161.757 104.473 162.271 103.659 162.756 102.816C163.72 101.124 164.677 99.339 165.612 97.5111C167.426 93.8697 169.182 90.0855 170.924 86.3513L174.916 87.6365C174.026 91.8113 172.879 95.927 171.481 99.9602C170.767 101.988 170.053 104.023 169.097 106.058C168.632 107.072 168.133 108.093 167.533 109.142C167.233 109.663 166.897 110.192 166.519 110.734C166.333 111.006 166.098 111.291 165.891 111.563L165.255 112.277C164.413 113.199 163.503 114.058 162.535 114.847C161.596 115.588 160.619 116.279 159.608 116.918C157.657 118.136 155.61 119.194 153.489 120.081C151.434 120.956 149.329 121.707 147.184 122.33C146.122 122.644 145.051 122.93 143.971 123.187C143.435 123.322 142.893 123.451 142.343 123.565C141.793 123.679 141.279 123.772 140.629 123.886L139.173 115.59Z" fill="#FFB573"/>
<path d="M136.374 125.221C140.658 128.242 156.245 123.294 156.245 123.294L154.103 109.521C154.103 109.521 147.727 111.027 141.037 112.991C136.488 114.304 131.669 121.937 136.374 125.221Z" fill="#B6CF7B"/>
<path d="M170.232 88.5861L171.289 82.6956L176.658 86.1299C176.447 86.9588 176.069 87.7359 175.547 88.4136C175.026 89.0913 174.371 89.6554 173.623 90.0712L170.232 88.5861Z" fill="#FFB573"/>
<path d="M172.802 79.3469L176.958 77.8618L176.665 86.1299L171.289 82.6956L172.802 79.3469Z" fill="#FFB573"/>
<path opacity="0.2" d="M99.2246 269.556L104.444 271.356L101.402 277.432L96.1758 275.64L99.2246 269.556Z" fill="black"/>
<path d="M116.382 114.44C117.458 120.573 118.069 126.779 118.21 133.004C118.332 137.359 118.267 141.494 118.11 145.249C117.76 154.031 116.946 160.7 116.996 162.985L146.863 162.614C153.86 131.141 147.67 114.362 147.67 114.362C145.357 113.784 143.011 113.352 140.644 113.069C140.144 113.012 139.637 112.962 139.116 112.919C134.883 112.728 130.642 112.78 126.414 113.076C125.614 113.126 124.8 113.198 124.008 113.276C119.952 113.669 116.382 114.44 116.382 114.44Z" fill="#B6CF7B"/>
<path d="M126.378 113.048C130.606 112.752 134.847 112.699 139.08 112.891C139.594 112.934 140.109 112.984 140.608 113.041H140.787C141.501 114.954 141.594 119.081 137.403 119.417C131.691 119.874 126.378 116.139 123.972 113.233C124.786 113.169 125.607 113.098 126.378 113.048Z" fill="white"/>
<path opacity="0.2" d="M123.122 122.894C122.736 127.496 121.044 131.893 118.246 135.567C118.246 134.718 118.246 133.854 118.203 132.983C118.11 129.713 117.91 126.321 117.553 122.887L123.122 122.894Z" fill="black"/>
<path d="M128.006 98.739C128.72 102.816 129.334 110.292 126.407 113.019C127.648 114.321 129.161 115.334 130.838 115.985C132.515 116.637 134.315 116.911 136.11 116.789C139.63 116.675 139.859 114.211 139.109 112.862C134.575 111.834 134.775 108.449 135.646 105.265L128.006 98.739Z" fill="#FFB573"/>
<path opacity="0.2" d="M131.119 101.388L135.639 105.265C135.427 106.003 135.279 106.758 135.196 107.521C133.461 107.293 131.112 105.415 130.969 103.594C130.885 102.856 130.936 102.108 131.119 101.388Z" fill="black"/>
<path d="M143.471 87.308C146.884 85.6015 145.321 80.3679 145.321 80.3679C145.321 80.3679 143.514 80.3251 141.544 82.5099C142.436 79.811 140.937 75.4128 140.437 73.7063C133.59 76.6765 133.133 79.5468 133.133 79.5468C133.133 79.5468 131.705 77.4048 130.362 77.2834C129.301 77.9362 128.479 78.9144 128.018 80.0723C127.557 81.2302 127.483 82.5059 127.806 83.7094C126.677 83.0536 125.416 82.6585 124.115 82.5528C123.597 84.1769 123.68 85.9333 124.35 87.5008C123.563 87.9086 122.925 88.5562 122.53 89.35C123.154 89.7467 123.82 90.0746 124.515 90.3282C124.408 92.4702 124.865 95.4262 126.407 97.0969L142.115 89.757C144.771 90.9066 145.956 90.0783 145.956 90.0783C145.956 90.0783 145.342 87.8221 143.471 87.308Z" fill="#263238"/>
<path d="M127.663 92.5988C127.87 98.1252 127.713 101.381 130.441 104.187C134.546 108.4 141.429 105.786 142.879 100.246C144.185 95.2477 143.593 87.0653 138.259 84.9304C132.925 82.7956 127.449 87.1081 127.663 92.5988Z" fill="#FFB573"/>
<path d="M132.761 86.394C133.118 89.2928 129.191 91.4348 130.105 95.7188C129.425 96.727 128.6 97.6292 127.656 98.3963L126.064 94.0338L126.857 86.037L132.169 85.5872L132.761 86.394Z" fill="#263238"/>
<path d="M129.077 86.037C133.24 88.7359 140.223 88.2575 142.165 87.5863C141.194 84.0949 137.288 83.1024 137.288 83.1024C137.288 83.1024 130.741 82.5098 129.077 86.037Z" fill="#263238"/>
<path d="M137.659 100.224C137.015 100.251 136.375 100.119 135.794 99.8384C135.214 99.5581 134.711 99.1388 134.332 98.6176C134.315 98.5839 134.31 98.5451 134.32 98.5083C134.329 98.4716 134.351 98.4394 134.382 98.4177C134.397 98.4073 134.415 98.4002 134.433 98.3967C134.451 98.3932 134.47 98.3935 134.488 98.3975C134.506 98.4015 134.523 98.4092 134.538 98.42C134.553 98.4309 134.565 98.4447 134.575 98.4606C134.934 98.9367 135.402 99.3195 135.94 99.5767C136.478 99.834 137.07 99.958 137.666 99.9385C137.685 99.9385 137.703 99.9422 137.72 99.9495C137.737 99.9568 137.752 99.9674 137.765 99.9808C137.778 99.9941 137.787 100.01 137.794 100.027C137.8 100.045 137.803 100.063 137.802 100.081C137.802 100.119 137.787 100.156 137.76 100.182C137.733 100.209 137.697 100.224 137.659 100.224Z" fill="#263238"/>
<path d="M125.021 98.7249C125.376 99.3052 125.845 99.8071 126.399 100.2C126.954 100.593 127.584 100.868 128.249 101.01C130.041 101.388 130.883 99.7387 130.334 98.0965C129.834 96.6186 128.306 94.6479 126.528 95.0121C126.141 95.0946 125.781 95.2705 125.478 95.5245C125.175 95.7785 124.939 96.1028 124.79 96.4691C124.642 96.8354 124.585 97.2325 124.625 97.6257C124.666 98.0189 124.802 98.3963 125.021 98.7249Z" fill="#FFB573"/>
<path opacity="0.2" d="M132.39 176.115L129.948 180.92C131.069 190.003 132.354 201.141 133.211 210.987C135.16 201.084 136.424 182.07 132.39 176.115Z" fill="black"/>
<path d="M137.352 162.706C137.352 162.706 130.412 202.305 127.313 218.47C123.915 236.17 104.244 277.032 104.244 277.032L94.6836 273.748C94.6836 273.748 110.484 233.05 112.198 215.585C114.147 195.729 116.96 162.949 116.96 162.949L137.352 162.706Z" fill="#263238"/>
<path d="M105.03 277.539L93.7627 273.669L95.0408 270.256L107.065 274.14L105.03 277.539Z" fill="#B6CF7B"/>
<path d="M136.017 94.0409C136.017 94.4908 136.238 94.8549 136.531 94.8477C136.824 94.8406 137.074 94.4765 137.081 94.0267C137.088 93.5768 136.867 93.2127 136.567 93.2198C136.267 93.227 136.024 93.5911 136.017 94.0409Z" fill="#263238"/>
<path d="M141.108 93.9769C141.108 94.4267 141.329 94.7908 141.622 94.7837C141.915 94.7765 142.165 94.4124 142.179 93.9626C142.193 93.5128 141.958 93.1558 141.658 93.1558C141.358 93.1558 141.122 93.5342 141.108 93.9769Z" fill="#263238"/>
<path d="M139.487 94.248C139.991 95.6134 140.683 96.9016 141.543 98.0751C140.73 98.8319 139.33 98.3964 139.33 98.3964L139.487 94.248Z" fill="#ED893E"/>
<path d="M134.475 92.413C134.523 92.4217 134.572 92.4169 134.617 92.3993C134.663 92.3816 134.702 92.3518 134.732 92.3131C134.93 92.0401 135.188 91.8163 135.486 91.6591C135.785 91.5019 136.115 91.4154 136.453 91.4063C136.523 91.4102 136.593 91.3863 136.646 91.3396C136.7 91.2929 136.733 91.2271 136.738 91.1564C136.742 91.1224 136.739 91.088 136.729 91.0553C136.719 91.0225 136.703 90.9922 136.681 90.9661C136.659 90.94 136.631 90.9187 136.601 90.9035C136.57 90.8884 136.537 90.8797 136.503 90.8779C136.076 90.8821 135.657 90.9856 135.278 91.1801C134.898 91.3747 134.57 91.6551 134.318 91.9989C134.276 92.0545 134.257 92.124 134.265 92.1931C134.273 92.2622 134.307 92.3256 134.361 92.3702C134.395 92.3918 134.434 92.4063 134.475 92.413Z" fill="#263238"/>
<path d="M143.336 92.1989C143.387 92.2158 143.442 92.2158 143.493 92.1989C143.556 92.1693 143.606 92.1164 143.631 92.0512C143.656 91.986 143.655 91.9136 143.628 91.849C143.458 91.4753 143.199 91.1494 142.872 90.9003C142.546 90.6512 142.163 90.4865 141.758 90.421C141.688 90.4128 141.618 90.4321 141.562 90.4747C141.506 90.5173 141.468 90.58 141.458 90.6495C141.453 90.6833 141.455 90.7178 141.463 90.7509C141.472 90.784 141.486 90.8151 141.507 90.8424C141.528 90.8696 141.554 90.8925 141.583 90.9096C141.613 90.9268 141.645 90.9379 141.679 90.9423C141.994 91.0095 142.289 91.1517 142.537 91.3568C142.786 91.5618 142.981 91.8238 143.107 92.1204C143.136 92.1517 143.171 92.1753 143.211 92.1891C143.251 92.2028 143.294 92.2062 143.336 92.1989Z" fill="#263238"/>
<path d="M100.31 285.229C100.599 285.469 100.962 285.602 101.338 285.607C101.471 285.595 101.598 285.552 101.71 285.479C101.822 285.407 101.915 285.309 101.981 285.193C102.028 285.132 102.057 285.058 102.064 284.981C102.072 284.904 102.058 284.827 102.023 284.757C101.724 284.143 99.6172 284.043 99.3816 284.001C99.3548 284 99.3283 284.006 99.3054 284.02C99.2826 284.034 99.2644 284.055 99.2531 284.079C99.2369 284.099 99.228 284.125 99.228 284.151C99.228 284.176 99.2369 284.202 99.2531 284.222C99.564 284.598 99.9188 284.936 100.31 285.229ZM101.666 284.757C101.717 284.786 101.759 284.828 101.788 284.879C101.803 284.906 101.812 284.937 101.812 284.968C101.812 284.999 101.803 285.03 101.788 285.057C101.744 285.137 101.681 285.204 101.605 285.254C101.53 285.304 101.443 285.334 101.352 285.343C100.96 285.379 100.353 284.993 99.71 284.293C100.387 284.317 101.052 284.474 101.666 284.757Z" fill="#B6CF7B"/>
<path d="M99.2891 284.244C99.3075 284.251 99.3279 284.251 99.3462 284.244C99.996 284.322 101.631 283.958 101.909 283.38C101.952 283.291 101.962 283.191 101.939 283.096C101.916 283.001 101.86 282.917 101.781 282.858C101.707 282.791 101.62 282.739 101.526 282.707C101.431 282.675 101.331 282.663 101.231 282.673C100.396 282.737 99.3177 283.979 99.2677 284.029C99.2558 284.05 99.2495 284.073 99.2495 284.097C99.2495 284.121 99.2558 284.144 99.2677 284.165C99.2649 284.193 99.2726 284.221 99.2891 284.244ZM101.552 283.037H101.595C101.724 283.158 101.688 283.23 101.674 283.258C101.51 283.601 100.382 283.972 99.6604 283.972C100.073 283.475 100.621 283.108 101.238 282.916C101.355 282.914 101.467 282.957 101.552 283.037Z" fill="#B6CF7B"/>
<path d="M121.651 123.015L119.895 125.157C119.302 125.871 118.717 126.621 118.138 127.371C116.982 128.856 115.854 130.36 114.754 131.883C113.676 133.411 112.612 134.953 111.655 136.51C110.699 138.066 109.777 139.651 109.028 141.236L108.878 141.536L108.821 141.672C108.767 141.779 108.724 141.892 108.692 142.008C108.595 142.331 108.519 142.66 108.464 142.993C108.326 143.812 108.24 144.64 108.207 145.47C108.135 147.234 108.157 149.112 108.257 150.997C108.442 154.767 108.785 158.665 109.163 162.492L105.079 163.442C103.731 159.633 102.669 155.728 101.902 151.761C101.506 149.711 101.234 147.639 101.088 145.556C101.02 144.424 101.02 143.289 101.088 142.157C101.139 141.515 101.228 140.876 101.352 140.244C101.438 139.894 101.502 139.566 101.638 139.166L101.824 138.609L101.973 138.238C103.523 134.341 105.481 130.619 107.814 127.135C108.942 125.421 110.127 123.765 111.384 122.137C112.005 121.33 112.641 120.538 113.29 119.745C113.94 118.952 114.583 118.203 115.325 117.375L121.651 123.015Z" fill="#FFB573"/>
<path d="M116.382 114.44C111.07 115.197 105.308 127.706 105.308 127.706L115.361 137.216C115.361 137.216 119.531 130.926 122.965 124.821C126.7 118.174 122.808 113.526 116.382 114.44Z" fill="#B6CF7B"/>
<path d="M108.678 161.286L112.041 165.734L105.051 167.426C105.051 167.426 103.052 162.978 105.336 161.571L108.678 161.286Z" fill="#FFB573"/>
<path d="M111.927 170.396L106.093 171.524L105.051 167.426L112.041 165.734L111.927 170.396Z" fill="#FFB573"/>
<path d="M270.956 278.217L265.687 280.473L258.382 269.171L263.645 266.907L270.956 278.217Z" fill="#FFC3BD"/>
<path opacity="0.2" d="M263.652 266.907L258.382 269.171L262.152 274.997L267.422 272.741L263.652 266.907Z" fill="black"/>
<path d="M222.589 164.37C222.589 164.37 231.871 211.094 236.52 227.202C241.61 244.902 259.182 274.833 259.182 274.833L268.828 270.692C268.828 270.692 258.118 246.558 253.834 229.137C248.986 209.302 242.281 162.735 242.281 162.735L222.589 164.37Z" fill="#B6CF7B"/>
<path opacity="0.2" d="M230.272 177.786C231.465 190.774 231.75 199.92 232.243 209.973C229.801 199.306 227.195 186.939 225.303 177.786H230.272Z" fill="black"/>
<path d="M232.492 291.319L226.759 291.233L225.445 277.939L231.172 278.024L232.492 291.319Z" fill="#FFC3BD"/>
<path opacity="0.2" d="M225.445 277.939L226.124 284.793L231.857 284.886L231.179 278.032L225.445 277.939Z" fill="black"/>
<path d="M223.996 283.458L233.699 283.608C233.699 283.608 229.872 245.901 228.616 228.087C228.23 222.668 228.409 215.007 228.866 206.76C229.437 196.364 229.815 192.201 230.601 179.064C231.157 169.696 231.836 163.627 231.836 163.627L211.751 165.277C211.751 165.277 210.966 210.765 213.243 228.109C215.628 246.116 223.996 283.458 223.996 283.458Z" fill="#B6CF7B"/>
<path d="M226.809 290.598L233.071 290.698C233.184 290.697 233.293 290.736 233.381 290.808C233.468 290.88 233.528 290.98 233.549 291.091L234.606 296.203C234.633 296.327 234.632 296.455 234.602 296.578C234.572 296.702 234.514 296.816 234.432 296.914C234.351 297.011 234.248 297.088 234.132 297.139C234.016 297.191 233.89 297.215 233.763 297.21C231.507 297.138 228.244 296.952 225.41 296.91C222.09 296.86 221.711 296.995 217.82 296.91C215.471 296.874 214.857 294.489 215.842 294.289C220.34 293.375 221.511 293.325 225.424 290.998C225.841 290.741 226.32 290.603 226.809 290.598Z" fill="#263238"/>
<path d="M222.775 283.644L234.335 283.822L234.399 280.088L222.025 279.688L222.775 283.644Z" fill="#B6CF7B"/>
<path opacity="0.3" d="M222.775 283.644L234.335 283.822L234.399 280.088L222.025 279.688L222.775 283.644Z" fill="black"/>
<path d="M226.238 291.355C226.261 291.344 226.281 291.328 226.297 291.308C226.313 291.288 226.325 291.265 226.331 291.24C226.334 291.213 226.329 291.186 226.316 291.162C226.303 291.137 226.283 291.118 226.259 291.105C226.002 290.962 223.717 289.762 223.011 290.134C222.945 290.17 222.889 290.222 222.849 290.286C222.809 290.35 222.786 290.423 222.782 290.498C222.767 290.62 222.782 290.744 222.824 290.859C222.866 290.974 222.935 291.078 223.025 291.162C223.646 291.726 225.295 291.526 226.216 291.355H226.238ZM223.189 290.355C223.625 290.212 224.867 290.705 225.767 291.155C224.503 291.348 223.56 291.276 223.21 290.962C223.151 290.906 223.106 290.837 223.078 290.76C223.051 290.683 223.043 290.6 223.053 290.519C223.053 290.49 223.061 290.461 223.076 290.436C223.091 290.41 223.113 290.39 223.139 290.376L223.189 290.355Z" fill="#B6CF7B"/>
<path d="M226.238 291.355H226.273C226.292 291.34 226.306 291.322 226.316 291.301C226.326 291.28 226.331 291.257 226.33 291.233C226.33 291.169 226.195 289.62 225.474 289.013C225.372 288.923 225.253 288.854 225.124 288.813C224.995 288.771 224.859 288.756 224.724 288.77C224.353 288.77 224.238 288.984 224.21 289.141C224.096 289.784 225.452 291.048 226.138 291.369C226.172 291.375 226.207 291.37 226.238 291.355ZM224.61 289.041H224.745C224.845 289.032 224.945 289.044 225.04 289.076C225.135 289.108 225.222 289.159 225.295 289.227C225.713 289.73 225.963 290.352 226.009 291.005C225.295 290.569 224.396 289.577 224.467 289.191C224.481 289.17 224.496 289.077 224.61 289.041Z" fill="#B6CF7B"/>
<path d="M264.487 280.209L270.492 276.639C270.59 276.581 270.704 276.557 270.817 276.573C270.93 276.588 271.035 276.642 271.113 276.725L274.683 280.523C274.77 280.616 274.834 280.728 274.872 280.849C274.909 280.971 274.918 281.099 274.899 281.225C274.88 281.351 274.833 281.471 274.761 281.575C274.688 281.68 274.594 281.767 274.483 281.83C272.534 282.944 271.056 283.672 268.628 285.122C267.129 286.014 263.673 288.242 261.61 289.47C259.546 290.698 258.097 288.863 258.754 288.135C261.867 284.85 263.266 282.808 263.83 280.995C263.941 280.659 264.176 280.378 264.487 280.209Z" fill="#263238"/>
<path d="M179.928 88.9429L181.042 83.9449L175.123 82.2241C175.123 82.2241 173.323 87.0579 176.801 89.3641L179.928 88.9429Z" fill="#FFC3BD"/>
<path d="M180.271 79.104L175.672 76.6335L175.108 82.2527L181.027 83.9735L180.271 79.104Z" fill="#FFC3BD"/>
<path d="M208.716 125.428C206.517 124.814 204.525 124.136 202.461 123.393C200.398 122.651 198.399 121.844 196.392 120.959C194.386 120.073 192.401 119.145 190.431 118.103C189.445 117.603 188.467 117.032 187.489 116.475L186.061 115.582L185.697 115.361L185.154 115.004C184.797 114.752 184.462 114.494 184.147 114.233C183.027 113.264 182.053 112.139 181.256 110.891C180.559 109.817 179.948 108.691 179.428 107.521C178.497 105.378 177.761 103.156 177.229 100.881C176.204 96.5655 175.66 92.1499 175.608 87.7147L180.87 87.0007C181.977 90.876 183.29 94.6895 184.804 98.4247C185.514 100.166 186.354 101.851 187.318 103.466C187.74 104.175 188.218 104.851 188.746 105.486C189.147 105.967 189.61 106.392 190.124 106.75C190.209 106.807 190.297 106.859 190.388 106.907C190.434 106.918 190.477 106.938 190.516 106.964L190.845 107.114L192.144 107.742C193.044 108.142 193.929 108.549 194.843 108.935C196.664 109.713 198.534 110.434 200.419 111.148C202.304 111.862 204.211 112.576 206.131 113.205L211.843 115.154L208.716 125.428Z" fill="#B6CF7B"/>
<path d="M227.652 97.8179C227.238 102.066 227.166 109.792 230.358 112.291C228.309 114.768 225.602 117.66 220.662 118.317C215.721 118.974 216.256 115.461 217.391 113.554C221.94 111.991 221.483 108.556 220.355 105.386L227.652 97.8179Z" fill="#FFC3BD"/>
<path d="M214.7 93.691C214.65 94.1551 214.371 94.5049 214.071 94.4764C213.771 94.4478 213.564 94.048 213.607 93.5839C213.65 93.1198 213.936 92.7771 214.235 92.8056C214.535 92.8342 214.742 93.234 214.7 93.691Z" fill="#263238"/>
<path d="M214.535 94.1409C213.85 95.4943 212.98 96.7462 211.951 97.8608C212.24 98.1151 212.582 98.3031 212.952 98.4116C213.322 98.5201 213.711 98.5466 214.093 98.4891L214.535 94.1409Z" fill="#ED847E"/>
<path d="M215.928 91.9704C215.887 91.9546 215.85 91.9286 215.821 91.8949C215.793 91.8613 215.773 91.8209 215.764 91.7776C215.697 91.443 215.552 91.1291 215.339 90.8621C215.127 90.5951 214.854 90.3826 214.543 90.2425C214.509 90.2303 214.478 90.2116 214.451 90.1874C214.425 90.1632 214.403 90.1341 214.388 90.1016C214.373 90.0691 214.364 90.0339 214.363 89.9981C214.361 89.9622 214.366 89.9264 214.379 89.8926C214.391 89.8589 214.409 89.8278 214.434 89.8013C214.458 89.7748 214.487 89.7533 214.519 89.7381C214.552 89.7228 214.587 89.7141 214.623 89.7124C214.659 89.7108 214.695 89.7162 214.728 89.7284C215.123 89.9026 215.471 90.1684 215.743 90.5036C216.015 90.8388 216.203 91.2339 216.292 91.6562C216.307 91.7262 216.293 91.7993 216.255 91.8595C216.216 91.9197 216.155 91.9621 216.085 91.9775C216.033 91.9932 215.978 91.9907 215.928 91.9704Z" fill="#263238"/>
<path d="M230.408 94.0622C229.301 99.6457 228.937 102.966 225.709 105.486C220.847 109.256 214.25 105.743 213.664 99.9456C213.136 94.7262 215.028 86.4795 220.84 84.9516C222.121 84.6148 223.466 84.6112 224.748 84.9412C226.031 85.2712 227.207 85.9238 228.166 86.8369C229.125 87.75 229.834 88.8933 230.227 90.158C230.619 91.4227 230.681 92.7667 230.408 94.0622Z" fill="#FFC3BD"/>
<path d="M219.076 95.6188C217.47 93.7695 218.07 89.7854 219.076 87.879C217.891 88.6358 213.857 88.3645 213.836 85.2015C213.8 80.5676 221.59 79.4895 225.859 80.3035C230.779 81.2745 235.191 85.8869 236.891 84.2947C238.64 87.3792 235.577 88.4573 235.577 88.4573C235.577 88.4573 238.619 96.1328 227.487 103.651C225.96 103.436 224.407 103.502 222.903 103.844C222.559 103.843 222.228 103.707 221.982 103.466C220.854 102.338 217.77 98.8532 219.076 95.6188Z" fill="#263238"/>
<path d="M235.156 88.2859C235.156 88.2859 237.255 88.7286 237.969 87.3792C237.762 89.307 236.584 89.3212 235.156 88.2859Z" fill="#263238"/>
<path d="M222.768 97.3894C222.063 98.6348 220.892 99.5491 219.512 99.9312C217.684 100.417 216.785 98.7746 217.313 97.0752C217.784 95.5259 219.312 93.4124 221.14 93.6766C222.968 93.9408 223.603 95.8614 222.768 97.3894Z" fill="#FFC3BD"/>
<path d="M244.566 117.167C245.387 117.953 246.059 118.659 246.765 119.416C247.472 120.173 248.143 120.923 248.793 121.701C250.114 123.236 251.371 124.828 252.599 126.442C253.827 128.056 254.998 129.712 256.104 131.44L257.04 132.804C257.39 133.318 257.675 133.846 257.975 134.367C258.537 135.403 259.027 136.477 259.439 137.58C260.231 139.659 260.813 141.812 261.174 144.006C261.533 146.112 261.736 148.24 261.781 150.375C261.844 152.457 261.782 154.541 261.595 156.616C261.423 158.694 261.118 160.76 260.681 162.799L255.405 162.221C255.312 160.443 255.176 158.501 254.969 156.659C254.762 154.816 254.491 152.96 254.155 151.161C253.572 147.713 252.512 144.363 251.007 141.208C250.648 140.509 250.25 139.832 249.814 139.18C249.593 138.873 249.386 138.552 249.157 138.273C249.029 138.123 248.95 138.009 248.793 137.83L248.329 137.288C247.072 135.86 245.83 134.432 244.552 133.004C243.274 131.576 242.01 130.148 240.739 128.784L236.991 124.679L244.566 117.167Z" fill="#B6CF7B"/>
<path d="M230.436 121.701C229.522 125.835 242.21 133.361 242.21 133.361L252.249 124.793C249.702 121.144 246.834 117.729 243.681 114.59C238.476 109.406 231.921 115.004 230.436 121.701Z" fill="#263238"/>
<path opacity="0.2" d="M239.254 126.035C237.44 125.043 237.162 127.306 237.44 130.183C239.968 132.033 242.203 133.361 242.203 133.361L243.481 132.268C242.474 129.634 241.075 127.028 239.254 126.035Z" fill="black"/>
<path d="M255.291 161.321L252.649 164.848L258.996 167.469C258.996 167.469 260.653 164.613 260.303 162.471C260.223 162.062 260.026 161.686 259.735 161.388C259.445 161.09 259.074 160.883 258.668 160.793L257.511 160.521C257.103 160.423 256.676 160.446 256.281 160.588C255.886 160.73 255.542 160.985 255.291 161.321Z" fill="#FFC3BD"/>
<path d="M251.371 170.51L257.354 171.838L258.996 167.469L252.649 164.848L251.371 170.51Z" fill="#FFC3BD"/>
<path d="M241.546 115.497C238.947 137.445 245.944 164.534 246.116 169.047C241.632 169.418 219.469 171.46 210.266 172.21C204.925 133.132 209.845 114.597 209.845 114.597C209.845 114.597 211.751 113.983 214.371 113.39C215.192 113.205 216.085 113.026 217.013 112.862C217.52 112.769 218.048 112.691 218.577 112.612C222.901 112.171 227.247 111.975 231.593 112.027C232.414 112.027 233.257 112.027 234.071 112.091C234.885 112.155 235.563 112.176 236.263 112.226C237.341 112.312 238.34 112.412 239.19 112.505C239.542 112.545 239.883 112.654 240.192 112.826C240.501 112.999 240.774 113.231 240.993 113.509C241.212 113.787 241.374 114.106 241.469 114.447C241.564 114.788 241.59 115.145 241.546 115.497Z" fill="#263238"/>
<path opacity="0.2" d="M208.316 125.143C208.209 126.264 208.124 127.485 208.052 128.798C210.08 128.599 212.543 128.084 213.586 126.914C214.857 125.428 210.973 125.164 208.316 125.143Z" fill="black"/>
<path d="M215.963 127.142C211.058 129.569 201.769 125.428 201.769 125.428L201.919 111.027C201.919 111.027 211.951 112.64 219.055 112.569C226.338 112.498 221.34 124.471 215.963 127.142Z" fill="#263238"/>
<path d="M258.118 275.533L269.478 270.663L268.021 267.264L255.133 271.506L258.118 275.533Z" fill="#B6CF7B"/>
<path opacity="0.3" d="M258.118 275.533L269.478 270.663L268.021 267.264L255.133 271.506L258.118 275.533Z" fill="black"/>
<path d="M263.373 282.03C263.802 281.761 264.2 281.445 264.558 281.088C264.573 281.066 264.58 281.042 264.58 281.016C264.58 280.991 264.573 280.966 264.558 280.945C264.551 280.919 264.534 280.897 264.512 280.881C264.49 280.866 264.464 280.858 264.437 280.859C264.187 280.859 262.024 280.823 261.645 281.423C261.604 281.491 261.582 281.569 261.582 281.648C261.582 281.727 261.604 281.805 261.645 281.873C261.7 281.995 261.784 282.102 261.89 282.184C261.996 282.266 262.12 282.321 262.252 282.344C262.651 282.376 263.049 282.265 263.373 282.03ZM264.123 281.123C263.409 281.794 262.695 282.144 262.324 282.08C262.233 282.064 262.147 282.025 262.075 281.968C262.003 281.911 261.946 281.836 261.91 281.752C261.891 281.725 261.882 281.694 261.882 281.662C261.882 281.63 261.891 281.599 261.91 281.573C262.095 281.266 263.252 281.145 264.123 281.13V281.123Z" fill="#B6CF7B"/>
<path d="M264.53 281.116C264.552 281.101 264.572 281.081 264.587 281.059C264.599 281.038 264.605 281.015 264.605 280.991C264.605 280.967 264.599 280.944 264.587 280.923C264.544 280.866 263.58 279.495 262.731 279.388C262.628 279.368 262.523 279.37 262.422 279.395C262.321 279.419 262.226 279.466 262.145 279.531C262.058 279.584 261.992 279.666 261.958 279.762C261.924 279.858 261.925 279.963 261.959 280.059C262.181 280.673 263.809 281.159 264.48 281.137L264.53 281.116ZM262.345 279.688C262.448 279.632 262.566 279.612 262.681 279.631C263.223 279.716 263.873 280.445 264.18 280.83C263.466 280.745 262.331 280.302 262.195 279.945C262.195 279.909 262.159 279.831 262.295 279.724L262.345 279.688Z" fill="#B6CF7B"/>
<path opacity="0.9" d="M176.536 54.8994H175.701V58.9478H176.536V54.8994Z" fill="#B6CF7B"/>
<path opacity="0.9" d="M176.536 60.9255H175.701V71.1572H176.536V60.9255Z" fill="#B6CF7B"/>
<path opacity="0.9" d="M185.251 70.8211L180.872 75.196L181.462 75.7871L185.842 71.4121L185.251 70.8211Z" fill="#B6CF7B"/>
<path opacity="0.9" d="M192.701 80.1465H186.24V80.9819H192.701V80.1465Z" fill="#B6CF7B"/>
<path opacity="0.9" d="M165.157 69.0174L164.566 69.6082L170.761 75.803L171.352 75.2123L165.157 69.0174Z" fill="#B6CF7B"/>
<path opacity="0.9" d="M165.998 80.1465H163.106V80.9819H165.998V80.1465Z" fill="#B6CF7B"/>
</svg>
