<svg width="27" height="27" viewBox="0 0 27 27" fill="none" xmlns="http://www.w3.org/2000/svg">
<path d="M4.5 22.5H22.5M4.5 22.5V18L13.5 9L16.7276 5.77238L16.7287 5.77125C17.1731 5.32688 17.3959 5.10413 17.6524 5.02088C17.8783 4.94747 18.1217 4.94747 18.3476 5.02088C18.6041 5.10413 18.8257 5.32688 19.2701 5.77013L21.2276 7.72763C21.6731 8.17313 21.8959 8.39588 21.9791 8.65238C22.0525 8.87831 22.0525 9.12169 21.9791 9.34763C21.8959 9.60413 21.6731 9.82688 21.2276 10.2724L18 13.5011L13.5 9.00113M4.5 22.5H9L18 13.5" stroke="#3373CC" stroke-width="2" stroke-linecap="round" stroke-linejoin="round"/>
</svg>
