<svg width="27" height="27" viewBox="0 0 27 27" fill="none" xmlns="http://www.w3.org/2000/svg">
<path d="M4.50003 4.5L22.5 22.5M18.5625 18.8505C17.0404 19.6706 15.3203 20.25 13.5 20.25C9.52878 20.25 6.03678 17.4915 4.03541 15.5014C3.50666 14.976 3.24228 14.7139 3.07466 14.1975C2.95428 13.8296 2.95428 13.1704 3.07466 12.8025C3.24341 12.2861 3.50778 12.0229 4.03653 11.4975C5.04566 10.494 6.43278 9.297 8.06853 8.35538M21.9375 16.4632C22.3122 16.1336 22.6553 15.8085 22.9635 15.5025L22.9669 15.4991C23.4934 14.9749 23.7578 14.7116 23.9254 14.1986C24.0458 13.8308 24.0458 13.1704 23.9254 12.8025C23.7567 12.2873 23.4934 12.024 22.9647 11.4986C20.9622 9.5085 17.4724 6.75 13.5 6.75C13.1198 6.75 12.7448 6.774 12.375 6.822M14.9884 15.1875C14.5527 15.5723 13.9849 15.7735 13.4041 15.7489C12.8233 15.7244 12.2745 15.476 11.8728 15.0558C11.4711 14.6356 11.2476 14.0762 11.2491 13.4949C11.2507 12.9136 11.4772 12.3554 11.8812 11.9374" stroke="black" stroke-width="2.25" stroke-linecap="round" stroke-linejoin="round"/>
</svg>
