<svg width="27" height="27" viewBox="0 0 27 27" fill="none" xmlns="http://www.w3.org/2000/svg">
<path d="M13.5 16.875L16.875 13.5M16.875 13.5L13.5 10.125M16.875 13.5H4.5M10.125 8.15513V8.1C10.125 6.84 10.125 6.21 10.3703 5.7285C10.5863 5.30438 10.9294 4.96125 11.3535 4.74525C11.835 4.5 12.465 4.5 13.725 4.5H18.9C20.16 4.5 20.79 4.5 21.2704 4.74525C21.6945 4.96125 22.0387 5.30438 22.2547 5.7285C22.5 6.20887 22.5 6.83887 22.5 8.09663V18.9045C22.5 20.1623 22.5 20.7911 22.2547 21.2715C22.0387 21.695 21.6941 22.0392 21.2704 22.2547C20.79 22.5 20.1611 22.5 18.9034 22.5H13.7216C12.4639 22.5 11.8339 22.5 11.3535 22.2547C10.9302 22.039 10.586 21.6948 10.3703 21.2715C10.125 20.79 10.125 20.16 10.125 18.9V18.8438" stroke="#3373CC" stroke-width="2.25" stroke-linecap="round" stroke-linejoin="round"/>
</svg>
