<svg width="106" height="79" viewBox="0 0 106 79" fill="none" xmlns="http://www.w3.org/2000/svg">
<path d="M75.8606 15.1289C75.4721 15.2379 62.9408 24.0282 61.904 24.8005C60.8673 25.5727 58.8271 28.3005 59.0924 28.5495C59.5031 28.9354 63.0152 27.6868 63.4852 27.4192C63.9553 27.1516 77.0517 18.0708 77.6932 17.6354C78.3348 17.1999 76.2519 15.0205 75.8606 15.1289Z" fill="#3373CC"/>
<path d="M52.7481 43.2907C47.1948 43.6035 42.1082 39.2577 34.1739 36.8193C30.8439 37.3889 24.5353 37.0738 23.6289 35.0552C11.7675 36.7806 1.76194 44.1567 0.207944 49.1162C-1.28112 53.8615 5.60254 63.2398 8.90646 66.3033C10.365 58.1583 12.393 49.4851 15.6147 41.8328C15.7779 41.4447 16.1425 41.6824 16.0188 42.0573C12.489 52.7322 9.98849 63.7091 8.55015 74.8434C14.8216 78.4846 34.8017 79.3348 41.2752 77.7772C41.3279 75.0898 41.7142 66.0689 42.0705 59.0891C39.2894 58.8711 36.5149 58.5528 33.7627 58.1081C33.3231 58.0373 33.5168 57.5811 33.9475 57.6378C39.1234 58.3201 49.5985 59.5153 55.648 57.8879C59.3665 56.8873 67 53.0374 73.075 34.8889C71.3179 33.5946 68.3303 32.4773 65.3871 32.1639C64.5835 34.4382 55.4804 43.1364 52.7481 43.2907Z" fill="#3373CC"/>
<path d="M49.761 4.90029C52.785 6.97945 55.4971 9.46489 57.8179 12.284C58.1859 12.7129 58.5949 12.3755 58.8724 12.0251C62.561 7.34462 64.5335 4.59782 69.4641 0.580075C69.8526 0.265065 69.413 -0.196005 68.9984 0.0895749C65.619 2.40801 60.4231 7.29393 58.2048 10.7449C55.8348 8.22349 53.1277 6.02932 50.1573 4.22231C49.5884 3.88114 49.2088 4.5395 49.761 4.90029Z" fill="#3373CC"/>
<path d="M53.0823 4.38695C54.0397 4.49595 60.9894 4.20764 62.0733 4.18857C62.6139 4.17876 62.6538 3.33074 62.1044 3.35145C61.0105 3.39232 54.0014 3.55146 53.019 3.72259C52.6166 3.79235 52.7221 4.34498 53.0823 4.38695Z" fill="#3373CC"/>
<path d="M50.7889 25.1417C50.3066 24.928 49.9103 25.5727 50.3499 25.8403C52.8089 27.3453 55.1577 29.0175 57.379 30.8445C58.0494 31.3944 58.8741 30.3469 58.2115 29.7921C55.9715 27.9079 53.4729 26.3425 50.7889 25.1417Z" fill="#3373CC"/>
<path d="M65.0801 14.1495C65.104 12.1172 64.9019 9.93885 64.8908 7.89401C64.8908 7.37626 64.1571 7.46291 64.1616 7.98012C64.1797 10.1459 64.1982 12.3101 64.2171 14.4727C62.561 14.4727 55.0884 14.6716 53.3835 14.9861C53.2037 13.1271 53.1176 11.2534 52.839 9.4042C52.8248 9.33098 52.7836 9.26547 52.7233 9.22024C52.663 9.17501 52.5878 9.15325 52.5121 9.15912C52.4365 9.165 52.3657 9.1981 52.3133 9.25208C52.261 9.30606 52.2308 9.37712 52.2285 9.45162C52.3168 11.2676 52.395 13.1227 52.5365 14.9387C52.612 15.905 52.6154 15.8407 53.586 15.7714C56.9471 15.5311 60.3693 15.3354 63.7387 15.3055C64.711 15.2962 65.0657 15.3616 65.0801 14.1495Z" fill="#3373CC"/>
<path d="M60.9023 21.574C59.0436 21.5975 57.0173 21.6258 55.1691 21.8324C53.2405 22.0504 53.3765 22.2095 53.513 23.9164C53.5445 24.3653 53.603 24.8119 53.6884 25.2539C53.6985 25.3367 53.7392 25.413 53.8028 25.4683C53.8664 25.5236 53.9484 25.5542 54.0333 25.5542C54.1182 25.5542 54.2002 25.5236 54.2638 25.4683C54.3274 25.413 54.3681 25.3367 54.3782 25.2539C54.3782 24.9432 54.2245 22.8335 54.2672 22.7818C54.31 22.73 60.1458 22.3278 60.7691 22.2858C61.3063 22.2493 61.4378 21.5669 60.9023 21.574Z" fill="#3373CC"/>
<path d="M54.6811 29.9213C54.6624 29.8386 54.6137 29.7654 54.5441 29.7154C54.4745 29.6654 54.3888 29.6419 54.3028 29.6493C54.2169 29.6567 54.1367 29.6945 54.077 29.7556C54.0174 29.8168 53.9824 29.8971 53.9785 29.9818C54.003 31.1116 54.0866 32.2394 54.2288 33.3608C54.2207 33.4668 54.2558 33.5717 54.3263 33.6524C54.3969 33.7331 54.4971 33.7831 54.6051 33.7913C54.6606 33.7957 58.9125 33.6883 62.0221 33.3995C62.8174 33.3259 62.334 32.6266 61.8684 32.6621C59.6717 32.8256 57.2119 32.9122 55.0064 32.9765C54.9187 31.9274 54.8438 30.9268 54.6811 29.9213Z" fill="#3373CC"/>
<path d="M35.8085 20.0034C34.7368 19.9391 34.0996 21.2373 34.6752 21.3539C34.9738 21.4144 35.0703 20.6808 35.7602 20.6852C35.8523 20.6915 35.9431 20.6616 36.0127 20.6021C36.0824 20.5426 36.1251 20.4584 36.1315 20.368C36.1379 20.2776 36.1075 20.1884 36.0469 20.12C35.9863 20.0516 35.9005 20.0097 35.8085 20.0034Z" fill="#191919"/>
<path d="M37.3063 18.8387C37.1464 18.5226 36.8623 18.7798 36.9372 19.0801C37.4084 20.9282 37.9428 21.9577 38.343 24.0113C38.5583 25.1155 37.531 24.4424 37.4994 25.3057C37.4792 25.9453 37.4132 26.5827 37.3018 27.2132C36.8563 27.1364 36.4488 26.9181 36.1419 26.5919C35.9443 26.3373 35.6018 26.5662 35.7645 26.9069C35.9103 27.1718 36.1191 27.3983 36.3729 27.5672C36.6268 27.7362 36.9184 27.8426 37.223 27.8775C36.8672 30.657 35.3715 30.8162 32.9789 30.33C32.5394 30.2412 32.0992 30.0875 31.6169 30.0237C31.3838 29.9932 30.7844 30.4554 32.3507 30.8865C32.3507 31.6331 32.5172 35.4427 32.7331 36.1414C32.8246 36.4346 33.2958 36.3997 33.2692 36.0678C33.1304 34.3418 33.0755 32.7286 33.0472 31.0418C37.8202 31.9999 37.7436 29.131 38.1254 25.4555C39.1094 25.3171 39.1538 24.5176 39.004 23.7513C38.6683 22.0456 38.0971 20.3928 37.3063 18.8387Z" fill="#191919"/>
<path d="M23.7977 10.9312C22.5212 6.39685 17.5767 1.7033 10.9217 5.11173C4.2667 8.52016 5.1497 17.692 8.72945 21.574C10.9783 24.0118 13.1228 26.8888 12.7932 29.1233C12.4635 31.3578 15.9661 29.4166 14.1418 22.0956C12.6838 16.2455 17.4452 11.3798 21.1703 13.6704C21.8534 12.596 22.7463 11.665 23.7977 10.9312Z" fill="#191919"/>
<path d="M30.4397 21.725C31.4337 22.3043 37.612 17.4097 37.2318 16.2848C34.1793 7.26121 22.8274 9.60144 21.0075 16.0559C18.9657 23.2984 25.0446 28.9789 25.4314 28.9293C25.9936 28.8568 27.7624 27.7429 28.419 25.5727C28.7081 25.7389 29.0371 25.8265 29.3722 25.8265C29.7072 25.8265 30.0363 25.7389 30.3254 25.5727C30.7028 25.3618 30.4303 24.941 30.0313 25.0822C29.0589 25.4228 28.0105 24.6505 28.116 23.003C28.1183 22.7375 28.1922 22.4774 28.3299 22.2489C28.4676 22.0204 28.6644 21.8318 28.9003 21.702C29.1362 21.5723 29.4028 21.5061 29.6732 21.5101C29.9435 21.5142 30.208 21.5883 30.4397 21.725Z" fill="#191919"/>
<path d="M25.1195 29.7703C24.7591 31.4032 24.5663 33.0674 24.5439 34.738C24.5509 34.8072 24.5826 34.8717 24.6335 34.9202C24.6843 34.9686 24.751 34.9977 24.8217 35.0023C24.8923 35.007 24.9624 34.9868 25.0194 34.9455C25.0763 34.9042 25.1165 34.8444 25.1328 34.7767C25.4691 33.1869 25.5213 31.4723 25.8182 29.8199C25.8887 29.4253 25.195 29.3866 25.1195 29.7703Z" fill="#191919"/>
<path d="M36.4661 22.2029C36.213 21.3385 35.3794 21.3009 35.7063 22.5179C36.0037 23.6199 36.733 23.112 36.4661 22.2029Z" fill="#191919"/>
<path d="M63.5993 22.0869C63.864 21.8253 65.8193 21.676 65.9675 21.6297C66.3044 21.5207 66.2267 21.034 65.9453 20.9266C65.3786 20.7086 63.7752 21.0214 63.2391 21.3081C62.703 21.5948 62.6131 22.5556 62.1363 23.5644C61.8916 24.0822 61.5636 24.5585 61.3499 25.0871C61.2461 25.3449 61.563 25.5231 61.7894 25.346C62.87 24.51 63.586 22.1 63.5993 22.0869Z" fill="#191919"/>
<path d="M62.2859 26.6039C62.212 26.6003 62.1393 26.6226 62.0806 26.6667C62.0219 26.7108 61.981 26.7739 61.9652 26.8449C61.9494 26.9158 61.9598 26.9899 61.9944 27.0541C62.029 27.1182 62.0857 27.1682 62.1544 27.1952C65.9778 28.5708 65.743 31.074 66.2752 31.6686C66.3901 31.7972 67.1421 32.0719 66.9562 31.0146C66.581 28.8814 64.5042 26.7756 62.2859 26.6039Z" fill="#191919"/>
<path d="M70.1144 24.0843C71.6007 27.642 71.6739 28.52 71.5773 32.3683C71.5662 32.7999 72.225 32.9732 72.3416 32.5318C73.017 29.9768 72.2261 25.8828 70.6677 23.7267C70.4379 23.4085 69.9773 23.7567 70.1144 24.0843Z" fill="#191919"/>
<path d="M67.6807 25.219C67.5936 26.1859 66.972 26.1782 66.3626 26.3581C65.6011 26.5826 66.0329 26.7892 66.3626 26.8671C66.6162 26.9374 66.8836 26.9438 67.1404 26.8859C67.3972 26.8279 67.635 26.7075 67.8319 26.5356C68.0288 26.3637 68.1785 26.146 68.2672 25.9024C68.3559 25.6588 68.3808 25.3972 68.3395 25.1417C68.2474 24.7155 67.7179 24.8054 67.6807 25.219Z" fill="#191919"/>
<path d="M94.9494 11.7679C95.793 11.7221 95.5466 10.4533 94.7118 10.4997C88.6806 10.8354 82.5462 10.4779 76.6999 10.8365C76.0339 10.8768 76.151 11.8671 76.7554 11.9363C80.2413 12.3352 91.545 11.957 94.9494 11.7679Z" fill="#191919"/>
<path d="M104.755 3.85613C97.5684 3.62287 82.4158 3.69263 75.7381 4.3826C75.193 4.4371 75.0437 5.42192 75.6986 5.4181C83.3427 5.37123 95.9445 4.8682 104.878 5.1456C105.73 5.17285 105.59 3.88338 104.755 3.85613Z" fill="#191919"/>
<path d="M103.863 21.906C95.1594 22.6145 84.7282 21.7321 76.7967 22.6739C76.1684 22.7485 76.326 23.7988 76.9721 23.7639C84.0533 23.348 94.5445 23.6467 103.898 23.2118C104.741 23.1698 104.719 21.8362 103.863 21.906Z" fill="#191919"/>
<path d="M93.8419 27.963C89.7732 27.7243 80.7683 27.7505 77.3584 27.9151C76.7213 27.9462 76.6291 29.0013 77.2923 29.0411C82.3712 29.3473 87.915 29.3315 93.7664 29.2138C94.4568 29.2002 94.6017 28.0072 93.8419 27.963Z" fill="#191919"/>
</svg>
