<svg width="20" height="20" viewBox="0 0 20 20" fill="none" xmlns="http://www.w3.org/2000/svg">
<path d="M5.01254 18.6675C7.11426 19.8768 9.58381 20.2813 11.9615 19.8057C14.3393 19.3301 16.4632 18.0067 17.9379 16.0819C19.4127 14.157 20.1378 11.7619 19.9783 9.34236C19.8189 6.92277 18.7857 4.64356 17.0711 2.92894C15.3564 1.21432 13.0772 0.181126 10.6576 0.0216601C8.23806 -0.137806 5.84296 0.587323 3.91814 2.06208C1.99332 3.53683 0.66993 5.66074 0.19429 8.03846C-0.28135 10.4162 0.123166 12.8857 1.33255 14.9875L1.33588 14.993C1.41699 15.1341 1.4581 15.2052 1.47699 15.273C1.49477 15.3363 1.49921 15.393 1.49477 15.4597C1.48198 15.559 1.45582 15.6562 1.41699 15.7486L0.563658 18.3119L0.562547 18.3152C0.382548 18.8563 0.292548 19.1263 0.355881 19.3063C0.411436 19.4641 0.536992 19.5875 0.693658 19.6441C0.873658 19.7075 1.14255 19.6186 1.68143 19.4386L1.6881 19.4363L4.25032 18.5819C4.39587 18.533 4.47032 18.5086 4.54143 18.5041C4.6039 18.4999 4.66664 18.5063 4.72698 18.523C4.82555 18.5597 4.91981 18.607 5.0081 18.6641L5.01254 18.6675Z" fill="black"/>
<path d="M6.62652 10C6.62652 10.6137 6.12906 11.1111 5.51541 11.1111C4.90176 11.1111 4.4043 10.6137 4.4043 10C4.4043 9.38638 4.90176 8.88892 5.51541 8.88892C6.12906 8.88892 6.62652 9.38638 6.62652 10Z" fill="#92F189"/>
<path d="M11.0709 10C11.0709 10.6137 10.5734 11.1111 9.95974 11.1111C9.34609 11.1111 8.84863 10.6137 8.84863 10C8.84863 9.38638 9.34609 8.88892 9.95974 8.88892C10.5734 8.88892 11.0709 9.38638 11.0709 10Z" fill="#92F189"/>
<path d="M15.5162 10C15.5162 10.6137 15.0187 11.1111 14.4051 11.1111C13.7914 11.1111 13.2939 10.6137 13.2939 10C13.2939 9.38638 13.7914 8.88892 14.4051 8.88892C15.0187 8.88892 15.5162 9.38638 15.5162 10Z" fill="#92F189"/>
</svg>
