<svg width="90" height="94" viewBox="0 0 90 94" fill="none" xmlns="http://www.w3.org/2000/svg">
<path d="M60.5193 41.4683C60.4399 37.6174 60.5683 33.766 60.5115 29.9151C60.3903 21.5292 60.2709 13.1427 60.1533 4.75553C60.1317 3.18459 59.9725 1.3515 58.6539 0.498407C57.8547 -0.019033 56.8375 -0.016583 55.8859 0.00840703C49.7947 0.168147 43.7202 -0.0964531 37.6363 0.245077C35.2843 0.376887 33.4267 1.1163 33.3405 3.71967C33.166 8.97982 33.4434 43.0392 33.5855 45.8935C33.6345 46.9186 33.3032 51.1365 34.2318 52.1312C34.8017 52.7412 41.007 52.3546 41.3897 52.2213C42.0502 51.9915 43.9495 47.8157 45.8458 45.9297C44.1175 46.0214 37.4869 46.5177 37.1238 45.671C36.7607 44.8243 36.6789 8.45013 36.4868 5.82569C43.3092 5.94525 50.132 5.88743 56.9551 5.65223C57.2603 18.9116 56.7297 29.7509 56.9756 38.3063C57.0246 40.059 57.5504 43.2734 56.5322 44.8062C55.9755 45.6441 54.8662 45.5902 53.8705 45.5818C53.0806 45.5769 49.5938 45.8484 49.4257 45.8092C49.9157 45.9234 50.072 46.5373 50.0627 47.0376C50.0382 48.6924 49.2562 50.2261 48.581 51.7367C48.1958 52.5986 48.7877 52.5384 49.46 52.5344C50.1323 52.5305 55.1058 52.4477 56.9114 52.26C58.4035 52.1052 59.5687 52.3208 60.0906 50.7763C61.0142 48.0456 60.5781 44.3294 60.5193 41.4683Z" fill="#3373CC"/>
<path d="M47.1536 71.4666C44.1931 70.9246 40.6754 71.1887 37.9686 72.6715C40.0937 69.3395 42.0155 65.8605 43.8976 62.3903C45.8351 58.8202 47.8235 55.2118 49.2704 51.4143C49.8673 49.8463 50.835 47.7555 50.1034 46.0895C49.4885 44.6851 47.8607 44.4617 46.6039 45.1286C45.3862 45.7754 44.5023 47.0435 43.7129 48.145C42.0315 50.6044 40.4883 53.1553 39.0902 55.7861C38.5419 54.0412 36.2938 53.1038 34.9531 54.3719C34.2887 52.6515 32.3017 51.5618 30.6779 52.5736C30.5422 51.7051 30.1163 50.9082 29.4695 50.3128C28.614 49.6243 27.4307 49.689 26.4482 50.0398C24.6283 50.6906 21.9676 52.9573 20.6128 54.3063C17.189 57.706 14.7079 61.9373 13.4127 66.5852C12.7865 68.8799 12.4469 71.4524 13.1334 73.7652C12.514 74.5418 11.9523 75.3628 11.4527 76.2215C10.8063 75.9243 10.1529 75.6454 9.49274 75.3851C6.71199 79.1899 3.98955 83.0389 1.42342 86.9917C0.235167 88.8214 -1.10155 90.8867 1.48271 92.2479C3.91311 93.5278 26.1371 93.2946 27.0989 91.974C27.2785 91.7253 27.3968 91.4376 27.4439 91.1344C27.4911 90.8312 27.4659 90.5212 27.3704 90.2296C27.1073 89.4089 24.8263 86.4924 24.2187 85.7956C24.7306 85.164 25.1646 84.473 25.5113 83.7376C25.5789 83.5681 25.3526 83.4172 25.21 83.5064C24.5323 83.9302 23.761 85.3159 23.761 85.3159C23.761 85.3159 16.4336 78.5951 11.8653 76.4165C12.4083 75.8069 12.9146 75.1655 13.3814 74.4957C13.4696 74.7118 13.5661 74.925 13.6754 75.1327C13.704 75.1796 13.7486 75.2147 13.8008 75.2316C13.8531 75.2485 13.9098 75.2461 13.9604 75.2248C14.0111 75.2035 14.0525 75.1648 14.077 75.1156C14.1016 75.0665 14.1077 75.0101 14.0943 74.9568C12.5949 70.5606 13.9473 65.8164 15.9794 61.8096C17.8964 58.0165 20.6728 54.7235 24.0874 52.1929C25.1036 51.4417 26.2591 50.5788 27.5571 50.4529C29.1084 50.3025 30.0355 51.7637 30.0703 53.1969C30.0724 53.2629 30.0935 53.3269 30.131 53.3812C30.1685 53.4354 30.2209 53.4778 30.2819 53.503C30.3429 53.5282 30.4099 53.5354 30.4748 53.5235C30.5398 53.5116 30.5999 53.4812 30.648 53.436C31.9244 52.2248 34.0819 52.9093 34.4798 55.179C34.4994 55.2415 34.5365 55.2972 34.5867 55.3393C34.6369 55.3814 34.6982 55.4083 34.7632 55.4167C34.8282 55.4251 34.8942 55.4147 34.9535 55.3867C35.0128 55.3587 35.0628 55.3144 35.0977 55.2588C35.3034 54.9107 35.6279 54.6485 36.0115 54.5205C36.3951 54.3925 36.812 54.4072 37.1856 54.5621C38.3905 55.0521 38.5228 56.3682 38.7046 56.527C38.0984 57.7001 37.5567 58.9055 37.0822 60.1378C37.0057 60.3382 37.3321 60.4739 37.4286 60.2848C38.8423 57.5079 44.1597 47.2669 46.8543 45.7597C47.6956 45.2888 48.8559 45.2423 49.4023 46.1718C49.9084 47.0342 49.6473 48.0798 49.3856 48.977C47.4746 55.5372 40.7758 66.4985 36.9857 73.0096C36.9156 73.1296 36.8387 73.7882 37.681 73.3599C40.3196 72.0149 46.5054 71.1422 49.2136 72.914C49.8599 73.3369 50.493 74.4036 49.5032 74.5942C47.9249 74.899 42.3492 76.3661 39.7586 77.2834C37.2277 78.1801 35.009 79.5173 32.6898 80.8398C30.1443 82.2916 26.8887 83.5568 24.1266 81.8972C24.0493 81.8517 23.957 81.8388 23.8702 81.8613C23.7834 81.8838 23.709 81.9399 23.6635 82.0172C23.6181 82.0946 23.6051 82.1868 23.6277 82.2736C23.6502 82.3605 23.7063 82.4348 23.7836 82.4803C26.2615 83.9655 29.2613 83.3329 31.7123 82.1285C33.1269 81.4336 34.398 80.4791 35.8126 79.7872C42.6795 76.4322 46.9493 76.2627 49.3753 75.3817C50.3617 75.0235 51.1138 74.1371 50.4264 73.1154C49.7389 72.0938 48.2909 71.6753 47.1536 71.4666Z" fill="#191919"/>
<path d="M62.1457 22.6807C62.9498 25.8167 62.4397 28.8576 63.9748 31.8207C64.9612 33.7258 66.4998 35.3109 67.0222 37.4454C67.4795 39.5617 67.1691 41.7717 66.1465 43.6801C66.1148 43.7343 66.1059 43.7989 66.1218 43.8596C66.1377 43.9204 66.1771 43.9723 66.2313 44.004C66.2855 44.0357 66.3501 44.0446 66.4108 44.0287C66.4715 44.0128 66.5235 43.9735 66.5552 43.9193C66.7561 43.6406 66.935 43.3467 67.0903 43.0402C67.4333 43.467 69.3751 45.3011 69.9347 45.8445C70.0959 46.0008 70.3238 45.7656 70.1797 45.5995C69.6672 45.0036 67.8527 42.8163 67.3642 42.4326C67.8897 41.0481 68.0498 39.5516 67.8292 38.0873C67.4862 35.7843 66.097 34.0806 64.9348 32.147C62.4916 28.08 64.1679 22.5224 61.2779 19.4653C61.0329 19.2076 60.5747 19.5471 60.78 19.8529C61.3979 20.7079 61.8602 21.6652 62.1457 22.6807Z" fill="#191919"/>
<path d="M60.8616 56.6166C61.1625 56.8126 61.5374 56.3442 61.2497 56.1129C60.5187 55.5298 59.7509 54.9943 58.9511 54.5096C59.5723 54.334 60.138 54.002 60.5941 53.5453C60.7578 53.3434 60.6113 52.9926 60.3212 53.0788C59.5862 53.2969 58.9457 53.807 58.1985 54.0456C57.0122 54.4042 55.7663 54.523 54.5336 54.3951C53.3009 54.2672 52.106 53.8952 51.0185 53.3008C50.8897 53.2322 50.7147 53.4184 50.848 53.5233C52.2359 54.5804 53.9384 55.1412 55.6828 55.1158C56.5929 55.0456 57.4962 54.9052 58.3847 54.6958C58.3847 54.6958 59.9845 56.0507 60.8616 56.6166Z" fill="#191919"/>
<path d="M88.5834 58.5541C86.4685 54.738 83.3462 51.2752 80.2044 48.2817C79.7286 47.8285 75.2926 43.2509 75.0657 43.4469C69.0189 48.6782 63.7403 54.7363 59.3857 61.4422C58.3396 63.0538 58.44 63.7403 59.5357 65.1137C62.6862 69.0625 66.14 72.7593 69.8658 76.1706C72.4996 78.5829 76.4372 82.6185 80.2945 82.2338C82.7857 81.9854 84.9897 80.3478 86.4004 78.2805C87.7989 76.2313 88.5848 73.7632 89.1503 71.3382C90.0862 67.3285 90.6585 62.2987 88.5834 58.5541ZM67.8343 65.7375C67.1659 65.8752 64.8943 65.7463 64.5778 63.7373C64.525 63.2242 64.6372 62.7077 64.898 62.2627C65.1588 61.8177 65.5547 61.4675 66.0282 61.2628C66.9959 60.8096 67.9666 61.0879 68.8212 61.766C69.5821 62.3761 70.6582 65.1534 67.8343 65.7375Z" fill="#191919"/>
</svg>
